<?xml version="1.0" encoding="UTF-8" standalone="no"?>
<!-- Created with Inkscape (http://www.inkscape.org/) -->
<svg xmlns="http://www.w3.org/2000/svg" id="bitmap:320-24" height="60" width="320" version="1.0" xmlns:xlink="http://www.w3.org/1999/xlink">
 <defs id="defs9903">
  <radialGradient id="radialGradient6201" gradientUnits="userSpaceOnUse" cy="2.0625" cx="11.156" gradientTransform="matrix(1,0,0,0.6206897,0,0.7823276)" r="0.90625">
   <stop id="stop7584" stop-color="#FFF" offset="0"/>
   <stop id="stop7586" stop-color="#FFF" stop-opacity="0" offset="1"/>
  </radialGradient>
  <linearGradient id="linearGradient6195" x1="20.723" gradientUnits="userSpaceOnUse" x2="22.697" gradientTransform="matrix(1.1304264,-0.235981,0.915432,0.6373638,-15.020125,7.538008)" y1="16.83" y2="15.894">
   <stop id="stop7569" stop-color="#000" offset="0"/>
   <stop id="stop7571" stop-color="#000" stop-opacity="0" offset="1"/>
  </linearGradient>
  <radialGradient id="radialGradient6191" gradientUnits="userSpaceOnUse" cy="5.053" cx="24.091" gradientTransform="matrix(1.6372128,-0.3629926,2.1525103,1.8500902,-36.53018,2.08716)" r="4.4922">
   <stop id="stop7551" stop-color="#FFF" offset="0"/>
   <stop id="stop7553" stop-color="#eeeeec" offset="1"/>
  </radialGradient>
  <radialGradient id="radialGradient6183" gradientUnits="userSpaceOnUse" cy="5.3415" cx="23.681" gradientTransform="matrix(-1.5922835,-0.1907818,-1.1802872,-1.4345654,57.810344,15.557175)" r="5.0552">
   <stop id="stop7493" stop-color="#eeeeec" offset="0"/>
   <stop id="stop7495" stop-color="#babdb6" offset="1"/>
  </radialGradient>
  <radialGradient id="radialGradient6179" gradientUnits="userSpaceOnUse" cy="14.729" cx="17.813" gradientTransform="matrix(1,0,0,0.6315789,0,2.947369)" r="9.5">
   <stop id="stop7559" stop-color="#eeeeec" offset="0"/>
   <stop id="stop7561" stop-color="#eeeeec" offset="1"/>
  </radialGradient>
  <radialGradient id="radialGradient7612" gradientUnits="userSpaceOnUse" cy="46" cx="20" gradientTransform="matrix(1,0,0,0.25,0,34.5)" r="8">
   <stop id="stop7606" stop-color="#000" offset="0"/>
   <stop id="stop7608" stop-color="#000" stop-opacity="0" offset="1"/>
  </radialGradient>
  <linearGradient id="linearGradient7433" x1="33.12" gradientUnits="userSpaceOnUse" x2="22.328" gradientTransform="matrix(0.727273,0,0,0.999999,12.27273,-34.84375)" y1="20.5" y2="20.5">
   <stop id="stop4544" stop-color="#888a85" offset="0"/>
   <stop id="stop4546" stop-color="#888a85" stop-opacity="0" offset="1"/>
  </linearGradient>
  <linearGradient id="linearGradient7431" x1="15.406" gradientUnits="userSpaceOnUse" x2="16.865" gradientTransform="matrix(0,0.673693,-0.676136,0,37.10227,14.81577)" y1="37.344" y2="24.25">
   <stop id="stop2818" stop-color="#FFF" offset="0"/>
   <stop id="stop2820" stop-color="#FFF" stop-opacity="0" offset="1"/>
  </linearGradient>
  <linearGradient id="linearGradient7427" x1="17" gradientUnits="userSpaceOnUse" x2="17" gradientTransform="matrix(0,0.625,-0.676136,0,37.10227,15.875)" y1="45.248" y2="30.759">
   <stop id="stop6960" stop-color="#000" offset="0"/>
   <stop id="stop6962" stop-color="#888a85" stop-opacity="0" offset="1"/>
  </linearGradient>
  <linearGradient id="linearGradient7425" x1="13.819" gradientUnits="userSpaceOnUse" x2="36.228" gradientTransform="matrix(0,0.673693,-0.676136,0,37.10227,14.81577)" y1="30.03" y2="45.195">
   <stop id="stop6828" stop-color="#babdb6" offset="0"/>
   <stop id="stop6830" stop-color="#eeeeec" offset="1"/>
  </linearGradient>
  <linearGradient id="linearGradient6789" x1="6.7189" gradientUnits="userSpaceOnUse" x2="44.344" gradientTransform="matrix(0,0.673693,-0.676136,0,37.10227,14.81577)" y1="22.936" y2="42.605">
   <stop id="stop7616" stop-color="#babdb6" offset="0"/>
   <stop id="stop7628" stop-color="#FFF" offset="0.48735"/>
   <stop id="stop7618" stop-color="#d3d7cf" offset="1"/>
  </linearGradient>
  <linearGradient id="linearGradient10083" gradientUnits="userSpaceOnUse" x2="320" y2="58.5" y1="58.5">
   <stop id="stop10079" stop-color="#f57900" offset="0"/>
   <stop id="stop10095" stop-color="#fcaf3e" offset="0.5"/>
   <stop id="stop10081" stop-color="#ce5c00" offset="1"/>
  </linearGradient>
  <radialGradient id="radialGradient10097" gradientUnits="userSpaceOnUse" cy="-117.1" cx="3.5" gradientTransform="matrix(0,0.6565365,-1.840261,-1.042065e-4,-211.99016,0.1899138)" r="160">
   <stop id="stop10091" stop-color="#729fcf" offset="0"/>
   <stop id="stop10093" stop-color="#204a87" offset="1"/>
  </radialGradient>
 </defs>
 <rect id="rect10085" height="58.414" width="320" y="-3.1658E-8" x="0" fill="url(#radialGradient10097)"/>
 <rect id="rect10075" height="3" width="320" y="57" x="0" fill="url(#linearGradient10083)"/>
 <g id="g10778" fill-opacity="0.18823529" fill-rule="evenodd" transform="matrix(-1.2234375,0,0,-1.2234375,320,71.15)" fill="#FFF">
  <g id="g10765">
   <path id="path10751" d="M0,28v21s106-16,160-16v-2c-53.33,0-160-3-160-3z"/>
   <path id="path10744" d="M0,29v14s106-10,160-10v-2c-53,0-160-2-160-2z"/>
   <path id="path10749" d="m0,30v7s106-4,160-4v-2c-53,0-160-1-160-1z"/>
  </g>
  <g id="g10770" transform="matrix(-1,0,0,-1,320,64)">
   <path id="path10772" d="M0,28v21s106-16,160-16v-2c-53.33,0-160-3-160-3z"/>
   <path id="path10774" d="M0,29v14s106-10,160-10v-2c-53,0-160-2-160-2z"/>
   <path id="path10776" d="m0,30v7s106-4,160-4v-2c-53,0-160-1-160-1z"/>
  </g>
 </g>
 <g id="layer1" transform="translate(1.428271,4.3656115)">
  <path id="path7600" opacity="0.16289595" style="marker-end:none;marker-start:none;enable-background:accumulate;marker-mid:none;" d="m28,46a8,2,0,1,1,-16,0,8,2,0,1,1,16,0z" fill-rule="evenodd" transform="matrix(1.1875,0,0,1.75,9.75,-37.5)" fill="url(#radialGradient7612)"/>
  <path id="path7602" opacity="0.16289595" style="marker-end:none;marker-start:none;enable-background:accumulate;marker-mid:none;" d="m28,46a8,2,0,1,1,-16,0,8,2,0,1,1,16,0z" fill-rule="evenodd" transform="matrix(1.25,0,0,1.75,-8,-37.5)" fill="url(#radialGradient7612)"/>
  <path id="use6159" stroke-linejoin="miter" d="M24.281,13.418c-2.496,0.521-8.007-1.484-12.303-4.4741-4.2949-2.9905-5.7552-5.8404-3.2592-6.3615" stroke-dashoffset="0.69999992" stroke="#babdb6" stroke-linecap="round" stroke-miterlimit="4" stroke-width="3" fill="none"/>
  <path id="use6161" stroke-linejoin="miter" d="m21.022,7.0561c4.295,2.9909,5.755,5.8409,3.259,6.3619s-8.007-1.484-12.303-4.4741c-4.2949-2.9905-5.7552-5.8404-3.2592-6.3615,2.4962-0.521,8.0072,1.4832,12.303,4.4737z" stroke-dashoffset="0.69999992" stroke="url(#radialGradient6179)" stroke-linecap="round" stroke-miterlimit="4" stroke-width="1" fill="none"/>
  <path id="use6173" style="marker-end:none;marker-start:none;enable-background:accumulate;marker-mid:none;" d="m12.062,2.0625a0.90625,0.5625,0,1,1,-1.812,0,0.90625,0.5625,0,1,1,1.812,0z" fill-rule="evenodd" transform="matrix(1.1034483,0,0,1.7777778,2.636801,7.009256)" fill="url(#radialGradient6201)"/>
  <g id="g7413" transform="matrix(1.222459,0.3275569,-0.3275569,1.222459,15.102844,-16.514282)">
   <path id="path7415" stroke-linejoin="miter" style="stroke-dasharray:none;" d="m13.438,16.5c-3.9194,0-7.0942,3.158-7.0942,7.062,0,2.819,1.6046,5.301,4.0002,6.438v1.5l1.5,1.5-1.5,1.5v1l2,1v1l-2,1v1l1.5,1.5-1.5,1.5v1l2.5,2h2.5l1-1.5v-14c2.372-1.145,4-3.699,4-6.5,0-3.905-2.988-7-6.906-7zm-0.094,2c1.104,0,2,0.896,2,2s-0.896,2-2,2-2-0.896-2-2,0.896-2,2-2z" fill-rule="evenodd" stroke="#888a85" stroke-linecap="round" stroke-miterlimit="4" stroke-width="0.79014969" fill="url(#linearGradient7425)"/>
   <path id="path7417" opacity="0.3" d="M18.847,24h-10.819c0,2.76,2.4236,5,5.4096,5,2.985,0,5.409-2.24,5.409-5z" fill-rule="evenodd" fill="url(#linearGradient7427)"/>
   <path id="path7419" stroke-linejoin="miter" style="stroke-dasharray:none;" d="m13.438,17.281c-3.5022,0-6.313,2.798-6.313,6.281,0,2.524,1.4414,4.744,3.563,5.75,0.263,0.129,0.433,0.395,0.437,0.688v1.156l1.281,1.282c0.154,0.146,0.241,0.349,0.241,0.562s-0.087,0.416-0.241,0.562l-1.281,1.282v0.187l1.563,0.781c0.263,0.129,0.433,0.395,0.437,0.688v1c-0.004,0.293-0.174,0.559-0.437,0.688l-1.563,0.781v0.187l1.281,1.282c0.154,0.146,0.241,0.349,0.241,0.562s-0.087,0.416-0.241,0.562l-1.281,1.282v0.281l2,1.594h1.781l0.656-0.969v-13.75c0.005-0.293,0.174-0.559,0.438-0.688,2.091-1.009,3.562-3.311,3.562-5.812,0-3.509-2.615-6.219-6.124-6.219zm-0.094,0.438c1.524,0,2.781,1.257,2.781,2.781s-1.257,2.781-2.781,2.781-2.782-1.257-2.782-2.781,1.258-2.781,2.782-2.781z" xlink:href="#path1884" stroke="#FFF" stroke-linecap="round" stroke-miterlimit="4" stroke-width="0.79014969" fill="none"/>
   <path id="path7421" opacity="0.6" d="m13.406,17.625c-0.218,0.004-0.466,0.034-0.687,0.063-0.933,0.119-1.776,0.46-2.531,0.937,0.173,0.635,0.424,1.158,0.718,1.625,0.126-1.319,1.242-2.344,2.594-2.344,1.436,0,2.594,1.158,2.594,2.594s-1.158,2.594-2.594,2.594c-0.077,0-0.147-0.021-0.219-0.032,1.06,1.271,2.022,2.945,2.281,6.094,2.267-0.909,3.876-2.925,3.876-5.594-0.086-2.601-1.542-4.611-4-5.624-0.681-0.226-1.364-0.326-2.032-0.313zm1.969,17.063c-0.279,2.585-0.855,5.742-1.813,9.687h1.157l0.656-1.313v-8.374z" fill-rule="evenodd" fill="url(#linearGradient7431)"/>
   <rect id="rect7423" opacity="0.61538" fill-rule="evenodd" transform="matrix(0,1,-1,0,0,0)" height="0.98129" width="16.312" y="-14.844" x="29" fill="url(#linearGradient7433)"/>
  </g>
  <path id="path7441" opacity="0.15" stroke-linejoin="miter" style="stroke-dasharray:none;" d="m25.688,8.875c-0.589,0.0368-1.183,0.1208-1.782,0.2812-4.79,1.2838-7.654,6.1958-6.375,10.969,0.923,3.445,3.7,5.957,7,6.563l0.188,0.75,0.531-1.938c3.275-0.623,6.114-3.2,7.031-6.625,1.018-3.799-0.444-7.588-3.5-9.625-0.98-0.3059-2.019-0.4422-3.093-0.375zm-0.844,1.5c0.168,0.01,0.331,0.049,0.5,0.094,1.075,0.288,1.807,1.228,1.875,2.281,0.129,0.207,0.246,0.439,0.312,0.688,0.362,1.349-0.431,2.732-1.781,3.093-1.35,0.362-2.732-0.431-3.094-1.781-0.042-0.159-0.082-0.311-0.094-0.469-0.004-0.007,0.005-0.024,0-0.031-0.359-0.575-0.501-1.294-0.312-2,0.316-1.181,1.419-1.945,2.594-1.875z" fill-rule="evenodd" stroke="#000" stroke-linecap="round" stroke-miterlimit="4" stroke-width="0.99999976" fill="#000"/>
  <g id="g6765" transform="matrix(1.222459,-0.3275569,0.3275569,1.222459,2.064799,-7.6041513)">
   <path id="path6767" stroke-linejoin="miter" style="stroke-dasharray:none;" d="m13.438,16.5c-3.9194,0-7.0942,3.158-7.0942,7.062,0,2.819,1.6046,5.301,4.0002,6.438v1.5l1.5,1.5-1.5,1.5v1l2,1v1l-2,1v1l1.5,1.5-1.5,1.5v1l2.5,2h2.5l1-1.5v-14c2.372-1.145,4-3.699,4-6.5,0-3.905-2.988-7-6.906-7zm-0.094,2c1.104,0,2,0.896,2,2s-0.896,2-2,2-2-0.896-2-2,0.896-2,2-2z" fill-rule="evenodd" stroke="#888a85" stroke-linecap="round" stroke-miterlimit="4" stroke-width="0.79014969" fill="url(#linearGradient6789)"/>
   <path id="path6769" opacity="0.3" d="M18.847,24h-10.819c0,2.76,2.4236,5,5.4096,5,2.985,0,5.409-2.24,5.409-5z" fill-rule="evenodd" fill="url(#linearGradient7427)"/>
   <path id="path6771" stroke-linejoin="miter" style="stroke-dasharray:none;" d="m13.438,17.281c-3.5022,0-6.313,2.798-6.313,6.281,0,2.524,1.4414,4.744,3.563,5.75,0.263,0.129,0.433,0.395,0.437,0.688v1.156l1.281,1.282c0.154,0.146,0.241,0.349,0.241,0.562s-0.087,0.416-0.241,0.562l-1.281,1.282v0.187l1.563,0.781c0.263,0.129,0.433,0.395,0.437,0.688v1c-0.004,0.293-0.174,0.559-0.437,0.688l-1.563,0.781v0.187l1.281,1.282c0.154,0.146,0.241,0.349,0.241,0.562s-0.087,0.416-0.241,0.562l-1.281,1.282v0.281l2,1.594h1.781l0.656-0.969v-13.75c0.005-0.293,0.174-0.559,0.438-0.688,2.091-1.009,3.562-3.311,3.562-5.812,0-3.509-2.615-6.219-6.124-6.219zm-0.094,0.438c1.524,0,2.781,1.257,2.781,2.781s-1.257,2.781-2.781,2.781-2.782-1.257-2.782-2.781,1.258-2.781,2.782-2.781z" xlink:href="#path1884" stroke="#FFF" stroke-linecap="round" stroke-miterlimit="4" stroke-width="0.79014969" fill="none"/>
   <path id="path6832" opacity="0.6" d="m13.406,17.625c-0.218,0.004-0.466,0.034-0.687,0.063-0.933,0.119-1.776,0.46-2.531,0.937,0.173,0.635,0.424,1.158,0.718,1.625,0.126-1.319,1.242-2.344,2.594-2.344,1.436,0,2.594,1.158,2.594,2.594s-1.158,2.594-2.594,2.594c-0.077,0-0.147-0.021-0.219-0.032,1.06,1.271,2.022,2.945,2.281,6.094,2.267-0.909,3.876-2.925,3.876-5.594-0.086-2.601-1.542-4.611-4-5.624-0.681-0.226-1.364-0.326-2.032-0.313zm1.969,17.063c-0.279,2.585-0.855,5.742-1.813,9.687h1.157l0.656-1.313v-8.374z" fill-rule="evenodd" fill="url(#linearGradient7431)"/>
   <rect id="rect6776" opacity="0.61538" fill-rule="evenodd" transform="matrix(0,1,-1,0,0,0)" height="0.98129" width="16.312" y="-14.844" x="29" fill="url(#linearGradient7433)"/>
  </g>
  <path id="use6163" stroke-linejoin="miter" d="M7.9739,5.1441c-1.5901-2.5941,0.939-3.42,5.6451-1.8436,4.707,1.5764,9.817,4.9612,11.407,7.5555,0.789,1.287,0.644,2.113-0.437,2.479" stroke-dashoffset="0.69999992" stroke="url(#radialGradient6183)" stroke-linecap="round" stroke-miterlimit="4" stroke-width="3" fill="none"/>
  <path id="use6165" style="marker-end:none;marker-start:none;enable-background:accumulate;marker-mid:none;" d="m12.062,2.0625a0.90625,0.5625,0,1,1,-1.812,0,0.90625,0.5625,0,1,1,1.812,0z" fill-rule="evenodd" transform="matrix(1.5911082,0,0,2.563452,-6.228703,-2.588246)" fill="url(#radialGradient6201)"/>
  <path id="use6167" stroke-linejoin="miter" d="M10.813,8.0821c-3.85-3.0352-4.4273-5.5354-1.2883-5.5807,3.1393-0.0453,8.8113,2.3812,12.662,5.4165,3.791,2.9891,4.422,5.4611,1.422,5.5771" stroke-dashoffset="0.69999992" stroke="url(#radialGradient6191)" stroke-linecap="round" stroke-miterlimit="4" stroke-width="1" fill="none"/>
  <path id="use6169" opacity="0.10407242" stroke-linejoin="miter" d="m22.186,7.9174c3.792,2.9886,4.423,5.4616,1.423,5.5776" stroke-dashoffset="0.69999992" stroke="url(#linearGradient6195)" stroke-linecap="round" stroke-miterlimit="4" stroke-width="1" fill="none"/>
  <path id="use6171" style="marker-end:none;marker-start:none;enable-background:accumulate;marker-mid:none;" d="m12.062,2.0625a0.90625,0.5625,0,1,1,-1.812,0,0.90625,0.5625,0,1,1,1.812,0z" fill-rule="evenodd" transform="matrix(1.1034483,0,0,1.7777778,-0.69986,-0.945696)" fill="#FFF"/>
 </g>
</svg>
