<?xml version="1.0" encoding="UTF-8" standalone="no"?>
<!-- Created with Inkscape (http://www.inkscape.org/) -->
<svg
   xmlns:dc="http://purl.org/dc/elements/1.1/"
   xmlns:cc="http://web.resource.org/cc/"
   xmlns:rdf="http://www.w3.org/1999/02/22-rdf-syntax-ns#"
   xmlns:svg="http://www.w3.org/2000/svg"
   xmlns="http://www.w3.org/2000/svg"
   xmlns:xlink="http://www.w3.org/1999/xlink"
   xmlns:sodipodi="http://sodipodi.sourceforge.net/DTD/sodipodi-0.dtd"
   xmlns:inkscape="http://www.inkscape.org/namespaces/inkscape"
   version="1.0"
   width="256"
   height="256"
   id="svg2160"
   sodipodi:version="0.32"
   inkscape:version="0.45.1"
   sodipodi:docname="wordpad5.svg"
   inkscape:output_extension="org.inkscape.output.svg.inkscape"
   sodipodi:docbase="/home/herve/wine/wine2/wine/programs/wordpad">
  <metadata
     id="metadata33">
    <rdf:RDF>
      <cc:Work
         rdf:about="">
        <dc:format>image/svg+xml</dc:format>
        <dc:type
           rdf:resource="http://purl.org/dc/dcmitype/StillImage" />
      </cc:Work>
    </rdf:RDF>
  </metadata>
  <sodipodi:namedview
     inkscape:window-height="720"
     inkscape:window-width="989"
     inkscape:pageshadow="2"
     inkscape:pageopacity="0.0"
     guidetolerance="10.0"
     gridtolerance="10.0"
     objecttolerance="10.0"
     borderopacity="1.0"
     bordercolor="#666666"
     pagecolor="#ffffff"
     id="base"
     inkscape:zoom="0.73828128"
     inkscape:cx="88.839125"
     inkscape:cy="177.78702"
     inkscape:window-x="81"
     inkscape:window-y="49"
     inkscape:current-layer="svg2160"
     showguides="true"
     inkscape:guide-bbox="true" />
  <defs
     id="defs2162">
    <linearGradient
       inkscape:collect="always"
       id="linearGradient5095">
      <stop
         style="stop-color:#fc5a00;stop-opacity:1;"
         offset="0"
         id="stop5097" />
      <stop
         style="stop-color:#fc5a00;stop-opacity:0;"
         offset="1"
         id="stop5099" />
    </linearGradient>
    <linearGradient
       inkscape:collect="always"
       id="linearGradient5077">
      <stop
         style="stop-color:#e1e9e9;stop-opacity:1;"
         offset="0"
         id="stop5079" />
      <stop
         style="stop-color:#e1e9e9;stop-opacity:0;"
         offset="1"
         id="stop5081" />
    </linearGradient>
    <linearGradient
       inkscape:collect="always"
       id="linearGradient4204">
      <stop
         style="stop-color:#d2c3ff;stop-opacity:1;"
         offset="0"
         id="stop4206" />
      <stop
         style="stop-color:#d2c3ff;stop-opacity:0;"
         offset="1"
         id="stop4208" />
    </linearGradient>
    <linearGradient
       inkscape:collect="always"
       id="linearGradient4194">
      <stop
         style="stop-color:#febd00;stop-opacity:1;"
         offset="0"
         id="stop4196" />
      <stop
         style="stop-color:#febd00;stop-opacity:0;"
         offset="1"
         id="stop4198" />
    </linearGradient>
    <marker
       inkscape:stockid="Arrow1Lstart"
       orient="auto"
       refY="0.0"
       refX="0.0"
       id="Arrow1Lstart"
       style="overflow:visible">
      <path
         id="path3982"
         d="M 0.0,0.0 L 5.0,-5.0 L -12.5,0.0 L 5.0,5.0 L 0.0,0.0 z "
         style="fill-rule:evenodd;stroke:#000000;stroke-width:1.0pt;marker-start:none"
         transform="scale(0.8) translate(12.5,0)" />
    </marker>
    <linearGradient
       inkscape:collect="always"
       id="linearGradient3634">
      <stop
         style="stop-color:#686367;stop-opacity:1;"
         offset="0"
         id="stop3636" />
      <stop
         style="stop-color:#686367;stop-opacity:0;"
         offset="1"
         id="stop3638" />
    </linearGradient>
    <linearGradient
       inkscape:collect="always"
       id="linearGradient3403">
      <stop
         style="stop-color:#fc6f00;stop-opacity:1;"
         offset="0"
         id="stop3405" />
      <stop
         style="stop-color:#fc6f00;stop-opacity:0;"
         offset="1"
         id="stop3407" />
    </linearGradient>
    <linearGradient
       inkscape:collect="always"
       id="linearGradient3613">
      <stop
         style="stop-color:#2b83ff;stop-opacity:1;"
         offset="0"
         id="stop3615" />
      <stop
         style="stop-color:#2b83ff;stop-opacity:0;"
         offset="1"
         id="stop3617" />
    </linearGradient>
    <linearGradient
       inkscape:collect="always"
       id="linearGradient3481">
      <stop
         style="stop-color:#2b83ff;stop-opacity:1;"
         offset="0"
         id="stop3483" />
      <stop
         style="stop-color:#2b83ff;stop-opacity:0;"
         offset="1"
         id="stop3485" />
    </linearGradient>
    <linearGradient
       inkscape:collect="always"
       xlink:href="#linearGradient5244"
       id="linearGradient2209"
       gradientUnits="userSpaceOnUse"
       gradientTransform="matrix(9.5418858,0,0,9.5735368,-0.2445693,-41.448847)"
       x1="9.3304758"
       y1="15.300295"
       x2="17.996317"
       y2="15.300295" />
    <linearGradient
       inkscape:collect="always"
       id="linearGradient3551">
      <stop
         style="stop-color:#000000;stop-opacity:1;"
         offset="0"
         id="stop3553" />
      <stop
         style="stop-color:#000000;stop-opacity:0;"
         offset="1"
         id="stop3555" />
    </linearGradient>
    <linearGradient
       inkscape:collect="always"
       id="linearGradient3541">
      <stop
         style="stop-color:#ffffff;stop-opacity:1;"
         offset="0"
         id="stop3543" />
      <stop
         style="stop-color:#ffffff;stop-opacity:0;"
         offset="1"
         id="stop3545" />
    </linearGradient>
    <linearGradient
       inkscape:collect="always"
       id="linearGradient3513">
      <stop
         style="stop-color:#ffffff;stop-opacity:1;"
         offset="0"
         id="stop3515" />
      <stop
         style="stop-color:#ffffff;stop-opacity:0;"
         offset="1"
         id="stop3517" />
    </linearGradient>
    <linearGradient
       id="linearGradient5244">
      <stop
         style="stop-color:#550000;stop-opacity:1"
         offset="0"
         id="stop5246" />
      <stop
         style="stop-color:#550000;stop-opacity:0"
         offset="1"
         id="stop5248" />
    </linearGradient>
    <linearGradient
       id="linearGradient3312">
      <stop
         style="stop-color:#786721;stop-opacity:1"
         offset="0"
         id="stop3314" />
      <stop
         style="stop-color:#a0892c;stop-opacity:0"
         offset="1"
         id="stop3316" />
    </linearGradient>
    <linearGradient
       id="linearGradient3256">
      <stop
         style="stop-color:#806600;stop-opacity:1"
         offset="0"
         id="stop3258" />
      <stop
         style="stop-color:#806600;stop-opacity:0.49803922"
         offset="0.5"
         id="stop3274" />
      <stop
         style="stop-color:#806600;stop-opacity:0.24705882"
         offset="0.75"
         id="stop3276" />
      <stop
         style="stop-color:#806600;stop-opacity:0"
         offset="1"
         id="stop3260" />
    </linearGradient>
    <linearGradient
       id="linearGradient3224">
      <stop
         style="stop-color:#fe8dc0;stop-opacity:0.12156863"
         offset="0"
         id="stop3236" />
      <stop
         style="stop-color:#005e5f;stop-opacity:0"
         offset="1"
         id="stop3228" />
    </linearGradient>
    <linearGradient
       x1="15.591757"
       y1="16"
       x2="29.09375"
       y2="16"
       id="linearGradient3325"
       xlink:href="#linearGradient3312"
       gradientUnits="userSpaceOnUse"
       gradientTransform="matrix(-5.4581085,-7.8526237,-7.8266621,5.4762133,340.09049,166.46714)" />
    <linearGradient
       x1="15.591757"
       y1="16"
       x2="29.09375"
       y2="16"
       id="linearGradient3329"
       xlink:href="#linearGradient3312"
       gradientUnits="userSpaceOnUse"
       gradientTransform="matrix(5.4581085,7.8526237,-7.8266621,5.4762133,163.93143,-86.89372)" />
    <linearGradient
       x1="9.3304758"
       y1="15.300295"
       x2="17.996317"
       y2="15.300295"
       id="linearGradient5250"
       xlink:href="#linearGradient5244"
       gradientUnits="userSpaceOnUse"
       gradientTransform="matrix(9.5418858,0,0,9.5735368,-0.2445693,-41.448847)" />
    <radialGradient
       inkscape:collect="always"
       xlink:href="#linearGradient3513"
       id="radialGradient3519"
       cx="107.27071"
       cy="65.402931"
       fx="107.27071"
       fy="65.402931"
       r="19.950892"
       gradientTransform="matrix(1,0,0,0.878577,-8.1410809,6.0258725)"
       gradientUnits="userSpaceOnUse" />
    <radialGradient
       inkscape:collect="always"
       xlink:href="#linearGradient3541"
       id="radialGradient3547"
       cx="173.08876"
       cy="149.6644"
       fx="173.08876"
       fy="149.6644"
       r="71.726373"
       gradientTransform="matrix(1,0,0,0.6877549,0,46.731982)"
       gradientUnits="userSpaceOnUse" />
    <linearGradient
       inkscape:collect="always"
       xlink:href="#linearGradient3551"
       id="linearGradient3557"
       x1="123.67507"
       y1="184.43211"
       x2="113.7653"
       y2="222.26419"
       gradientUnits="userSpaceOnUse" />
    <radialGradient
       inkscape:collect="always"
       xlink:href="#linearGradient3513"
       id="radialGradient3577"
       gradientUnits="userSpaceOnUse"
       gradientTransform="matrix(1,0,0,0.878577,-8.1410809,6.0258725)"
       cx="107.27071"
       cy="65.402931"
       fx="107.27071"
       fy="65.402931"
       r="19.950892" />
    <radialGradient
       inkscape:collect="always"
       xlink:href="#linearGradient3541"
       id="radialGradient3579"
       gradientUnits="userSpaceOnUse"
       gradientTransform="matrix(1,0,0,0.6877549,0,46.731982)"
       cx="173.08876"
       cy="149.6644"
       fx="173.08876"
       fy="149.6644"
       r="71.726373" />
    <linearGradient
       inkscape:collect="always"
       xlink:href="#linearGradient3551"
       id="linearGradient3581"
       gradientUnits="userSpaceOnUse"
       x1="123.67507"
       y1="184.43211"
       x2="113.7653"
       y2="222.26419" />
    <linearGradient
       inkscape:collect="always"
       xlink:href="#linearGradient5244"
       id="linearGradient3749"
       gradientUnits="userSpaceOnUse"
       gradientTransform="matrix(9.5418858,0,0,9.5735368,-0.2445693,-41.448847)"
       x1="9.3304758"
       y1="15.300295"
       x2="17.996317"
       y2="15.300295" />
    <linearGradient
       inkscape:collect="always"
       xlink:href="#linearGradient5244"
       id="linearGradient3759"
       gradientUnits="userSpaceOnUse"
       gradientTransform="matrix(6.9183911,-0.6804129,0.6420938,7.3799858,60.662073,-20.81452)"
       x1="9.3304758"
       y1="15.300295"
       x2="17.996317"
       y2="15.300295" />
    <linearGradient
       inkscape:collect="always"
       xlink:href="#linearGradient5244"
       id="linearGradient3781"
       gradientUnits="userSpaceOnUse"
       gradientTransform="matrix(7.6981053,0,0,7.5253696,-204.77612,-47.220728)"
       x1="9.3304758"
       y1="15.300295"
       x2="17.996317"
       y2="15.300295" />
    <linearGradient
       inkscape:collect="always"
       xlink:href="#linearGradient5244"
       id="linearGradient3796"
       gradientUnits="userSpaceOnUse"
       gradientTransform="matrix(7.6981053,0,0,7.5253696,-204.77612,-47.220728)"
       x1="9.3304758"
       y1="15.300295"
       x2="17.996317"
       y2="15.300295" />
    <linearGradient
       inkscape:collect="always"
       xlink:href="#linearGradient3551"
       id="linearGradient3799"
       gradientUnits="userSpaceOnUse"
       x1="123.67507"
       y1="184.43211"
       x2="113.7653"
       y2="222.26419"
       gradientTransform="translate(-31.127663,12.451065)" />
    <radialGradient
       inkscape:collect="always"
       xlink:href="#linearGradient3541"
       id="radialGradient3802"
       gradientUnits="userSpaceOnUse"
       gradientTransform="matrix(1,0,0,0.6877549,-31.127663,59.183047)"
       cx="173.08876"
       cy="149.6644"
       fx="173.08876"
       fy="149.6644"
       r="71.726373" />
    <radialGradient
       inkscape:collect="always"
       xlink:href="#linearGradient3513"
       id="radialGradient3805"
       gradientUnits="userSpaceOnUse"
       gradientTransform="matrix(1,0,0,0.878577,-36.634864,17.519163)"
       cx="107.27071"
       cy="65.402931"
       fx="107.27071"
       fy="65.402931"
       r="19.950892" />
    <radialGradient
       inkscape:collect="always"
       xlink:href="#linearGradient3541"
       id="radialGradient3828"
       gradientUnits="userSpaceOnUse"
       gradientTransform="matrix(1,0,0,0.6877549,-31.127663,59.183047)"
       cx="173.08876"
       cy="149.6644"
       fx="173.08876"
       fy="149.6644"
       r="71.726373" />
    <linearGradient
       inkscape:collect="always"
       xlink:href="#linearGradient3551"
       id="linearGradient3830"
       gradientUnits="userSpaceOnUse"
       gradientTransform="translate(-31.127663,12.451065)"
       x1="123.67507"
       y1="184.43211"
       x2="113.7653"
       y2="222.26419" />
    <radialGradient
       inkscape:collect="always"
       xlink:href="#linearGradient3513"
       id="radialGradient3832"
       gradientUnits="userSpaceOnUse"
       gradientTransform="matrix(1,0,0,0.878577,-36.634864,17.519163)"
       cx="107.27071"
       cy="65.402931"
       fx="107.27071"
       fy="65.402931"
       r="19.950892" />
    <linearGradient
       inkscape:collect="always"
       xlink:href="#linearGradient5244"
       id="linearGradient3841"
       gradientUnits="userSpaceOnUse"
       gradientTransform="matrix(9.5418858,0,0,9.5735368,-0.2445693,-41.448847)"
       x1="9.3304758"
       y1="15.300295"
       x2="17.996317"
       y2="15.300295" />
    <linearGradient
       inkscape:collect="always"
       xlink:href="#linearGradient3481"
       id="linearGradient3487"
       x1="14.05498"
       y1="119.9116"
       x2="219.64191"
       y2="119.9116"
       gradientUnits="userSpaceOnUse" />
    <linearGradient
       inkscape:collect="always"
       xlink:href="#linearGradient3481"
       id="linearGradient3489"
       gradientUnits="userSpaceOnUse"
       x1="14.05498"
       y1="119.9116"
       x2="219.64191"
       y2="119.9116" />
    <linearGradient
       inkscape:collect="always"
       xlink:href="#linearGradient3481"
       id="linearGradient3491"
       gradientUnits="userSpaceOnUse"
       x1="14.05498"
       y1="119.9116"
       x2="219.64191"
       y2="119.9116" />
    <linearGradient
       inkscape:collect="always"
       xlink:href="#linearGradient3481"
       id="linearGradient3493"
       gradientUnits="userSpaceOnUse"
       x1="14.05498"
       y1="119.9116"
       x2="219.64191"
       y2="119.9116" />
    <linearGradient
       inkscape:collect="always"
       xlink:href="#linearGradient3481"
       id="linearGradient3495"
       gradientUnits="userSpaceOnUse"
       x1="14.05498"
       y1="119.9116"
       x2="219.64191"
       y2="119.9116" />
    <linearGradient
       inkscape:collect="always"
       xlink:href="#linearGradient3481"
       id="linearGradient3497"
       gradientUnits="userSpaceOnUse"
       x1="11.181658"
       y1="232.92896"
       x2="242.62849"
       y2="-19.923439" />
    <linearGradient
       inkscape:collect="always"
       xlink:href="#linearGradient3481"
       id="linearGradient3499"
       gradientUnits="userSpaceOnUse"
       x1="14.05498"
       y1="119.9116"
       x2="219.64191"
       y2="119.9116" />
    <linearGradient
       inkscape:collect="always"
       xlink:href="#linearGradient3481"
       id="linearGradient3501"
       gradientUnits="userSpaceOnUse"
       x1="14.05498"
       y1="119.9116"
       x2="219.64191"
       y2="119.9116" />
    <linearGradient
       inkscape:collect="always"
       xlink:href="#linearGradient3481"
       id="linearGradient3503"
       gradientUnits="userSpaceOnUse"
       x1="14.05498"
       y1="119.9116"
       x2="219.64191"
       y2="119.9116" />
    <linearGradient
       inkscape:collect="always"
       xlink:href="#linearGradient3481"
       id="linearGradient3505"
       gradientUnits="userSpaceOnUse"
       x1="14.05498"
       y1="119.9116"
       x2="219.64191"
       y2="119.9116" />
    <linearGradient
       inkscape:collect="always"
       xlink:href="#linearGradient5244"
       id="linearGradient3523"
       gradientUnits="userSpaceOnUse"
       gradientTransform="matrix(9.5418858,0,0,9.5735368,-244.70976,-46.136545)"
       x1="9.3304758"
       y1="15.300295"
       x2="17.996317"
       y2="15.300295" />
    <linearGradient
       inkscape:collect="always"
       xlink:href="#linearGradient3481"
       id="linearGradient3564"
       gradientUnits="userSpaceOnUse"
       x1="14.05498"
       y1="119.9116"
       x2="219.64191"
       y2="119.9116" />
    <linearGradient
       inkscape:collect="always"
       xlink:href="#linearGradient3481"
       id="linearGradient3576"
       gradientUnits="userSpaceOnUse"
       x1="14.05498"
       y1="119.9116"
       x2="219.64191"
       y2="119.9116"
       gradientTransform="translate(0.9577801,3.1266834)" />
    <linearGradient
       inkscape:collect="always"
       xlink:href="#linearGradient3481"
       id="linearGradient3579"
       gradientUnits="userSpaceOnUse"
       x1="14.05498"
       y1="119.9116"
       x2="219.64191"
       y2="119.9116"
       gradientTransform="translate(4.9577801,3.1266834)" />
    <linearGradient
       inkscape:collect="always"
       xlink:href="#linearGradient3481"
       id="linearGradient3582"
       gradientUnits="userSpaceOnUse"
       x1="14.05498"
       y1="119.9116"
       x2="219.64191"
       y2="119.9116"
       gradientTransform="translate(8.9577801,3.1266834)" />
    <linearGradient
       inkscape:collect="always"
       xlink:href="#linearGradient3481"
       id="linearGradient3585"
       gradientUnits="userSpaceOnUse"
       x1="14.05498"
       y1="119.9116"
       x2="219.64191"
       y2="119.9116"
       gradientTransform="translate(0.9577801,-0.8733166)" />
    <linearGradient
       inkscape:collect="always"
       xlink:href="#linearGradient3481"
       id="linearGradient3588"
       gradientUnits="userSpaceOnUse"
       x1="11.181658"
       y1="232.92896"
       x2="242.62849"
       y2="-19.923439"
       gradientTransform="translate(4.9577801,-0.8733166)" />
    <linearGradient
       inkscape:collect="always"
       xlink:href="#linearGradient3481"
       id="linearGradient3591"
       gradientUnits="userSpaceOnUse"
       x1="14.05498"
       y1="119.9116"
       x2="219.64191"
       y2="119.9116"
       gradientTransform="translate(12.788876,0.8733288)" />
    <linearGradient
       inkscape:collect="always"
       xlink:href="#linearGradient3481"
       id="linearGradient3594"
       gradientUnits="userSpaceOnUse"
       x1="14.05498"
       y1="119.9116"
       x2="219.64191"
       y2="119.9116"
       gradientTransform="translate(0.9577801,-4.8733166)" />
    <linearGradient
       inkscape:collect="always"
       xlink:href="#linearGradient3481"
       id="linearGradient3597"
       gradientUnits="userSpaceOnUse"
       x1="14.05498"
       y1="119.9116"
       x2="219.64191"
       y2="119.9116"
       gradientTransform="translate(9.7466509,-3.8310908)" />
    <linearGradient
       inkscape:collect="always"
       xlink:href="#linearGradient3481"
       id="linearGradient3600"
       gradientUnits="userSpaceOnUse"
       x1="14.05498"
       y1="119.9116"
       x2="219.64191"
       y2="119.9116"
       gradientTransform="translate(4.1689089,8.8733288)" />
    <linearGradient
       inkscape:collect="always"
       xlink:href="#linearGradient3613"
       id="linearGradient3619"
       x1="15.01276"
       y1="125.91161"
       x2="223.81083"
       y2="125.91161"
       gradientUnits="userSpaceOnUse" />
    <linearGradient
       inkscape:collect="always"
       xlink:href="#linearGradient3613"
       id="linearGradient3621"
       gradientUnits="userSpaceOnUse"
       x1="15.01276"
       y1="125.91161"
       x2="223.81083"
       y2="125.91161" />
    <linearGradient
       inkscape:collect="always"
       xlink:href="#linearGradient3613"
       id="linearGradient3623"
       gradientUnits="userSpaceOnUse"
       x1="15.01276"
       y1="125.91161"
       x2="223.81083"
       y2="125.91161" />
    <linearGradient
       inkscape:collect="always"
       xlink:href="#linearGradient3613"
       id="linearGradient3625"
       gradientUnits="userSpaceOnUse"
       x1="15.01276"
       y1="125.91161"
       x2="223.81083"
       y2="125.91161" />
    <linearGradient
       inkscape:collect="always"
       xlink:href="#linearGradient3613"
       id="linearGradient3627"
       gradientUnits="userSpaceOnUse"
       x1="15.01276"
       y1="125.91161"
       x2="223.81083"
       y2="125.91161" />
    <linearGradient
       inkscape:collect="always"
       xlink:href="#linearGradient3613"
       id="linearGradient3629"
       gradientUnits="userSpaceOnUse"
       x1="15.01276"
       y1="125.91161"
       x2="223.81083"
       y2="125.91161" />
    <linearGradient
       inkscape:collect="always"
       xlink:href="#linearGradient3613"
       id="linearGradient3631"
       gradientUnits="userSpaceOnUse"
       x1="15.01276"
       y1="125.91161"
       x2="223.81083"
       y2="125.91161" />
    <linearGradient
       inkscape:collect="always"
       xlink:href="#linearGradient3613"
       id="linearGradient3633"
       gradientUnits="userSpaceOnUse"
       x1="15.01276"
       y1="125.91161"
       x2="223.81083"
       y2="125.91161" />
    <linearGradient
       inkscape:collect="always"
       xlink:href="#linearGradient3613"
       id="linearGradient3635"
       gradientUnits="userSpaceOnUse"
       x1="15.01276"
       y1="125.91161"
       x2="223.81083"
       y2="125.91161" />
    <linearGradient
       inkscape:collect="always"
       xlink:href="#linearGradient3613"
       id="linearGradient3637"
       gradientUnits="userSpaceOnUse"
       x1="15.01276"
       y1="125.91161"
       x2="223.81083"
       y2="125.91161" />
    <linearGradient
       inkscape:collect="always"
       xlink:href="#linearGradient3403"
       id="linearGradient3409"
       x1="241.4334"
       y1="244.48677"
       x2="220.4502"
       y2="155.08995"
       gradientUnits="userSpaceOnUse"
       gradientTransform="translate(-75.25777,-47.961117)" />
    <linearGradient
       inkscape:collect="always"
       xlink:href="#linearGradient3634"
       id="linearGradient3640"
       x1="110.33102"
       y1="237.87657"
       x2="238.36906"
       y2="168.91684"
       gradientUnits="userSpaceOnUse"
       gradientTransform="translate(-6.7044196,-22.028808)" />
    <linearGradient
       inkscape:collect="always"
       xlink:href="#linearGradient4194"
       id="linearGradient4220"
       gradientUnits="userSpaceOnUse"
       gradientTransform="matrix(0.9508197,0,0,1,21.280592,6.0952378)"
       x1="281.2275"
       y1="13.883608"
       x2="301.88359"
       y2="13.883608" />
    <linearGradient
       inkscape:collect="always"
       xlink:href="#linearGradient4204"
       id="linearGradient4222"
       gradientUnits="userSpaceOnUse"
       gradientTransform="matrix(0.8691609,0,0,0.9849182,39.326315,38.116531)"
       x1="285.92964"
       y1="73.065123"
       x2="307.89038"
       y2="73.065123" />
    <linearGradient
       inkscape:collect="always"
       xlink:href="#linearGradient5077"
       id="linearGradient5083"
       x1="33.39971"
       y1="127.65825"
       x2="188.80391"
       y2="127.65825"
       gradientUnits="userSpaceOnUse"
       gradientTransform="matrix(1,0,0,0.9896614,0,2.3708646)" />
    <linearGradient
       inkscape:collect="always"
       xlink:href="#linearGradient5095"
       id="linearGradient5101"
       x1="175.53825"
       y1="42.416351"
       x2="57.732029"
       y2="41.458576"
       gradientUnits="userSpaceOnUse" />
  </defs>
  <path
     style="fill:url(#linearGradient3640);fill-opacity:1;stroke:none;stroke-width:3;stroke-miterlimit:4;stroke-opacity:0"
     d="M 173.43411,176.27789 L 255.36956,196.79564 L 176.70265,230.03662 L 42.329044,204.25113 L 173.43411,176.27789 z "
     id="rect3616"
     sodipodi:nodetypes="ccccc" />
  <path
     style="fill:#fca000;fill-opacity:1;stroke:#000000;stroke-width:3;stroke-miterlimit:4;stroke-opacity:1"
     d="M 66.362131,24.866183 L 183.45581,29.213417 C 185.03378,29.213417 187.26193,31.352258 187.26193,33.414175 L 206.80198,119.39933 L 228.37378,203.35273 C 228.37378,205.41465 223.27536,209.12798 221.69739,209.12798 L 113.03264,175.67532 C 111.45466,175.67532 110.18429,174.01537 110.18429,171.95345 L 58.625163,26.839342 C 58.625163,24.777426 64.784161,24.866183 66.362131,24.866183 z "
     id="path3277"
     sodipodi:nodetypes="cccccccccc" />
  <path
     style="fill:#fcde00;fill-opacity:1;stroke:#000000;stroke-width:3;stroke-miterlimit:4;stroke-opacity:1"
     d="M 61.032644,26.587769 L 182.47034,32.008975 C 184.04831,32.008975 185.31869,33.668929 185.31869,35.730845 L 201.91203,122.65089 L 221.89161,206.1847 C 221.89161,208.24661 220.62123,209.90657 219.04326,209.90657 L 105.30871,186.87839 C 103.73073,186.87839 102.46036,185.21843 102.46036,183.15651 L 58.184298,30.30964 C 58.184298,28.247723 59.454669,26.587769 61.032644,26.587769 z "
     id="rect2288"
     sodipodi:nodetypes="cccccccccc" />
  <path
     style="fill:url(#linearGradient3409);fill-opacity:1;stroke:none;stroke-width:3;stroke-miterlimit:4;stroke-opacity:1"
     d="M 80.380726,71.499229 L 180.26851,31.905043 C 181.84648,31.905043 181.6802,33.564993 181.6802,35.626913 L 200.2061,120.85384 L 220.40811,206.08077 C 220.40811,208.14268 219.13773,208.12654 217.55976,208.12654 L 103.10688,186.77446 C 101.5289,186.77446 100.25853,185.1145 100.25853,183.05258 L 77.532386,75.221099 C 77.532386,73.159179 78.802756,71.499229 80.380726,71.499229 z "
     id="path3401"
     sodipodi:nodetypes="cccccccccc" />
  <path
     style="fill:#cccccc;fill-opacity:1;stroke:#000000;stroke-width:3;stroke-miterlimit:4;stroke-opacity:1"
     d="M 112.08311,30.209473 L 183.79869,33.482739 C 185.37667,33.482739 186.64704,35.142699 186.64704,37.204609 C 186.64704,37.204609 198.54218,92.567262 195.82862,137.60244 C 194.49105,159.80122 195.61713,205.89874 192.93112,220.47215 C 186.9052,218.46238 179.75684,233.33458 157.98627,230.80689 C 135.63033,223.11449 70.513494,198.85741 70.513494,198.85741 C 68.935524,198.85741 75.187564,165.17475 77.030994,147.10375 C 81.566974,102.63783 87.478675,32.918473 112.08311,30.209473 z "
     id="path3261"
     sodipodi:nodetypes="cccscccsc" />
  <path
     style="fill:#ffffff;fill-opacity:1;stroke:#000000;stroke-width:3;stroke-miterlimit:4;stroke-opacity:1"
     d="M 58.783342,27.368659 L 181.69659,33.945999 C 183.27457,33.945999 184.54494,35.605959 184.54494,37.667869 C 184.54494,37.667869 193.14717,103.25576 186.68761,147.90779 C 178.57756,203.96902 161.95889,216.12391 159.27288,230.69732 C 147.22103,226.67778 33.779277,201.15039 33.779277,201.15039 C 32.201297,201.15039 51.447583,173.56017 57.354505,124.33572 C 62.679889,79.957432 58.247264,37.069569 58.247264,37.069569 C 58.247264,35.007649 57.205362,27.368659 58.783342,27.368659 z "
     id="path3263"
     sodipodi:nodetypes="cccsccscc" />
  <path
     style="fill:none;fill-rule:evenodd;stroke:#bebec2;stroke-width:3;stroke-linecap:butt;stroke-linejoin:miter;stroke-miterlimit:4;stroke-dasharray:none;stroke-opacity:1"
     d="M 75.664163,185.12471 C 75.664163,185.12471 88.354675,131.7288 91.946325,122.86939 C 95.537975,114.00998 95.059085,188.23748 97.692965,182.25139 C 100.32685,176.2653 102.2424,160.46203 105.35517,154.47594 C 108.46794,148.48985 102.48185,125.74271 102.48185,125.74271"
     id="path4226"
     sodipodi:nodetypes="csssc" />
  <g
     id="g4212"
     transform="matrix(0.6818791,-0.2435554,0.2271791,0.7352179,-179.40185,87.989477)">
    <path
       sodipodi:nodetypes="csssc"
       id="path3977"
       d="M -29.394776,39.95768 C -29.394776,45.939141 -35.411978,48.761913 -42.328041,48.761913 C -49.244105,48.761913 -54.048812,46.61639 -54.048812,40.634929 C -54.048812,34.653468 -48.435776,23.703711 -41.519712,23.703711 C -34.603649,23.703711 -29.394776,33.976219 -29.394776,39.95768 z "
       style="fill:#d20300;fill-opacity:1;stroke:#000000;stroke-width:4.39284706;stroke-linecap:butt;stroke-linejoin:miter;marker-start:none;stroke-miterlimit:4;stroke-opacity:1"
       transform="matrix(0.8378378,0,0,1,333.11482,-17.608465)" />
    <path
       sodipodi:nodetypes="csssc"
       id="path4192"
       d="M 308.31745,23.703714 C 308.31745,29.685175 303.52395,32.507947 298.01439,32.507947 C 292.50482,32.507947 288.67723,30.362424 288.67723,24.380963 C 288.67723,18.399502 293.14877,7.4497444 298.65833,7.4497444 C 304.16788,7.4497444 308.31745,17.722253 308.31745,23.703714 z "
       style="fill:url(#linearGradient4220);fill-opacity:1;stroke:none;stroke-width:3;stroke-linecap:butt;stroke-linejoin:miter;marker-start:none;stroke-miterlimit:4;stroke-opacity:1" />
    <path
       sodipodi:nodetypes="cccc"
       id="rect3974"
       d="M 301.54284,221.29161 L 298.05623,230.26454 L 293.92592,219.72662 C 293.92592,218.24831 301.54284,219.8133 301.54284,221.29161 z "
       style="opacity:1;fill:#000300;fill-opacity:1;stroke:#000000;stroke-width:4.020926;stroke-linecap:butt;stroke-linejoin:miter;marker-start:none;stroke-miterlimit:4;stroke-opacity:1" />
    <path
       sodipodi:nodetypes="ccccc"
       id="rect3971"
       d="M 308.37496,193.27688 L 302.1261,219.20633 C 301.33869,219.20633 301.00935,218.65966 293.55961,218.53585 L 287.07298,193.62293 C 287.07298,192.14463 308.37496,191.79858 308.37496,193.27688 z "
       style="opacity:1;fill:#cba328;fill-opacity:1;stroke:#000000;stroke-width:4.020926;stroke-linecap:butt;stroke-linejoin:miter;marker-start:none;stroke-miterlimit:4;stroke-opacity:1" />
    <path
       sodipodi:nodetypes="cscccczcccc"
       id="rect3650"
       d="M 288.13332,24.170505 C 288.13332,24.170505 293.5901,26.8795 298.36962,26.8795 C 303.14914,26.8795 307.25142,24.170505 307.25142,24.170505 C 308.03883,24.170505 308.67274,25.360622 308.67274,26.838928 L 308.67274,191.38495 C 308.67274,192.86326 308.03883,194.05337 307.25142,194.05337 C 307.25142,194.05337 302.4719,196.08512 297.69237,196.08512 C 292.91284,196.08512 288.13332,194.05337 288.13332,194.05337 C 287.34591,194.05337 286.712,192.86326 286.712,191.38495 L 286.712,26.838928 C 286.712,25.360622 287.34591,24.170505 288.13332,24.170505 z "
       style="opacity:1;fill:#3076ff;fill-opacity:1;stroke:#000000;stroke-width:4.020926;stroke-linecap:butt;stroke-linejoin:miter;marker-start:none;stroke-miterlimit:4;stroke-opacity:1" />
    <path
       sodipodi:nodetypes="cscccczcccc"
       id="path4202"
       d="M 289.08055,25.418784 C 289.08055,25.418784 293.82337,28.086922 297.97754,28.086922 C 302.13171,28.086922 305.69725,25.418784 305.69725,25.418784 C 306.38164,25.418784 306.93261,26.590952 306.93261,28.046962 L 306.93261,190.11132 C 306.93261,191.56733 306.38164,192.7395 305.69725,192.7395 C 305.69725,192.7395 301.4922,194.14803 297.33802,194.14803 C 293.18384,194.14803 289.08055,192.7395 289.08055,192.7395 C 288.39616,192.7395 287.84519,191.56733 287.84519,190.11132 L 287.84519,28.046962 C 287.84519,26.590952 288.39616,25.418784 289.08055,25.418784 z "
       style="opacity:1;fill:url(#linearGradient4222);fill-opacity:1;stroke:none;stroke-width:3;stroke-linecap:butt;stroke-linejoin:miter;marker-start:none;stroke-miterlimit:4;stroke-opacity:1" />
  </g>
  <path
     transform="matrix(0.998539,5.4035997e-2,-5.4035997e-2,0.998539,0,0)"
     style="fill:#fca000;fill-opacity:1;stroke:#000000;stroke-width:3;stroke-linecap:butt;stroke-linejoin:miter;stroke-miterlimit:4;stroke-opacity:1"
     d="M 61.820774,21.084353 L 183.75624,19.920961 C 186.44346,19.920961 187.24988,26.238787 187.24988,32.208115 C 187.24988,38.177442 185.03478,42.026699 182.34756,42.026699 L 63.655892,41.096201 C 60.968678,41.096201 59.38702,38.177442 59.38702,32.208115 C 59.38702,26.238787 59.13356,21.084353 61.820774,21.084353 z "
     id="rect5026"
     sodipodi:nodetypes="ccsccsc" />
  <path
     style="fill:url(#linearGradient5083);fill-opacity:1;stroke:none;stroke-width:3;stroke-miterlimit:4;stroke-opacity:1"
     d="M 185.21477,56.298351 C 185.21477,56.298351 192.85923,103.19858 186.39967,147.38897 C 178.28962,202.87061 161.67095,214.89984 158.98494,229.32258 C 146.93309,225.3446 148.85262,124.25642 122.19522,82.136384 C 98.430079,44.586258 59.874875,46.227514 59.874875,46.227514 C 59.874875,44.186912 185.21477,54.257758 185.21477,56.298351 z "
     id="path5075"
     sodipodi:nodetypes="cscscc" />
  <path
     style="fill:url(#linearGradient5101);fill-opacity:1.0;stroke:none;stroke-width:3;stroke-linecap:butt;stroke-linejoin:miter;stroke-miterlimit:4;stroke-opacity:1"
     d="M 60.808438,26.787983 L 180.71307,31.017975 C 183.39637,31.163175 183.86022,35.360363 183.53766,41.320963 C 183.2151,47.281573 181.51357,46.695529 178.35139,50.381416 L 61.559518,43.2781 C 58.876228,43.13289 58.891259,39.893486 59.213819,33.932886 C 59.536379,27.972276 58.125148,26.642773 60.808438,26.787983 z "
     id="path5085"
     sodipodi:nodetypes="ccsccsc" />
  <g
     id="g3515"
     transform="translate(306.36325,13.951085)">
    <path
       sodipodi:nodetypes="ccccccc"
       d="M -142.414,138.42015 L -148.51678,134.29733 L -178.71795,184.78001 C -192.65326,177.46033 -208.28991,178.38537 -216.26901,187.43907 L -159.09067,222.6551 C -154.58833,212.1501 -160.02646,198.06726 -172.34758,188.66449 L -142.414,138.42015 z "
       style="fill:#000000;fill-rule:evenodd;stroke:none;stroke-width:1px;stroke-linecap:butt;stroke-linejoin:miter;stroke-opacity:1"
       id="path3282" />
    <path
       d="M -89.745759,15.584763 C -100.79208,23.676173 -112.25093,36.524491 -121.44369,52.580988 C -141.11357,86.937219 -143.42816,123.04724 -127.19101,133.19408 C -110.95387,143.34091 -82.003699,123.87584 -62.333849,89.519613 C -53.141069,73.463117 -47.725669,56.838167 -46.126769,42.84292 L -89.745759,15.584763 z "
       style="opacity:0.22000002;fill:#000000;fill-opacity:1;stroke:#000200;stroke-width:6.68095732;stroke-miterlimit:4;stroke-dasharray:none;stroke-opacity:1"
       id="path5258" />
    <path
       d="M -126.85496,140.27772 L -133.63499,136.49352 L -161.46579,183.58996 C -175.4011,176.27029 -191.03775,177.19531 -199.01685,186.24902 L -141.83851,221.46505 C -137.33617,210.96006 -142.7743,196.87721 -155.09543,187.47445 L -126.85496,140.27772 z "
       style="opacity:0.22000002;fill:#000000;fill-rule:evenodd;stroke:none;stroke-width:1px;stroke-linecap:butt;stroke-linejoin:miter;stroke-opacity:1"
       id="path5260" />
    <path
       d="M -106.99792,16.774799 C -118.04423,24.866213 -129.50309,37.714531 -138.69585,53.771029 C -158.36573,88.127267 -160.68032,124.23729 -144.44317,134.38413 C -128.20603,144.53096 -99.255859,125.06589 -79.586009,90.709666 C -70.393229,74.653165 -64.977829,58.028211 -63.378929,44.032962 L -106.99792,16.774799 z "
       style="fill:#ffffff;fill-opacity:1;stroke:#000200;stroke-width:6.68095732;stroke-miterlimit:4;stroke-dasharray:none;stroke-opacity:1"
       id="path3403" />
    <path
       sodipodi:nodetypes="csscsssc"
       d="M -75.363306,77.106496 C -75.363306,77.106496 -82.038713,69.171129 -95.807823,69.207174 C -109.57692,69.243228 -117.78822,80.173813 -126.71486,78.60517 C -135.64147,77.036546 -143.12613,70.241322 -143.12613,70.241322 C -148.9286,84.031378 -152.63002,98.649241 -152.35897,108.26331 C -152.08793,117.87737 -149.53755,127.567 -142.1592,132.17784 C -125.92208,142.32467 -106.94341,120.81491 -101.00573,115.2547 C -94.877477,109.51602 -77.508786,82.179312 -75.363306,77.106496 z "
       style="fill:#b40000;fill-opacity:1;stroke:none;stroke-width:0.69901323;stroke-miterlimit:4;stroke-opacity:1"
       id="path3408" />
    <path
       sodipodi:nodetypes="csscssc"
       d="M -72.65234,76.418653 C -72.65234,76.418653 -81.359494,66.451544 -95.128604,66.487584 C -108.89772,66.523644 -119.14077,77.454224 -128.0674,75.885584 C -136.99402,74.316964 -142.9493,63.796884 -142.9493,63.796884 C -157.94049,95.101854 -159.96156,124.97731 -145.20485,134.19898 C -128.96774,144.34581 -100.01755,126.9125 -80.347694,92.556284 C -77.450694,87.496274 -74.79782,81.491473 -72.65234,76.418653 z "
       style="fill:url(#linearGradient3523);fill-opacity:1;stroke:#000000;stroke-width:6.68095732;stroke-miterlimit:4;stroke-opacity:1"
       id="path4273" />
  </g>
</svg>
