/* XPM */
static char * wine_small_xpm[] = {
"16 16 10 1",
" 	c None",
".	c #000000",
"+	c #91002E",
"@	c #92002F",
"#	c #93002E",
"$	c #A70034",
"%	c #B00038",
"&	c #AC0036",
"*	c #AF0038",
"=	c #B10038",
"        ...     ",
"       .   .    ",
"       .    .   ",
"      ..    .   ",
"      ..+@#.    ",
"      .$%%&.    ",
"      .*%%.     ",
"      .=%=.     ",
"      .=%.      ",
"      ...       ",
"      ..        ",
"      ..        ",
"      .         ",
"   ....         ",
"    ...         ",
"      ..        "};
