<?xml version="1.0" encoding="UTF-8"?>
<svg id="bitmap:25-32" width="25" height="100" version="1.1" viewBox="0 0 6.6146 26.458" xmlns="http://www.w3.org/2000/svg">
 <g stroke-width=".26458">
  <path d="m2.5857 4.3637-0.94706-0.99513-0.3157 0.33173 1.2628 1.3268 2.706-2.8433-0.3157-0.33173z"/>
  <path d="m2.5857 10.978-0.94706-0.99513-0.3157 0.33173 1.2628 1.3268 2.706-2.8433-0.3157-0.33173z" fill="#aeaeae"/>
  <path d="m4.7625 23.283a1.3229 1.3229 0 0 1-1.3229 1.3229 1.3229 1.3229 0 0 1-1.3229-1.3229 1.3229 1.3229 0 0 1 1.3229-1.3229 1.3229 1.3229 0 0 1 1.3229 1.3229z" fill="#aeaeae"/>
  <path d="m4.7625 16.669a1.3229 1.3229 0 0 1-1.3229 1.3229 1.3229 1.3229 0 0 1-1.3229-1.3229 1.3229 1.3229 0 0 1 1.3229-1.3229 1.3229 1.3229 0 0 1 1.3229 1.3229z"/>
 </g>
</svg>
