<?xml version="1.0" encoding="UTF-8"?>
<svg id="bitmap:22-32" width="22" height="264" fill="#000000" version="1.1" viewBox="0 0 22 264" xmlns="http://www.w3.org/2000/svg" xmlns:cc="http://creativecommons.org/ns#" xmlns:dc="http://purl.org/dc/elements/1.1/" xmlns:rdf="http://www.w3.org/1999/02/22-rdf-syntax-ns#">
 <metadata>
  <rdf:RDF>
   <cc:Work rdf:about="">
    <dc:format>image/svg+xml</dc:format>
    <dc:type rdf:resource="http://purl.org/dc/dcmitype/StillImage"/>
   </cc:Work>
  </rdf:RDF>
 </metadata>
 <rect width="22" height="264" fill="#fff" fill-opacity=".98444"/>
 <g transform="matrix(1.1 0 0 1.1001 .043576 .04358)" fill="none">
  <path d="m2.9e-6 0h36.923v36.965h-36.923z" stroke-width=".90907"/>
  <rect transform="scale(1,-1)" x=".86945" y="-19.05" width="18.182" height="18.18" rx="1.8182" ry="1.818" stroke="#aeaeae" stroke-width="1.8181"/>
  <rect x=".86945" y="20.868" width="18.182" height="18.18" rx="1.8182" ry="1.818" stroke="#3096fa" stroke-width="1.8181"/>
  <path d="m0.76923 39.275h36.923v36.965h-36.923z" stroke-width=".90907"/>
  <rect x=".86945" y="40.867" width="18.182" height="18.18" rx="1.8182" ry="1.818" stroke="#2979ff" stroke-width="1.8181"/>
  <rect x=".86945" y="60.865" width="18.182" height="18.18" rx="1.8182" ry="1.818" stroke="#aeaeae" stroke-width="1.8181"/>
  <g stroke-width=".90907">
   <path d="m3.5e-6 80.09h36.923v36.965h-36.923z"/>
   <path d="m0.76923 119.36h36.923v36.965h-36.923z"/>
   <path d="m0 160.18h36.923v36.965h-36.923z"/>
   <path d="m0.76923 199.45h36.923v36.965h-36.923z"/>
   <path d="m1.2896e-6 79.978h36.923v36.965h-36.923z"/>
  </g>
  <rect x=".86945" y="80.864" width="18.182" height="18.18" rx="1.8182" ry="1.818" stroke="#aeaeae" stroke-width="1.8181"/>
  <rect x=".86945" y="100.86" width="18.182" height="18.18" rx="1.8182" ry="1.818" stroke="#3096fa" stroke-width="1.8181"/>
  <path d="m0.76923 119.25h36.923v36.965h-36.923z" stroke-width=".90907"/>
  <rect x=".86945" y="120.86" width="18.182" height="18.18" rx="1.8182" ry="1.818" stroke="#2979ff" stroke-width="1.8181"/>
  <rect x=".86945" y="140.86" width="18.182" height="18.18" rx="1.8182" ry="1.818" stroke="#aeaeae" stroke-width="1.8181"/>
  <path d="m1.2654e-6 159.96h36.923v36.965h-36.923z" stroke-width=".90907"/>
  <rect x=".86945" y="160.86" width="18.182" height="18.18" rx="1.8182" ry="1.818" stroke="#aeaeae" stroke-width="1.8181"/>
  <rect x=".86945" y="180.86" width="18.182" height="18.18" rx="1.8182" ry="1.818" stroke="#3096fa" stroke-width="1.8181"/>
  <path d="m0.76923 199.23h36.923v36.965h-36.923z" stroke-width=".90907"/>
  <rect x=".86945" y="200.85" width="18.182" height="18.18" rx="1.8182" ry="1.818" stroke="#2979ff" stroke-width="1.8181"/>
  <rect x=".86945" y="220.85" width="18.182" height="18.18" rx="1.8182" ry="1.818" stroke="#aeaeae" stroke-width="1.8181"/>
 </g>
 <path d="m8.4545 102.7-3.3409-3.4478-1.1136 1.1493 4.4546 4.5971 9.5454-9.8507-1.1136-1.1493z"/>
 <g transform="matrix(1.5767 0 0 1.6944 .79522 .04358)" stroke-width=".36133">
  <path d="m4.8579 73.573-2.1189-2.0348-0.70632 0.67828 2.8252 2.7131 6.0541-5.8139-0.70631-0.67828z" fill="#3096fa"/>
  <path d="m4.8579 99.541-2.1189-2.0348-0.70632 0.67828 2.8252 2.7132 6.0541-5.8139-0.70631-0.67828z" fill="#aeaeae"/>
  <path d="m4.8579 86.557-2.1189-2.0348-0.70632 0.67828 2.8252 2.7131 6.0541-5.8139-0.70631-0.67828z" fill="#2979ff"/>
 </g>
 <path d="m4 186h14v2h-14z"/>
 <g transform="matrix(1.5385 0 0 1.6944 1 -.16794)" stroke-width=".36579">
  <path d="m1.95 122.86h9.1v1.1804h-9.1z" fill="#3096fa"/>
  <path d="m1.95 135.84h9.1v1.1804h-9.1z" fill="#2979ff"/>
  <path d="m1.95 148.83h9.1v1.1804h-9.1z" fill="#aeaeae"/>
 </g>
</svg>
