<?xml version="1.0" encoding="UTF-8"?>
<svg id="bitmap:13-32" width="13" height="260" version="1.1" viewBox="0 0 3.4396 68.791" xmlns="http://www.w3.org/2000/svg" xmlns:cc="http://creativecommons.org/ns#" xmlns:dc="http://purl.org/dc/elements/1.1/" xmlns:rdf="http://www.w3.org/1999/02/22-rdf-syntax-ns#">
 <metadata>
  <rdf:RDF>
   <cc:Work rdf:about="">
    <dc:format>image/svg+xml</dc:format>
    <dc:type rdf:resource="http://purl.org/dc/dcmitype/StillImage"/>
   </cc:Work>
  </rdf:RDF>
 </metadata>
 <g transform="translate(.92519 1.0583)" stroke-width=".26458">
  <path d="m0.80168 0.14157 1.0513 0.91792-0.15018 0.13113-1.0513-0.91792z" stroke-width=".26458"/>
  <path d="m-0.26372 1.0502 1.0513-0.91792 0.15018 0.13113-1.0513 0.91792z" stroke-width=".26458"/>
  <g transform="matrix(1.1429 0 0 1 -.26372 0)" stroke-width=".2315">
   <path d="m0.93222 3.5812 0.91986 0.91792-0.13141 0.13113-0.91986-0.91792z" fill="#3096fa"/>
   <path d="m0 4.4898 0.91986-0.91792 0.13141 0.13113-0.91986 0.91792z" fill="#3096fa"/>
   <path d="m0.93222 7.0207 0.91986 0.91792-0.13141 0.13113-0.91986-0.91792z" fill="#fff"/>
   <path d="m0 7.9294 0.91986-0.91792 0.13141 0.13113-0.91986 0.91792z" fill="#fff"/>
   <path d="m0.93222 10.46 0.91986 0.91792-0.13141 0.13113-0.91986-0.91792z" fill="#aeaeae"/>
   <path d="m0 11.369 0.91986-0.91792 0.13141 0.13113-0.91986 0.91792z" fill="#aeaeae"/>
  </g>
  <path d="m1.853 14.031-1.0504 0.91986-0.15005-0.13141 1.0504-0.91986z" stroke-width=".26458"/>
  <path d="m-0.11367 13.891 1.0504 0.91986-0.15005 0.13141-1.0504-0.91986z" stroke-width=".26458"/>
  <g transform="matrix(1.1443 0 0 1 9.5215 2.1262)" stroke-width=".23122">
   <path d="m-6.7017 15.345-0.91792 0.91986-0.13113-0.13141 0.91792-0.91986z" fill="#3096fa"/>
   <path d="m-8.4204 15.204 0.91792 0.91986-0.13113 0.13141-0.91792-0.91986z" fill="#3096fa"/>
   <path d="m-6.7017 18.784-0.91792 0.91986-0.13113-0.13141 0.91792-0.91986z" fill="#fff"/>
   <path d="m-8.4204 18.644 0.91792 0.91986-0.13113 0.13141-0.91792-0.91986z" fill="#fff"/>
   <path d="m-6.7017 22.223-0.91792 0.91854-0.13113-0.13122 0.91792-0.91854z" fill="#aeaeae"/>
   <path d="m-8.4204 22.083 0.91792 0.91854-0.13113 0.13122-0.91792-0.91854z" fill="#aeaeae"/>
  </g>
  <path d="m1.3238 27.27-0.9179 1.0515-0.13113-0.15022 0.9179-1.0515z" stroke-width=".26458"/>
  <path d="m0.39658 28.035 0.9179 1.0515-0.13113 0.15022-0.9179-1.0515z" stroke-width=".26458"/>
  <g transform="translate(9.5229 2.1262)">
   <g fill="#3096fa">
    <path d="m-8.1991 28.583-0.9179 1.051-0.13113-0.15014 0.9179-1.051z" stroke-width=".26458"/>
    <path d="m-9.1263 29.349 0.9179 1.051-0.13113 0.15013-0.9179-1.051z" stroke-width=".26458"/>
    <g stroke-width=".24749">
     <path d="m-8.7212 53.049 1.0513 0.91792-0.15018 0.13113-1.0513-0.91792z"/>
     <path d="m-9.7866 53.957 1.0513-0.91792 0.15018 0.13113-1.0513 0.91792z"/>
     <path d="m-8.7212 57.528 1.0513-0.91792-0.15018-0.13113-1.0513 0.91792z"/>
     <path d="m-9.7866 56.619 1.0513 0.91792 0.15018-0.13113-1.0513-0.91792z"/>
    </g>
    <g stroke-width=".26458">
     <path d="m-8.1991 59.54-0.9179 1.051-0.13113-0.15014 0.9179-1.051z"/>
     <path d="m-9.1263 60.305 0.9179 1.051-0.13113 0.15013-0.9179-1.051z"/>
     <path d="m-9.2563 62.99 0.9179 1.051 0.13113-0.15014-0.9179-1.051z"/>
     <path d="m-8.3291 63.755-0.9179 1.051 0.13113 0.15013 0.9179-1.051z"/>
    </g>
   </g>
   <g stroke-width=".26458">
    <path d="m-8.1991 32.023-0.9179 1.051-0.13113-0.15014 0.9179-1.051z" fill="#fff"/>
    <path d="m-9.1263 32.788 0.9179 1.051-0.13113 0.15013-0.9179-1.051z" fill="#fff"/>
    <path d="m-8.1991 35.462-0.9179 1.051-0.13113-0.15013 0.9179-1.051z" fill="#aeaeae"/>
    <path d="m-9.1263 36.228 0.9179 1.051-0.13113 0.15013-0.9179-1.051z" fill="#aeaeae"/>
    <path d="m-9.2574 38.902 0.9179 1.0515 0.13113-0.15022-0.9179-1.0515z"/>
    <path d="m-8.3302 39.667-0.9179 1.0515 0.13113 0.15022 0.9179-1.0515z"/>
    <path d="m-9.2574 42.342 0.9179 1.051 0.13113-0.15014-0.9179-1.051z" fill="#3096fa"/>
    <path d="m-8.3302 43.107-0.9179 1.051 0.13113 0.15013 0.9179-1.051z" fill="#3096fa"/>
    <path d="m-9.2574 45.781 0.9179 1.051 0.13113-0.15014-0.9179-1.051z" fill="#fff"/>
    <path d="m-8.3302 46.547-0.9179 1.051 0.13113 0.15013 0.9179-1.051z" fill="#fff"/>
    <path d="m-9.2574 49.221 0.9179 1.051 0.13113-0.15013-0.9179-1.051z" fill="#aeaeae"/>
    <path d="m-8.3302 49.986-0.9179 1.051 0.13113 0.15013 0.9179-1.051z" fill="#aeaeae"/>
   </g>
  </g>
 </g>
</svg>
