<?xml version="1.0" encoding="UTF-8"?>
<svg id="bitmap:22-32" width="22" height="176" version="1.1" viewBox="0 0 22 176" xmlns="http://www.w3.org/2000/svg" xmlns:cc="http://creativecommons.org/ns#" xmlns:dc="http://purl.org/dc/elements/1.1/" xmlns:rdf="http://www.w3.org/1999/02/22-rdf-syntax-ns#">
 <metadata>
  <rdf:RDF>
   <cc:Work rdf:about="">
    <dc:format>image/svg+xml</dc:format>
    <dc:type rdf:resource="http://purl.org/dc/dcmitype/StillImage"/>
   </cc:Work>
  </rdf:RDF>
 </metadata>
 <g fill="none" stroke-width="2">
  <g fill="#fff">
   <circle cx="11" cy="11" r="10" stroke="#aeaeae"/>
   <circle cx="11" cy="33" r="10" stroke="#3096fa"/>
   <circle cx="11" cy="55" r="10" stroke="#2979ff"/>
  </g>
  <circle cx="11" cy="77" r="10" stroke="#aeaeae"/>
  <g fill="#fff">
   <circle cx="11" cy="99" r="10" stroke="#aeaeae"/>
   <circle cx="11" cy="121" r="10" stroke="#3096fa"/>
   <circle cx="11.055" cy="143" r="10" stroke="#2979ff"/>
  </g>
  <circle cx="11" cy="165" r="10" stroke="#aeaeae"/>
 </g>
 <path d="m17 99a6 6 0 0 1-6 6 6 6 0 0 1-6-6 6 6 0 0 1 6-6 6 6 0 0 1 6 6z"/>
 <g transform="translate(0 -16)">
  <path d="m17 137a6 6 0 0 1-6 6 6 6 0 0 1-6-6 6 6 0 0 1 6-6 6 6 0 0 1 6 6z" fill="#3096fa"/>
  <path d="m17 159a6 6 0 0 1-6 6 6 6 0 0 1-6-6 6 6 0 0 1 6-6 6 6 0 0 1 6 6z" fill="#2979ff"/>
  <path d="m17 181a6 6 0 0 1-6 6 6 6 0 0 1-6-6 6 6 0 0 1 6-6 6 6 0 0 1 6 6z" fill="#aeaeae"/>
 </g>
</svg>
