<?xml version="1.0" encoding="UTF-8"?>
<svg id="bitmap:30-32" width="30" height="90" version="1.1" viewBox="0 0 7.9376 23.812" xmlns="http://www.w3.org/2000/svg">
 <circle cx="3.9688" cy="11.906" r="3.8365" fill="#fff" stroke="#3096fa" stroke-width=".26458"/>
 <g transform="matrix(1.6 0 0 1.6 -.052922 -.47675)" stroke-width=".33073">
  <path d="m3.8365 2.2922-1.3129 1.1474-0.18755-0.16391 1.3129-1.1474z"/>
  <path d="m1.3782 2.1167 1.3129 1.1474-0.18756 0.16391-1.3129-1.1474z"/>
 </g>
 <g transform="matrix(1.6 0 0 1.6 -.052922 7.4608)" fill="#3096fa" stroke-width=".33073">
  <path d="m3.8365 2.2922-1.3129 1.1474-0.18755-0.16391 1.3129-1.1474z"/>
  <path d="m1.3782 2.1167 1.3129 1.1474-0.18756 0.16391-1.3129-1.1474z"/>
 </g>
 <circle cx="3.9688" cy="19.844" r="3.8365" fill="#fff" stroke="#2979ff" stroke-width=".26458"/>
 <g transform="matrix(1.6 0 0 1.6 .11732 15.398)" fill="#2979ff" stroke-width=".33073">
  <path d="m3.7301 2.2922-1.3129 1.1474-0.18755-0.16391 1.3129-1.1474z"/>
  <path d="m1.2718 2.1167 1.3129 1.1474-0.18756 0.16391-1.3129-1.1474z"/>
 </g>
</svg>
