<?xml version="1.0" encoding="UTF-8"?>
<svg id="bitmap:16-32" width="16" height="320" version="1.1" viewBox="0 0 4.2334 84.666" xmlns="http://www.w3.org/2000/svg" xmlns:cc="http://creativecommons.org/ns#" xmlns:dc="http://purl.org/dc/elements/1.1/" xmlns:rdf="http://www.w3.org/1999/02/22-rdf-syntax-ns#">
 <metadata>
  <rdf:RDF>
   <cc:Work rdf:about="">
    <dc:format>image/svg+xml</dc:format>
    <dc:type rdf:resource="http://purl.org/dc/dcmitype/StillImage"/>
   </cc:Work>
  </rdf:RDF>
 </metadata>
 <g transform="translate(.92519 1.0583)">
  <path d="m1.2003 0.4085 1.3141 1.1474-0.18772 0.16391-1.3141-1.1474z" stroke-width=".26458"/>
  <path d="m-0.13144 1.5443 1.3141-1.1474 0.18772 0.16391-1.3141 1.1474z" stroke-width=".26458"/>
  <g transform="matrix(1.1429 0 0 1 -.26372 0)" stroke-width=".2315">
   <g fill="#3096fa">
    <path d="m1.281 4.6419 1.1498 1.1474-0.16426 0.16391-1.1498-1.1474z"/>
    <path d="m0.11574 5.7776 1.1498-1.1474 0.16426 0.16391-1.1498 1.1474z"/>
    <path d="m1.281 68.142 1.1498 1.1474-0.16426 0.16391-1.1498-1.1474z"/>
    <path d="m0.11574 69.277 1.1498-1.1474 0.16426 0.16391-1.1498 1.1474z"/>
   </g>
   <path d="m1.281 8.8751 1.1498 1.1475-0.16426 0.16392-1.1498-1.1475z" fill="#fff"/>
   <path d="m0.11574 10.011 1.1498-1.1475 0.16426 0.16392-1.1498 1.1475z" fill="#fff"/>
   <path d="m1.281 13.108 1.1498 1.1478-0.16426 0.16397-1.1498-1.1478z" fill="#aeaeae"/>
   <path d="m0.11574 14.245 1.1498-1.1478 0.16426 0.16397-1.1498 1.1478z" fill="#aeaeae"/>
  </g>
  <path d="m1.2003 18.642 1.3141-1.1474-0.18772-0.16391-1.3141 1.1474z" stroke-width=".26458"/>
  <path d="m-0.13144 17.506 1.3141 1.1474 0.18772-0.16391-1.3141-1.1474z" stroke-width=".26458"/>
  <g transform="matrix(1.1429 0 0 1 -.26372 16.933)" stroke-width=".2315">
   <g fill="#3096fa">
    <path d="m1.281 5.9415 1.1498-1.1474-0.16426-0.16391-1.1498 1.1474z"/>
    <path d="m0.11574 4.8058 1.1498 1.1474 0.16426-0.16391-1.1498-1.1474z"/>
    <path d="m1.281 56.741 1.1498-1.1474-0.16426-0.16391-1.1498 1.1474z"/>
    <path d="m0.11574 55.606 1.1498 1.1474 0.16426-0.16391-1.1498-1.1474z"/>
   </g>
   <path d="m1.281 10.175 1.1498-1.1475-0.16426-0.16392-1.1498 1.1475z" fill="#fff"/>
   <path d="m0.11574 9.039 1.1498 1.1475 0.16426-0.16392-1.1498-1.1475z" fill="#fff"/>
   <path d="m1.281 14.409 1.1498-1.1478-0.16426-0.16397-1.1498 1.1478z" fill="#aeaeae"/>
   <path d="m0.11574 13.272 1.1498 1.1478 0.16426-0.16397-1.1498-1.1478z" fill="#aeaeae"/>
  </g>
  <path d="m1.8529 33.79-1.1474 1.3142-0.16391-0.18775 1.1474-1.3142z" stroke-width=".26458"/>
  <path d="m0.69394 34.746 1.1474 1.3142-0.16391 0.18775-1.1474-1.3142z" stroke-width=".26458"/>
  <g transform="translate(15.865 4.7619)" stroke-width=".26458">
   <g fill="#3096fa">
    <path d="m-14.012 33.261-1.1474 1.3134-0.16391-0.18762 1.1474-1.3134z"/>
    <path d="m-15.171 34.218 1.1474 1.3134-0.16391 0.18761-1.1474-1.3134z"/>
   </g>
   <g transform="translate(3.6875e-7 38.1)" fill="#3096fa">
    <path d="m-14.012 33.261-1.1474 1.3134-0.16391-0.18762 1.1474-1.3134z"/>
    <path d="m-15.171 34.218 1.1474 1.3134-0.16391 0.18761-1.1474-1.3134z"/>
   </g>
   <path d="m-14.012 37.494-1.1474 1.314-0.16391-0.18771 1.1474-1.314z" fill="#fff"/>
   <path d="m-15.171 38.451 1.1474 1.314-0.16391 0.1877-1.1474-1.314z" fill="#fff"/>
   <path d="m-14.012 41.728-1.1474 1.3134-0.16391-0.18761 1.1474-1.3134z" fill="#aeaeae"/>
   <path d="m-15.171 42.685 1.1474 1.3134-0.16391 0.18761-1.1474-1.3134z" fill="#aeaeae"/>
   <path d="m-15.335 45.961 1.1474 1.3142 0.16391-0.18775-1.1474-1.3142z"/>
   <path d="m-14.176 46.917-1.1474 1.3142 0.16391 0.18775 1.1474-1.3142z"/>
   <g fill="#3096fa">
    <path d="m-15.335 50.194 1.1474 1.3134 0.16391-0.18762-1.1474-1.3134z"/>
    <path d="m-14.176 51.152-1.1474 1.3134 0.16391 0.18761 1.1474-1.3134z"/>
    <path d="m-15.335 75.594 1.1474 1.3134 0.16391-0.18762-1.1474-1.3134z"/>
    <path d="m-14.176 76.552-1.1474 1.3134 0.16391 0.18761 1.1474-1.3134z"/>
   </g>
   <g transform="matrix(-1 0 0 1 -29.347 16.933)">
    <path d="m-14.012 37.494-1.1474 1.314-0.16391-0.18771 1.1474-1.314z" fill="#fff"/>
    <path d="m-15.171 38.451 1.1474 1.314-0.16391 0.1877-1.1474-1.314z" fill="#fff"/>
    <path d="m-14.012 41.728-1.1474 1.3134-0.16391-0.18761 1.1474-1.3134z" fill="#aeaeae"/>
    <path d="m-15.171 42.685 1.1474 1.3134-0.16391 0.18761-1.1474-1.3134z" fill="#aeaeae"/>
   </g>
  </g>
 </g>
</svg>
