<?xml version="1.0" encoding="UTF-8"?>
<svg id="bitmap:39-32" width="39" height="780" version="1.1" viewBox="0 0 10.319 206.37" xmlns="http://www.w3.org/2000/svg" xmlns:cc="http://creativecommons.org/ns#" xmlns:dc="http://purl.org/dc/elements/1.1/" xmlns:rdf="http://www.w3.org/1999/02/22-rdf-syntax-ns#">
 <metadata>
  <rdf:RDF>
   <cc:Work rdf:about="">
    <dc:format>image/svg+xml</dc:format>
    <dc:type rdf:resource="http://purl.org/dc/dcmitype/StillImage"/>
   </cc:Work>
  </rdf:RDF>
 </metadata>
 <g transform="translate(.92519 1.0583)" stroke-width=".26458">
  <path d="m4.2554 2.5414 3.1539 2.7538-0.45054 0.39339-3.1539-2.7538z" stroke-width=".26458"/>
  <path d="m1.0592 5.2673 3.1539-2.7538 0.45054 0.39339-3.1539 2.7538z" stroke-width=".26458"/>
  <g transform="matrix(1.1429 0 0 1 -.26372 0)" stroke-width=".2315">
   <path d="m3.9541 12.86 2.7595 2.7537-0.39422 0.39338-2.7595-2.7537z" fill="#3096fa"/>
   <path d="m1.1575 15.586 2.7595-2.7537 0.39422 0.39338-2.7595 2.7537z" fill="#3096fa"/>
   <path d="m3.9541 23.179 2.7595 2.7539-0.39422 0.39342-2.7595-2.7539z" fill="#fff"/>
   <path d="m1.1575 25.905 2.7595-2.7539 0.39422 0.39342-2.7595 2.7539z" fill="#fff"/>
   <path d="m3.9541 33.497 2.7595 2.7547-0.39422 0.39353-2.7595-2.7547z" fill="#aeaeae"/>
   <path d="m1.1575 36.225 2.7595-2.7547 0.39422 0.39353-2.7595 2.7547z" fill="#aeaeae"/>
  </g>
  <path d="m5.8217 83.926-2.7537 3.1541-0.39339-0.4506 2.7537-3.1541z" stroke-width=".26458"/>
  <path d="m4.5421 46.936 2.7595-2.7538-0.3942-0.39339-2.7595 2.7538z" stroke-width=".24749"/>
  <path d="m1.7455 44.21 2.7595 2.7538 0.3942-0.39339-2.7595-2.7538z" stroke-width=".24749"/>
  <g stroke-width=".2315">
   <path d="m4.5421 57.254 2.7595-2.7537-0.39422-0.39338-2.7595 2.7537z" fill="#3096fa"/>
   <path d="m1.7455 54.529 2.7595 2.7537 0.39422-0.39338-2.7595-2.7537z" fill="#3096fa"/>
   <path d="m4.5421 67.573 2.7595-2.7539-0.39422-0.39342-2.7595 2.7539z" fill="#fff"/>
   <path d="m1.7455 64.847 2.7595 2.7539 0.39422-0.39342-2.7595-2.7539z" fill="#fff"/>
   <path d="m4.5421 77.893 2.7595-2.7547-0.39422-0.39353-2.7595 2.7547z" fill="#aeaeae"/>
   <path d="m1.7455 75.165 2.7595 2.7547 0.39422-0.39353-2.7595-2.7547z" fill="#aeaeae"/>
  </g>
  <path d="m3.0401 86.221 2.7537 3.1541-0.39339 0.4506-2.7537-3.1541z" stroke-width=".26458"/>
  <g transform="translate(9.5229,2.1262)">
   <g fill="#3096fa">
    <path d="m-3.7012 92.119-2.7537 3.1521-0.39339-0.45029 2.7537-3.1521z" stroke-width=".26458"/>
    <path d="m-6.4828 94.416 2.7537 3.1521-0.39339 0.45026-2.7537-3.1521z" fill="#3096fa" stroke-width=".26458"/>
    <path d="m-5.2675 165.52 3.1539 2.7521-0.45054 0.39315-3.1539-2.7521z" stroke-width=".24749"/>
    <path d="m-8.4637 168.24 3.1539-2.7521 0.45054 0.39315-3.1539 2.7521z" stroke-width=".24749"/>
    <path d="m-5.2675 178.95 3.1539-2.7547-0.45054-0.39353-3.1539 2.7547z" stroke-width=".24749"/>
    <path d="m-8.4637 176.23 3.1539 2.7547 0.45054-0.39353-3.1539-2.7547z" stroke-width=".24749"/>
    <g stroke-width=".26458">
     <path d="m-3.7012 184.99-2.7537 3.1536-0.39339-0.4505 2.7537-3.1536z"/>
     <path d="m-6.4828 187.28 2.7537 3.1536-0.39339 0.45047-2.7537-3.1536z"/>
     <path d="m-6.8762 195.31 2.7537 3.1536 0.39339-0.45051-2.7537-3.1536z"/>
     <path d="m-4.0946 197.6-2.7537 3.1536 0.39339 0.45047 2.7537-3.1536z"/>
    </g>
   </g>
   <g stroke-width=".26458">
    <path d="m-3.7012 102.44-2.7537 3.1536-0.39339-0.45051 2.7537-3.1536z" fill="#fff" stroke-width=".26458"/>
    <path d="m-6.4828 104.73 2.7537 3.1536-0.39339 0.45048-2.7537-3.1536z" fill="#fff" stroke-width=".26458"/>
    <path d="m-3.7012 112.76-2.7537 3.1521-0.39339-0.45027 2.7537-3.1521z" fill="#aeaeae" stroke-width=".26458"/>
    <path d="m-6.4828 115.05 2.7537 3.1521-0.39339 0.45026-2.7537-3.1521z" fill="#aeaeae" stroke-width=".26458"/>
    <path d="m-6.8762 123.08 2.7537 3.1541 0.39339-0.45061-2.7537-3.1541z"/>
    <path d="m-4.0946 125.37-2.7537 3.1541 0.39339 0.45061 2.7537-3.1541z"/>
    <path d="m-6.8762 133.39 2.7537 3.1521 0.39339-0.45029-2.7537-3.1521z" fill="#3096fa"/>
    <path d="m-4.0946 135.69-2.7537 3.1521 0.39339 0.45026 2.7537-3.1521z" fill="#3096fa"/>
    <g transform="matrix(-1 0 0 1 -10.577 41.275)">
     <path d="m-3.7012 102.44-2.7537 3.1536-0.39339-0.45051 2.7537-3.1536z" fill="#fff" stroke-width=".26458"/>
     <path d="m-6.4828 104.73 2.7537 3.1536-0.39339 0.45048-2.7537-3.1536z" fill="#fff" stroke-width=".26458"/>
     <path d="m-3.7012 112.76-2.7537 3.1521-0.39339-0.45027 2.7537-3.1521z" fill="#aeaeae" stroke-width=".26458"/>
     <path d="m-6.4828 115.05 2.7537 3.1521-0.39339 0.45026-2.7537-3.1521z" fill="#aeaeae" stroke-width=".26458"/>
    </g>
   </g>
  </g>
 </g>
</svg>
