<?xml version="1.0" encoding="UTF-8"?>
<svg id="bitmap:19-32" width="19" height="152" version="1.1" viewBox="0 0 19 152" xmlns="http://www.w3.org/2000/svg" xmlns:cc="http://creativecommons.org/ns#" xmlns:dc="http://purl.org/dc/elements/1.1/" xmlns:rdf="http://www.w3.org/1999/02/22-rdf-syntax-ns#">
 <metadata>
  <rdf:RDF>
   <cc:Work rdf:about="">
    <dc:format>image/svg+xml</dc:format>
    <dc:type rdf:resource="http://purl.org/dc/dcmitype/StillImage"/>
   </cc:Work>
  </rdf:RDF>
 </metadata>
 <g transform="matrix(1.2106 0 0 1.189 -.18477 -.17782)" fill="none" stroke-width=".83352">
  <g>
   <ellipse cx="8" cy="8.1396" rx="7.4306" ry="7.5733" fill="#fffff9" stroke="#aeaeae"/>
   <ellipse cx="8" cy="24.12" rx="7.4306" ry="7.5733" fill="#fff" stroke="#3096fa"/>
   <ellipse cx="8" cy="40.1" rx="7.4306" ry="7.5733" fill="#fff" stroke="#2979ff"/>
  </g>
  <ellipse cx="8" cy="56.08" rx="7.4306" ry="7.5733" stroke="#aeaeae"/>
  <g fill="#fff">
   <ellipse cx="8" cy="72.06" rx="7.4306" ry="7.5733" stroke="#aeaeae"/>
   <ellipse cx="8" cy="88.04" rx="7.4306" ry="7.5733" stroke="#3096fa"/>
   <ellipse cx="8" cy="104.02" rx="7.4306" ry="7.5733" stroke="#2979ff"/>
  </g>
  <ellipse cx="8" cy="120" rx="7.4306" ry="7.5733" stroke="#aeaeae"/>
 </g>
 <path d="m15 85.5a5.5 5.5 0 0 1-5.5 5.5 5.5 5.5 0 0 1-5.5-5.5 5.5 5.5 0 0 1 5.5-5.5 5.5 5.5 0 0 1 5.5 5.5z" stroke-width=".99999"/>
 <g transform="matrix(1.0159 0 0 1.1881 1.3728 -.10631)">
  <path d="m12.967 88.044a5 4.2482 0 0 1-5 4.2482 5 4.2482 0 0 1-5-4.2482 5 4.2482 0 0 1 5-4.2482 5 4.2482 0 0 1 5 4.2482z" fill="#3096fa" stroke="#3096fa" stroke-width=".76202"/>
  <path d="m13.414 104.04a5.414 4.6292 0 0 1-5.414 4.6292 5.414 4.6292 0 0 1-5.414-4.6292 5.414 4.6292 0 0 1 5.414-4.6292 5.414 4.6292 0 0 1 5.414 4.6292z" fill="#2979ff" stroke-width=".76202"/>
  <path d="m13.414 120.03a5.414 4.6292 0 0 1-5.414 4.6292 5.414 4.6292 0 0 1-5.414-4.6292 5.414 4.6292 0 0 1 5.414-4.6292 5.414 4.6292 0 0 1 5.414 4.6292z" fill="#aeaeae" stroke-width=".76203"/>
 </g>
</svg>
