<?xml version="1.0" encoding="UTF-8"?>
<svg id="bitmap:52-32" width="52" height="432" version="1.1" viewBox="0 0 13.759 114.3" xmlns="http://www.w3.org/2000/svg" xmlns:cc="http://creativecommons.org/ns#" xmlns:dc="http://purl.org/dc/elements/1.1/" xmlns:rdf="http://www.w3.org/1999/02/22-rdf-syntax-ns#">
 <metadata>
  <rdf:RDF>
   <cc:Work rdf:about="">
    <dc:format>image/svg+xml</dc:format>
    <dc:type rdf:resource="http://purl.org/dc/dcmitype/StillImage"/>
   </cc:Work>
  </rdf:RDF>
 </metadata>
 <g transform="matrix(3.9999 0 0 1 .44623 1.0583)">
  <path d="m2.6665 11.672-1.0504 3.6742-0.15005-0.52485 1.0504-3.6742z" stroke-width=".1323"/>
  <path d="m0.69998 11.112 1.0504 3.6742-0.15005 0.52485-1.0504-3.6742z" stroke-width=".1323"/>
  <g transform="matrix(1.1443,0,0,1,10.306,-10.039)" stroke-width=".057808">
   <path d="m-6.676 50.289-0.91792 3.6709-0.13113-0.52443 0.91792-3.6709z" fill="#3096fa"/>
   <path d="m-8.3947 49.727 0.91792 3.6709-0.13113 0.52443-0.91792-3.6709z" fill="#3096fa"/>
   <path d="m-6.676 78.862-0.91792 3.6734-0.13113-0.52476 0.91792-3.6734z" fill="#2979ff"/>
   <path d="m-8.3947 78.302 0.91792 3.6736-0.13113 0.52476-0.91792-3.6734z" fill="#2979ff"/>
   <path d="m-6.676 107.44-0.91792 3.6734-0.13113-0.52475 0.91792-3.6734z" fill="#aeaeae"/>
   <path d="m-8.3947 106.88 0.91792 3.6734-0.13113 0.52476-0.91792-3.6734z" fill="#aeaeae"/>
  </g>
 </g>
</svg>
