<?xml version="1.0" encoding="UTF-8"?>
<svg id="bitmap:52-32" width="52" height="416" version="1.1" viewBox="0 0 13.759 110.07" xmlns="http://www.w3.org/2000/svg">
 <g transform="matrix(2.0001 0 0 1 52.143 218.29)" stroke-width=".18709">
  <path d="m-20.25-215.21-0.47964-0.95933-1.9016 3.8032-1.9016-3.8032-0.47966 0.95933 1.9016 3.8032-1.9016 3.8032 0.47966 0.95933 1.9016-3.8032 1.9016 3.8032 0.47964-0.95933-1.9016-3.8032z" fill="#aeaeae"/>
  <path d="m-20.25-173.93-0.47964-0.95933-1.9016 3.8032-1.9016-3.8032-0.47966 0.95933 1.9016 3.8032-1.9016 3.8032 0.47966 0.95933 1.9016-3.8032 1.9016 3.8032 0.47964-0.95933-1.9016-3.8032z" fill="#aeaeae"/>
  <path d="m-20.25-201.45-0.47964-0.95933-1.9016 3.8032-1.9016-3.8032-0.47966 0.95933 1.9016 3.8032-1.9016 3.8032 0.47966 0.95932 1.9016-3.8032 1.9016 3.8032 0.47964-0.95932-1.9016-3.8032z" fill="#ff1744"/>
  <path d="m-20.25-187.69-0.47964-0.95932-1.9016 3.8032-1.9016-3.8032-0.47966 0.95932 1.9016 3.8032-1.9016 3.8032 0.47966 0.95933 1.9016-3.8032 1.9016 3.8032 0.47964-0.95933-1.9016-3.8032z" fill="#d50000"/>
  <path d="m-20.25-160.17-0.47964-0.95933-1.9016 3.8032-1.9016-3.8032-0.47966 0.95933 1.9016 3.8032-1.9016 3.8032 0.47966 0.95933 1.9016-3.8032 1.9016 3.8032 0.47964-0.95933-1.9016-3.8032z" fill="#aeaeae"/>
  <path d="m-20.25-118.9-0.47964-0.95933-1.9016 3.8032-1.9016-3.8032-0.47966 0.95933 1.9016 3.8032-1.9016 3.8032 0.47966 0.95933 1.9016-3.8032 1.9016 3.8032 0.47964-0.95933-1.9016-3.8032z" fill="#aeaeae"/>
  <path d="m-20.25-146.41-0.47964-0.95933-1.9016 3.8032-1.9016-3.8032-0.47966 0.95933 1.9016 3.8032-1.9016 3.8032 0.47966 0.95932 1.9016-3.8032 1.9016 3.8032 0.47964-0.95932-1.9016-3.8032z" fill="#ff1744"/>
  <path d="m-20.25-132.66-0.47964-0.95932-1.9016 3.8032-1.9016-3.8032-0.47966 0.95932 1.9016 3.8032-1.9016 3.8032 0.47966 0.95933 1.9016-3.8032 1.9016 3.8032 0.47964-0.95933-1.9016-3.8032z" fill="#d50000"/>
 </g>
</svg>
