<?xml version="1.0" encoding="UTF-8"?>
<svg id="bitmap:48-32" width="48" height="384" version="1.1" viewBox="0 0 12.7 101.6" xmlns="http://www.w3.org/2000/svg" xmlns:cc="http://creativecommons.org/ns#" xmlns:dc="http://purl.org/dc/elements/1.1/" xmlns:rdf="http://www.w3.org/1999/02/22-rdf-syntax-ns#">
 <metadata>
  <rdf:RDF>
   <cc:Work rdf:about="">
    <dc:format>image/svg+xml</dc:format>
    <dc:type rdf:resource="http://purl.org/dc/dcmitype/StillImage"/>
   </cc:Work>
  </rdf:RDF>
 </metadata>
 <g transform="matrix(1.5 0 0 1.5 -.1323 -.52924)" fill="#bdbdbd" stroke-width="0">
  <rect x="6.4382" y="5.1153" width="1.0583" height="1.0583"/>
  <rect x="6.4382" y="5.1153" width="1.0583" height="1.0583"/>
  <rect x="4.8507" y="6.7028" width="1.0583" height="1.0583"/>
  <rect x="6.4382" y="3.5278" width="1.0583" height="1.0583"/>
  <rect x="6.4382" y="6.7028" width="1.0583" height="1.0583"/>
  <rect x="4.8507" y="5.1153" width="1.0583" height="1.0583"/>
  <rect x="3.2632" y="6.7028" width="1.0583" height="1.0583"/>
  <rect transform="scale(-1,1)" x="-2.2049" y="13.582" width="1.0583" height="1.0583"/>
  <rect transform="scale(-1,1)" x="-2.2049" y="13.582" width="1.0583" height="1.0583"/>
  <rect transform="scale(-1,1)" x="-3.7924" y="15.169" width="1.0583" height="1.0583"/>
  <rect transform="scale(-1,1)" x="-2.2049" y="11.994" width="1.0583" height="1.0583"/>
  <rect transform="scale(-1,1)" x="-2.2049" y="15.169" width="1.0583" height="1.0583"/>
  <rect transform="scale(-1,1)" x="-3.7924" y="13.582" width="1.0583" height="1.0583"/>
  <rect transform="scale(-1,1)" x="-5.3799" y="15.169" width="1.0583" height="1.0583"/>
  <rect transform="scale(1,-1)" x="6.4382" y="-20.99" width="1.0583" height="1.0583"/>
  <rect transform="scale(1,-1)" x="6.4382" y="-20.99" width="1.0583" height="1.0583"/>
  <rect transform="scale(1,-1)" x="4.8507" y="-19.403" width="1.0583" height="1.0583"/>
  <rect transform="scale(1,-1)" x="6.4382" y="-22.578" width="1.0583" height="1.0583"/>
  <rect transform="scale(1,-1)" x="6.4382" y="-19.403" width="1.0583" height="1.0583"/>
  <rect transform="scale(1,-1)" x="4.8507" y="-20.99" width="1.0583" height="1.0583"/>
  <rect transform="scale(1,-1)" x="3.2632" y="-19.403" width="1.0583" height="1.0583"/>
  <rect transform="scale(-1)" x="-2.2049" y="-29.457" width="1.0583" height="1.0583"/>
  <rect transform="scale(-1)" x="-2.2049" y="-29.457" width="1.0583" height="1.0583"/>
  <rect transform="scale(-1)" x="-3.7924" y="-27.869" width="1.0583" height="1.0583"/>
  <rect transform="scale(-1)" x="-2.2049" y="-31.044" width="1.0583" height="1.0583"/>
  <rect transform="scale(-1)" x="-2.2049" y="-27.869" width="1.0583" height="1.0583"/>
  <rect transform="scale(-1)" x="-3.7924" y="-29.457" width="1.0583" height="1.0583"/>
  <rect transform="scale(-1)" x="-5.3799" y="-27.869" width="1.0583" height="1.0583"/>
  <rect x="6.4382" y="38.982" width="1.0583" height="1.0583"/>
  <rect x="6.4382" y="38.982" width="1.0583" height="1.0583"/>
  <rect x="4.8507" y="40.569" width="1.0583" height="1.0583"/>
  <rect x="6.4382" y="37.394" width="1.0583" height="1.0583"/>
  <rect x="6.4382" y="40.569" width="1.0583" height="1.0583"/>
  <rect x="4.8507" y="38.982" width="1.0583" height="1.0583"/>
  <rect x="3.2632" y="40.569" width="1.0583" height="1.0583"/>
  <rect transform="scale(-1,1)" x="-2.2049" y="47.449" width="1.0583" height="1.0583"/>
  <rect transform="scale(-1,1)" x="-2.2049" y="47.449" width="1.0583" height="1.0583"/>
  <rect transform="scale(-1,1)" x="-3.7924" y="49.036" width="1.0583" height="1.0583"/>
  <rect transform="scale(-1,1)" x="-2.2049" y="45.861" width="1.0583" height="1.0583"/>
  <rect transform="scale(-1,1)" x="-2.2049" y="49.036" width="1.0583" height="1.0583"/>
  <rect transform="scale(-1,1)" x="-3.7924" y="47.449" width="1.0583" height="1.0583"/>
  <rect transform="scale(-1,1)" x="-5.3799" y="49.036" width="1.0583" height="1.0583"/>
  <rect transform="scale(1,-1)" x="6.4382" y="-54.857" width="1.0583" height="1.0583"/>
  <rect transform="scale(1,-1)" x="6.4382" y="-54.857" width="1.0583" height="1.0583"/>
  <rect transform="scale(1,-1)" x="4.8507" y="-53.269" width="1.0583" height="1.0583"/>
  <rect transform="scale(1,-1)" x="6.4382" y="-56.444" width="1.0583" height="1.0583"/>
  <rect transform="scale(1,-1)" x="6.4382" y="-53.269" width="1.0583" height="1.0583"/>
  <rect transform="scale(1,-1)" x="4.8507" y="-54.857" width="1.0583" height="1.0583"/>
  <rect transform="scale(1,-1)" x="3.2632" y="-53.269" width="1.0583" height="1.0583"/>
  <rect transform="scale(-1)" x="-2.2049" y="-63.324" width="1.0583" height="1.0583"/>
  <rect transform="scale(-1)" x="-2.2049" y="-63.324" width="1.0583" height="1.0583"/>
  <rect transform="scale(-1)" x="-3.7924" y="-61.736" width="1.0583" height="1.0583"/>
  <rect transform="scale(-1)" x="-2.2049" y="-64.911" width="1.0583" height="1.0583"/>
  <rect transform="scale(-1)" x="-2.2049" y="-61.736" width="1.0583" height="1.0583"/>
  <rect transform="scale(-1)" x="-3.7924" y="-63.324" width="1.0583" height="1.0583"/>
  <rect transform="scale(-1)" x="-5.3799" y="-61.736" width="1.0583" height="1.0583"/>
 </g>
</svg>
