<?xml version="1.0" encoding="UTF-8"?>
<svg id="bitmap:40-32" width="40" height="160" version="1.1" viewBox="0 0 10.583 42.332" xmlns="http://www.w3.org/2000/svg">
 <g stroke-width=".26458">
  <path d="m4.2334 6.8791-1.5784-1.6585-0.52616 0.55288 2.1046 2.2114 4.51-4.7388-0.52616-0.55288z"/>
  <path d="m4.2212 17.415-1.5784-1.6585-0.52616 0.55288 2.1046 2.2114 4.51-4.7388-0.52616-0.55288z" fill="#aeaeae"/>
  <path d="m7.1438 37.041a1.8521 1.8521 0 0 1-1.8521 1.8521 1.8521 1.8521 0 0 1-1.8521-1.8521 1.8521 1.8521 0 0 1 1.8521-1.8521 1.8521 1.8521 0 0 1 1.8521 1.8521z" fill="#aeaeae"/>
  <path d="m7.1438 26.458a1.8521 1.8521 0 0 1-1.8521 1.8521 1.8521 1.8521 0 0 1-1.8521-1.8521 1.8521 1.8521 0 0 1 1.8521-1.8521 1.8521 1.8521 0 0 1 1.8521 1.8521z"/>
 </g>
</svg>
