<?xml version="1.0" encoding="UTF-8"?>
<svg id="bitmap:13-32" width="13" height="104" version="1.1" viewBox="0 0 3.4396 27.517" xmlns="http://www.w3.org/2000/svg">
 <g stroke-width=".070004">
  <path d="m1.7393 1.7637c0.093263-0.17421 0.27252-0.27698 0.37669-0.43114 0.11022-0.16168 0.048448-0.46372-0.26404-0.46372-0.20469 0-0.30522 0.16042-0.34762 0.29327l-0.3137-0.13661c0.085996-0.26695 0.31976-0.49631 0.66011-0.49631 0.28463 0 0.47964 0.1341 0.57896 0.30205 0.084785 0.14413 0.13444 0.41359 0.00364 0.61412-0.14534 0.22183-0.28463 0.28951-0.35973 0.43239-0.03028 0.057652-0.042393 0.095251-0.042393 0.28074h-0.35004c-0.00121-0.097758-0.015745-0.25693 0.058138-0.39479zm0.35488 0.89611c0 0.13786-0.10901 0.25066-0.24224 0.25066-0.13323 0-0.24224-0.1128-0.24224-0.25066 0-0.13786 0.10901-0.25066 0.24224-0.25066 0.13323 0 0.24224 0.1128 0.24224 0.25066z" fill="#aeaeae"/>
  <path d="m1.7393 5.2033c0.093263-0.17421 0.27252-0.27698 0.37669-0.43114 0.11022-0.16168 0.048448-0.46372-0.26404-0.46372-0.20469 0-0.30522 0.16042-0.34762 0.29327l-0.3137-0.13661c0.085996-0.26695 0.31976-0.49631 0.66011-0.49631 0.28463 0 0.47964 0.1341 0.57896 0.30205 0.084785 0.14413 0.13444 0.41359 0.00364 0.61412-0.14534 0.22183-0.28463 0.28951-0.35973 0.43239-0.03028 0.057652-0.042393 0.095251-0.042393 0.28074h-0.35004c-0.00121-0.097758-0.015745-0.25693 0.058138-0.39479zm0.35488 0.89611c0 0.13786-0.10901 0.25066-0.24224 0.25066-0.13323 0-0.24224-0.1128-0.24224-0.25066 0-0.13786 0.10901-0.25066 0.24224-0.25066 0.13323 0 0.24224 0.1128 0.24224 0.25066z" fill="#3096fa"/>
  <path d="m1.7393 8.6429c0.093263-0.17421 0.27252-0.27698 0.37669-0.43114 0.11022-0.16168 0.048448-0.46372-0.26404-0.46372-0.20469 0-0.30522 0.16042-0.34762 0.29327l-0.3137-0.13661c0.085996-0.26695 0.31976-0.49631 0.66011-0.49631 0.28463 0 0.47964 0.1341 0.57896 0.30205 0.084785 0.14413 0.13444 0.41359 0.00364 0.61412-0.14534 0.22183-0.28463 0.28951-0.35973 0.43239-0.03028 0.057652-0.042393 0.095251-0.042393 0.28074h-0.35004c-0.00121-0.097758-0.015745-0.25693 0.058138-0.39479zm0.35488 0.89611c0 0.13786-0.10901 0.25066-0.24224 0.25066-0.13323 0-0.24224-0.1128-0.24224-0.25066 0-0.13786 0.10901-0.25066 0.24224-0.25066 0.13323 0 0.24224 0.1128 0.24224 0.25066z" fill="#2979ff"/>
  <path d="m1.7393 12.083c0.093263-0.17421 0.27252-0.27698 0.37669-0.43114 0.11022-0.16168 0.048448-0.46372-0.26404-0.46372-0.20469 0-0.30522 0.16042-0.34762 0.29327l-0.3137-0.13661c0.085996-0.26695 0.31976-0.49631 0.66011-0.49631 0.28463 0 0.47964 0.1341 0.57896 0.30205 0.084785 0.14413 0.13444 0.41359 0.00364 0.61412-0.14534 0.22184-0.28463 0.28951-0.35973 0.43239-0.03028 0.05765-0.042393 0.09525-0.042393 0.28074h-0.35004c-0.00121-0.09776-0.015745-0.25693 0.058138-0.39479zm0.35488 0.89611c0 0.13786-0.10901 0.25066-0.24224 0.25066-0.13323 0-0.24224-0.1128-0.24224-0.25066 0-0.13786 0.10901-0.25066 0.24224-0.25066 0.13323 0 0.24224 0.1128 0.24224 0.25066z" fill="#aeaeae"/>
  <path d="m1.7393 15.522c0.093263-0.17421 0.27252-0.27698 0.37669-0.43114 0.11022-0.16168 0.048448-0.46372-0.26404-0.46372-0.20469 0-0.30522 0.16042-0.34762 0.29327l-0.3137-0.13661c0.085996-0.26695 0.31976-0.49631 0.66011-0.49631 0.28463 0 0.47964 0.1341 0.57896 0.30205 0.084785 0.14413 0.13444 0.41359 0.00364 0.61412-0.14534 0.22184-0.28463 0.28951-0.35973 0.43239-0.03028 0.05765-0.042393 0.09525-0.042393 0.28074h-0.35004c-0.00121-0.09776-0.015745-0.25693 0.058138-0.39479zm0.35488 0.89611c0 0.13786-0.10901 0.25066-0.24224 0.25066-0.13323 0-0.24224-0.1128-0.24224-0.25066 0-0.13786 0.10901-0.25066 0.24224-0.25066 0.13323 0 0.24224 0.1128 0.24224 0.25066z" fill="#aeaeae"/>
  <path d="m1.7393 18.962c0.093263-0.17421 0.27252-0.27698 0.37669-0.43114 0.11022-0.16168 0.048448-0.46372-0.26404-0.46372-0.20469 0-0.30522 0.16042-0.34762 0.29327l-0.3137-0.13661c0.085996-0.26696 0.31976-0.49631 0.66011-0.49631 0.28463 0 0.47964 0.1341 0.57896 0.30205 0.084785 0.14413 0.13444 0.41359 0.00364 0.61412-0.14534 0.22184-0.28463 0.28951-0.35973 0.43239-0.03028 0.05765-0.042393 0.09525-0.042393 0.28074h-0.35004c-0.00121-0.09776-0.015745-0.25693 0.058138-0.39479zm0.35488 0.89611c0 0.13786-0.10901 0.25066-0.24224 0.25066-0.13323 0-0.24224-0.1128-0.24224-0.25066 0-0.13786 0.10901-0.25066 0.24224-0.25066 0.13323 0 0.24224 0.1128 0.24224 0.25066z" fill="#3096fa"/>
  <path d="m1.7393 22.401c0.093263-0.17421 0.27252-0.27698 0.37669-0.43114 0.11022-0.16168 0.048448-0.46372-0.26404-0.46372-0.20469 0-0.30522 0.16042-0.34762 0.29327l-0.3137-0.13661c0.085996-0.26695 0.31976-0.49631 0.66011-0.49631 0.28463 0 0.47964 0.1341 0.57896 0.30205 0.084785 0.14413 0.13444 0.41359 0.00364 0.61412-0.14534 0.22184-0.28463 0.28951-0.35973 0.43239-0.03028 0.05765-0.042393 0.09525-0.042393 0.28074h-0.35004c-0.00121-0.09776-0.015745-0.25693 0.058138-0.39479zm0.35488 0.89611c0 0.13786-0.10901 0.25066-0.24224 0.25066-0.13323 0-0.24224-0.1128-0.24224-0.25066 0-0.13786 0.10901-0.25066 0.24224-0.25066 0.13323 0 0.24224 0.1128 0.24224 0.25066z" fill="#2979ff"/>
  <path d="m1.7393 25.841c0.093263-0.17421 0.27252-0.27698 0.37669-0.43114 0.11022-0.16168 0.048448-0.46372-0.26404-0.46372-0.20469 0-0.30522 0.16042-0.34762 0.29327l-0.3137-0.13661c0.085996-0.26695 0.31976-0.49631 0.66011-0.49631 0.28463 0 0.47964 0.1341 0.57896 0.30205 0.084785 0.14413 0.13444 0.41359 0.00364 0.61412-0.14534 0.22184-0.28463 0.28951-0.35973 0.43239-0.03028 0.05765-0.042393 0.09525-0.042393 0.28074h-0.35004c-0.00121-0.09776-0.015745-0.25693 0.058138-0.39479zm0.35488 0.89611c0 0.13786-0.10901 0.25066-0.24224 0.25066-0.13323 0-0.24224-0.1128-0.24224-0.25066 0-0.13786 0.10901-0.25066 0.24224-0.25066 0.13323 0 0.24224 0.1128 0.24224 0.25066z" fill="#aeaeae"/>
 </g>
</svg>
