<?xml version="1.0" encoding="UTF-8"?>
<svg id="bitmap:25-32" width="25" height="300" fill="#000000" version="1.1" viewBox="0 0 25 300" xmlns="http://www.w3.org/2000/svg" xmlns:cc="http://creativecommons.org/ns#" xmlns:dc="http://purl.org/dc/elements/1.1/" xmlns:rdf="http://www.w3.org/1999/02/22-rdf-syntax-ns#">
 <metadata>
  <rdf:RDF>
   <cc:Work rdf:about="">
    <dc:format>image/svg+xml</dc:format>
    <dc:type rdf:resource="http://purl.org/dc/dcmitype/StillImage"/>
   </cc:Work>
  </rdf:RDF>
 </metadata>
 <rect width="25" height="300" fill="#fff" fill-opacity=".98444"/>
 <rect x="1" y="1" width="23" height="23" rx="2" ry="2" fill="none" stroke="#aeaeae" stroke-width="2"/>
 <path d="m9.4091 116.87-4.0568-4.7015-1.3523 1.5672 5.4091 6.2687 11.591-13.433-1.3523-1.5672z"/>
 <path d="m4 211h17v3h-17z"/>
 <g fill="none" stroke-width="2">
  <rect x="1" y="26" width="23" height="23" rx="2" ry="2" stroke="#3096fa"/>
  <rect x="1" y="51" width="23" height="23" rx="2" ry="2" stroke="#2979ff"/>
  <rect x="1" y="76" width="23" height="23" rx="2" ry="2" stroke="#aeaeae"/>
  <rect x="1" y="101" width="23" height="23" rx="2" ry="2" stroke="#aeaeae"/>
  <rect x="1" y="126" width="23" height="23" rx="2" ry="2" stroke="#3096fa"/>
  <rect x="1" y="151" width="23" height="23" rx="2" ry="2" stroke="#2979ff"/>
  <rect x="1" y="176" width="23" height="23" rx="2" ry="2" stroke="#aeaeae"/>
 </g>
 <path d="m9.4091 141.87-4.0568-4.7015-1.3523 1.5672 5.4091 6.2687 11.591-13.433-1.3523-1.5672z" fill="#3096fa"/>
 <path d="m9.4091 166.87-4.0568-4.7015-1.3523 1.5672 5.4091 6.2687 11.591-13.433-1.3523-1.5672z" fill="#2979ff"/>
 <path d="m9.4091 191.87-4.0568-4.7015-1.3523 1.5672 5.4091 6.2687 11.591-13.433-1.3523-1.5672z" fill="#aeaeae"/>
 <g fill="none" stroke-width="2">
  <rect x="1" y="201" width="23" height="23" rx="2" ry="2" stroke="#aeaeae"/>
  <rect x="1" y="226" width="23" height="23" rx="2" ry="2" stroke="#3096fa"/>
  <rect x="1" y="251" width="23" height="23" rx="2" ry="2" stroke="#2979ff"/>
  <rect x="1" y="276" width="23" height="23" rx="2" ry="2" stroke="#aeaeae"/>
 </g>
 <path d="m4 236h17v3h-17z" fill="#3096fa"/>
 <path d="m4 261h17v3h-17z" fill="#2979ff"/>
 <path d="m4 286h17v3h-17z" fill="#aeaeae"/>
</svg>
