<?xml version="1.0" encoding="UTF-8"?>
<svg id="bitmap:40-32" width="40" height="320" version="1.1" viewBox="0 0 10.584 84.664" xmlns="http://www.w3.org/2000/svg" xmlns:cc="http://creativecommons.org/ns#" xmlns:dc="http://purl.org/dc/elements/1.1/" xmlns:rdf="http://www.w3.org/1999/02/22-rdf-syntax-ns#">
 <metadata>
  <rdf:RDF>
   <cc:Work rdf:about="">
    <dc:format>image/svg+xml</dc:format>
    <dc:type rdf:resource="http://purl.org/dc/dcmitype/StillImage"/>
   </cc:Work>
  </rdf:RDF>
 </metadata>
 <g transform="matrix(2 0 0 2 -1.8779e-5 -.52927)" fill="#bdbdbd" stroke-width="0">
  <rect x="3.9687" y="4.2334" width=".66145" height=".66145"/>
  <rect x="3.0428" y="4.2333" width=".66145" height=".66145"/>
  <rect x="2.1167" y="4.2333" width=".66145" height=".66145"/>
  <rect x="3.0428" y="3.3073" width=".66145" height=".66145"/>
  <rect x="3.9688" y="3.3072" width=".66145" height=".66145"/>
  <rect x="3.9688" y="2.3812" width=".66145" height=".66145"/>
  <rect transform="scale(-1,1)" x="-1.3231" y="9.5251" width=".66145" height=".66145"/>
  <rect transform="scale(-1,1)" x="-2.249" y="9.5251" width=".66145" height=".66145"/>
  <rect transform="scale(-1,1)" x="-3.1751" y="9.5251" width=".66145" height=".66145"/>
  <rect transform="scale(-1,1)" x="-2.249" y="8.599" width=".66145" height=".66145"/>
  <rect transform="scale(-1,1)" x="-1.323" y="8.599" width=".66145" height=".66145"/>
  <rect transform="scale(-1,1)" x="-1.3229" y="7.673" width=".66145" height=".66145"/>
  <rect transform="scale(1,-1)" x="3.9687" y="-12.171" width=".66145" height=".66145"/>
  <rect transform="scale(1,-1)" x="3.0428" y="-12.171" width=".66145" height=".66145"/>
  <rect transform="scale(1,-1)" x="2.1167" y="-12.171" width=".66145" height=".66145"/>
  <rect transform="scale(1,-1)" x="3.0428" y="-13.097" width=".66145" height=".66145"/>
  <rect transform="scale(1,-1)" x="3.9688" y="-13.097" width=".66145" height=".66145"/>
  <rect transform="scale(1,-1)" x="3.9688" y="-14.023" width=".66145" height=".66145"/>
  <rect transform="scale(-1)" x="-1.3231" y="-17.462" width=".66145" height=".66145"/>
  <rect transform="scale(-1)" x="-2.249" y="-17.462" width=".66145" height=".66145"/>
  <rect transform="scale(-1)" x="-3.1751" y="-17.462" width=".66145" height=".66145"/>
  <rect transform="scale(-1)" x="-2.249" y="-18.388" width=".66145" height=".66145"/>
  <rect transform="scale(-1)" x="-1.323" y="-18.388" width=".66145" height=".66145"/>
  <rect transform="scale(-1)" x="-1.3229" y="-19.315" width=".66145" height=".66145"/>
  <rect x="3.9687" y="25.4" width=".66145" height=".66145"/>
  <rect x="3.0428" y="25.4" width=".66145" height=".66145"/>
  <rect x="2.1167" y="25.4" width=".66145" height=".66145"/>
  <rect x="3.0428" y="24.474" width=".66145" height=".66145"/>
  <rect x="3.9688" y="24.474" width=".66145" height=".66145"/>
  <rect x="3.9688" y="23.548" width=".66145" height=".66145"/>
  <rect transform="scale(-1,1)" x="-1.3231" y="30.692" width=".66145" height=".66145"/>
  <rect transform="scale(-1,1)" x="-2.249" y="30.692" width=".66145" height=".66145"/>
  <rect transform="scale(-1,1)" x="-3.1751" y="30.692" width=".66145" height=".66145"/>
  <rect transform="scale(-1,1)" x="-2.249" y="29.766" width=".66145" height=".66145"/>
  <rect transform="scale(-1,1)" x="-1.323" y="29.766" width=".66145" height=".66145"/>
  <rect transform="scale(-1,1)" x="-1.323" y="28.84" width=".66145" height=".66145"/>
  <rect transform="scale(1,-1)" x="3.9687" y="-33.337" width=".66145" height=".66145"/>
  <rect transform="scale(1,-1)" x="3.0428" y="-33.337" width=".66145" height=".66145"/>
  <rect transform="scale(1,-1)" x="2.1167" y="-33.337" width=".66145" height=".66145"/>
  <rect transform="scale(1,-1)" x="3.0428" y="-34.263" width=".66145" height=".66145"/>
  <rect transform="scale(1,-1)" x="3.9688" y="-34.264" width=".66145" height=".66145"/>
  <rect transform="scale(1,-1)" x="3.9689" y="-35.19" width=".66145" height=".66145"/>
  <rect transform="scale(-1)" x="-1.3231" y="-38.629" width=".66145" height=".66145"/>
  <rect transform="scale(-1)" x="-2.249" y="-38.629" width=".66145" height=".66145"/>
  <rect transform="scale(-1)" x="-3.1751" y="-38.629" width=".66145" height=".66145"/>
  <rect transform="scale(-1)" x="-2.249" y="-39.555" width=".66145" height=".66145"/>
  <rect transform="scale(-1)" x="-1.323" y="-39.555" width=".66145" height=".66145"/>
  <rect transform="scale(-1)" x="-1.323" y="-40.481" width=".66145" height=".66145"/>
 </g>
</svg>
