<?xml version="1.0" encoding="UTF-8"?>
<svg id="bitmap:9-32" width="9" height="144" version="1.1" viewBox="0 0 2.3812 38.1" xmlns="http://www.w3.org/2000/svg" xmlns:cc="http://creativecommons.org/ns#" xmlns:dc="http://purl.org/dc/elements/1.1/" xmlns:rdf="http://www.w3.org/1999/02/22-rdf-syntax-ns#">
 <metadata>
  <rdf:RDF>
   <cc:Work rdf:about="">
    <dc:format>image/svg+xml</dc:format>
    <dc:type rdf:resource="http://purl.org/dc/dcmitype/StillImage"/>
    <dc:title/>
   </cc:Work>
  </rdf:RDF>
 </metadata>
 <g stroke-width=".26458">
  <path d="m1.1968 0.53845 0.91986 0.91792-0.13141 0.13113-0.91986-0.91792z"/>
  <path d="m0.26458 1.4471 0.91986-0.91792 0.13141 0.13113-0.91986 0.91792z"/>
  <g>
   <path d="m1.1968 2.9197 0.91986 0.91792-0.13141 0.13113-0.91986-0.91792z" fill="#3096fa"/>
   <path d="m0.26458 3.8283 0.91986-0.91792 0.13141 0.13113-0.91986 0.91792z" fill="#3096fa"/>
   <path d="m1.1968 5.301 0.91986 0.91792-0.13141 0.13113-0.91986-0.91792z" fill="#fff"/>
   <path d="m0.26458 6.2096 0.91986-0.91792 0.13141 0.13113-0.91986 0.91792z" fill="#fff"/>
   <path d="m1.1968 7.6822 0.91986 0.91792-0.13141 0.13113-0.91986-0.91792z" fill="#aeaeae"/>
   <path d="m0.26458 8.5908 0.91986-0.91792 0.13141 0.13113-0.91986 0.91792z" fill="#aeaeae"/>
  </g>
  <path d="m2.1144 10.459-0.91792 0.91986-0.13113-0.13141 0.91792-0.91986z"/>
  <path d="m0.39571 10.319 0.91792 0.91986-0.13113 0.13141-0.91792-0.91986z"/>
  <g>
   <path d="m2.1144 12.841-0.91792 0.91986-0.13113-0.13141 0.91792-0.91986z" fill="#3096fa"/>
   <path d="m0.39571 12.7 0.91792 0.91986-0.13113 0.13141-0.91792-0.91986z" fill="#3096fa"/>
   <path d="m2.1144 15.222-0.91792 0.91986-0.13113-0.13141 0.91792-0.91986z" fill="#fff"/>
   <path d="m0.39571 15.081 0.91792 0.91986-0.13113 0.13141-0.91792-0.91986z" fill="#fff"/>
   <path d="m2.1144 17.603-0.91792 0.91986-0.13113-0.13141 0.91792-0.91986z" fill="#aeaeae"/>
   <path d="m0.39571 17.462 0.91792 0.91986-0.13113 0.13141-0.91792-0.91986z" fill="#aeaeae"/>
  </g>
  <path d="m1.5875 19.446-0.9179 0.91988-0.13113-0.13141 0.9179-0.91988z"/>
  <path d="m0.6603 20.115 0.9179 0.91988-0.13113 0.13141-0.9179-0.91988z"/>
  <g>
   <path d="m1.5875 21.827-0.9179 0.91988-0.13113-0.13141 0.9179-0.91988z" fill="#3096fa"/>
   <path d="m0.6603 22.497 0.9179 0.91988-0.13113 0.13141-0.9179-0.91988z" fill="#3096fa"/>
   <path d="m1.5875 24.208-0.9179 0.91988-0.13113-0.13141 0.9179-0.91988z" fill="#fff"/>
   <path d="m0.6603 24.878 0.9179 0.91988-0.13113 0.13141-0.9179-0.91988z" fill="#fff"/>
   <path d="m1.5875 26.59-0.9179 0.91988-0.13113-0.13141 0.9179-0.91988z" fill="#aeaeae"/>
   <path d="m0.6603 27.259 0.9179 0.91988-0.13113 0.13141-0.9179-0.91988z" fill="#aeaeae"/>
  </g>
  <path d="m1.7229 29.889-0.91988-0.9179 0.13141-0.13113 0.91988 0.9179z"/>
  <path d="m1.845 29.772-0.91988 0.9179-0.13141-0.13113 0.91988-0.9179z"/>
  <g>
   <path d="m1.7229 32.27-0.91988-0.9179 0.13141-0.13113 0.91988 0.9179z" fill="#3096fa"/>
   <path d="m1.845 32.153-0.91988 0.9179-0.13141-0.13113 0.91988-0.9179z" fill="#3096fa"/>
   <path d="m1.7229 34.651-0.91988-0.9179 0.13141-0.13113 0.91988 0.9179z" fill="#fff"/>
   <path d="m1.845 34.534-0.91988 0.9179-0.13141-0.13113 0.91988-0.9179z" fill="#fff"/>
   <path d="m1.7229 37.032-0.91988-0.9179 0.13141-0.13113 0.91988 0.9179z" fill="#aeaeae"/>
   <path d="m1.845 36.915-0.91988 0.9179-0.13141-0.13113 0.91988-0.9179z" fill="#aeaeae"/>
  </g>
 </g>
</svg>
