<?xml version="1.0" encoding="UTF-8"?>
<svg id="bitmap:26-32" width="26" height="72" version="1.1" viewBox="0 0 6.8791 19.05" xmlns="http://www.w3.org/2000/svg" xmlns:cc="http://creativecommons.org/ns#" xmlns:dc="http://purl.org/dc/elements/1.1/" xmlns:rdf="http://www.w3.org/1999/02/22-rdf-syntax-ns#">
 <metadata>
  <rdf:RDF>
   <cc:Work rdf:about="">
    <dc:format>image/svg+xml</dc:format>
    <dc:type rdf:resource="http://purl.org/dc/dcmitype/StillImage"/>
   </cc:Work>
  </rdf:RDF>
 </metadata>
 <g transform="translate(-40.717,-1.1913)">
  <g transform="matrix(1.2497,0,0,1.2109,-9.0269,5.5974)" fill="#fff" stroke-width=".21508">
   <g transform="matrix(.95025 0 0 .86559 1.102 -4.705)" stroke="#3096fa" stroke-width=".23716">
    <rect x="40.849" y="7.409" width="5.5562" height="5.8208" rx=".4456" ry=".50486" stroke-width=".23716"/>
   </g>
  </g>
  <rect x="40.849" y="14.024" width="6.6146" height="6.0854" rx=".52917" ry=".52917" fill="#fff" stroke="#2979ff" stroke-width=".26458"/>
  <g stroke-width=".070003">
   <path d="m45.459 6.4186-1.5106-1.5223q-0.13467 0.046842-0.26934 0.076117-0.13467 0.029279-0.2752 0.029279-0.56795 0-0.96611-0.39524-0.39815-0.39524-0.39815-0.96319 0-0.1815 0.04684-0.35424t0.13467-0.32496l0.849 0.84901 0.53867-0.50356-0.87241-0.87243q0.15224-0.087829 0.32203-0.1376 0.16981-0.04977 0.34545-0.04977 0.57966 0 0.9866 0.40694t0.40694 0.98661q0 0.14053-0.02928 0.2752t-0.07611 0.26934l1.5165 1.5106q0.06439 0.064409 0.06439 0.15516 0 0.090756-0.06439 0.15516l-0.44499 0.40986q-0.06442 0.064409-0.15224 0.064409-0.08783 0-0.15224-0.064409zm0.16395-0.33375 0.23421-0.2342-1.5985-1.5985q0.09369-0.12296 0.14053-0.28985 0.04684-0.16688 0.04684-0.3191 0-0.43914-0.32496-0.74362-0.32495-0.30447-0.74068-0.31033l0.59137 0.60309q0.0527 0.052697 0.0527 0.12881 0 0.076118-0.0527 0.12881l-0.77288 0.72604q-0.0527 0.052697-0.12881 0.052697t-0.12881-0.052697l-0.56795-0.56209q0.01756 0.45084 0.3191 0.74362 0.30154 0.29276 0.7114 0.29276 0.14639 0 0.31032-0.046842 0.16395-0.046842 0.28692-0.14053z" fill="#aeaeae"/>
   <path d="m45.459 12.769-1.5106-1.5223q-0.13467 0.04684-0.26934 0.07611-0.13467 0.02928-0.2752 0.02928-0.56794 0-0.96611-0.39524-0.39815-0.39522-0.39815-0.96317 0-0.1815 0.04684-0.35424t0.13467-0.32496l0.849 0.84901 0.53867-0.50356-0.87241-0.87243q0.15224-0.087828 0.32203-0.1376 0.16981-0.049772 0.34545-0.049772 0.57966 0 0.9866 0.40694t0.40694 0.98661q0 0.14053-0.02928 0.2752t-0.07611 0.26934l1.5165 1.5106q0.06441 0.06442 0.06441 0.15516 0 0.09076-0.06441 0.15516l-0.44499 0.40986q-0.06442 0.06442-0.15224 0.06442-0.08783 0-0.15224-0.06442zm0.16395-0.33375 0.2342-0.2342-1.5985-1.5984q0.09367-0.12295 0.14053-0.28983 0.04684-0.16688 0.04684-0.3191 0-0.43914-0.32496-0.74362-0.32496-0.30447-0.74068-0.31031l0.59137 0.60309q0.0527 0.052701 0.0527 0.12881 0 0.076111-0.0527 0.12881l-0.77288 0.72604q-0.0527 0.0527-0.12881 0.0527t-0.12881-0.0527l-0.56794-0.56209q0.01756 0.45084 0.3191 0.74362 0.30154 0.29276 0.7114 0.29276 0.14639 0 0.31032-0.04684 0.16395-0.04684 0.28691-0.14053z" fill="#3096fa"/>
   <path d="m45.459 19.119-1.5106-1.5223q-0.13467 0.04684-0.26934 0.07611-0.13467 0.02928-0.2752 0.02928-0.56794 0-0.96611-0.39522-0.39815-0.39524-0.39815-0.96317 0-0.1815 0.04684-0.35424t0.13467-0.32496l0.849 0.84901 0.53866-0.50356-0.87241-0.87243q0.15224-0.08783 0.32203-0.1376 0.16981-0.04977 0.34545-0.04977 0.57966 0 0.9866 0.40694t0.40694 0.98661q0 0.14053-0.02928 0.2752t-0.07611 0.26934l1.5165 1.5106q0.06441 0.06442 0.06441 0.15516 0 0.09076-0.06441 0.15516l-0.44499 0.40986q-0.06442 0.06442-0.15224 0.06442-0.08783 0-0.15224-0.06442zm0.16395-0.33375 0.2342-0.2342-1.5985-1.5984q0.09367-0.12295 0.14053-0.28982 0.04684-0.16688 0.04684-0.3191 0-0.43914-0.32496-0.74362-0.32496-0.30447-0.74068-0.31031l0.59137 0.60309q0.0527 0.0527 0.0527 0.12881t-0.0527 0.12881l-0.77288 0.72604q-0.0527 0.0527-0.12881 0.0527t-0.12881-0.0527l-0.56794-0.56209q0.01756 0.45084 0.3191 0.74362 0.30154 0.29276 0.7114 0.29276 0.14639 0 0.31032-0.04684 0.16395-0.04684 0.28691-0.14053z" fill="#2979ff"/>
  </g>
 </g>
</svg>
