<?xml version="1.0" encoding="UTF-8"?>
<svg id="bitmap:48-32" width="48" height="192" version="1.1" viewBox="0 0 12.7 50.798" xmlns="http://www.w3.org/2000/svg">
 <g transform="translate(0 .064372)">
  <path d="m4.9066 8.1334-1.894-1.9901-0.63137 0.66343 2.5254 2.6536 5.4118-5.6864-0.63137-0.66343z" stroke-width=".26458"/>
  <path d="m4.9066 20.833-1.894-1.9901-0.63137 0.66343 2.5254 2.6536 5.4118-5.6864-0.63137-0.66343z" fill="#aeaeae" stroke-width=".26458"/>
  <path d="m8.4664 44.384a2.1166 2.1166 0 0 1-2.1166 2.1166 2.1166 2.1166 0 0 1-2.1166-2.1166 2.1166 2.1166 0 0 1 2.1166-2.1166 2.1166 2.1166 0 0 1 2.1166 2.1166z" fill="#aeaeae" stroke-width=".26458"/>
  <path d="m8.4664 31.949a2.1166 2.1166 0 0 1-2.1166 2.1166 2.1166 2.1166 0 0 1-2.1166-2.1166 2.1166 2.1166 0 0 1 2.1166-2.1166 2.1166 2.1166 0 0 1 2.1166 2.1166z" stroke-width=".26458"/>
 </g>
</svg>
