<?xml version="1.0" encoding="UTF-8"?>
<svg id="bitmap:32-32" width="32" height="128" version="1.1" viewBox="0 0 8.4667 33.866" xmlns="http://www.w3.org/2000/svg">
 <g stroke-width=".26458">
  <path d="m3.5358 5.4654-1.2627-1.3268-0.42093 0.4423 1.6837 1.7691 3.608-3.791-0.42093-0.4423z"/>
  <path d="m3.5358 13.932-1.2627-1.3268-0.42093 0.4423 1.6837 1.7691 3.608-3.791-0.42093-0.4423z" fill="#aeaeae"/>
  <path d="m5.8208 29.633a1.5875 1.5875 0 0 1-1.5875 1.5875 1.5875 1.5875 0 0 1-1.5875-1.5875 1.5875 1.5875 0 0 1 1.5875-1.5875 1.5875 1.5875 0 0 1 1.5875 1.5875z" fill="#aeaeae"/>
  <path d="m5.8208 21.167a1.5875 1.5875 0 0 1-1.5875 1.5875 1.5875 1.5875 0 0 1-1.5875-1.5875 1.5875 1.5875 0 0 1 1.5875-1.5875 1.5875 1.5875 0 0 1 1.5875 1.5875z"/>
 </g>
</svg>
