<?xml version="1.0" encoding="UTF-8"?>
<svg id="bitmap:6-32" width="6" height="28" version="1.1" viewBox="0 0 1.5875 7.4083" xmlns="http://www.w3.org/2000/svg" xmlns:cc="http://creativecommons.org/ns#" xmlns:dc="http://purl.org/dc/elements/1.1/" xmlns:rdf="http://www.w3.org/1999/02/22-rdf-syntax-ns#">
 <metadata>
  <rdf:RDF>
   <cc:Work rdf:about="">
    <dc:format>image/svg+xml</dc:format>
    <dc:type rdf:resource="http://purl.org/dc/dcmitype/StillImage"/>
    <dc:title/>
   </cc:Work>
  </rdf:RDF>
 </metadata>
 <g stroke-width=".26458">
  <path d="m1.1938 1.049-0.91988-0.9179 0.13141-0.13113 0.91988 0.9179z"/>
  <path d="m1.3159 0.93194-0.91988 0.9179-0.13141-0.13113 0.91988-0.9179z"/>
  <g>
   <path d="m1.1938 2.9011-0.91988-0.9179 0.13141-0.13113 0.91988 0.9179z" fill="#3096fa"/>
   <path d="m1.3159 2.784-0.91988 0.9179-0.13141-0.13113 0.91988-0.9179z" fill="#3096fa"/>
   <path d="m1.1938 4.7532-0.91988-0.9179 0.13141-0.13113 0.91988 0.9179z" fill="#fff"/>
   <path d="m1.3159 4.6361-0.91988 0.9179-0.13141-0.13113 0.91988-0.9179z" fill="#fff"/>
   <path d="m1.1938 6.6053-0.91988-0.9179 0.13141-0.13113 0.91988 0.9179z" fill="#aeaeae"/>
   <path d="m1.3159 6.4882-0.91988 0.9179-0.13141-0.13113 0.91988-0.9179z" fill="#aeaeae"/>
  </g>
 </g>
</svg>
