<?xml version="1.0" encoding="UTF-8"?>
<svg id="bitmap:19-32" width="19" height="152" version="1.1" viewBox="0 0 5.0271 40.217" xmlns="http://www.w3.org/2000/svg">
 <g stroke-width=".26458">
  <path d="m4.2334 1.1402-0.34641-0.34642-1.3734 1.3734-1.3734-1.3734-0.34642 0.34642 1.3734 1.3734-1.3734 1.3734 0.34642 0.34642 1.3734-1.3734 1.3734 1.3734 0.34641-0.34642-1.3734-1.3734z" fill="#aeaeae"/>
  <path d="m4.2334 16.222-0.34641-0.34642-1.3734 1.3734-1.3734-1.3734-0.34642 0.34642 1.3734 1.3734-1.3734 1.3734 0.34642 0.34642 1.3734-1.3734 1.3734 1.3734 0.34641-0.34642-1.3734-1.3734z" fill="#aeaeae"/>
  <path d="m4.2334 6.1673-0.34641-0.34642-1.3734 1.3734-1.3734-1.3734-0.34642 0.34642 1.3734 1.3734-1.3734 1.3734 0.34642 0.34642 1.3734-1.3734 1.3734 1.3734 0.34641-0.34642-1.3734-1.3734z" fill="#ff1744"/>
  <path d="m4.2334 11.194-0.34641-0.34642-1.3734 1.3734-1.3734-1.3734-0.34642 0.34642 1.3734 1.3734-1.3734 1.3734 0.34642 0.34642 1.3734-1.3734 1.3734 1.3734 0.34641-0.34642-1.3734-1.3734z" fill="#d50000"/>
  <path d="m4.2334 21.249-0.34641-0.34642-1.3734 1.3734-1.3734-1.3734-0.34642 0.34642 1.3734 1.3734-1.3734 1.3734 0.34642 0.34642 1.3734-1.3734 1.3734 1.3734 0.34641-0.34642-1.3734-1.3734z" fill="#aeaeae"/>
  <path d="m4.2334 36.33-0.34641-0.34642-1.3734 1.3734-1.3734-1.3734-0.34642 0.34642 1.3734 1.3734-1.3734 1.3734 0.34642 0.34642 1.3734-1.3734 1.3734 1.3734 0.34641-0.34642-1.3734-1.3734z" fill="#aeaeae"/>
  <path d="m4.2334 26.276-0.34641-0.34642-1.3734 1.3734-1.3734-1.3734-0.34642 0.34642 1.3734 1.3734-1.3734 1.3734 0.34642 0.34642 1.3734-1.3734 1.3734 1.3734 0.34641-0.34642-1.3734-1.3734z" fill="#ff1744"/>
  <path d="m4.2334 31.303-0.34641-0.34642-1.3734 1.3734-1.3734-1.3734-0.34642 0.34642 1.3734 1.3734-1.3734 1.3734 0.34642 0.34642 1.3734-1.3734 1.3734 1.3734 0.34641-0.34642-1.3734-1.3734z" fill="#d50000"/>
 </g>
</svg>
