<?xml version="1.0" encoding="UTF-8"?>
<svg id="bitmap:42-32" width="42" height="120" version="1.1" viewBox="0 0 11.112 31.75" xmlns="http://www.w3.org/2000/svg" xmlns:cc="http://creativecommons.org/ns#" xmlns:dc="http://purl.org/dc/elements/1.1/" xmlns:rdf="http://www.w3.org/1999/02/22-rdf-syntax-ns#">
 <metadata>
  <rdf:RDF>
   <cc:Work rdf:about="">
    <dc:format>image/svg+xml</dc:format>
    <dc:type rdf:resource="http://purl.org/dc/dcmitype/StillImage"/>
   </cc:Work>
  </rdf:RDF>
 </metadata>
 <g transform="translate(-40.717,-1.1913)">
  <g transform="matrix(2.0522,0,0,2.0504,-41.067,8.3985)" fill="#fff" stroke-width=".12899">
   <g transform="matrix(.95025 0 0 .86559 1.102 -4.705)" stroke="#3096fa" stroke-width=".14222">
    <rect x="40.849" y="7.409" width="5.5564" height="5.8208" rx=".27135" ry=".29815" stroke-width=".14222"/>
   </g>
  </g>
  <rect x="40.849" y="22.49" width="10.848" height="10.319" rx=".52917" ry=".52917" fill="#fff" stroke="#2979ff" stroke-width=".26458"/>
  <g stroke-width=".070003">
   <path d="m48.227 9.5614-2.2659-2.2835q-0.20201 0.070263-0.40401 0.11418-0.202 0.043919-0.4128 0.043919-0.85192 0-1.4491-0.59287-0.59722-0.59287-0.59722-1.4448 0-0.27225 0.07026-0.53137 0.07025-0.25911 0.20201-0.48745l1.2735 1.2736 0.808-0.75535-1.3086-1.3087q0.22836-0.13175 0.48304-0.2064 0.25471-0.074655 0.51818-0.074655 0.86949 0 1.4799 0.61041t0.61041 1.48q0 0.21079-0.04392 0.4128t-0.11416 0.40401l2.2747 2.2659q0.09659 0.096614 0.09659 0.23274 0 0.13614-0.09659 0.23274l-0.66748 0.61479q-0.09662 0.096614-0.22836 0.096614-0.13175 0-0.22836-0.096614zm0.24592-0.50062 0.35131-0.3513-2.3977-2.3978q0.14053-0.18444 0.21079-0.43478 0.07027-0.25032 0.07027-0.47865 0-0.65871-0.48743-1.1154-0.48742-0.4567-1.111-0.4655l0.88705 0.90464q0.07905 0.079046 0.07905 0.19321 0 0.11418-0.07905 0.19321l-1.1593 1.0891q-0.07905 0.079046-0.19321 0.079046-0.11418 0-0.19322-0.079046l-0.85193-0.84314q0.02635 0.67627 0.47865 1.1154 0.45231 0.43914 1.0671 0.43914 0.21959 0 0.46548-0.070263 0.24592-0.070263 0.43038-0.21079z" fill="#aeaeae"/>
   <path d="m48.227 20.145-2.2659-2.2835q-0.20201 0.07026-0.40401 0.11417-0.202 0.04392-0.4128 0.04392-0.8519 0-1.4491-0.59287-0.59722-0.59283-0.59722-1.4448 0-0.27225 0.07026-0.53135t0.20201-0.48744l1.2735 1.2735 0.808-0.75534-1.3086-1.3086q0.22836-0.13175 0.48304-0.2064 0.25471-0.07465 0.51816-0.07465 0.86949 0 1.4799 0.61041 0.61046 0.61041 0.61041 1.4799 0 0.21079-0.04392 0.4128t-0.11417 0.40401l2.2747 2.2659q0.09661 0.09662 0.09661 0.23274 0 0.13614-0.09661 0.23274l-0.66748 0.61479q-0.09663 0.09664-0.22836 0.09664-0.13175 0-0.22836-0.09664zm0.24592-0.50062 0.3513-0.3513-2.3977-2.3976q0.14051-0.18443 0.21079-0.43474 0.07026-0.25032 0.07026-0.47865 0-0.65871-0.48743-1.1154-0.48744-0.4567-1.111-0.46546l0.88705 0.90464q0.07906 0.07906 0.07906 0.19321 0 0.11417-0.07906 0.19321l-1.1593 1.0891q-0.07904 0.07906-0.19321 0.07906t-0.19321-0.07906l-0.85191-0.84314q0.02634 0.67626 0.47865 1.1154t1.0671 0.43914q0.21959 0 0.46548-0.07026 0.24592-0.07026 0.43036-0.21079z" fill="#3096fa"/>
   <path d="m48.227 30.728-2.2659-2.2835q-0.20201 0.07026-0.40401 0.11417-0.202 0.04392-0.4128 0.04392-0.8519 0-1.4491-0.59283-0.59722-0.59287-0.59722-1.4448 0-0.27225 0.07026-0.53136t0.20201-0.48744l1.2735 1.2735 0.80799-0.75534-1.3086-1.3086q0.22836-0.13175 0.48304-0.2064 0.25471-0.07465 0.51818-0.07465 0.86949 0 1.4799 0.61041 0.61046 0.61041 0.61041 1.4799 0 0.21079-0.04392 0.4128t-0.11417 0.40401l2.2747 2.2659q0.09661 0.09663 0.09661 0.23274 0 0.13614-0.09661 0.23274l-0.66748 0.61479q-0.09663 0.09663-0.22836 0.09663-0.13175 0-0.22836-0.09663zm0.24592-0.50062 0.3513-0.3513-2.3977-2.3976q0.14051-0.18443 0.21079-0.43473 0.07026-0.25032 0.07026-0.47865 0-0.65871-0.48743-1.1154-0.48744-0.4567-1.111-0.46546l0.88705 0.90464q0.07904 0.07906 0.07904 0.19321 0 0.11417-0.07904 0.19321l-1.1593 1.0891q-0.07905 0.07904-0.19321 0.07904-0.11417 0-0.19321-0.07904l-0.85191-0.84314q0.02634 0.67626 0.47865 1.1154t1.0671 0.43914q0.21959 0 0.46548-0.07026 0.24592-0.07026 0.43036-0.21079z" fill="#2979ff"/>
  </g>
 </g>
</svg>
