<?xml version="1.0" encoding="UTF-8"?>
<svg id="bitmap:32-32" width="32" height="256" version="1.1" viewBox="0 0 8.4666 67.734" xmlns="http://www.w3.org/2000/svg">
 <g transform="matrix(1.1111 0 0 1 16.933 76.73)" stroke-width=".25101">
  <path d="m-9.0489-74.61-0.47964-0.53296-1.9016 2.1129-1.9016-2.1129-0.47966 0.53296 1.9016 2.1129-1.9016 2.1129 0.47966 0.53296 1.9016-2.1129 1.9016 2.1129 0.47964-0.53296-1.9016-2.1129z" fill="#aeaeae"/>
  <path d="m-9.0489-49.209-0.47964-0.53296-1.9016 2.1129-1.9016-2.1129-0.47966 0.53296 1.9016 2.1129-1.9016 2.1129 0.47966 0.53296 1.9016-2.1129 1.9016 2.1129 0.47964-0.53296-1.9016-2.1129z" fill="#aeaeae"/>
  <path d="m-9.0489-66.143-0.47964-0.53296-1.9016 2.1129-1.9016-2.1129-0.47966 0.53296 1.9016 2.1129-1.9016 2.1129 0.47966 0.53296 1.9016-2.1129 1.9016 2.1129 0.47964-0.53296-1.9016-2.1129z" fill="#ff1744"/>
  <path d="m-9.0489-57.676-0.47964-0.53296-1.9016 2.1129-1.9016-2.1129-0.47966 0.53296 1.9016 2.1129-1.9016 2.1129 0.47966 0.53296 1.9016-2.1129 1.9016 2.1129 0.47964-0.53296-1.9016-2.1129z" fill="#d50000"/>
  <path d="m-9.0523-40.743-0.47964-0.53296-1.9016 2.1129-1.9016-2.1129-0.47966 0.53296 1.9016 2.1129-1.9016 2.1129 0.47966 0.53296 1.9016-2.1129 1.9016 2.1129 0.47964-0.53296-1.9016-2.1129z" fill="#aeaeae"/>
  <path d="m-9.0523-15.342-0.47964-0.53296-1.9016 2.1129-1.9016-2.1129-0.47966 0.53296 1.9016 2.1129-1.9016 2.1129 0.47966 0.53296 1.9016-2.1129 1.9016 2.1129 0.47964-0.53296-1.9016-2.1129z" fill="#aeaeae"/>
  <path d="m-9.0523-32.276-0.47964-0.53296-1.9016 2.1129-1.9016-2.1129-0.47966 0.53296 1.9016 2.1129-1.9016 2.1129 0.47966 0.53296 1.9016-2.1129 1.9016 2.1129 0.47964-0.53296-1.9016-2.1129z" fill="#ff1744"/>
  <path d="m-9.0523-23.809-0.47964-0.53296-1.9016 2.1129-1.9016-2.1129-0.47966 0.53296 1.9016 2.1129-1.9016 2.1129 0.47966 0.53296 1.9016-2.1129 1.9016 2.1129 0.47964-0.53296-1.9016-2.1129z" fill="#d50000"/>
 </g>
</svg>
