<?xml version="1.0" encoding="UTF-8"?>
<svg id="bitmap:26-32" width="26" height="156" version="1.1" viewBox="0 0 6.8794 41.274" xmlns="http://www.w3.org/2000/svg" xmlns:cc="http://creativecommons.org/ns#" xmlns:dc="http://purl.org/dc/elements/1.1/" xmlns:rdf="http://www.w3.org/1999/02/22-rdf-syntax-ns#">
 <metadata>
  <rdf:RDF>
   <cc:Work rdf:about="">
    <dc:format>image/svg+xml</dc:format>
    <dc:type rdf:resource="http://purl.org/dc/dcmitype/StillImage"/>
   </cc:Work>
  </rdf:RDF>
 </metadata>
 <path d="m0.13229 6.7453v-6.4261l6.4276 6.4261z" fill="#fff" stroke="#fff" stroke-width=".26459px"/>
 <g fill="#aeaeae">
  <path d="m0.26459 0.26451h0.26459v0.26459h-0.26459z"/>
  <path d="m0.52918 0.5291h0.26459v0.26459h-0.26459z"/>
  <path d="m0.79377 0.79369h0.26459v0.26459h-0.26459z"/>
  <path d="m1.0584 1.0583h0.26459v0.26459h-0.26459z"/>
  <path d="m1.3229 1.3229h0.26459v0.26459h-0.26459z"/>
  <path d="m1.5875 1.5875h0.26459v0.26459h-0.26459z"/>
  <path d="m1.8521 1.852h0.26459v0.26459h-0.26459z"/>
  <path d="m2.1167 2.1166h0.26459v0.26459h-0.26459z"/>
  <path d="m2.3813 2.3812h0.26459v0.26459h-0.26459z"/>
  <path d="m2.6459 2.6458h0.26459v0.26459h-0.26459z"/>
  <path d="m2.9105 2.9104h0.26459v0.26459h-0.26459z"/>
  <path d="m3.1751 3.175h0.26459v0.26459h-0.26459z"/>
  <path d="m3.4397 3.4396h0.26459v0.26459h-0.26459z"/>
  <path d="m3.7042 3.7042h0.26459v0.26459h-0.26459z"/>
  <path d="m3.9688 3.9688h0.26459v0.26459h-0.26459z"/>
  <path d="m4.2334 4.2333h0.26459v0.26459h-0.26459z"/>
  <path d="m4.498 4.4979h0.26459v0.26459h-0.26459z"/>
  <path d="m4.7626 4.7625h0.26459v0.26459h-0.26459z"/>
  <path d="m5.0272 5.0271h0.26459v0.26459h-0.26459z"/>
  <path d="m5.2918 5.2917h0.26459v0.26459h-0.26459z"/>
  <path d="m5.821 5.8209h0.26459v0.26459h-0.26459z"/>
  <path d="m5.5564 5.5563h0.26459v0.26459h-0.26459z"/>
  <path d="m6.0856 6.0855h0.26459v0.26459h-0.26459z"/>
  <path d="m6.3502 6.3501h0.26459v0.26459h-0.26459z"/>
  <path d="m6.6148 6.6147h0.26459v0.26459h-0.26459z"/>
  <path d="m5.1366e-6 13.229h0.26459v0.26459h-0.26459z"/>
  <path d="m0.2646 12.965h0.26459v0.26459h-0.26459z"/>
  <path d="m0.52919 12.7h0.26459v0.26459h-0.26459z"/>
  <path d="m0.79378 12.435h0.26459v0.26459h-0.26459z"/>
  <path d="m1.0584 12.171h0.26459v0.26459h-0.26459z"/>
  <path d="m1.3229 11.906h0.26459v0.26459h-0.26459z"/>
  <path d="m1.5875 11.642h0.26459v0.26459h-0.26459z"/>
  <path d="m1.8521 11.377h0.26459v0.26459h-0.26459z"/>
  <path d="m2.1167 11.112h0.26459v0.26459h-0.26459z"/>
  <path d="m2.3813 10.848h0.26459v0.26459h-0.26459z"/>
  <path d="m6.6148 13.229h0.26459v0.26459h-0.26459z"/>
  <path d="m6.0856 12.7h0.26459v0.26459h-0.26459z"/>
  <path d="m6.3502 12.965h0.26459v0.26459h-0.26459z"/>
  <path d="m5.821 12.435h0.26459v0.26459h-0.26459z"/>
  <path d="m5.5564 12.171h0.26459v0.26459h-0.26459z"/>
  <path d="m5.2918 11.906h0.26459v0.26459h-0.26459z"/>
  <path d="m5.0272 11.642h0.26459v0.26459h-0.26459z"/>
  <path d="m4.7626 11.377h0.26459v0.26459h-0.26459z"/>
  <path d="m4.498 11.113h0.26459v0.26459h-0.26459z"/>
  <path d="m4.2334 10.848h0.26459v0.26459h-0.26459z"/>
  <path d="m3.9689 10.583h0.26459v0.26459h-0.26459z"/>
  <path d="m2.9105 10.319h0.26459v0.26459h-0.26459z"/>
  <path d="m3.7043 10.319h0.26459v0.26459h-0.26459z"/>
  <path d="m3.1751 10.054h0.26459v0.26459h-0.26459z"/>
  <path d="m3.4397 10.054h0.26459v0.26459h-0.26459z"/>
  <path d="m2.6459 10.583h0.26459v0.26459h-0.26459z"/>
  <path d="m0-7.425e-5h0.26459v6.8794h-0.26459z"/>
  <path d="m0.13229 34.53v6.4261l6.4276-6.4261z" fill="#fff" stroke="#fff" stroke-width=".26459px"/>
  <path d="m0.26459 41.011h0.26459v-0.26459h-0.26459z"/>
  <path d="m0.52918 40.746h0.26459v-0.26459h-0.26459z"/>
  <path d="m0.79377 40.481h0.26459v-0.26459h-0.26459z"/>
  <path d="m1.0584 40.217h0.26459v-0.26459h-0.26459z"/>
  <path d="m1.3229 39.952h0.26459v-0.26459h-0.26459z"/>
  <path d="m1.5875 39.688h0.26459v-0.26459h-0.26459z"/>
  <path d="m1.8521 39.423h0.26459v-0.26459h-0.26459z"/>
  <path d="m2.1167 39.159h0.26459v-0.26459h-0.26459z"/>
  <path d="m2.3813 38.894h0.26459v-0.26459h-0.26459z"/>
  <path d="m2.6459 38.629h0.26459v-0.26459h-0.26459z"/>
  <path d="m2.9105 38.365h0.26459v-0.26459h-0.26459z"/>
  <path d="m3.1751 38.1h0.26459v-0.26459h-0.26459z"/>
  <path d="m3.4397 37.836h0.26459v-0.26459h-0.26459z"/>
  <path d="m3.7042 37.571h0.26459v-0.26459h-0.26459z"/>
  <path d="m3.9688 37.306h0.26459v-0.26459h-0.26459z"/>
  <path d="m4.2334 37.042h0.26459v-0.26459h-0.26459z"/>
  <path d="m4.498 36.777h0.26459v-0.26459h-0.26459z"/>
  <path d="m4.7626 36.513h0.26459v-0.26459h-0.26459z"/>
  <path d="m5.0272 36.248h0.26459v-0.26459h-0.26459z"/>
  <path d="m5.2918 35.983h0.26459v-0.26459h-0.26459z"/>
  <path d="m5.821 35.454h0.26459v-0.26459h-0.26459z"/>
  <path d="m5.5564 35.719h0.26459v-0.26459h-0.26459z"/>
  <path d="m6.0856 35.19h0.26459v-0.26459h-0.26459z"/>
  <path d="m6.3502 34.925h0.26459v-0.26459h-0.26459z"/>
  <path d="m6.6147 34.66h0.26459v-0.26459h-0.26459z"/>
  <path d="m-4.7915e-6 41.275h0.26459v-6.8794h-0.26459z"/>
  <path d="m6.7471 20.504v-6.4261l-6.4276 6.4261z" fill="#fff" stroke="#fff" stroke-width=".26459px"/>
  <path d="m6.6148 14.023h-0.26459v0.26459h0.26459z"/>
  <path d="m6.3502 14.287h-0.26459v0.26459h0.26459z"/>
  <path d="m6.0856 14.552h-0.26459v0.26459h0.26459z"/>
  <path d="m5.821 14.817h-0.26459v0.26459h0.26459z"/>
  <path d="m5.5565 15.081h-0.26459v0.26459h0.26459z"/>
  <path d="m5.2919 15.346h-0.26459v0.26459h0.26459z"/>
  <path d="m5.0273 15.61h-0.26459v0.26459h0.26459z"/>
  <path d="m4.7627 15.875h-0.26459v0.26459h0.26459z"/>
  <path d="m4.4981 16.14h-0.26459v0.26459h0.26459z"/>
  <path d="m4.2335 16.404h-0.26459v0.26459h0.26459z"/>
  <path d="m3.9689 16.669h-0.26459v0.26459h0.26459z"/>
  <path d="m3.7043 16.933h-0.26459v0.26459h0.26459z"/>
  <path d="m3.4397 17.198h-0.26459v0.26459h0.26459z"/>
  <path d="m3.1752 17.463h-0.26459v0.26459h0.26459z"/>
  <path d="m2.9106 17.727h-0.26459v0.26459h0.26459z"/>
  <path d="m2.646 17.992h-0.26459v0.26459h0.26459z"/>
  <path d="m2.3814 18.256h-0.26459v0.26459h0.26459z"/>
  <path d="m2.1168 18.521h-0.26459v0.26459h0.26459z"/>
  <path d="m1.8522 18.785h-0.26459v0.26459h0.26459z"/>
  <path d="m1.5876 19.05h-0.26459v0.26459h0.26459z"/>
  <path d="m1.0584 19.579h-0.26459v0.26459h0.26459z"/>
  <path d="m1.323 19.315h-0.26459v0.26459h0.26459z"/>
  <path d="m0.79378 19.844h-0.26459v0.26459h0.26459z"/>
  <path d="m0.52919 20.108h-0.26459v0.26459h0.26459z"/>
  <path d="m0.2646 20.373h-0.26459v0.26459h0.26459z"/>
  <path d="m6.8794 13.758h-0.26459v6.8794h0.26459z"/>
  <path d="m6.747 20.772v6.4261l-6.4276-6.4261z" fill="#fff" stroke="#fff" stroke-width=".26459px"/>
  <path d="m6.6147 27.252h-0.26459v-0.26459h0.26459z"/>
  <path d="m6.8794 28.046h-0.26459v-0.26459h0.26459z"/>
  <path d="m6.6147 28.311h-0.26459v-0.26459h0.26459z"/>
  <path d="m6.3501 28.575h-0.26459v-0.26459h0.26459z"/>
  <path d="m6.0855 28.84h-0.26459v-0.26459h0.26459z"/>
  <path d="m5.821 29.105h-0.26459v-0.26459h0.26459z"/>
  <path d="m3.9688 30.957h-0.26459v-0.26459h0.26459z"/>
  <path d="m3.7042 31.221h-0.26459v-0.26459h0.26459z"/>
  <path d="m3.4396 31.221h-0.26459v-0.26459h0.26459z"/>
  <path d="m3.175 30.957h-0.26459v-0.26459h0.26459z"/>
  <path d="m2.9104 30.692h-0.26459v-0.26459h0.26459z"/>
  <path d="m2.6458 30.427h-0.26459v-0.26459h0.26459z"/>
  <path d="m2.3813 30.163h-0.26459v-0.26459h0.26459z"/>
  <path d="m2.1167 29.898h-0.26459v-0.26459h0.26459z"/>
  <path d="m1.8521 29.634h-0.26459v-0.26459h0.26459z"/>
  <path d="m1.5875 29.369h-0.26459v-0.26459h0.26459z"/>
  <path d="m1.3229 29.105h-0.26459v-0.26459h0.26459z"/>
  <path d="m1.0583 28.84h-0.26459v-0.26459h0.26459z"/>
  <path d="m0.79371 28.575h-0.26459v-0.26459h0.26459z"/>
  <path d="m0.26453 28.046h-0.26459v-0.26459h0.26459z"/>
  <path d="m0.52912 28.311h-0.26459v-0.26459h0.26459z"/>
  <path d="m5.5563 29.369h-0.26459v-0.26459h0.26459z"/>
  <path d="m5.2918 29.634h-0.26459v-0.26459h0.26459z"/>
  <path d="m5.0272 29.898h-0.26459v-0.26459h0.26459z"/>
  <path d="m4.7626 30.163h-0.26459v-0.26459h0.26459z"/>
  <path d="m4.2334 30.692h-0.26459v-0.26459h0.26459z"/>
  <path d="m4.498 30.427h-0.26459v-0.26459h0.26459z"/>
  <path d="m6.3501 26.988h-0.26459v-0.26459h0.26459z"/>
  <path d="m6.0855 26.723h-0.26459v-0.26459h0.26459z"/>
  <path d="m5.8209 26.459h-0.26459v-0.26459h0.26459z"/>
  <path d="m5.5564 26.194h-0.26459v-0.26459h0.26459z"/>
  <path d="m5.2918 25.929h-0.26459v-0.26459h0.26459z"/>
  <path d="m5.0272 25.665h-0.26459v-0.26459h0.26459z"/>
  <path d="m4.7626 25.4h-0.26459v-0.26459h0.26459z"/>
  <path d="m4.498 25.136h-0.26459v-0.26459h0.26459z"/>
  <path d="m4.2334 24.871h-0.26459v-0.26459h0.26459z"/>
  <path d="m3.9688 24.607h-0.26459v-0.26459h0.26459z"/>
  <path d="m3.7042 24.342h-0.26459v-0.26459h0.26459z"/>
  <path d="m3.4396 24.077h-0.26459v-0.26459h0.26459z"/>
  <path d="m3.1751 23.813h-0.26459v-0.26459h0.26459z"/>
  <path d="m2.9105 23.548h-0.26459v-0.26459h0.26459z"/>
  <path d="m2.6459 23.284h-0.26459v-0.26459h0.26459z"/>
  <path d="m2.3813 23.019h-0.26459v-0.26459h0.26459z"/>
  <path d="m2.1167 22.754h-0.26459v-0.26459h0.26459z"/>
  <path d="m1.8521 22.49h-0.26459v-0.26459h0.26459z"/>
  <path d="m1.5875 22.225h-0.26459v-0.26459h0.26459z"/>
  <path d="m1.0583 21.696h-0.26459v-0.26459h0.26459z"/>
  <path d="m1.3229 21.961h-0.26459v-0.26459h0.26459z"/>
  <path d="m0.79372 21.431h-0.26459v-0.26459h0.26459z"/>
  <path d="m0.52913 21.167h-0.26459v-0.26459h0.26459z"/>
  <path d="m0.26454 20.902h-0.26459v-0.26459h0.26459z"/>
  <path d="m6.8793 27.517h-0.26459v-6.8794h0.26459z"/>
 </g>
 <g transform="translate(5.7154e-5 2.6458)" fill="#fff">
  <path d="m1.3619e-7 10.848h6.8794v0.26459h-6.8794z"/>
  <path d="m0.26459 10.583h6.3502v0.26459h-6.3502z"/>
  <path d="m0.52918 10.319h5.821v0.26459h-5.821z"/>
  <path d="m0.79377 10.054h5.2918v0.26459h-5.2918z"/>
  <path d="m1.0584 9.7896h4.7626v0.26459h-4.7626z"/>
  <path d="m1.3229 9.5251h4.2334v0.26459h-4.2334z"/>
  <path d="m1.5875 9.2605h3.7043v0.26459h-3.7043z"/>
  <path d="m1.8521 8.9959h3.1751v0.26459h-3.1751z"/>
  <path d="m2.1167 8.7313h2.6459v0.26459h-2.6459z"/>
  <path d="m2.3813 8.4667h2.1167v0.26459h-2.1167z"/>
  <path d="m2.6459 8.2021h1.5875v0.26459h-1.5875z"/>
  <path d="m2.9104 7.9375h1.0584v0.26459h-1.0584z"/>
  <path d="m3.175 7.673h0.52918v0.26459h-0.52918z"/>
 </g>
 <g transform="matrix(1 0 0 -1 5.6802e-5 38.63)" fill="#fff">
  <path d="m1.3619e-7 10.848h6.8794v0.26459h-6.8794z"/>
  <path d="m0.26459 10.583h6.3502v0.26459h-6.3502z"/>
  <path d="m0.52918 10.319h5.821v0.26459h-5.821z"/>
  <path d="m0.79377 10.054h5.2918v0.26459h-5.2918z"/>
  <path d="m1.0584 9.7896h4.7626v0.26459h-4.7626z"/>
  <path d="m1.3229 9.5251h4.2334v0.26459h-4.2334z"/>
  <path d="m1.5875 9.2605h3.7043v0.26459h-3.7043z"/>
  <path d="m1.8521 8.9959h3.1751v0.26459h-3.1751z"/>
  <path d="m2.1167 8.7313h2.6459v0.26459h-2.6459z"/>
  <path d="m2.3813 8.4667h2.1167v0.26459h-2.1167z"/>
  <path d="m2.6459 8.2021h1.5875v0.26459h-1.5875z"/>
  <path d="m2.9104 7.9375h1.0584v0.26459h-1.0584z"/>
  <path d="m3.175 7.673h0.52918v0.26459h-0.52918z"/>
 </g>
</svg>
