<?xml version="1.0" encoding="UTF-8"?>
<svg id="bitmap:60-32" width="60" height="180" version="1.1" viewBox="0 0 15.875 47.624" xmlns="http://www.w3.org/2000/svg">
 <circle cx="7.9376" cy="23.812" r="7.8053" fill="#fff" stroke="#3096fa" stroke-width=".26458"/>
 <g transform="matrix(3.2 0 0 -3.2001 -.10584 16.827)" stroke-width=".16536">
  <path d="m3.8365 2.2922-1.3129 1.1474-0.18755-0.16391 1.3129-1.1474z"/>
  <path d="m1.3782 2.1167 1.3129 1.1474-0.18756 0.16391-1.3129-1.1474z"/>
 </g>
 <g transform="matrix(3.2 0 0 -3.2001 -.10584 32.703)" fill="#3096fa" stroke-width=".16536">
  <path d="m3.8365 2.2922-1.3129 1.1474-0.18755-0.16391 1.3129-1.1474z"/>
  <path d="m1.3782 2.1167 1.3129 1.1474-0.18756 0.16391-1.3129-1.1474z"/>
 </g>
 <circle cx="7.9376" cy="39.687" r="7.8053" fill="#fff" stroke="#2979ff" stroke-width=".26458"/>
 <g transform="matrix(3.2 0 0 -3.2001 .23464 48.578)" fill="#2979ff" stroke-width=".16536">
  <path d="m3.7301 2.2922-1.3129 1.1474-0.18755-0.16391 1.3129-1.1474z"/>
  <path d="m1.2718 2.1167 1.3129 1.1474-0.18756 0.16391-1.3129-1.1474z"/>
 </g>
</svg>
