<?xml version="1.0" encoding="UTF-8"?>
<svg id="bitmap:21-32" width="21" height="72" version="1.1" viewBox="0 0 5.5561 19.05" xmlns="http://www.w3.org/2000/svg" xmlns:cc="http://creativecommons.org/ns#" xmlns:dc="http://purl.org/dc/elements/1.1/" xmlns:rdf="http://www.w3.org/1999/02/22-rdf-syntax-ns#">
 <metadata>
  <rdf:RDF>
   <cc:Work rdf:about="">
    <dc:format>image/svg+xml</dc:format>
    <dc:type rdf:resource="http://purl.org/dc/dcmitype/StillImage"/>
   </cc:Work>
  </rdf:RDF>
 </metadata>
 <g transform="translate(0 -.26457)" stroke-width=".26458">
  <path d="m2.7913 3.6833 1.9711-2.0654-0.2816-0.29504-1.9711 2.0654z"/>
  <path d="m0.79369 1.6387 1.9711 2.0654 0.2816-0.29504-1.9711-2.0654z"/>
  <path d="m2.7913 8.4457 1.9711-2.0653-0.2816-0.29502-1.9711 2.0653z" fill="#3096fa"/>
  <path d="m0.79369 6.4014 1.9711 2.0653 0.2816-0.29502-1.9711-2.0653z" fill="#3096fa"/>
  <path d="m2.7913 13.208 1.9711-2.0652-0.2816-0.295-1.9711 2.0652z" fill="#fff"/>
  <path d="m0.79369 11.164 1.9711 2.0652 0.2816-0.295-1.9711-2.0652z" fill="#fff"/>
  <path d="m2.7913 17.971 1.9711-2.0652-0.2816-0.295-1.9711 2.0652z" fill="#aeaeae"/>
  <path d="m0.79369 15.927 1.9711 2.0652 0.2816-0.295-1.9711-2.0652z" fill="#aeaeae"/>
 </g>
</svg>
