<?xml version="1.0" encoding="UTF-8"?>
<svg id="bitmap:6-32" width="6" height="28" version="1.1" viewBox="0 0 1.5875 7.4083" xmlns="http://www.w3.org/2000/svg" xmlns:cc="http://creativecommons.org/ns#" xmlns:dc="http://purl.org/dc/elements/1.1/" xmlns:rdf="http://www.w3.org/1999/02/22-rdf-syntax-ns#">
 <metadata>
  <rdf:RDF>
   <cc:Work rdf:about="">
    <dc:format>image/svg+xml</dc:format>
    <dc:type rdf:resource="http://purl.org/dc/dcmitype/StillImage"/>
   </cc:Work>
  </rdf:RDF>
 </metadata>
 <path d="m0.62752 1.0148 0.68844-0.65643-0.098347-0.093776-0.68844 0.65643z" stroke-width=".26458"/>
 <path d="m0.53613 0.93106 0.68844 0.65643 0.098347-0.093776-0.68844-0.65643z" stroke-width=".26458"/>
 <g transform="matrix(-.7484 0 0 1 1.521 0)" stroke-width=".30616">
  <path d="m1.1938 2.8669-0.91988-0.65644 0.13141-0.093778 0.91988 0.65644z" fill="#3096fa"/>
  <path d="m1.3159 2.7831-0.91988 0.65644-0.13141-0.093778 0.91988-0.65644z" fill="#3096fa"/>
  <path d="m1.1938 4.719-0.91988-0.65644 0.13141-0.093778 0.91988 0.65644z" fill="#fff"/>
  <path d="m1.3159 4.6352-0.91988 0.65644-0.13141-0.093778 0.91988-0.65644z" fill="#fff"/>
  <path d="m1.1938 6.571-0.91988-0.65644 0.13141-0.093778 0.91988 0.65644z" fill="#aeaeae"/>
  <path d="m1.3159 6.4873-0.91988 0.65644-0.13141-0.093778 0.91988-0.65644z" fill="#aeaeae"/>
 </g>
</svg>
