<?xml version="1.0" encoding="UTF-8"?>
<svg id="bitmap:16-32" width="16" height="28" version="1.1" viewBox="0 0 4.2335 7.4083" xmlns="http://www.w3.org/2000/svg">
 <g>
  <path d="m2.1191 2.1167-1.8359-1.8381 0.26227-0.26258 1.8359 1.8381z"/>
  <path d="m2.3628 1.8823-1.8359 1.8381-0.26227-0.26258 1.8359-1.8381z"/>
  <path d="m3.9874 2.1006-1.8359-1.8381 0.26227-0.26258 1.8359 1.8381z"/>
  <path d="m4.2312 1.8661-1.8359 1.8381-0.26227-0.26258 1.8359-1.8381z"/>
  <path d="m2.1191 5.821-1.8359-1.8381 0.26227-0.26258 1.8359 1.8381z"/>
  <path d="m2.3628 5.5866-1.8359 1.8381-0.26227-0.26258 1.8359-1.8381z"/>
  <path d="m3.9874 5.8049-1.8359-1.8381 0.26227-0.26258 1.8359 1.8381z"/>
  <path d="m4.2312 5.5704-1.8359 1.8381-0.26227-0.26258 1.8359-1.8381z"/>
 </g>
</svg>
