<?xml version="1.0" encoding="UTF-8"?>
<svg id="bitmap:32-32" width="32" height="56" version="1.1" viewBox="0 0 8.4671 14.816" xmlns="http://www.w3.org/2000/svg">
 <g>
  <path d="m4.1047 4.0784-2.7538-2.6258 0.3934-0.37511 2.7538 2.6258z"/>
  <path d="m4.4702 3.7435-2.7538 2.6258-0.3934-0.37511 2.7538-2.6258z"/>
  <path d="m6.4861 4.059-2.7538-2.6258 0.3934-0.37511 2.7538 2.6258z"/>
  <path d="m6.8515 3.7241-2.7538 2.6258-0.3934-0.37511 2.7538-2.6258z"/>
  <path d="m3.8401 11.487-2.7538-2.6258 0.3934-0.37511 2.7538 2.6258z"/>
  <path d="m4.2056 11.152-2.7538 2.6258-0.3934-0.37511 2.7538-2.6258z"/>
  <path d="m6.2215 11.468-2.7538-2.6258 0.3934-0.37511 2.7538 2.6258z"/>
  <path d="m6.5869 11.133-2.7538 2.6258-0.3934-0.37511 2.7538-2.6258z"/>
 </g>
</svg>
