<?xml version="1.0" encoding="UTF-8"?>
<svg id="bitmap:17-32" width="17" height="120" version="1.1" viewBox="0 0 4.4981 31.749" xmlns="http://www.w3.org/2000/svg" xmlns:cc="http://creativecommons.org/ns#" xmlns:dc="http://purl.org/dc/elements/1.1/" xmlns:rdf="http://www.w3.org/1999/02/22-rdf-syntax-ns#">
 <metadata>
  <rdf:RDF>
   <cc:Work rdf:about="">
    <dc:format>image/svg+xml</dc:format>
    <dc:type rdf:resource="http://purl.org/dc/dcmitype/StillImage"/>
   </cc:Work>
  </rdf:RDF>
 </metadata>
 <g transform="matrix(1.9784 0 0 1 3.1223e-5 0)">
  <path d="m2.2736 1.1096-1.1282 2.0654-0.16117-0.29506 1.1282-2.0654z" stroke-width=".1881"/>
  <path d="m0.16116 0.79363 1.1282 2.0654-0.16117 0.29506-1.1282-2.0654z" stroke-width=".1881"/>
  <g transform="matrix(1.2275 0 0 2.2501 3.258 .51402)" fill="#3096fa" stroke-width=".11318">
   <path d="m-0.80196 2.0285-0.91903 0.91794-0.13129-0.13113 0.91903-0.91793z"/>
   <path d="m-2.5228 1.8881 0.91903 0.91794-0.13129 0.13113-0.91903-0.91793z"/>
  </g>
  <g transform="matrix(1.2275 0 0 2.2501 4.5595e-5 24.407)" fill="#3096fa" stroke-width=".11318">
   <path d="m1.8521 1.9925-0.91903 0.91794-0.13129-0.13113 0.91903-0.91793z"/>
   <path d="m0.13124 1.8521 0.91903 0.91794-0.13129 0.13113-0.91903-0.91793z"/>
  </g>
  <g transform="matrix(1.2275 0 0 2.2501 4.5595e-5 .99149)" fill="#2979ff" stroke-width=".11319">
   <path d="m1.8521 3.5801-0.91903 0.91793-0.13129-0.13113 0.91903-0.91793z"/>
   <path d="m0.13124 3.4397 0.91903 0.91793-0.13129 0.13113-0.91903-0.91793z"/>
  </g>
  <path d="m2.2735 13.016-1.1282 2.0652-0.16118-0.29503 1.1282-2.0652z" fill="#aeaeae" stroke-width=".1659"/>
  <path d="m0.16116 12.7 1.1282 2.0652-0.16118 0.29503-1.1282-2.0652z" fill="#aeaeae" stroke-width=".1659"/>
  <g transform="matrix(1.2275 0 0 2.2501 4.5595e-5 12.898)" fill="#2979ff" stroke-width=".11319">
   <path d="m1.8521 3.5801-0.91903 0.91793-0.13129-0.13113 0.91903-0.91793z"/>
   <path d="m0.13124 3.4397 0.91903 0.91793-0.13129 0.13113-0.91903-0.91793z"/>
  </g>
  <g transform="matrix(1.2275 0 0 2.2501 4.5595e-5 8.929)" fill="#2979ff" stroke-width=".11319">
   <path d="m1.8521 3.5801-0.91903 0.91793-0.13129-0.13113 0.91903-0.91793z"/>
   <path d="m0.13124 3.4397 0.91903 0.91793-0.13129 0.13113-0.91903-0.91793z"/>
  </g>
 </g>
</svg>
