<?xml version="1.0" encoding="UTF-8"?>
<svg id="bitmap:26-32" width="26" height="520" version="1.1" viewBox="0 0 6.8792 137.58" xmlns="http://www.w3.org/2000/svg" xmlns:cc="http://creativecommons.org/ns#" xmlns:dc="http://purl.org/dc/elements/1.1/" xmlns:rdf="http://www.w3.org/1999/02/22-rdf-syntax-ns#">
 <metadata>
  <rdf:RDF>
   <cc:Work rdf:about="">
    <dc:format>image/svg+xml</dc:format>
    <dc:type rdf:resource="http://purl.org/dc/dcmitype/StillImage"/>
   </cc:Work>
  </rdf:RDF>
 </metadata>
 <g transform="translate(.92519 1.0583)" stroke-width=".26458">
  <path d="m2.5285 1.3415 2.1026 1.8358-0.30036 0.26226-2.1026-1.8358z" stroke-width=".26458"/>
  <path d="m0.39773 3.1587 2.1026-1.8358 0.30036 0.26226-2.1026 1.8358z" stroke-width=".26458"/>
  <g transform="matrix(1.1429 0 0 1 -.26372 0)" stroke-width=".2315">
   <path d="m2.4431 8.2208 1.8397 1.8358-0.26281 0.26225-1.8397-1.8358z" fill="#3096fa"/>
   <path d="m0.57875 10.038 1.8397-1.8358 0.26281 0.26225-1.8397 1.8358z" fill="#3096fa"/>
   <path d="m2.4431 15.1 1.8397 1.836-0.26281 0.26228-1.8397-1.836z" fill="#fff"/>
   <path d="m0.57875 16.917 1.8397-1.836 0.26281 0.26228-1.8397 1.836z" fill="#fff"/>
   <path d="m2.4431 21.978 1.8397 1.8365-0.26281 0.26235-1.8397-1.8365z" fill="#aeaeae"/>
   <path d="m0.57875 23.797 1.8397-1.8365 0.26281 0.26235-1.8397 1.8365z" fill="#aeaeae"/>
  </g>
  <path d="m2.5285 30.938 2.1026-1.8358-0.30036-0.26226-2.1026 1.8358z" stroke-width=".26458"/>
  <path d="m0.39773 29.12 2.1026 1.8358 0.30036-0.26226-2.1026-1.8358z" stroke-width=".26458"/>
  <g transform="matrix(1.1429 0 0 1 -.26372 27.517)" stroke-width=".2315">
   <path d="m2.4431 10.3 1.8397-1.8358-0.26281-0.26225-1.8397 1.8358z" fill="#3096fa"/>
   <path d="m0.57875 8.483 1.8397 1.8358 0.26281-0.26225-1.8397-1.8358z" fill="#3096fa"/>
   <path d="m2.4431 17.179 1.8397-1.836-0.26281-0.26228-1.8397 1.836z" fill="#fff"/>
   <path d="m0.57875 15.362 1.8397 1.836 0.26281-0.26228-1.8397-1.836z" fill="#fff"/>
   <path d="m2.4431 24.059 1.8397-1.8365-0.26281-0.26235-1.8397 1.8365z" fill="#aeaeae"/>
   <path d="m0.57875 22.241 1.8397 1.8365 0.26281-0.26235-1.8397-1.8365z" fill="#aeaeae"/>
  </g>
  <path d="m3.5727 55.598-1.8358 2.1027-0.26226-0.3004 1.8358-2.1027z" stroke-width=".26458"/>
  <path d="m1.7183 57.128 1.8358 2.1027-0.26226 0.3004-1.8358-2.1027z" stroke-width=".26458"/>
  <g transform="translate(9.5229,2.1262)">
   <g fill="#3096fa">
    <path d="m-5.9502 60.351-1.8358 2.1014-0.26226-0.3002 1.8358-2.1014z" stroke-width=".26458"/>
    <path d="m-7.8046 61.883 1.8358 2.1014-0.26226 0.30018-1.8358-2.1014z" fill="#3096fa" stroke-width=".26458"/>
    <path d="m-6.9944 109.28 2.1026 1.8348-0.30036 0.2621-2.1026-1.8348z" stroke-width=".24749"/>
    <path d="m-9.1252 111.1 2.1026-1.8348 0.30036 0.26211-2.1026 1.8347z" stroke-width=".24749"/>
    <path d="m-6.9944 118.24 2.1026-1.8365-0.30036-0.26235-2.1026 1.8365z" stroke-width=".24749"/>
    <path d="m-9.1252 116.42 2.1026 1.8365 0.30036-0.26235-2.1026-1.8365z" stroke-width=".24749"/>
    <g stroke-width=".26458">
     <path d="m-5.9502 122.26-1.8358 2.1024-0.26226-0.30034 1.8358-2.1024z"/>
     <path d="m-7.8046 123.79 1.8358 2.1024-0.26226 0.30032-1.8358-2.1024z"/>
     <path d="m-8.0668 129.14 1.8358 2.1024 0.26226-0.30033-1.8358-2.1024z"/>
     <path d="m-6.2124 130.67-1.8358 2.1024 0.26226 0.30032 1.8358-2.1024z"/>
    </g>
   </g>
   <g stroke-width=".26458">
    <path d="m-5.9502 67.23-1.8358 2.1024-0.26226-0.30034 1.8358-2.1024z" fill="#fff"/>
    <path d="m-7.8046 68.761 1.8358 2.1024-0.26226 0.30032-1.8358-2.1024z" fill="#fff"/>
    <path d="m-5.9502 74.109-1.8358 2.1014-0.26226-0.30018 1.8358-2.1014z" fill="#aeaeae"/>
    <path d="m-7.8046 75.641 1.8358 2.1014-0.26226 0.30018-1.8358-2.1014z" fill="#aeaeae"/>
   </g>
   <path d="m-8.0668 80.989 1.8358 2.1027 0.26226-0.3004-1.8358-2.1027z" stroke-width=".26458"/>
   <path d="m-6.2124 82.518-1.8358 2.1027 0.26226 0.3004 1.8358-2.1027z" stroke-width=".26458"/>
   <path d="m-8.0668 87.868 1.8358 2.1014 0.26226-0.3002-1.8358-2.1014z" fill="#3096fa" stroke-width=".26458"/>
   <path d="m-6.2124 89.399-1.8358 2.1014 0.26226 0.30018 1.8358-2.1014z" fill="#3096fa" stroke-width=".26458"/>
   <g transform="matrix(-1 0 0 1 -14.017 27.517)" stroke-width=".26458">
    <path d="m-5.9502 67.23-1.8358 2.1024-0.26226-0.30034 1.8358-2.1024z" fill="#fff"/>
    <path d="m-7.8046 68.761 1.8358 2.1024-0.26226 0.30032-1.8358-2.1024z" fill="#fff"/>
    <path d="m-5.9502 74.109-1.8358 2.1014-0.26226-0.30018 1.8358-2.1014z" fill="#aeaeae"/>
    <path d="m-7.8046 75.641 1.8358 2.1014-0.26226 0.30018-1.8358-2.1014z" fill="#aeaeae"/>
   </g>
  </g>
 </g>
</svg>
