<?xml version="1.0" encoding="UTF-8"?>
<svg id="bitmap:6-32" width="6" height="28" version="1.1" viewBox="0 0 1.5875 7.4083" xmlns="http://www.w3.org/2000/svg" xmlns:cc="http://creativecommons.org/ns#" xmlns:dc="http://purl.org/dc/elements/1.1/" xmlns:rdf="http://www.w3.org/1999/02/22-rdf-syntax-ns#">
 <metadata>
  <rdf:RDF>
   <cc:Work rdf:about="">
    <dc:format>image/svg+xml</dc:format>
    <dc:type rdf:resource="http://purl.org/dc/dcmitype/StillImage"/>
    <dc:title/>
   </cc:Work>
  </rdf:RDF>
 </metadata>
 <g stroke-width=".26458">
  <path d="m1.3229 0.13141-0.9179 0.91988-0.13113-0.13141 0.9179-0.91988z"/>
  <path d="m0.39572 0.80081 0.9179 0.91988-0.13113 0.13141-0.9179-0.91988z"/>
  <g>
   <path d="m1.3229 1.9835-0.9179 0.91988-0.13113-0.13141 0.9179-0.91988z" fill="#3096fa"/>
   <path d="m0.39572 2.6529 0.9179 0.91988-0.13113 0.13141-0.9179-0.91988z" fill="#3096fa"/>
   <path d="m1.3229 3.8356-0.9179 0.91988-0.13113-0.13141 0.9179-0.91988z" fill="#fff"/>
   <path d="m0.39572 4.505 0.9179 0.91988-0.13113 0.13141-0.9179-0.91988z" fill="#fff"/>
   <path d="m1.3229 5.6877-0.9179 0.91988-0.13113-0.13141 0.9179-0.91988z" fill="#aeaeae"/>
   <path d="m0.39572 6.3571 0.9179 0.91988-0.13113 0.13141-0.9179-0.91988z" fill="#aeaeae"/>
  </g>
 </g>
</svg>
