<?xml version="1.0" encoding="UTF-8"?>
<svg id="bitmap:74-32" width="74" height="296" version="1.1" viewBox="0 0 19.579 78.317" xmlns="http://www.w3.org/2000/svg" xmlns:cc="http://creativecommons.org/ns#" xmlns:dc="http://purl.org/dc/elements/1.1/" xmlns:rdf="http://www.w3.org/1999/02/22-rdf-syntax-ns#">
 <metadata>
  <rdf:RDF>
   <cc:Work rdf:about="">
    <dc:format>image/svg+xml</dc:format>
    <dc:type rdf:resource="http://purl.org/dc/dcmitype/StillImage"/>
   </cc:Work>
  </rdf:RDF>
 </metadata>
 <path d="m8.6917 6.6146 0.57824 0.66619-1.8783 2.1686h6.6314v0.94496h-6.6314l1.8824 2.1686-0.58235 0.66619-2.8708-3.3072z" fill="#aeaeae" stroke-width=".26458"/>
 <g stroke-width=".26458">
  <path d="m8.6917 25.929 0.57824 0.66619-1.8783 2.1686h6.6314v0.94496h-6.6314l1.8824 2.1686-0.58235 0.66619-2.8708-3.3072z" fill="#3096fa"/>
  <path d="m8.6917 45.508 0.57824 0.66619-1.8783 2.1686h6.6314v0.94496h-6.6314l1.8824 2.1686-0.58235 0.66619-2.8708-3.3072z" fill="#2979ff"/>
  <path d="m8.6917 65.088 0.57824 0.66619-1.8783 2.1686h6.6314v0.94496h-6.6314l1.8824 2.1686-0.58235 0.66619-2.8708-3.3072z" fill="#aeaeae"/>
 </g>
</svg>
