<?xml version="1.0" encoding="UTF-8"?>
<svg id="bitmap:19-32" width="19" height="228" fill="#000000" version="1.1" viewBox="0 0 19 228" xmlns="http://www.w3.org/2000/svg" xmlns:cc="http://creativecommons.org/ns#" xmlns:dc="http://purl.org/dc/elements/1.1/" xmlns:rdf="http://www.w3.org/1999/02/22-rdf-syntax-ns#">
 <metadata>
  <rdf:RDF>
   <cc:Work rdf:about="">
    <dc:format>image/svg+xml</dc:format>
    <dc:type rdf:resource="http://purl.org/dc/dcmitype/StillImage"/>
   </cc:Work>
  </rdf:RDF>
 </metadata>
 <rect width="19" height="228" fill="#fff" fill-opacity=".98444"/>
 <g transform="matrix(.95 0 0 .9499 .051376 .05137)" fill="none" stroke-width="1.0527">
  <path d="m2.9e-6 0h36.923v36.965h-36.923z"/>
  <rect x=".47226" y=".47227" width="18.947" height="18.95" rx="2.1053" ry="2.1055" stroke="#aeaeae"/>
  <rect x=".47226" y="20.474" width="18.947" height="18.95" rx="2.1053" ry="2.1055" stroke="#3096fa"/>
  <path d="m0.76923 39.275h36.923v36.965h-36.923z"/>
  <rect x=".47227" y="40.477" width="18.947" height="18.95" rx="2.1053" ry="2.1055" stroke="#2979ff"/>
  <rect x=".47227" y="60.479" width="18.947" height="18.95" rx="2.1053" ry="2.1055" stroke="#aeaeae"/>
  <path d="m3.5e-6 80.09h36.923v36.965h-36.923z"/>
  <path d="m0.76923 119.36h36.923v36.965h-36.923z"/>
  <path d="m0 160.18h36.923v36.965h-36.923z"/>
  <path d="m0.76923 199.45h36.923v36.965h-36.923z"/>
  <path d="m4.1802e-6 80.009h36.923v36.965h-36.923z"/>
  <rect x=".47227" y="80.481" width="18.947" height="18.95" rx="2.1053" ry="2.1055" stroke="#aeaeae"/>
  <rect x=".47227" y="100.48" width="18.947" height="18.95" rx="2.1053" ry="2.1055" stroke="#3096fa"/>
  <path d="m0.76923 119.28h36.923v36.965h-36.923z"/>
  <rect x=".47227" y="120.49" width="18.947" height="18.95" rx="2.1053" ry="2.1055" stroke="#2979ff"/>
  <rect x=".47227" y="140.49" width="18.947" height="18.95" rx="2.1053" ry="2.1055" stroke="#aeaeae"/>
  <path d="m3.8669e-6 160.02h36.923v36.965h-36.923z"/>
  <rect x=".47227" y="160.49" width="18.947" height="18.95" rx="2.1053" ry="2.1055" stroke="#aeaeae"/>
  <rect x=".47227" y="180.49" width="18.947" height="18.95" rx="2.1053" ry="2.1055" stroke="#3096fa"/>
  <path d="m0.76923 199.29h36.923v36.965h-36.923z"/>
  <rect x=".47227" y="200.49" width="18.947" height="18.95" rx="2.1053" ry="2.1055" stroke="#2979ff"/>
  <rect x=".47227" y="220.5" width="18.947" height="18.95" rx="2.1053" ry="2.1055" stroke="#aeaeae"/>
 </g>
 <path d="m7.1363 88.91-3.1023-3.1343-1.0341 1.0447 4.1363 4.1791 8.8637-8.9553-1.0341-1.0447z" stroke-width=".99999"/>
 <g transform="matrix(1.4616 0 0 1.463 .051379 .05137)" stroke-width=".46768">
  <path d="m4.8475 73.723-2.1226-2.1423-0.70752 0.71411 2.83 2.8565 6.0645-6.121-0.70752-0.71411z" fill="#3096fa"/>
  <path d="m4.8475 99.697-2.1226-2.1423-0.70752 0.71411 2.83 2.8565 6.0645-6.121-0.70752-0.71411z" fill="#aeaeae"/>
  <path d="m4.8475 86.71-2.1226-2.1423-0.70752 0.71412 2.83 2.8565 6.0645-6.121-0.70752-0.71411z" fill="#2979ff"/>
 </g>
 <path d="m3 161h13v1h-13z"/>
 <g transform="matrix(1.4616 0 0 1.463 .051379 -.37608)" stroke-width=".46768">
  <path d="m2.0174 123.29h8.8945v0.68351h-8.8945z" fill="#3096fa"/>
  <path d="m2.0174 136.28h8.8945v0.68351h-8.8945z" fill="#2979ff"/>
  <path d="m2.0174 149.26h8.8945v0.68351h-8.8945z" fill="#aeaeae"/>
 </g>
</svg>
