<?xml version="1.0" encoding="UTF-8"?>
<svg id="bitmap:62-32" width="62" height="38" version="1.1" viewBox="0 0 16.404 10.054" xmlns="http://www.w3.org/2000/svg">
 <g fill="#fff">
  <g>
   <rect x="-2.0002e-5" y="-2e-5" width="16.404" height=".79374"/>
   <rect x="3.0848e-7" y="5.027" width="16.404" height=".79374"/>
   <rect x="-2.2204e-16" y=".79372" width=".79374" height="4.2333"/>
  </g>
  <rect x=".79374" y=".79372" width=".52916" height=".26458"/>
  <g>
   <rect x="-2.2204e-16" y="5.8207" width=".79374" height="4.2333"/>
   <rect x="15.61" y="5.8207" width=".79374" height="4.2333"/>
   <rect x="15.61" y=".79372" width=".79374" height="4.2333"/>
   <rect x=".79374" y="1.0583" width=".26458" height=".26459"/>
  </g>
  <rect x=".79374" y="5.8207" width=".52916" height=".26458"/>
  <rect x=".79374" y="6.0853" width=".26458" height=".26459"/>
  <rect transform="scale(-1,1)" x="-15.61" y="5.8208" width=".52916" height=".26458"/>
  <rect transform="scale(-1,1)" x="-15.61" y="6.0853" width=".26458" height=".26459"/>
  <rect transform="scale(-1,1)" x="-15.61" y=".79373" width=".52916" height=".26458"/>
  <rect transform="scale(-1,1)" x="-15.61" y="1.0583" width=".26458" height=".26459"/>
 </g>
</svg>
