<?xml version="1.0" encoding="UTF-8"?>
<svg id="bitmap:13-24" width="13" height="260" fill="#000000" version="1.1" viewBox="0 0 13 260" xmlns="http://www.w3.org/2000/svg" xmlns:cc="http://creativecommons.org/ns#" xmlns:dc="http://purl.org/dc/elements/1.1/" xmlns:rdf="http://www.w3.org/1999/02/22-rdf-syntax-ns#">
 <metadata>
  <rdf:RDF>
   <cc:Work rdf:about="">
    <dc:format>image/svg+xml</dc:format>
    <dc:type rdf:resource="http://purl.org/dc/dcmitype/StillImage"/>
   </cc:Work>
  </rdf:RDF>
 </metadata>
 <rect width="13" height="260" fill="#fff" fill-opacity=".98444"/>
 <g fill="none">
  <path d="m0 0h24v24h-24z"/>
  <rect x=".5" y=".5" width="12" height="12" rx="2" ry="2" stroke="#aeaeae"/>
  <rect x=".5" y="13.5" width="12" height="12" rx="2" ry="2" stroke="#3096fa"/>
  <path d="m0.5 25.5h24v24h-24z"/>
  <rect x=".5" y="26.5" width="12" height="12" rx="2" ry="2" stroke="#2979ff"/>
  <rect x=".5" y="39.5" width="12" height="12" rx="2" ry="2" stroke="#aeaeae"/>
  <path d="m4.1723e-7 52h24v24h-24z"/>
  <rect x=".5" y="52.5" width="12" height="12" rx="2" ry="2" stroke="#aeaeae"/>
  <rect x=".5" y="65.5" width="12" height="12" rx="2" ry="2" stroke="#3096fa"/>
  <path d="m0.5 77.5h24v24h-24z"/>
  <rect x=".5" y="78.5" width="12" height="12" rx="2" ry="2" stroke="#2979ff"/>
  <rect x=".5" y="91.5" width="12" height="12" rx="2" ry="2" stroke="#aeaeae"/>
  <path d="m-1.9073e-6 104h24v24h-24z"/>
  <rect x=".5" y="104.5" width="12" height="12" rx="2" ry="2" stroke="#aeaeae"/>
  <rect x=".5" y="117.5" width="12" height="12" rx="2" ry="2" stroke="#3096fa"/>
  <path d="m0.5 129.5h24v24h-24z"/>
  <rect x=".5" y="130.5" width="12" height="12" rx="2" ry="2" stroke="#2979ff"/>
  <rect x=".5" y="143.5" width="12" height="12" rx="2" ry="2" stroke="#aeaeae"/>
 </g>
 <path d="m4.8636 60.537-2.1477-2.194-0.71591 0.73134 2.8636 2.9254 6.1364-6.2687-0.71591-0.73134z"/>
 <path d="m4.8636 73.537-2.1477-2.194-0.71591 0.73134 2.8636 2.9254 6.1364-6.2687-0.71591-0.73134z" fill="#3096fa"/>
 <path d="m4.8636 99.537-2.1477-2.194-0.71591 0.73134 2.8636 2.9254 6.1364-6.2687-0.71591-0.73134z" fill="#aeaeae"/>
 <path d="m4.8636 86.537-2.1477-2.194-0.71591 0.73135 2.8636 2.9254 6.1364-6.2687-0.71591-0.73134z" fill="#2979ff"/>
 <g fill="none">
  <rect x=".5" y="156.5" width="12" height="12" rx="2" ry="2" stroke="#aeaeae"/>
  <rect x=".5" y="169.5" width="12" height="12" rx="2" ry="2" stroke="#3096fa"/>
  <rect x=".5" y="182.5" width="12" height="12" rx="2" ry="2" stroke="#2979ff"/>
  <rect x=".5" y="195.5" width="12" height="12" rx="2" ry="2" stroke="#aeaeae"/>
 </g>
 <path d="m4.8636 164.54-2.1477-2.194-0.71591 0.73134 2.8636 2.9254 6.1364-6.2687-0.71591-0.73134z"/>
 <path d="m4.8636 177.54-2.1477-2.194-0.71591 0.73134 2.8636 2.9254 6.1364-6.2687-0.71591-0.73134z" fill="#3096fa"/>
 <path d="m4.8636 203.54-2.1477-2.194-0.71591 0.73134 2.8636 2.9254 6.1364-6.2687-0.71591-0.73134z" fill="#aeaeae"/>
 <g stroke-width="3.7795">
  <path d="m10 211.7-0.70498-0.705-2.795 2.795-2.795-2.795-0.70499 0.705 2.795 2.795-2.795 2.795 0.70499 0.705 2.795-2.795 2.795 2.795 0.70498-0.705-2.795-2.795z" fill="#000"/>
  <path d="m10 224.7-0.70498-0.705-2.795 2.795-2.795-2.795-0.70499 0.705 2.795 2.795-2.795 2.795 0.70499 0.70499 2.795-2.795 2.795 2.795 0.70498-0.70499-2.795-2.795z" fill="#3096fa"/>
  <path d="m10 237.7-0.70498-0.705-2.795 2.795-2.795-2.795-0.70499 0.705 2.795 2.795-2.795 2.795 0.70499 0.705 2.795-2.795 2.795 2.795 0.70498-0.705-2.795-2.795z" fill="#2979ff"/>
  <path d="m10 250.7-0.70498-0.705-2.795 2.795-2.795-2.795-0.70499 0.705 2.795 2.795-2.795 2.795 0.70499 0.70499 2.795-2.795 2.795 2.795 0.70498-0.70499-2.795-2.795z" fill="#aeaeae"/>
 </g>
 <path d="m4.8636 190.54-2.1477-2.194-0.71591 0.73135 2.8636 2.9254 6.1364-6.2687-0.71591-0.73134z" fill="#2979ff"/>
 <g fill="none">
  <rect x=".5" y="208.5" width="12" height="12" rx="2" ry="2" stroke="#aeaeae"/>
  <rect x=".5" y="221.5" width="12" height="12" rx="2" ry="2" stroke="#3096fa"/>
  <rect x=".5" y="234.5" width="12" height="12" rx="2" ry="2" stroke="#2979ff"/>
  <rect x=".5" y="247.5" width="12" height="12" rx="2" ry="2" stroke="#aeaeae"/>
 </g>
 <path d="m2 110h9v1h-9z"/>
 <path d="m2 123h9v1h-9z" fill="#3096fa"/>
 <path d="m2 136h9v1h-9z" fill="#2979ff"/>
 <path d="m2 149h9v1h-9z" fill="#aeaeae"/>
</svg>
