<?xml version="1.0" encoding="UTF-8"?>
<svg id="bitmap:51-32" width="51" height="144" version="1.1" viewBox="0 0 13.493 38.1" xmlns="http://www.w3.org/2000/svg" xmlns:cc="http://creativecommons.org/ns#" xmlns:dc="http://purl.org/dc/elements/1.1/" xmlns:rdf="http://www.w3.org/1999/02/22-rdf-syntax-ns#">
 <metadata>
  <rdf:RDF>
   <cc:Work rdf:about="">
    <dc:format>image/svg+xml</dc:format>
    <dc:type rdf:resource="http://purl.org/dc/dcmitype/StillImage"/>
   </cc:Work>
  </rdf:RDF>
 </metadata>
 <g transform="translate(-40.717,-1.1913)">
  <g transform="matrix(2.4502 0 0 2.4208 -56.814 10.008)" fill="#fff" stroke-width=".21727">
   <g transform="matrix(.95025 0 0 .86559 1.1022 -4.7052)" stroke="#3096fa" stroke-width=".23957">
    <rect x="40.849" y="7.409" width="5.5563" height="5.8208" rx=".22727" ry=".25253" stroke-width=".23957"/>
   </g>
  </g>
  <rect x="40.981" y="26.856" width="12.965" height="12.171" rx=".52917" ry=".52917" fill="#fff" stroke="#2979ff" stroke-width=".52917"/>
  <g transform="translate(0 .26455)" stroke-width=".070003">
   <path d="m49.723 11.385-2.9268-2.9495q-0.26093 0.090757-0.52185 0.14748-0.26092 0.056729-0.53321 0.056729-1.1004 0-1.8718-0.76579-0.77142-0.76579-0.77142-1.8662 0-0.35166 0.09076-0.68635 0.09074-0.33468 0.26093-0.62962l1.645 1.6451 1.0437-0.97566-1.6903-1.6904q0.29497-0.17018 0.62394-0.2666 0.329-0.09643 0.66932-0.09643 1.1231 0 1.9116 0.78845 0.78846 0.78845 0.78846 1.9117 0 0.27227-0.05673 0.5332-0.05673 0.26093-0.14746 0.52185l2.9382 2.9268q0.12476 0.12479 0.12476 0.30062 0 0.17585-0.12476 0.30062l-0.86217 0.7941q-0.1248 0.12479-0.29497 0.12479-0.17018 0-0.29497-0.12479zm0.31765-0.64663 0.45378-0.45376-3.0971-3.0972q0.18152-0.23823 0.27227-0.56159 0.09077-0.32333 0.09077-0.61826 0-0.85083-0.6296-1.4407-0.6296-0.5899-1.4351-0.60127l1.1458 1.1685q0.1021 0.1021 0.1021 0.24956 0 0.14748-0.1021 0.24956l-1.4974 1.4068q-0.1021 0.1021-0.24957 0.1021-0.14748 0-0.24958-0.1021l-1.1004-1.0891q0.03404 0.87351 0.61826 1.4407 0.58424 0.56722 1.3784 0.56722 0.28364 0 0.60125-0.090757 0.31765-0.090757 0.55592-0.27227z" fill="#aeaeae"/>
   <path d="m49.723 24.085-2.9268-2.9496q-0.26093 0.09075-0.52185 0.14747-0.26092 0.05673-0.53321 0.05673-1.1004 0-1.8718-0.7658-0.77142-0.76575-0.77142-1.8662 0-0.35166 0.09075-0.68634 0.09075-0.33467 0.26094-0.62962l1.645 1.645 1.0437-0.97566-1.6903-1.6903q0.29497-0.17018 0.62394-0.2666 0.32901-0.09642 0.6693-0.09642 1.1231 0 1.9116 0.78846 0.78852 0.78846 0.78846 1.9116 0 0.27227-0.05673 0.53321-0.05673 0.26093-0.14747 0.52185l2.9382 2.9268q0.12479 0.1248 0.12479 0.30063 0 0.17585-0.12479 0.30063l-0.86218 0.79411q-0.12482 0.12483-0.29497 0.12483-0.17018 0-0.29497-0.12483zm0.31765-0.64664 0.45377-0.45377-3.0971-3.0969q0.1815-0.23822 0.27228-0.56155 0.09075-0.32333 0.09075-0.61826 0-0.85084-0.62961-1.4407-0.62962-0.58991-1.4351-0.60122l1.1458 1.1685q0.10212 0.10212 0.10212 0.24956 0 0.14747-0.10212 0.24957l-1.4975 1.4068q-0.1021 0.10212-0.24957 0.10212t-0.24957-0.10212l-1.1004-1.0891q0.03402 0.87351 0.61827 1.4407 0.58424 0.56723 1.3784 0.56723 0.28364 0 0.60125-0.09075 0.31765-0.09075 0.55589-0.27227z" fill="#3096fa"/>
   <path d="m49.723 36.785-2.9268-2.9496q-0.26093 0.09075-0.52185 0.14747-0.26092 0.05673-0.53321 0.05673-1.1004 0-1.8718-0.76575-0.77142-0.7658-0.77142-1.8662 0-0.35166 0.09075-0.68635t0.26093-0.62962l1.645 1.645 1.0437-0.97566-1.6903-1.6903q0.29497-0.17018 0.62394-0.2666 0.329-0.09642 0.66933-0.09642 1.1231 0 1.9116 0.78846 0.78852 0.78846 0.78846 1.9116 0 0.27227-0.05673 0.53321t-0.14747 0.52185l2.9382 2.9268q0.12479 0.12482 0.12479 0.30063 0 0.17585-0.12479 0.30063l-0.86217 0.79411q-0.12482 0.12482-0.29497 0.12482-0.17018 0-0.29497-0.12482zm0.31765-0.64664 0.45377-0.45377-3.0971-3.0969q0.1815-0.23822 0.27228-0.56153 0.09075-0.32333 0.09075-0.61826 0-0.85084-0.62961-1.4407-0.62962-0.58991-1.4351-0.60123l1.1458 1.1685q0.10209 0.10212 0.10209 0.24957 0 0.14747-0.10209 0.24957l-1.4975 1.4068q-0.10211 0.10209-0.24957 0.10209-0.14747 0-0.24957-0.10209l-1.1004-1.0891q0.03402 0.87351 0.61826 1.4407 0.58424 0.56723 1.3784 0.56723 0.28364 0 0.60125-0.09075 0.31765-0.09075 0.55589-0.27227z" fill="#2979ff"/>
  </g>
 </g>
</svg>
