<?xml version="1.0" encoding="UTF-8"?>
<svg id="bitmap:10-32" width="10" height="76" version="1.1" viewBox="0 0 2.6458 20.108" xmlns="http://www.w3.org/2000/svg" xmlns:cc="http://creativecommons.org/ns#" xmlns:dc="http://purl.org/dc/elements/1.1/" xmlns:rdf="http://www.w3.org/1999/02/22-rdf-syntax-ns#">
 <metadata>
  <rdf:RDF>
   <cc:Work rdf:about="">
    <dc:format>image/svg+xml</dc:format>
    <dc:type rdf:resource="http://purl.org/dc/dcmitype/StillImage"/>
   </cc:Work>
  </rdf:RDF>
 </metadata>
 <g stroke-width=".26458">
  <path d="m0-1.8521h6.35v6.35h-6.35z" fill="none"/>
  <path d="m0 3.7042h6.35v6.35h-6.35z" fill="none"/>
  <path d="m0.52916 2.2571 0.92137 0.91789 0.13162-0.13113-0.92137-0.91789z" stroke-width=".26458"/>
  <path d="m2.2496 2.1167-0.92137 0.91789 0.13162 0.13113 0.92137-0.91789z" stroke-width=".26458"/>
 </g>
 <g transform="matrix(1 0 0 1 .36378 0)">
  <g stroke-width=".26458">
   <path d="m0.16538 7.2842 0.92136 0.91789 0.13162-0.13113-0.92136-0.91789z" fill="#3096fa"/>
   <path d="m1.8858 7.1437-0.92136 0.91789 0.13162 0.13113 0.92136-0.91789z" fill="#3096fa"/>
   <path d="m0.16538 12.311 0.92136 0.91789 0.13162-0.13113-0.92136-0.91789z" fill="#fff"/>
   <path d="m1.8858 12.171-0.92136 0.91789 0.13162 0.13113 0.92136-0.91789z" fill="#fff"/>
  </g>
  <path d="m0.16538 17.338 0.92136 0.91789 0.13162-0.13113-0.92136-0.91789z" fill="#aeaeae" stroke-width=".9354"/>
  <path d="m1.8858 17.198-0.92136 0.91789 0.13162 0.13113 0.92136-0.91789z" fill="#aeaeae" stroke-width=".9354"/>
 </g>
</svg>
