<?xml version="1.0" encoding="UTF-8"?>
<svg id="bitmap:42-32" width="42" height="252" version="1.1" viewBox="0 0 11.113 66.674" xmlns="http://www.w3.org/2000/svg" xmlns:cc="http://creativecommons.org/ns#" xmlns:dc="http://purl.org/dc/elements/1.1/" xmlns:rdf="http://www.w3.org/1999/02/22-rdf-syntax-ns#">
 <metadata>
  <rdf:RDF>
   <cc:Work rdf:about="">
    <dc:format>image/svg+xml</dc:format>
    <dc:type rdf:resource="http://purl.org/dc/dcmitype/StillImage"/>
   </cc:Work>
  </rdf:RDF>
 </metadata>
 <path d="m0.13229 10.979v-10.66l10.662 10.66z" fill="#fff" stroke="#fff" stroke-width=".26459px"/>
 <g fill="#aeaeae">
  <path d="m0.26459 0.26451h0.26459v0.26459h-0.26459z"/>
  <path d="m0.52918 0.5291h0.26459v0.26459h-0.26459z"/>
  <path d="m0.79377 0.79369h0.26459v0.26459h-0.26459z"/>
  <path d="m1.0584 1.0583h0.26459v0.26459h-0.26459z"/>
  <path d="m1.3229 1.3229h0.26459v0.26459h-0.26459z"/>
  <path d="m1.5875 1.5875h0.26459v0.26459h-0.26459z"/>
  <path d="m1.8521 1.852h0.26459v0.26459h-0.26459z"/>
  <path d="m2.1167 2.1166h0.26459v0.26459h-0.26459z"/>
  <path d="m2.3813 2.3812h0.26459v0.26459h-0.26459z"/>
  <path d="m2.6459 2.6458h0.26459v0.26459h-0.26459z"/>
  <path d="m2.9105 2.9104h0.26459v0.26459h-0.26459z"/>
  <path d="m3.1751 3.175h0.26459v0.26459h-0.26459z"/>
  <path d="m3.4397 3.4396h0.26459v0.26459h-0.26459z"/>
  <path d="m3.7042 3.7042h0.26459v0.26459h-0.26459z"/>
  <path d="m3.9688 3.9688h0.26459v0.26459h-0.26459z"/>
  <path d="m4.2334 4.2333h0.26459v0.26459h-0.26459z"/>
  <path d="m4.498 4.4979h0.26459v0.26459h-0.26459z"/>
  <path d="m4.7626 4.7625h0.26459v0.26459h-0.26459z"/>
  <path d="m5.0272 5.0271h0.26459v0.26459h-0.26459z"/>
  <path d="m5.2918 5.2917h0.26459v0.26459h-0.26459z"/>
  <path d="m5.821 5.8209h0.26459v0.26459h-0.26459z"/>
  <path d="m5.5564 5.5563h0.26459v0.26459h-0.26459z"/>
  <path d="m6.0856 6.0855h0.26459v0.26459h-0.26459z"/>
  <path d="m6.3502 6.3501h0.26459v0.26459h-0.26459z"/>
  <path d="m6.6148 6.6147h0.26459v0.26459h-0.26459z"/>
  <path d="m6.8794 6.8793h0.26459v0.26459h-0.26459z"/>
  <path d="m7.144 7.1439h0.26459v0.26459h-0.26459z"/>
  <path d="m7.4086 7.4085h0.26459v0.26459h-0.26459z"/>
  <path d="m7.6732 7.6731h0.26459v0.26459h-0.26459z"/>
  <path d="m7.9378 7.9375h0.26459v0.26459h-0.26459z"/>
  <path d="m8.2024 8.2023h0.26459v0.26459h-0.26459z"/>
  <path d="m8.467 8.4667h0.26459v0.26459h-0.26459z"/>
  <path d="m8.7316 8.7313h0.26459v0.26459h-0.26459z"/>
  <path d="m8.9962 8.9959h0.26459v0.26459h-0.26459z"/>
  <path d="m9.2608 9.2605h0.26459v0.26459h-0.26459z"/>
  <path d="m9.5254 9.5251h0.26459v0.26459h-0.26459z"/>
  <path d="m9.79 9.7897h0.26459v0.26459h-0.26459z"/>
  <path d="m10.055 10.054h0.26459v0.26459h-0.26459z"/>
  <path d="m10.319 10.319h0.26459v0.26459h-0.26459z"/>
  <path d="m10.584 10.583h0.26459v0.26459h-0.26459z"/>
  <path d="m10.848 10.848h0.26459v0.26459h-0.26459z"/>
  <path d="m2.7784e-5 21.696h0.26459v0.26459h-0.26459z"/>
  <path d="m0.26462 21.432h0.26459v0.26459h-0.26459z"/>
  <path d="m0.52921 21.167h0.26459v0.26459h-0.26459z"/>
  <path d="m0.7938 20.902h0.26459v0.26459h-0.26459z"/>
  <path d="m1.0584 20.638h0.26459v0.26459h-0.26459z"/>
  <path d="m1.3229 20.373h0.26459v0.26459h-0.26459z"/>
  <path d="m1.5875 20.109h0.26459v0.26459h-0.26459z"/>
  <path d="m1.8521 19.844h0.26459v0.26459h-0.26459z"/>
  <path d="m2.1167 19.579h0.26459v0.26459h-0.26459z"/>
  <path d="m2.3813 19.315h0.26459v0.26459h-0.26459z"/>
  <path d="m10.848 21.696h0.26459v0.26459h-0.26459z"/>
  <path d="m10.319 21.167h0.26459v0.26459h-0.26459z"/>
  <path d="m10.584 21.432h0.26459v0.26459h-0.26459z"/>
  <path d="m10.055 20.902h0.26459v0.26459h-0.26459z"/>
  <path d="m9.79 20.638h0.26459v0.26459h-0.26459z"/>
  <path d="m9.5254 20.373h0.26459v0.26459h-0.26459z"/>
  <path d="m9.2608 20.109h0.26459v0.26459h-0.26459z"/>
  <path d="m8.9962 19.844h0.26459v0.26459h-0.26459z"/>
  <path d="m8.7316 19.58h0.26459v0.26459h-0.26459z"/>
  <path d="m8.467 19.315h0.26459v0.26459h-0.26459z"/>
  <path d="m8.2025 19.05h0.26459v0.26459h-0.26459z"/>
  <path d="m2.9105 18.786h0.26459v0.26459h-0.26459z"/>
  <path d="m7.9379 18.786h0.26459v0.26459h-0.26459z"/>
  <path d="m3.1751 18.521h0.26459v0.26459h-0.26459z"/>
  <path d="m7.6733 18.521h0.26459v0.26459h-0.26459z"/>
  <path d="m5.5565 16.404h0.26459v0.26459h-0.26459z"/>
  <path d="m5.8211 16.669h0.26459v0.26459h-0.26459z"/>
  <path d="m6.0857 16.933h0.26459v0.26459h-0.26459z"/>
  <path d="m6.3503 17.198h0.26459v0.26459h-0.26459z"/>
  <path d="m6.6149 17.463h0.26459v0.26459h-0.26459z"/>
  <path d="m6.8795 17.727h0.26459v0.26459h-0.26459z"/>
  <path d="m7.1441 17.992h0.26459v0.26459h-0.26459z"/>
  <path d="m7.4087 18.256h0.26459v0.26459h-0.26459z"/>
  <path d="m5.5565 16.404h-0.26459v0.26459h0.26459z"/>
  <path d="m5.2919 16.669h-0.26459v0.26459h0.26459z"/>
  <path d="m5.0273 16.933h-0.26459v0.26459h0.26459z"/>
  <path d="m4.7627 17.198h-0.26459v0.26459h0.26459z"/>
  <path d="m4.4981 17.463h-0.26459v0.26459h0.26459z"/>
  <path d="m3.9689 17.727h0.26459v0.26459h-0.26459z"/>
  <path d="m2.6459 19.05h0.26459v0.26459h-0.26459z"/>
  <path d="m3.7043 17.992h0.26459v0.26459h-0.26459z"/>
  <path d="m3.4397 18.256h0.26459v0.26459h-0.26459z"/>
  <path d="m0-7.425e-5h0.26459v11.113h-0.26459z"/>
  <path d="m0.1324 55.696v10.66l10.662-10.66z" fill="#fff" stroke="#fff" stroke-width=".26459px"/>
  <path d="m0.2647 66.411h0.26459v-0.26459h-0.26459z"/>
  <path d="m0.52929 66.146h0.26459v-0.26459h-0.26459z"/>
  <path d="m0.79388 65.882h0.26459v-0.26459h-0.26459z"/>
  <path d="m1.0585 65.617h0.26459v-0.26459h-0.26459z"/>
  <path d="m1.323 65.353h0.26459v-0.26459h-0.26459z"/>
  <path d="m1.5876 65.088h0.26459v-0.26459h-0.26459z"/>
  <path d="m1.8522 64.824h0.26459v-0.26459h-0.26459z"/>
  <path d="m2.1168 64.559h0.26459v-0.26459h-0.26459z"/>
  <path d="m2.3814 64.294h0.26459v-0.26459h-0.26459z"/>
  <path d="m2.646 64.03h0.26459v-0.26459h-0.26459z"/>
  <path d="m2.9106 63.765h0.26459v-0.26459h-0.26459z"/>
  <path d="m3.1752 63.501h0.26459v-0.26459h-0.26459z"/>
  <path d="m3.4398 63.236h0.26459v-0.26459h-0.26459z"/>
  <path d="m3.7043 62.971h0.26459v-0.26459h-0.26459z"/>
  <path d="m3.9689 62.707h0.26459v-0.26459h-0.26459z"/>
  <path d="m4.2335 62.442h0.26459v-0.26459h-0.26459z"/>
  <path d="m4.4981 62.178h0.26459v-0.26459h-0.26459z"/>
  <path d="m4.7627 61.913h0.26459v-0.26459h-0.26459z"/>
  <path d="m5.0273 61.648h0.26459v-0.26459h-0.26459z"/>
  <path d="m5.2919 61.384h0.26459v-0.26459h-0.26459z"/>
  <path d="m5.8211 60.855h0.26459v-0.26459h-0.26459z"/>
  <path d="m5.5565 61.119h0.26459v-0.26459h-0.26459z"/>
  <path d="m6.0857 60.59h0.26459v-0.26459h-0.26459z"/>
  <path d="m6.3503 60.325h0.26459v-0.26459h-0.26459z"/>
  <path d="m6.6149 60.061h0.26459v-0.26459h-0.26459z"/>
  <path d="m6.8795 59.796h0.26459v-0.26459h-0.26459z"/>
  <path d="m7.1441 59.532h0.26459v-0.26459h-0.26459z"/>
  <path d="m7.4087 59.267h0.26459v-0.26459h-0.26459z"/>
  <path d="m7.6733 59.002h0.26459v-0.26459h-0.26459z"/>
  <path d="m7.9379 58.738h0.26459v-0.26459h-0.26459z"/>
  <path d="m8.2025 58.473h0.26459v-0.26459h-0.26459z"/>
  <path d="m8.4671 58.209h0.26459v-0.26459h-0.26459z"/>
  <path d="m8.7317 57.944h0.26459v-0.26459h-0.26459z"/>
  <path d="m8.9963 57.68h0.26459v-0.26459h-0.26459z"/>
  <path d="m9.2609 57.415h0.26459v-0.26459h-0.26459z"/>
  <path d="m9.5255 57.15h0.26459v-0.26459h-0.26459z"/>
  <path d="m9.7901 56.886h0.26459v-0.26459h-0.26459z"/>
  <path d="m10.055 56.621h0.26459v-0.26459h-0.26459z"/>
  <path d="m10.319 56.357h0.26459v-0.26459h-0.26459z"/>
  <path d="m10.584 56.092h0.26459v-0.26459h-0.26459z"/>
  <path d="m10.848 55.827h0.26459v-0.26459h-0.26459z"/>
  <path d="m1.0643e-4 66.676h0.26459v-11.113h-0.26459z"/>
  <path d="m10.981 33.205v-10.66l-10.662 10.66z" fill="#fff" stroke="#fff" stroke-width=".26459px"/>
  <path d="m10.848 22.49h-0.26459v0.26459h0.26459z"/>
  <path d="m10.584 22.754h-0.26459v0.26459h0.26459z"/>
  <path d="m10.319 23.019h-0.26459v0.26459h0.26459z"/>
  <path d="m10.055 23.284h-0.26459v0.26459h0.26459z"/>
  <path d="m9.79 23.548h-0.26459v0.26459h0.26459z"/>
  <path d="m9.5254 23.813h-0.26459v0.26459h0.26459z"/>
  <path d="m9.2608 24.077h-0.26459v0.26459h0.26459z"/>
  <path d="m8.9962 24.342h-0.26459v0.26459h0.26459z"/>
  <path d="m8.7316 24.607h-0.26459v0.26459h0.26459z"/>
  <path d="m8.467 24.871h-0.26459v0.26459h0.26459z"/>
  <path d="m8.2024 25.136h-0.26459v0.26459h0.26459z"/>
  <path d="m7.9378 25.4h-0.26459v0.26459h0.26459z"/>
  <path d="m7.6732 25.665h-0.26459v0.26459h0.26459z"/>
  <path d="m7.4087 25.93h-0.26459v0.26459h0.26459z"/>
  <path d="m7.1441 26.194h-0.26459v0.26459h0.26459z"/>
  <path d="m6.8795 26.459h-0.26459v0.26459h0.26459z"/>
  <path d="m6.6149 26.723h-0.26459v0.26459h0.26459z"/>
  <path d="m6.3503 26.988h-0.26459v0.26459h0.26459z"/>
  <path d="m6.0857 27.252h-0.26459v0.26459h0.26459z"/>
  <path d="m5.8211 27.517h-0.26459v0.26459h0.26459z"/>
  <path d="m5.2919 28.046h-0.26459v0.26459h0.26459z"/>
  <path d="m5.5565 27.782h-0.26459v0.26459h0.26459z"/>
  <path d="m5.0273 28.311h-0.26459v0.26459h0.26459z"/>
  <path d="m4.7627 28.575h-0.26459v0.26459h0.26459z"/>
  <path d="m4.4981 28.84h-0.26459v0.26459h0.26459z"/>
  <path d="m4.2335 29.105h-0.26459v0.26459h0.26459z"/>
  <path d="m3.9689 29.369h-0.26459v0.26459h0.26459z"/>
  <path d="m3.7043 29.634h-0.26459v0.26459h0.26459z"/>
  <path d="m3.4397 29.898h-0.26459v0.26459h0.26459z"/>
  <path d="m3.1751 30.163h-0.26459v0.26459h0.26459z"/>
  <path d="m2.9105 30.428h-0.26459v0.26459h0.26459z"/>
  <path d="m2.6459 30.692h-0.26459v0.26459h0.26459z"/>
  <path d="m2.3813 30.957h-0.26459v0.26459h0.26459z"/>
  <path d="m2.1167 31.221h-0.26459v0.26459h0.26459z"/>
  <path d="m1.8521 31.486h-0.26459v0.26459h0.26459z"/>
  <path d="m1.5875 31.75h-0.26459v0.26459h0.26459z"/>
  <path d="m1.3229 32.015h-0.26459v0.26459h0.26459z"/>
  <path d="m1.0583 32.28h-0.26459v0.26459h0.26459z"/>
  <path d="m0.79373 32.544h-0.26459v0.26459h0.26459z"/>
  <path d="m0.52913 32.809h-0.26459v0.26459h0.26459z"/>
  <path d="m0.26453 33.073h-0.26459v0.26459h0.26459z"/>
  <path d="m11.113 22.225h-0.26459v11.113h0.26459z"/>
  <path d="m10.981 33.472v10.66l-10.662-10.66z" fill="#fff" stroke="#fff" stroke-width=".26459px"/>
  <path d="m10.848 44.186h-0.26459v-0.26459h0.26459z"/>
  <path d="m10.584 43.922h-0.26459v-0.26459h0.26459z"/>
  <path d="m10.319 43.657h-0.26459v-0.26459h0.26459z"/>
  <path d="m10.054 43.393h-0.26459v-0.26459h0.26459z"/>
  <path d="m9.79 43.128h-0.26459v-0.26459h0.26459z"/>
  <path d="m9.5254 42.863h-0.26459v-0.26459h0.26459z"/>
  <path d="m9.2608 42.599h-0.26459v-0.26459h0.26459z"/>
  <path d="m8.9962 42.334h-0.26459v-0.26459h0.26459z"/>
  <path d="m8.7316 42.07h-0.26459v-0.26459h0.26459z"/>
  <path d="m8.467 41.805h-0.26459v-0.26459h0.26459z"/>
  <path d="m8.2024 41.541h-0.26459v-0.26459h0.26459z"/>
  <path d="m7.9378 41.276h-0.26459v-0.26459h0.26459z"/>
  <path d="m7.6732 41.011h-0.26459v-0.26459h0.26459z"/>
  <path d="m7.4087 40.747h-0.26459v-0.26459h0.26459z"/>
  <path d="m7.1441 40.482h-0.26459v-0.26459h0.26459z"/>
  <path d="m6.8795 40.218h-0.26459v-0.26459h0.26459z"/>
  <path d="m6.6149 39.953h-0.26459v-0.26459h0.26459z"/>
  <path d="m6.3503 39.688h-0.26459v-0.26459h0.26459z"/>
  <path d="m6.0857 39.424h-0.26459v-0.26459h0.26459z"/>
  <path d="m5.8211 39.159h-0.26459v-0.26459h0.26459z"/>
  <path d="m5.2919 38.63h-0.26459v-0.26459h0.26459z"/>
  <path d="m5.5565 38.895h-0.26459v-0.26459h0.26459z"/>
  <path d="m5.0273 38.365h-0.26459v-0.26459h0.26459z"/>
  <path d="m4.7627 38.101h-0.26459v-0.26459h0.26459z"/>
  <path d="m4.4981 37.836h-0.26459v-0.26459h0.26459z"/>
  <path d="m4.2335 37.572h-0.26459v-0.26459h0.26459z"/>
  <path d="m3.9689 37.307h-0.26459v-0.26459h0.26459z"/>
  <path d="m3.7043 37.042h-0.26459v-0.26459h0.26459z"/>
  <path d="m3.4397 36.778h-0.26459v-0.26459h0.26459z"/>
  <path d="m3.1751 36.513h-0.26459v-0.26459h0.26459z"/>
  <path d="m2.9105 36.249h-0.26459v-0.26459h0.26459z"/>
  <path d="m4.4981 48.949h-0.26459v-0.26459h0.26459z"/>
  <path d="m4.2335 48.685h-0.26459v-0.26459h0.26459z"/>
  <path d="m3.9689 48.42h-0.26459v-0.26459h0.26459z"/>
  <path d="m3.7043 48.155h-0.26459v-0.26459h0.26459z"/>
  <path d="m3.4397 47.891h-0.26459v-0.26459h0.26459z"/>
  <path d="m3.1751 47.626h-0.26459v-0.26459h0.26459z"/>
  <path d="m2.6459 47.097h-0.26459v-0.26459h0.26459z"/>
  <path d="m2.9105 47.362h-0.26459v-0.26459h0.26459z"/>
  <path d="m2.3813 46.832h-0.26459v-0.26459h0.26459z"/>
  <path d="m2.1167 46.568h-0.26459v-0.26459h0.26459z"/>
  <path d="m1.8521 46.303h-0.26459v-0.26459h0.26459z"/>
  <path d="m1.5875 46.039h-0.26459v-0.26459h0.26459z"/>
  <path d="m1.3229 45.774h-0.26459v-0.26459h0.26459z"/>
  <path d="m1.0583 45.509h-0.26459v-0.26459h0.26459z"/>
  <path d="m0.79371 45.245h-0.26459v-0.26459h0.26459z"/>
  <path d="m0.52911 44.98h-0.26459v-0.26459h0.26459z"/>
  <path d="m0.26451 44.716h-0.26459v-0.26459h0.26459z"/>
  <path d="m5.5565 50.008h-0.26459v-0.26459h0.26459z"/>
  <path d="m5.2919 49.743h-0.26459v-0.26459h0.26459z"/>
  <path d="m5.0273 49.479h-0.26459v-0.26459h0.26459z"/>
  <path d="m4.7627 49.214h-0.26459v-0.26459h0.26459z"/>
  <path d="m6.6148 48.949h0.26459v-0.26459h-0.26459z"/>
  <path d="m6.8794 48.685h0.26459v-0.26459h-0.26459z"/>
  <path d="m7.144 48.42h0.26459v-0.26459h-0.26459z"/>
  <path d="m7.4086 48.155h0.26459v-0.26459h-0.26459z"/>
  <path d="m7.6732 47.891h0.26459v-0.26459h-0.26459z"/>
  <path d="m7.9378 47.626h0.26459v-0.26459h-0.26459z"/>
  <path d="m8.467 47.097h0.26459v-0.26459h-0.26459z"/>
  <path d="m8.2024 47.362h0.26459v-0.26459h-0.26459z"/>
  <path d="m8.7316 46.832h0.26459v-0.26459h-0.26459z"/>
  <path d="m8.9962 46.568h0.26459v-0.26459h-0.26459z"/>
  <path d="m9.2608 46.303h0.26459v-0.26459h-0.26459z"/>
  <path d="m9.5254 46.039h0.26459v-0.26459h-0.26459z"/>
  <path d="m9.79 45.774h0.26459v-0.26459h-0.26459z"/>
  <path d="m10.055 45.509h0.26459v-0.26459h-0.26459z"/>
  <path d="m10.319 45.245h0.26459v-0.26459h-0.26459z"/>
  <path d="m10.584 44.98h0.26459v-0.26459h-0.26459z"/>
  <path d="m10.848 44.716h0.26459v-0.26459h-0.26459z"/>
  <path d="m5.5564 50.008h0.26459v-0.26459h-0.26459z"/>
  <path d="m5.821 49.743h0.26459v-0.26459h-0.26459z"/>
  <path d="m6.0856 49.479h0.26459v-0.26459h-0.26459z"/>
  <path d="m6.3502 49.214h0.26459v-0.26459h-0.26459z"/>
  <path d="m2.6459 35.984h-0.26459v-0.26459h0.26459z"/>
  <path d="m2.3813 35.72h-0.26459v-0.26459h0.26459z"/>
  <path d="m2.1167 35.455h-0.26459v-0.26459h0.26459z"/>
  <path d="m1.8521 35.19h-0.26459v-0.26459h0.26459z"/>
  <path d="m1.5875 34.926h-0.26459v-0.26459h0.26459z"/>
  <path d="m1.3229 34.661h-0.26459v-0.26459h0.26459z"/>
  <path d="m1.0583 34.397h-0.26459v-0.26459h0.26459z"/>
  <path d="m0.79371 34.132h-0.26459v-0.26459h0.26459z"/>
  <path d="m0.52911 33.868h-0.26459v-0.26459h0.26459z"/>
  <path d="m0.26451 33.603h-0.26459v-0.26459h0.26459z"/>
  <path d="m11.113 44.451h-0.26459v-11.113h0.26459z"/>
 </g>
 <g transform="translate(.000169 11.113)" fill="#fff">
  <g>
   <path d="m2.2e-7 10.848h11.113v0.26459h-11.113z"/>
   <path d="m0.26459 10.583h10.584v0.26459h-10.584z"/>
   <path d="m0.52918 10.319h10.055v0.26459h-10.055z"/>
   <path d="m0.79377 10.054h9.5254v0.26459h-9.5254z"/>
   <path d="m1.0584 9.7896h8.9962v0.26459h-8.9962z"/>
   <path d="m1.3229 9.5251h8.467v0.26459h-8.467z"/>
   <path d="m1.5875 9.2605h7.9378v0.26459h-7.9378z"/>
   <path d="m1.8521 8.9959h7.4086v0.26459h-7.4086z"/>
   <path d="m2.1167 8.7313h6.8794v0.26459h-6.8794z"/>
   <path d="m2.3813 8.4667h6.3503v0.26459h-6.3503z"/>
   <path d="m2.6459 8.2021h5.8211v0.26459h-5.8211z"/>
   <path d="m2.9104 7.9375h5.2919v0.26459h-5.2919z"/>
   <path d="m3.175 7.673h4.7627v0.26459h-4.7627z"/>
  </g>
  <path d="m3.4397 7.4083h4.2335v0.26459h-4.2335z"/>
  <path d="m3.7043 7.1437h3.7043v0.26459h-3.7043z"/>
  <path d="m3.9689 6.8791h3.1751v0.26459h-3.1751z"/>
  <path d="m4.4978 6.3501h2.1167v0.26459h-2.1167z"/>
  <path d="m4.2334 6.6145h2.6459v0.26459h-2.6459z"/>
  <path d="m4.7625 6.0854h1.5876v0.26459h-1.5876z"/>
  <path d="m5.0271 5.8208h1.0584v0.26459h-1.0584z"/>
  <path d="m5.2917 5.5562h0.52918v0.26459h-0.52918z"/>
 </g>
 <g transform="matrix(1 0 0 -1 .0001214 55.299)" fill="#fff">
  <g>
   <path d="m2.2e-7 10.848h11.113v0.26459h-11.113z"/>
   <path d="m0.26459 10.583h10.584v0.26459h-10.584z"/>
   <path d="m0.52918 10.319h10.055v0.26459h-10.055z"/>
   <path d="m0.79377 10.054h9.5254v0.26459h-9.5254z"/>
   <path d="m1.0584 9.7896h8.9962v0.26459h-8.9962z"/>
   <path d="m1.3229 9.5251h8.467v0.26459h-8.467z"/>
   <path d="m1.5875 9.2605h7.9378v0.26459h-7.9378z"/>
   <path d="m1.8521 8.9959h7.4086v0.26459h-7.4086z"/>
   <path d="m2.1167 8.7313h6.8794v0.26459h-6.8794z"/>
   <path d="m2.3813 8.4667h6.3503v0.26459h-6.3503z"/>
   <path d="m2.6459 8.2021h5.8211v0.26459h-5.8211z"/>
   <path d="m2.9104 7.9375h5.2919v0.26459h-5.2919z"/>
   <path d="m3.175 7.673h4.7627v0.26459h-4.7627z"/>
  </g>
  <path d="m3.4397 7.4083h4.2335v0.26459h-4.2335z"/>
  <path d="m3.7043 7.1437h3.7043v0.26459h-3.7043z"/>
  <path d="m3.9689 6.8791h3.1751v0.26459h-3.1751z"/>
  <path d="m4.4978 6.3501h2.1167v0.26459h-2.1167z"/>
  <path d="m4.2334 6.6145h2.6459v0.26459h-2.6459z"/>
  <path d="m4.7625 6.0854h1.5876v0.26459h-1.5876z"/>
  <path d="m5.0271 5.8208h1.0584v0.26459h-1.0584z"/>
  <path d="m5.2917 5.5562h0.52918v0.26459h-0.52918z"/>
 </g>
</svg>
