<?xml version="1.0" encoding="UTF-8"?>
<svg id="bitmap:28-32" width="28" height="96" version="1.1" viewBox="0 0 7.4081 25.4" xmlns="http://www.w3.org/2000/svg" xmlns:cc="http://creativecommons.org/ns#" xmlns:dc="http://purl.org/dc/elements/1.1/" xmlns:rdf="http://www.w3.org/1999/02/22-rdf-syntax-ns#">
 <metadata>
  <rdf:RDF>
   <cc:Work rdf:about="">
    <dc:format>image/svg+xml</dc:format>
    <dc:type rdf:resource="http://purl.org/dc/dcmitype/StillImage"/>
   </cc:Work>
  </rdf:RDF>
 </metadata>
 <path d="m3.7217 1.8775 2.6282 2.5244-0.37547 0.36061-2.6282-2.5244z" stroke-width=".26458"/>
 <path d="m1.0582 4.3765 2.6282-2.5244 0.37547 0.36061-2.6282 2.5244z" stroke-width=".26458"/>
 <g stroke-width=".26458">
  <path d="m3.7217 8.2277 2.6282 2.5242-0.37547 0.36057-2.6282-2.5242z" fill="#3096fa"/>
  <path d="m1.0582 10.726 2.6282-2.5242 0.37547 0.36057-2.6282 2.5242z" fill="#3096fa"/>
  <path d="m3.7217 14.578 2.6282 2.524-0.37547 0.36053-2.6282-2.524z" fill="#fff"/>
  <path d="m1.0582 17.076 2.6282-2.524 0.37547 0.36053-2.6282 2.524z" fill="#fff"/>
  <path d="m3.7217 20.928 2.6282 2.524-0.37547 0.36053-2.6282-2.524z" fill="#aeaeae"/>
  <path d="m1.0582 23.426 2.6282-2.524 0.37547 0.36053-2.6282 2.524z" fill="#aeaeae"/>
 </g>
</svg>
