<?xml version="1.0" encoding="UTF-8"?>
<svg id="bitmap:52-32" width="52" height="1040" version="1.1" viewBox="0 0 13.758 275.16" xmlns="http://www.w3.org/2000/svg" xmlns:cc="http://creativecommons.org/ns#" xmlns:dc="http://purl.org/dc/elements/1.1/" xmlns:rdf="http://www.w3.org/1999/02/22-rdf-syntax-ns#">
 <metadata>
  <rdf:RDF>
   <cc:Work rdf:about="">
    <dc:format>image/svg+xml</dc:format>
    <dc:type rdf:resource="http://purl.org/dc/dcmitype/StillImage"/>
   </cc:Work>
  </rdf:RDF>
 </metadata>
 <g transform="translate(.92519 1.0583)" stroke-width=".26458">
  <path d="m5.9822 3.7412 4.2052 3.6716-0.60072 0.52452-4.2052-3.6716z" stroke-width=".26458"/>
  <path d="m1.7207 7.3757 4.2052-3.6716 0.60072 0.52452-4.2052 3.6716z" stroke-width=".26458"/>
  <g transform="matrix(1.1429 0 0 1 -.26372 0)">
   <path d="m5.465 17.5 3.6794 3.6716-0.52562 0.52451-3.6794-3.6716z" fill="#3096fa" stroke-width=".2315"/>
   <path d="m1.7363 21.134 3.6794-3.6716 0.52562 0.52451-3.6794 3.6716z" fill="#3096fa" stroke-width=".2315"/>
   <g stroke-width=".2315">
    <path d="m5.465 31.259 3.6794 3.671-0.52562 0.52441-3.6794-3.671z" fill="#fff"/>
    <path d="m1.7363 34.892 3.6794-3.671 0.52562 0.52441-3.6794 3.671z" fill="#fff"/>
    <path d="m5.465 45.014 3.6794 3.6736-0.52562 0.52478-3.6794-3.6736z" fill="#aeaeae"/>
    <path d="m1.7363 48.653 3.6794-3.6736 0.52562 0.52478-3.6794 3.6736z" fill="#aeaeae"/>
   </g>
   <path d="m5.465 62.933 3.6794-3.6716-0.52561-0.52452-3.6794 3.6716z" stroke-width=".24749"/>
   <path d="m1.7363 59.299 3.6794 3.6716 0.52561-0.52452-3.6794-3.6716z" stroke-width=".24749"/>
   <path d="m5.465 76.692 3.6794-3.6716-0.52562-0.52451-3.6794 3.6716z" fill="#3096fa" stroke-width=".2315"/>
   <path d="m1.7363 73.057 3.6794 3.6716 0.52562-0.52451-3.6794-3.6716z" fill="#3096fa" stroke-width=".2315"/>
   <g stroke-width=".2315">
    <path d="m5.465 90.449 3.6794-3.671-0.52562-0.52441-3.6794 3.671z" fill="#fff"/>
    <path d="m1.7363 86.816 3.6794 3.671 0.52562-0.52441-3.6794-3.671z" fill="#fff"/>
    <path d="m5.465 104.21 3.6794-3.6736-0.52562-0.52478-3.6794 3.6736z" fill="#aeaeae"/>
    <path d="m1.7363 100.57 3.6794 3.6736 0.52562-0.52478-3.6794-3.6736z" fill="#aeaeae"/>
   </g>
  </g>
  <path d="m8.0707 112.25-3.6716 4.2052-0.52452-0.60078 3.6716-4.2052z" stroke-width=".26458"/>
  <path d="m4.3619 115.31 3.6716 4.2052-0.52452 0.60078-3.6716-4.2052z" stroke-width=".26458"/>
  <g transform="translate(9.5229,2.1262)">
   <g fill="#3096fa">
    <path d="m-1.4522 123.89-3.6716 4.2024-0.52452-0.60034 3.6716-4.2024z" stroke-width=".26458"/>
    <path d="m-5.161 126.95 3.6716 4.2024-0.52452 0.6003-3.6716-4.2024z" fill="#3096fa" stroke-width=".26458"/>
    <g stroke-width=".24749">
     <path d="m-3.5407 221.74 4.2052 3.6782-0.60071 0.52543-4.2052-3.6782z"/>
     <path d="m-7.8022 225.39 4.2052-3.6782 0.60071 0.52546-4.2052 3.678z"/>
     <path d="m-3.5407 239.67 4.2052-3.6753-0.60071-0.52503-4.2052 3.6753z"/>
     <path d="m-7.8022 236.03 4.2052 3.6753 0.60071-0.52503-4.2052-3.6753z"/>
    </g>
    <path d="m-1.4522 247.71-3.6716 4.2051-0.52452-0.60072 3.6716-4.2051z" stroke-width=".26458"/>
    <path d="m-5.161 250.77 3.6716 4.2051-0.52452 0.60069-3.6716-4.2051z" stroke-width=".26458"/>
    <path d="m-5.6856 261.47 3.6716 4.2051 0.52452-0.60071-3.6716-4.2051z" stroke-width=".26458"/>
    <path d="m-1.9767 264.53-3.6716 4.2051 0.52452 0.60068 3.6716-4.2051z" stroke-width=".26458"/>
   </g>
   <path d="m-1.4522 137.64-3.6716 4.2041-0.52452-0.60058 3.6716-4.2041z" fill="#fff" stroke-width=".26458"/>
   <path d="m-5.161 140.71 3.6716 4.2041-0.52452 0.60054-3.6716-4.2041z" fill="#fff" stroke-width=".26458"/>
   <path d="m-1.4522 151.4-3.6716 4.2024-0.52452-0.6003 3.6716-4.2024z" fill="#aeaeae" stroke-width=".26458"/>
   <path d="m-5.161 154.47 3.6716 4.2024-0.52452 0.6003-3.6716-4.2024z" fill="#aeaeae" stroke-width=".26458"/>
   <path d="m-5.6856 165.16 3.6716 4.2052 0.52452-0.60078-3.6716-4.2052z" stroke-width=".26458"/>
   <path d="m-1.9767 168.22-3.6716 4.2052 0.52452 0.60078 3.6716-4.2052z" stroke-width=".26458"/>
   <g stroke-width=".26458">
    <path d="m-5.6856 178.92 3.6716 4.2024 0.52452-0.60034-3.6716-4.2024z" fill="#3096fa"/>
    <path d="m-1.9767 181.98-3.6716 4.2024 0.52452 0.6003 3.6716-4.2024z" fill="#3096fa"/>
    <g transform="matrix(-1 0 0 1 -7.1378 55.033)">
     <path d="m-1.4522 137.64-3.6716 4.2041-0.52452-0.60058 3.6716-4.2041z" fill="#fff" stroke-width=".26458"/>
     <path d="m-5.161 140.71 3.6716 4.2041-0.52452 0.60054-3.6716-4.2041z" fill="#fff" stroke-width=".26458"/>
     <path d="m-1.4522 151.4-3.6716 4.2024-0.52452-0.6003 3.6716-4.2024z" fill="#aeaeae" stroke-width=".26458"/>
     <path d="m-5.161 154.47 3.6716 4.2024-0.52452 0.6003-3.6716-4.2024z" fill="#aeaeae" stroke-width=".26458"/>
    </g>
   </g>
  </g>
 </g>
</svg>
