<?xml version="1.0" encoding="UTF-8"?>
<svg id="bitmap:17-32" width="17" height="136" version="1.1" viewBox="0 0 4.4979 35.983" xmlns="http://www.w3.org/2000/svg" xmlns:cc="http://creativecommons.org/ns#" xmlns:dc="http://purl.org/dc/elements/1.1/" xmlns:rdf="http://www.w3.org/1999/02/22-rdf-syntax-ns#">
 <metadata>
  <rdf:RDF>
   <cc:Work rdf:about="">
    <dc:format>image/svg+xml</dc:format>
    <dc:type rdf:resource="http://purl.org/dc/dcmitype/StillImage"/>
   </cc:Work>
  </rdf:RDF>
 </metadata>
 <g transform="matrix(1.2498 0 0 1 .99107 1.0583)">
  <path d="m2.0646 3.0852-1.0504 1.1482-0.15005-0.16402 1.0504-1.1482z" stroke-width=".23667"/>
  <path d="m0.098023 2.9104 1.0504 1.1482-0.15005 0.16402-1.0504-1.1482z" stroke-width=".23667"/>
  <g transform="matrix(1.1443,0,0,1,10.306,-10.039)" stroke-width=".18501">
   <path d="m-7.202 22.121-0.91792 1.1467-0.13113-0.16382 0.91792-1.1467z" fill="#3096fa"/>
   <path d="m-8.9207 21.945 0.91792 1.1467-0.13113 0.16382-0.91792-1.1467z" fill="#3096fa"/>
   <path d="m-7.202 31.116-0.91792 1.148-0.13113-0.16399 0.91792-1.148z" fill="#2979ff"/>
   <path d="m-8.9207 30.941 0.91792 1.148-0.13113 0.16399-0.91792-1.148z" fill="#2979ff"/>
   <path d="m-7.202 40.112-0.91792 1.148-0.13113-0.16399 0.91792-1.148z" fill="#aeaeae"/>
   <path d="m-8.9207 39.937 0.91792 1.148-0.13113 0.16399-0.91792-1.148z" fill="#aeaeae"/>
  </g>
 </g>
</svg>
