<?xml version="1.0" encoding="UTF-8"?>
<svg id="bitmap:10-32" width="10" height="54" version="1.1" viewBox="0 0 2.6458 14.288" xmlns="http://www.w3.org/2000/svg" xmlns:cc="http://creativecommons.org/ns#" xmlns:dc="http://purl.org/dc/elements/1.1/" xmlns:rdf="http://www.w3.org/1999/02/22-rdf-syntax-ns#">
 <metadata>
  <rdf:RDF>
   <cc:Work rdf:about="">
    <dc:format>image/svg+xml</dc:format>
    <dc:type rdf:resource="http://purl.org/dc/dcmitype/StillImage"/>
    <dc:title/>
   </cc:Work>
  </rdf:RDF>
 </metadata>
 <g stroke-width=".26458">
  <path d="m1.9855 1.5795-0.91792-0.91901 0.13113-0.13129 0.91792 0.91901z" fill="#aeaeae"/>
  <path d="m2.1074 1.4622-0.91792 0.91901-0.13113-0.13129 0.91792-0.91901z" fill="#aeaeae"/>
  <path d="m1.9855 3.9607-0.91792-0.91901 0.13113-0.13129 0.91792 0.91901z" fill="#3096fa"/>
  <path d="m2.1074 3.8435-0.91792 0.91901-0.13113-0.13129 0.91792-0.91901z" fill="#3096fa"/>
  <path d="m1.9294 6.8751 7.757e-4 -1.3187 0.18651-1.14e-4 -7.75e-4 1.3187z" fill="#2979ff"/>
  <path d="m2.0993 6.8784-1.3055 7.821e-4 1.1418e-4 -0.18839 1.3055-7.827e-4z" fill="#2979ff"/>
  <g fill="#aeaeae">
   <path d="m1.9855 8.7232-0.91792-0.91901 0.13113-0.13129 0.91792 0.91901z"/>
   <path d="m2.1074 8.606-0.91792 0.91901-0.13113-0.13129 0.91792-0.91901z"/>
   <path d="m1.9855 11.104-0.91792-0.91901 0.13113-0.13129 0.91792 0.91901z"/>
   <path d="m2.1074 10.987-0.91792 0.91901-0.13113-0.13129 0.91792-0.91901z"/>
   <path d="m1.9855 13.486-0.91792-0.91901 0.13113-0.13129 0.91792 0.91901z"/>
   <path d="m2.1074 13.368-0.91792 0.91901-0.13113-0.13129 0.91792-0.91901z"/>
  </g>
 </g>
</svg>
