<?xml version="1.0" encoding="UTF-8"?>
<svg id="bitmap:28-32" width="28" height="96" version="1.1" viewBox="0 0 7.4081 25.4" xmlns="http://www.w3.org/2000/svg" xmlns:cc="http://creativecommons.org/ns#" xmlns:dc="http://purl.org/dc/elements/1.1/" xmlns:rdf="http://www.w3.org/1999/02/22-rdf-syntax-ns#">
 <metadata>
  <rdf:RDF>
   <cc:Work rdf:about="">
    <dc:format>image/svg+xml</dc:format>
    <dc:type rdf:resource="http://purl.org/dc/dcmitype/StillImage"/>
   </cc:Work>
  </rdf:RDF>
 </metadata>
 <g stroke-width=".26458">
  <path d="m3.7217 4.4725 2.6282-2.5244-0.37547-0.36061-2.6282 2.5244z"/>
  <path d="m1.0582 1.9735 2.6282 2.5244 0.37547-0.36061-2.6282-2.5244z"/>
  <g transform="translate(0 -.2646)">
   <path d="m3.7217 11.087 2.6282-2.5242-0.37547-0.36057-2.6282 2.5242z" fill="#3096fa"/>
   <path d="m1.0582 8.5883 2.6282 2.5242 0.37547-0.36057-2.6282-2.5242z" fill="#3096fa"/>
   <path d="m3.7217 17.437 2.6282-2.524-0.37547-0.36053-2.6282 2.524z" fill="#fff"/>
   <path d="m1.0582 14.939 2.6282 2.524 0.37547-0.36053-2.6282-2.524z" fill="#fff"/>
   <path d="m3.7217 23.787 2.6282-2.524-0.37547-0.36053-2.6282 2.524z" fill="#aeaeae"/>
   <path d="m1.0582 21.289 2.6282 2.524 0.37547-0.36053-2.6282-2.524z" fill="#aeaeae"/>
  </g>
 </g>
</svg>
