<?xml version="1.0" encoding="UTF-8"?>
<svg id="bitmap:15-32" width="15" height="45" version="1.1" viewBox="0 0 3.9688 11.906" xmlns="http://www.w3.org/2000/svg">
 <circle cx="1.9844" cy="5.9532" r="1.8521" fill="#fff" stroke="#3096fa" stroke-width=".26458"/>
 <g transform="matrix(.8 0 0 -.80002 -.026461 4.3393)" stroke-width=".66146">
  <path d="m3.8365 2.2922-1.3129 1.1474-0.18755-0.16391 1.3129-1.1474z"/>
  <path d="m1.3782 2.1167 1.3129 1.1474-0.18756 0.16391-1.3129-1.1474z"/>
 </g>
 <g transform="matrix(.8 0 0 -.80002 -.026461 8.3081)" fill="#3096fa" stroke-width=".66146">
  <path d="m3.8365 2.2922-1.3129 1.1474-0.18755-0.16391 1.3129-1.1474z"/>
  <path d="m1.3782 2.1167 1.3129 1.1474-0.18756 0.16391-1.3129-1.1474z"/>
 </g>
 <ellipse cx="1.9844" cy="9.922" rx="1.8521" ry="1.8521" fill="#fff" stroke="#2979ff" stroke-width=".26458"/>
 <g transform="matrix(.8 0 0 -.80002 .058659 12.277)" fill="#2979ff" stroke-width=".66146">
  <path d="m3.7301 2.2922-1.3129 1.1474-0.18755-0.16391 1.3129-1.1474z"/>
  <path d="m1.2718 2.1167 1.3129 1.1474-0.18756 0.16391-1.3129-1.1474z"/>
 </g>
</svg>
