<?xml version="1.0" encoding="UTF-8"?>
<svg id="bitmap:17-32" width="17" height="48" version="1.1" viewBox="0 0 4.4979 12.7" xmlns="http://www.w3.org/2000/svg" xmlns:cc="http://creativecommons.org/ns#" xmlns:dc="http://purl.org/dc/elements/1.1/" xmlns:rdf="http://www.w3.org/1999/02/22-rdf-syntax-ns#">
 <metadata>
  <rdf:RDF>
   <cc:Work rdf:about="">
    <dc:format>image/svg+xml</dc:format>
    <dc:type rdf:resource="http://purl.org/dc/dcmitype/StillImage"/>
    <dc:title/>
   </cc:Work>
  </rdf:RDF>
 </metadata>
 <g stroke-width=".26458">
  <path d="m4.4979 0.42636-0.453-0.42636-1.796 1.6903-1.796-1.6903-0.453 0.42636 1.796 1.6903-1.796 1.6903 0.453 0.42636 1.796-1.6903 1.796 1.6903 0.453-0.42636-1.796-1.6903z" fill="#aeaeae"/>
  <path d="m4.4979 4.6597-0.453-0.42636-1.796 1.6903-1.796-1.6903-0.453 0.42636 1.796 1.6903-1.796 1.6903 0.453 0.42636 1.796-1.6903 1.796 1.6903 0.453-0.42636-1.796-1.6903z" fill="#ff1744"/>
  <path d="m4.4979 8.893-0.453-0.42636-1.796 1.6903-1.796-1.6903-0.453 0.42636 1.796 1.6903-1.796 1.6903 0.453 0.42636 1.796-1.6903 1.796 1.6903 0.453-0.42636-1.796-1.6903z" fill="#d50000"/>
 </g>
</svg>
