<?xml version="1.0" encoding="UTF-8"?>
<svg id="bitmap:63-32" width="63" height="378" version="1.1" viewBox="0 0 16.67 100.01" xmlns="http://www.w3.org/2000/svg" xmlns:cc="http://creativecommons.org/ns#" xmlns:dc="http://purl.org/dc/elements/1.1/" xmlns:rdf="http://www.w3.org/1999/02/22-rdf-syntax-ns#">
 <metadata>
  <rdf:RDF>
   <cc:Work rdf:about="">
    <dc:format>image/svg+xml</dc:format>
    <dc:type rdf:resource="http://purl.org/dc/dcmitype/StillImage"/>
   </cc:Work>
  </rdf:RDF>
 </metadata>
 <path d="m0.13229 16.537v-16.218l16.219 16.218z" fill="#fff" stroke="#fff" stroke-width=".26459px"/>
 <g fill="#aeaeae">
  <path d="m0.26459 0.26451h0.26459v0.26459h-0.26459z"/>
  <path d="m0.52918 0.5291h0.26459v0.26459h-0.26459z"/>
  <path d="m0.79377 0.79369h0.26459v0.26459h-0.26459z"/>
  <path d="m1.0584 1.0583h0.26459v0.26459h-0.26459z"/>
  <path d="m1.3229 1.3229h0.26459v0.26459h-0.26459z"/>
  <path d="m1.5875 1.5875h0.26459v0.26459h-0.26459z"/>
  <path d="m1.8521 1.852h0.26459v0.26459h-0.26459z"/>
  <path d="m2.1167 2.1166h0.26459v0.26459h-0.26459z"/>
  <path d="m2.3813 2.3812h0.26459v0.26459h-0.26459z"/>
  <path d="m2.6459 2.6458h0.26459v0.26459h-0.26459z"/>
  <path d="m2.9105 2.9104h0.26459v0.26459h-0.26459z"/>
  <path d="m3.1751 3.175h0.26459v0.26459h-0.26459z"/>
  <path d="m3.4397 3.4396h0.26459v0.26459h-0.26459z"/>
  <path d="m3.7042 3.7042h0.26459v0.26459h-0.26459z"/>
  <path d="m3.9688 3.9688h0.26459v0.26459h-0.26459z"/>
  <path d="m4.2334 4.2333h0.26459v0.26459h-0.26459z"/>
  <path d="m4.498 4.4979h0.26459v0.26459h-0.26459z"/>
  <path d="m4.7626 4.7625h0.26459v0.26459h-0.26459z"/>
  <path d="m5.0272 5.0271h0.26459v0.26459h-0.26459z"/>
  <path d="m5.2918 5.2917h0.26459v0.26459h-0.26459z"/>
  <path d="m5.821 5.8209h0.26459v0.26459h-0.26459z"/>
  <path d="m5.5564 5.5563h0.26459v0.26459h-0.26459z"/>
  <path d="m6.0856 6.0855h0.26459v0.26459h-0.26459z"/>
  <path d="m6.3502 6.3501h0.26459v0.26459h-0.26459z"/>
  <path d="m6.6148 6.6147h0.26459v0.26459h-0.26459z"/>
  <path d="m6.8794 6.8793h0.26459v0.26459h-0.26459z"/>
  <path d="m7.144 7.1439h0.26459v0.26459h-0.26459z"/>
  <path d="m7.4086 7.4085h0.26459v0.26459h-0.26459z"/>
  <path d="m7.6732 7.6731h0.26459v0.26459h-0.26459z"/>
  <path d="m7.9378 7.9375h0.26459v0.26459h-0.26459z"/>
  <path d="m8.2024 8.2023h0.26459v0.26459h-0.26459z"/>
  <path d="m8.467 8.4667h0.26459v0.26459h-0.26459z"/>
  <path d="m8.7316 8.7313h0.26459v0.26459h-0.26459z"/>
  <path d="m8.9962 8.9959h0.26459v0.26459h-0.26459z"/>
  <path d="m9.2608 9.2605h0.26459v0.26459h-0.26459z"/>
  <path d="m9.5254 9.5251h0.26459v0.26459h-0.26459z"/>
  <path d="m9.79 9.7897h0.26459v0.26459h-0.26459z"/>
  <path d="m10.055 10.054h0.26459v0.26459h-0.26459z"/>
  <path d="m10.319 10.319h0.26459v0.26459h-0.26459z"/>
  <path d="m10.584 10.583h0.26459v0.26459h-0.26459z"/>
  <path d="m10.848 10.848h0.26459v0.26459h-0.26459z"/>
  <path d="m11.113 11.113h0.26459v0.26459h-0.26459z"/>
  <path d="m11.377 11.378h0.26459v0.26459h-0.26459z"/>
  <path d="m11.642 11.642h0.26459v0.26459h-0.26459z"/>
  <path d="m11.907 11.907h0.26459v0.26459h-0.26459z"/>
  <path d="m12.171 12.171h0.26459v0.26459h-0.26459z"/>
  <path d="m12.436 12.436h0.26459v0.26459h-0.26459z"/>
  <path d="m12.7 12.701h0.26459v0.26459h-0.26459z"/>
  <path d="m12.965 12.965h0.26459v0.26459h-0.26459z"/>
  <path d="m13.23 13.23h0.26459v0.26459h-0.26459z"/>
  <path d="m13.494 13.494h0.26459v0.26459h-0.26459z"/>
  <path d="m13.759 13.759h0.26459v0.26459h-0.26459z"/>
  <path d="m14.025 14.023h0.26459v0.26459h-0.26459z"/>
  <path d="m14.289 14.288h0.26459v0.26459h-0.26459z"/>
  <path d="m14.554 14.552h0.26459v0.26459h-0.26459z"/>
  <path d="m14.819 14.817h0.26459v0.26459h-0.26459z"/>
  <path d="m15.083 15.081h0.26459v0.26459h-0.26459z"/>
  <path d="m15.348 15.346h0.26459v0.26459h-0.26459z"/>
  <path d="m15.612 15.611h0.26459v0.26459h-0.26459z"/>
  <path d="m15.877 15.875h0.26459v0.26459h-0.26459z"/>
  <path d="m16.142 16.14h0.26459v0.26459h-0.26459z"/>
  <path d="m16.406 16.404h0.26459v0.26459h-0.26459z"/>
  <path d="m2.3895e-4 32.809h0.26459v0.26459h-0.26459z"/>
  <path d="m0.26483 32.545h0.26459v0.26459h-0.26459z"/>
  <path d="m0.52942 32.28h0.26459v0.26459h-0.26459z"/>
  <path d="m0.79401 32.015h0.26459v0.26459h-0.26459z"/>
  <path d="m1.0586 31.751h0.26459v0.26459h-0.26459z"/>
  <path d="m1.3231 31.486h0.26459v0.26459h-0.26459z"/>
  <path d="m1.5877 31.222h0.26459v0.26459h-0.26459z"/>
  <path d="m1.8523 30.957h0.26459v0.26459h-0.26459z"/>
  <path d="m2.1169 30.692h0.26459v0.26459h-0.26459z"/>
  <path d="m2.3815 30.428h0.26459v0.26459h-0.26459z"/>
  <path d="m16.405 32.809h0.26459v0.26459h-0.26459z"/>
  <path d="m15.876 32.28h0.26459v0.26459h-0.26459z"/>
  <path d="m16.141 32.545h0.26459v0.26459h-0.26459z"/>
  <path d="m15.612 32.015h0.26459v0.26459h-0.26459z"/>
  <path d="m15.347 31.751h0.26459v0.26459h-0.26459z"/>
  <path d="m15.082 31.486h0.26459v0.26459h-0.26459z"/>
  <path d="m14.817 31.222h0.26459v0.26459h-0.26459z"/>
  <path d="m14.553 30.957h0.26459v0.26459h-0.26459z"/>
  <path d="m14.288 30.693h0.26459v0.26459h-0.26459z"/>
  <path d="m14.024 30.428h0.26459v0.26459h-0.26459z"/>
  <path d="m13.759 30.163h0.26459v0.26459h-0.26459z"/>
  <path d="m2.9107 29.899h0.26459v0.26459h-0.26459z"/>
  <path d="m13.494 29.899h0.26459v0.26459h-0.26459z"/>
  <path d="m3.1753 29.634h0.26459v0.26459h-0.26459z"/>
  <path d="m13.23 29.634h0.26459v0.26459h-0.26459z"/>
  <path d="m11.113 27.517h0.26459v0.26459h-0.26459z"/>
  <path d="m11.378 27.782h0.26459v0.26459h-0.26459z"/>
  <path d="m11.643 28.046h0.26459v0.26459h-0.26459z"/>
  <path d="m11.907 28.311h0.26459v0.26459h-0.26459z"/>
  <path d="m12.172 28.576h0.26459v0.26459h-0.26459z"/>
  <path d="m12.436 28.84h0.26459v0.26459h-0.26459z"/>
  <path d="m12.701 29.105h0.26459v0.26459h-0.26459z"/>
  <path d="m12.965 29.369h0.26459v0.26459h-0.26459z"/>
  <path d="m9.5257 25.929h0.26459v0.26459h-0.26459z"/>
  <path d="m9.7903 26.194h0.26459v0.26459h-0.26459z"/>
  <path d="m10.055 26.459h0.26459v0.26459h-0.26459z"/>
  <path d="m10.32 26.723h0.26459v0.26459h-0.26459z"/>
  <path d="m10.584 26.988h0.26459v0.26459h-0.26459z"/>
  <path d="m9.7903 25.929h-0.26459v0.26459h0.26459z"/>
  <path d="m6.8797 26.194h-0.26459v0.26459h0.26459z"/>
  <path d="m6.6151 26.459h-0.26459v0.26459h0.26459z"/>
  <path d="m6.3505 26.723h-0.26459v0.26459h0.26459z"/>
  <path d="m6.0859 26.988h-0.26459v0.26459h0.26459z"/>
  <path d="m5.8213 27.252h-0.26459v0.26459h0.26459z"/>
  <path d="m10.849 27.252h0.26459v0.26459h-0.26459z"/>
  <path d="m8.2027 24.607h0.26459v0.26459h-0.26459z"/>
  <path d="m8.4673 24.871h0.26459v0.26459h-0.26459z"/>
  <path d="m8.7319 25.136h0.26459v0.26459h-0.26459z"/>
  <path d="m8.9965 25.401h0.26459v0.26459h-0.26459z"/>
  <path d="m9.2611 25.665h0.26459v0.26459h-0.26459z"/>
  <path d="m5.5567 27.517h-0.26459v0.26459h0.26459z"/>
  <path d="m5.2921 27.782h-0.26459v0.26459h0.26459z"/>
  <path d="m5.0275 28.046h-0.26459v0.26459h0.26459z"/>
  <path d="m4.7629 28.311h-0.26459v0.26459h0.26459z"/>
  <path d="m4.4983 28.576h-0.26459v0.26459h0.26459z"/>
  <path d="m3.9691 28.84h0.26459v0.26459h-0.26459z"/>
  <path d="m2.6461 30.163h0.26459v0.26459h-0.26459z"/>
  <path d="m3.7045 29.105h0.26459v0.26459h-0.26459z"/>
  <path d="m3.4399 29.369h0.26459v0.26459h-0.26459z"/>
  <path d="m0-7.425e-5h0.2646v16.67h-0.2646z"/>
  <path d="m0.13258 83.478v16.218l16.219-16.218z" fill="#fff" stroke="#fff" stroke-width=".26459px"/>
  <path d="m0.26488 99.75h0.26459v-0.26459h-0.26459z"/>
  <path d="m0.52947 99.486h0.26459v-0.26459h-0.26459z"/>
  <path d="m0.79406 99.221h0.26459v-0.26459h-0.26459z"/>
  <path d="m1.0587 98.957h0.26459v-0.26459h-0.26459z"/>
  <path d="m1.3232 98.692h0.26459v-0.26459h-0.26459z"/>
  <path d="m1.5878 98.427h0.26459v-0.26459h-0.26459z"/>
  <path d="m1.8524 98.163h0.26459v-0.26459h-0.26459z"/>
  <path d="m2.117 97.898h0.26459v-0.26459h-0.26459z"/>
  <path d="m2.3816 97.634h0.26459v-0.26459h-0.26459z"/>
  <path d="m2.6462 97.369h0.26459v-0.26459h-0.26459z"/>
  <path d="m2.9108 97.105h0.26459v-0.26459h-0.26459z"/>
  <path d="m3.1754 96.84h0.26459v-0.26459h-0.26459z"/>
  <path d="m3.44 96.575h0.26459v-0.26459h-0.26459z"/>
  <path d="m3.7045 96.311h0.26459v-0.26459h-0.26459z"/>
  <path d="m3.9691 96.046h0.26459v-0.26459h-0.26459z"/>
  <path d="m4.2337 95.782h0.26459v-0.26459h-0.26459z"/>
  <path d="m4.4983 95.517h0.26459v-0.26459h-0.26459z"/>
  <path d="m4.7629 95.252h0.26459v-0.26459h-0.26459z"/>
  <path d="m5.0275 94.988h0.26459v-0.26459h-0.26459z"/>
  <path d="m5.2921 94.723h0.26459v-0.26459h-0.26459z"/>
  <path d="m5.8213 94.194h0.26459v-0.26459h-0.26459z"/>
  <path d="m5.5567 94.459h0.26459v-0.26459h-0.26459z"/>
  <path d="m6.0859 93.929h0.26459v-0.26459h-0.26459z"/>
  <path d="m6.3505 93.665h0.26459v-0.26459h-0.26459z"/>
  <path d="m6.6151 93.4h0.26459v-0.26459h-0.26459z"/>
  <path d="m6.8797 93.136h0.26459v-0.26459h-0.26459z"/>
  <path d="m7.1443 92.871h0.26459v-0.26459h-0.26459z"/>
  <path d="m7.4089 92.606h0.26459v-0.26459h-0.26459z"/>
  <path d="m7.6735 92.342h0.26459v-0.26459h-0.26459z"/>
  <path d="m7.9381 92.077h0.26459v-0.26459h-0.26459z"/>
  <path d="m8.2027 91.813h0.26459v-0.26459h-0.26459z"/>
  <path d="m8.4673 91.548h0.26459v-0.26459h-0.26459z"/>
  <path d="m8.7319 91.284h0.26459v-0.26459h-0.26459z"/>
  <path d="m8.9965 91.019h0.26459v-0.26459h-0.26459z"/>
  <path d="m9.2611 90.754h0.26459v-0.26459h-0.26459z"/>
  <path d="m9.5257 90.49h0.26459v-0.26459h-0.26459z"/>
  <path d="m9.7903 90.225h0.26459v-0.26459h-0.26459z"/>
  <path d="m10.055 89.961h0.26459v-0.26459h-0.26459z"/>
  <path d="m10.319 89.696h0.26459v-0.26459h-0.26459z"/>
  <path d="m10.584 89.432h0.26459v-0.26459h-0.26459z"/>
  <path d="m10.848 89.167h0.26459v-0.26459h-0.26459z"/>
  <path d="m11.113 88.902h0.26459v-0.26459h-0.26459z"/>
  <path d="m11.377 88.637h0.26459v-0.26459h-0.26459z"/>
  <path d="m11.642 88.373h0.26459v-0.26459h-0.26459z"/>
  <path d="m11.907 88.108h0.26459v-0.26459h-0.26459z"/>
  <path d="m12.171 87.844h0.26459v-0.26459h-0.26459z"/>
  <path d="m12.436 87.579h0.26459v-0.26459h-0.26459z"/>
  <path d="m12.7 87.314h0.26459v-0.26459h-0.26459z"/>
  <path d="m12.965 87.05h0.26459v-0.26459h-0.26459z"/>
  <path d="m13.23 86.785h0.26459v-0.26459h-0.26459z"/>
  <path d="m13.494 86.521h0.26459v-0.26459h-0.26459z"/>
  <path d="m13.759 86.256h0.26459v-0.26459h-0.26459z"/>
  <path d="m14.025 85.992h0.26459v-0.26459h-0.26459z"/>
  <path d="m14.289 85.727h0.26459v-0.26459h-0.26459z"/>
  <path d="m14.554 85.463h0.26459v-0.26459h-0.26459z"/>
  <path d="m14.819 85.198h0.26459v-0.26459h-0.26459z"/>
  <path d="m15.083 84.934h0.26459v-0.26459h-0.26459z"/>
  <path d="m15.348 84.669h0.26459v-0.26459h-0.26459z"/>
  <path d="m15.612 84.404h0.26459v-0.26459h-0.26459z"/>
  <path d="m15.877 84.14h0.26459v-0.26459h-0.26459z"/>
  <path d="m16.142 83.875h0.26459v-0.26459h-0.26459z"/>
  <path d="m16.406 83.611h0.26459v-0.26459h-0.26459z"/>
  <path d="m2.8689e-4 100.01h0.2646v-16.67h-0.2646z"/>
  <path d="m16.537 49.876v-16.218l-16.219 16.218z" fill="#fff" stroke="#fff" stroke-width=".26459px"/>
  <path d="m16.405 33.603h-0.26459v0.26459h0.26459z"/>
  <path d="m16.141 33.868h-0.26459v0.26459h0.26459z"/>
  <path d="m15.876 34.132h-0.26459v0.26459h0.26459z"/>
  <path d="m15.611 34.397h-0.26459v0.26459h0.26459z"/>
  <path d="m15.347 34.662h-0.26459v0.26459h0.26459z"/>
  <path d="m15.082 34.926h-0.26459v0.26459h0.26459z"/>
  <path d="m14.818 35.191h-0.26459v0.26459h0.26459z"/>
  <path d="m14.553 35.455h-0.26459v0.26459h0.26459z"/>
  <path d="m14.288 35.72h-0.26459v0.26459h0.26459z"/>
  <path d="m14.024 35.985h-0.26459v0.26459h0.26459z"/>
  <path d="m13.759 36.249h-0.26459v0.26459h0.26459z"/>
  <path d="m13.495 36.514h-0.26459v0.26459h0.26459z"/>
  <path d="m13.23 36.778h-0.26459v0.26459h0.26459z"/>
  <path d="m12.966 37.043h-0.26459v0.26459h0.26459z"/>
  <path d="m12.701 37.308h-0.26459v0.26459h0.26459z"/>
  <path d="m12.436 37.572h-0.26459v0.26459h0.26459z"/>
  <path d="m12.172 37.837h-0.26459v0.26459h0.26459z"/>
  <path d="m11.907 38.101h-0.26459v0.26459h0.26459z"/>
  <path d="m11.643 38.366h-0.26459v0.26459h0.26459z"/>
  <path d="m11.378 38.63h-0.26459v0.26459h0.26459z"/>
  <path d="m10.849 39.16h-0.26459v0.26459h0.26459z"/>
  <path d="m11.113 38.895h-0.26459v0.26459h0.26459z"/>
  <path d="m10.584 39.424h-0.26459v0.26459h0.26459z"/>
  <path d="m10.32 39.689h-0.26459v0.26459h0.26459z"/>
  <path d="m10.055 39.953h-0.26459v0.26459h0.26459z"/>
  <path d="m9.7904 40.218h-0.26459v0.26459h0.26459z"/>
  <path d="m9.5258 40.483h-0.26459v0.26459h0.26459z"/>
  <path d="m9.2612 40.747h-0.26459v0.26459h0.26459z"/>
  <path d="m8.9966 41.012h-0.26459v0.26459h0.26459z"/>
  <path d="m8.732 41.276h-0.26459v0.26459h0.26459z"/>
  <path d="m8.4674 41.541h-0.26459v0.26459h0.26459z"/>
  <path d="m8.2028 41.805h-0.26459v0.26459h0.26459z"/>
  <path d="m7.9382 42.07h-0.26459v0.26459h0.26459z"/>
  <path d="m7.6736 42.335h-0.26459v0.26459h0.26459z"/>
  <path d="m7.409 42.599h-0.26459v0.26459h0.26459z"/>
  <path d="m7.1444 42.864h-0.26459v0.26459h0.26459z"/>
  <path d="m6.8798 43.128h-0.26459v0.26459h0.26459z"/>
  <path d="m6.6148 43.393h-0.26459v0.26459h0.26459z"/>
  <path d="m6.3508 43.658h-0.26459v0.26459h0.26459z"/>
  <path d="m6.0858 43.922h-0.26459v0.26459h0.26459z"/>
  <path d="m5.8218 44.187h-0.26459v0.26459h0.26459z"/>
  <path d="m5.5568 44.452h-0.26459v0.26459h0.26459z"/>
  <path d="m5.2928 44.717h-0.26459v0.26459h0.26459z"/>
  <path d="m5.0278 44.981h-0.26459v0.26459h0.26459z"/>
  <path d="m4.7628 45.246h-0.26459v0.26459h0.26459z"/>
  <path d="m4.4988 45.51h-0.26459v0.26459h0.26459z"/>
  <path d="m4.2338 45.775h-0.26459v0.26459h0.26459z"/>
  <path d="m3.9698 46.04h-0.26459v0.26459h0.26459z"/>
  <path d="m3.7048 46.304h-0.26459v0.26459h0.26459z"/>
  <path d="m3.4398 46.569h-0.26459v0.26459h0.26459z"/>
  <path d="m3.1758 46.833h-0.26459v0.26459h0.26459z"/>
  <path d="m2.9108 47.098h-0.26459v0.26459h0.26459z"/>
  <path d="m2.6451 47.362h-0.26459v0.26459h0.26459z"/>
  <path d="m2.3811 47.627h-0.26459v0.26459h0.26459z"/>
  <path d="m2.1161 47.891h-0.26459v0.26459h0.26459z"/>
  <path d="m1.8511 48.156h-0.26459v0.26459h0.26459z"/>
  <path d="m1.5871 48.42h-0.26459v0.26459h0.26459z"/>
  <path d="m1.3221 48.685h-0.26459v0.26459h0.26459z"/>
  <path d="m1.0581 48.95h-0.26459v0.26459h0.26459z"/>
  <path d="m0.79315 49.214h-0.26459v0.26459h0.26459z"/>
  <path d="m0.52815 49.479h-0.26459v0.26459h0.26459z"/>
  <path d="m0.26415 49.743h-0.26459v0.26459h0.26459z"/>
  <path d="m16.67 33.339h-0.2646v16.67h0.2646z"/>
  <path d="m16.538 50.14v16.218l-16.219-16.218z" fill="#fff" stroke="#fff" stroke-width=".26459px"/>
  <path d="m16.405 66.413h-0.26459v-0.26459h0.26459z"/>
  <path d="m16.141 66.148h-0.26459v-0.26459h0.26459z"/>
  <path d="m15.876 65.884h-0.26459v-0.26459h0.26459z"/>
  <path d="m15.611 65.619h-0.26459v-0.26459h0.26459z"/>
  <path d="m15.347 65.354h-0.26459v-0.26459h0.26459z"/>
  <path d="m15.082 65.09h-0.26459v-0.26459h0.26459z"/>
  <path d="m14.818 64.825h-0.26459v-0.26459h0.26459z"/>
  <path d="m14.553 64.561h-0.26459v-0.26459h0.26459z"/>
  <path d="m14.289 64.296h-0.26459v-0.26459h0.26459z"/>
  <path d="m14.024 64.032h-0.26459v-0.26459h0.26459z"/>
  <path d="m13.759 63.767h-0.26459v-0.26459h0.26459z"/>
  <path d="m13.495 63.502h-0.26459v-0.26459h0.26459z"/>
  <path d="m13.23 63.238h-0.26459v-0.26459h0.26459z"/>
  <path d="m12.966 62.973h-0.26459v-0.26459h0.26459z"/>
  <path d="m12.701 62.709h-0.26459v-0.26459h0.26459z"/>
  <path d="m12.436 62.444h-0.26459v-0.26459h0.26459z"/>
  <path d="m12.172 62.179h-0.26459v-0.26459h0.26459z"/>
  <path d="m11.907 61.915h-0.26459v-0.26459h0.26459z"/>
  <path d="m11.643 61.65h-0.26459v-0.26459h0.26459z"/>
  <path d="m11.378 61.386h-0.26459v-0.26459h0.26459z"/>
  <path d="m10.849 60.856h-0.26459v-0.26459h0.26459z"/>
  <path d="m11.113 61.121h-0.26459v-0.26459h0.26459z"/>
  <path d="m10.584 60.592h-0.26459v-0.26459h0.26459z"/>
  <path d="m10.32 60.327h-0.26459v-0.26459h0.26459z"/>
  <path d="m10.055 60.063h-0.26459v-0.26459h0.26459z"/>
  <path d="m9.7905 59.798h-0.26459v-0.26459h0.26459z"/>
  <path d="m9.5259 59.533h-0.26459v-0.26459h0.26459z"/>
  <path d="m9.2613 59.269h-0.26459v-0.26459h0.26459z"/>
  <path d="m8.9967 59.004h-0.26459v-0.26459h0.26459z"/>
  <path d="m8.7321 58.74h-0.26459v-0.26459h0.26459z"/>
  <path d="m8.4675 58.475h-0.26459v-0.26459h0.26459z"/>
  <path d="m8.2029 58.211h-0.26459v-0.26459h0.26459z"/>
  <path d="m7.9383 57.946h-0.26459v-0.26459h0.26459z"/>
  <path d="m7.6737 57.681h-0.26459v-0.26459h0.26459z"/>
  <path d="m7.4091 57.417h-0.26459v-0.26459h0.26459z"/>
  <path d="m7.1445 57.152h-0.26459v-0.26459h0.26459z"/>
  <path d="m6.8799 56.888h-0.26459v-0.26459h0.26459z"/>
  <path d="m6.6149 56.623h-0.26459v-0.26459h0.26459z"/>
  <path d="m6.3509 56.358h-0.26459v-0.26459h0.26459z"/>
  <path d="m6.0859 56.094h-0.26459v-0.26459h0.26459z"/>
  <path d="m5.8219 55.829h-0.26459v-0.26459h0.26459z"/>
  <path d="m5.5569 55.564h-0.26459v-0.26459h0.26459z"/>
  <path d="m5.2929 55.299h-0.26459v-0.26459h0.26459z"/>
  <path d="m5.0279 55.035h-0.26459v-0.26459h0.26459z"/>
  <path d="m4.7629 54.77h-0.26459v-0.26459h0.26459z"/>
  <path d="m4.4989 54.506h-0.26459v-0.26459h0.26459z"/>
  <path d="m4.2339 54.241h-0.26459v-0.26459h0.26459z"/>
  <path d="m3.9699 53.976h-0.26459v-0.26459h0.26459z"/>
  <path d="m3.7049 53.712h-0.26459v-0.26459h0.26459z"/>
  <path d="m3.4399 53.447h-0.26459v-0.26459h0.26459z"/>
  <path d="m3.1759 53.183h-0.26459v-0.26459h0.26459z"/>
  <path d="m2.9109 52.918h-0.26459v-0.26459h0.26459z"/>
  <path d="m7.1443 74.087h-0.26459v-0.26459h0.26459z"/>
  <path d="m6.8797 73.823h-0.26459v-0.26459h0.26459z"/>
  <path d="m6.6151 73.558h-0.26459v-0.26459h0.26459z"/>
  <path d="m6.3505 73.293h-0.26459v-0.26459h0.26459z"/>
  <path d="m6.0859 73.029h-0.26459v-0.26459h0.26459z"/>
  <path d="m5.8213 72.764h-0.26459v-0.26459h0.26459z"/>
  <path d="m5.5567 72.5h-0.26459v-0.26459h0.26459z"/>
  <path d="m5.2921 72.235h-0.26459v-0.26459h0.26459z"/>
  <path d="m5.0275 71.971h-0.26459v-0.26459h0.26459z"/>
  <path d="m4.7629 71.706h-0.26459v-0.26459h0.26459z"/>
  <path d="m4.4983 71.441h-0.26459v-0.26459h0.26459z"/>
  <path d="m4.2337 71.177h-0.26459v-0.26459h0.26459z"/>
  <path d="m3.9687 70.912h-0.26459v-0.26459h0.26459z"/>
  <path d="m3.7047 70.647h-0.26459v-0.26459h0.26459z"/>
  <path d="m3.4397 70.383h-0.26459v-0.26459h0.26459z"/>
  <path d="m3.1757 70.118h-0.26459v-0.26459h0.26459z"/>
  <path d="m2.9107 69.853h-0.26459v-0.26459h0.26459z"/>
  <path d="m2.6467 69.588h-0.26459v-0.26459h0.26459z"/>
  <path d="m2.3817 69.324h-0.26459v-0.26459h0.26459z"/>
  <path d="m2.1167 69.059h-0.26459v-0.26459h0.26459z"/>
  <path d="m1.8527 68.795h-0.26459v-0.26459h0.26459z"/>
  <path d="m1.5877 68.53h-0.26459v-0.26459h0.26459z"/>
  <path d="m1.3237 68.265h-0.26459v-0.26459h0.26459z"/>
  <path d="m1.0587 68.001h-0.26459v-0.26459h0.26459z"/>
  <path d="m0.79367 67.736h-0.26459v-0.26459h0.26459z"/>
  <path d="m0.52967 67.472h-0.26459v-0.26459h0.26459z"/>
  <path d="m0.26467 67.207h-0.26459v-0.26459h0.26459z"/>
  <path d="m2.6452 52.655h-0.26459v-0.26459h0.26459z"/>
  <path d="m2.3812 52.39h-0.26459v-0.26459h0.26459z"/>
  <path d="m2.1162 52.126h-0.26459v-0.26459h0.26459z"/>
  <path d="m1.8512 51.861h-0.26459v-0.26459h0.26459z"/>
  <path d="m1.5872 51.597h-0.26459v-0.26459h0.26459z"/>
  <path d="m1.3222 51.332h-0.26459v-0.26459h0.26459z"/>
  <path d="m1.0582 51.067h-0.26459v-0.26459h0.26459z"/>
  <path d="m0.79325 50.803h-0.26459v-0.26459h0.26459z"/>
  <path d="m0.52825 50.538h-0.26459v-0.26459h0.26459z"/>
  <path d="m0.26425 50.274h-0.26459v-0.26459h0.26459z"/>
  <path d="m16.67 66.677h-0.2646v-16.67h0.2646z"/>
  <path d="m7.1443 25.93h-0.26459v0.26459h0.26459z"/>
  <path d="m8.2027 24.872h-0.26459v0.26459h0.26459z"/>
  <path d="m7.9381 25.136h-0.26459v0.26459h0.26459z"/>
  <path d="m7.6735 25.401h-0.26459v0.26459h0.26459z"/>
  <path d="m7.4089 25.665h-0.26459v0.26459h0.26459z"/>
  <path d="m10.849 72.765h0.26459v-0.26459h-0.26459z"/>
  <path d="m11.114 72.5h0.26459v-0.26459h-0.26459z"/>
  <path d="m11.379 72.236h0.26459v-0.26459h-0.26459z"/>
  <path d="m11.643 71.971h0.26459v-0.26459h-0.26459z"/>
  <path d="m11.908 71.707h0.26459v-0.26459h-0.26459z"/>
  <path d="m12.172 71.442h0.26459v-0.26459h-0.26459z"/>
  <path d="m12.437 71.177h0.26459v-0.26459h-0.26459z"/>
  <path d="m12.702 70.913h0.26459v-0.26459h-0.26459z"/>
  <path d="m12.966 70.648h0.26459v-0.26459h-0.26459z"/>
  <path d="m13.231 70.384h0.26459v-0.26459h-0.26459z"/>
  <path d="m13.495 70.119h0.26459v-0.26459h-0.26459z"/>
  <path d="m13.76 69.854h0.26459v-0.26459h-0.26459z"/>
  <path d="m14.025 69.59h0.26459v-0.26459h-0.26459z"/>
  <path d="m14.289 69.325h0.26459v-0.26459h-0.26459z"/>
  <path d="m14.554 69.061h0.26459v-0.26459h-0.26459z"/>
  <path d="m14.818 68.796h0.26459v-0.26459h-0.26459z"/>
  <path d="m15.083 68.531h0.26459v-0.26459h-0.26459z"/>
  <path d="m15.347 68.266h0.26459v-0.26459h-0.26459z"/>
  <path d="m15.612 68.002h0.26459v-0.26459h-0.26459z"/>
  <path d="m15.877 67.737h0.26459v-0.26459h-0.26459z"/>
  <path d="m16.141 67.473h0.26459v-0.26459h-0.26459z"/>
  <path d="m16.406 67.208h0.26459v-0.26459h-0.26459z"/>
  <path d="m8.4681 75.41h-0.26459v-0.26459h0.26459z"/>
  <path d="m8.2031 75.146h-0.26459v-0.26459h0.26459z"/>
  <path d="m7.9381 74.881h-0.26459v-0.26459h0.26459z"/>
  <path d="m7.6741 74.617h-0.26459v-0.26459h0.26459z"/>
  <path d="m7.4091 74.352h-0.26459v-0.26459h0.26459z"/>
  <path d="m8.4671 75.146h0.26459v-0.26459h-0.26459z"/>
  <path d="m8.7321 74.881h0.26459v-0.26459h-0.26459z"/>
  <path d="m8.9961 74.617h0.26459v-0.26459h-0.26459z"/>
  <path d="m9.2611 74.352h0.26459v-0.26459h-0.26459z"/>
  <path d="m9.5251 74.087h0.26459v-0.26459h-0.26459z"/>
  <path d="m9.7901 73.823h0.26459v-0.26459h-0.26459z"/>
  <path d="m10.055 73.558h0.26459v-0.26459h-0.26459z"/>
  <path d="m10.319 73.294h0.26459v-0.26459h-0.26459z"/>
  <path d="m10.584 73.029h0.26459v-0.26459h-0.26459z"/>
 </g>
 <g transform="translate(2.9108 19.58)" fill="#fff">
  <g transform="translate(-.52921 .26457)">
   <path d="m2.3571e-7 10.848h11.907v0.26459h-11.907z"/>
   <path d="m-1.0584 11.906h14.024v0.26459h-14.024z"/>
   <g>
    <path d="m-1.3232 12.171h14.553v0.26459h-14.553z"/>
    <path d="m-1.5878 12.436h15.082v0.26459h-15.082z"/>
    <path d="m-1.8524 12.7h15.612v0.26459h-15.612z"/>
    <path d="m-2.117 12.965h16.141v0.26459h-16.141z"/>
    <path d="m-2.3816 13.23h16.67v0.26459h-16.67z"/>
   </g>
   <path d="m0.26459 10.583h11.378v0.26459h-11.378z"/>
   <path d="m0.52918 10.319h10.848v0.26459h-10.848z"/>
   <path d="m0.79377 10.054h10.319v0.26459h-10.319z"/>
   <path d="m1.0584 9.7896h9.79v0.26459h-9.79z"/>
   <path d="m1.3229 9.5251h9.2608v0.26459h-9.2608z"/>
   <path d="m1.5875 9.2605h8.7316v0.26459h-8.7316z"/>
   <path d="m1.8521 8.9959h8.2025v0.26459h-8.2025z"/>
   <path d="m2.1167 8.7313h7.6733v0.26459h-7.6733z"/>
   <path d="m2.3813 8.4667h7.1441v0.26459h-7.1441z"/>
   <path d="m2.6459 8.2021h6.6149v0.26459h-6.6149z"/>
   <path d="m2.9104 7.9375h6.0857v0.26459h-6.0857z"/>
   <path d="m3.175 7.673h5.5565v0.26459h-5.5565z"/>
   <path d="m-0.79383 11.642h13.494v0.26459h-13.494z"/>
   <path d="m-0.52923 11.377h12.965v0.26459h-12.965z"/>
   <path d="m-0.26437 11.113h12.436v0.26459h-12.436z"/>
  </g>
  <path d="m3.1751 7.4083h4.4981v0.26459h-4.4981z"/>
  <path d="m2.9105 7.6729h5.0273v0.26459h-5.0273z"/>
  <path d="m3.4397 7.1437h3.9689v0.26459h-3.9689z"/>
  <path d="m3.7043 6.8791h3.4397v0.26459h-3.4397z"/>
  <path d="m4.2335 6.3499h2.3814v0.26459h-2.3814z"/>
  <path d="m3.9689 6.6145h2.9105v0.26459h-2.9105z"/>
  <path d="m4.4981 6.0853h1.8522v0.26459h-1.8522z"/>
  <path d="m4.7626 5.8207h1.323v0.26459h-1.323z"/>
  <path d="m5.0272 5.5561h0.79379v0.26459h-0.79379z"/>
  <path d="m5.2918 5.2915h0.2646v0.26459h-0.2646z"/>
 </g>
 <g transform="matrix(1 0 0 -1 2.9111 80.437)" fill="#fff">
  <g transform="translate(-.52921 .26457)">
   <path d="m2.3571e-7 10.848h11.907v0.26459h-11.907z"/>
   <path d="m-1.0584 11.906h14.024v0.26459h-14.024z"/>
   <g>
    <path d="m-1.3232 12.171h14.553v0.26459h-14.553z"/>
    <path d="m-1.5878 12.436h15.082v0.26459h-15.082z"/>
    <path d="m-1.8524 12.7h15.612v0.26459h-15.612z"/>
    <path d="m-2.117 12.965h16.141v0.26459h-16.141z"/>
    <path d="m-2.3816 13.23h16.67v0.26459h-16.67z"/>
   </g>
   <path d="m0.26459 10.583h11.378v0.26459h-11.378z"/>
   <path d="m0.52918 10.319h10.848v0.26459h-10.848z"/>
   <path d="m0.79377 10.054h10.319v0.26459h-10.319z"/>
   <path d="m1.0584 9.7896h9.79v0.26459h-9.79z"/>
   <path d="m1.3229 9.5251h9.2608v0.26459h-9.2608z"/>
   <path d="m1.5875 9.2605h8.7316v0.26459h-8.7316z"/>
   <path d="m1.8521 8.9959h8.2025v0.26459h-8.2025z"/>
   <path d="m2.1167 8.7313h7.6733v0.26459h-7.6733z"/>
   <path d="m2.3813 8.4667h7.1441v0.26459h-7.1441z"/>
   <path d="m2.6459 8.2021h6.6149v0.26459h-6.6149z"/>
   <path d="m2.9104 7.9375h6.0857v0.26459h-6.0857z"/>
   <path d="m3.175 7.673h5.5565v0.26459h-5.5565z"/>
   <path d="m-0.79383 11.642h13.494v0.26459h-13.494z"/>
   <path d="m-0.52923 11.377h12.965v0.26459h-12.965z"/>
   <path d="m-0.26437 11.113h12.436v0.26459h-12.436z"/>
  </g>
  <path d="m3.1751 7.4083h4.4981v0.26459h-4.4981z"/>
  <path d="m2.9105 7.6729h5.0273v0.26459h-5.0273z"/>
  <path d="m3.4397 7.1437h3.9689v0.26459h-3.9689z"/>
  <path d="m3.7043 6.8791h3.4397v0.26459h-3.4397z"/>
  <path d="m4.2335 6.3499h2.3814v0.26459h-2.3814z"/>
  <path d="m3.9689 6.6145h2.9105v0.26459h-2.9105z"/>
  <path d="m4.4981 6.0853h1.8522v0.26459h-1.8522z"/>
  <path d="m4.7626 5.8207h1.323v0.26459h-1.323z"/>
  <path d="m5.0272 5.5561h0.79379v0.26459h-0.79379z"/>
  <path d="m5.2918 5.2915h0.2646v0.26459h-0.2646z"/>
 </g>
</svg>
