<?xml version="1.0" encoding="UTF-8"?>
<svg id="bitmap:26-32" width="26" height="208" version="1.1" viewBox="0 0 6.8791 55.034" xmlns="http://www.w3.org/2000/svg">
 <g transform="translate(-.18147 23.974)" stroke-width=".070004">
  <path d="m3.3954-20.446c0.18653-0.34842 0.54504-0.55396 0.75338-0.86228 0.22044-0.32336 0.096896-0.92744-0.52808-0.92744-0.40938 0-0.61044 0.32084-0.69524 0.58654l-0.6274-0.27322c0.17199-0.5339 0.63952-0.99262 1.3202-0.99262 0.56926 0 0.95928 0.2682 1.1579 0.6041 0.16957 0.28826 0.26888 0.82718 0.00728 1.2282-0.29068 0.44366-0.56926 0.57902-0.71946 0.86478-0.06056 0.1153-0.084785 0.1905-0.084785 0.56148h-0.70008c-0.00242-0.19552-0.03149-0.51386 0.11628-0.78958zm0.70976 1.7922c0 0.27572-0.21802 0.50132-0.48448 0.50132-0.26646 0-0.48448-0.2256-0.48448-0.50132 0-0.27572 0.21802-0.50132 0.48448-0.50132 0.26646 0 0.48448 0.2256 0.48448 0.50132z" fill="#aeaeae"/>
  <path d="m3.3954 0.1915c0.18652-0.34842 0.54504-0.55396 0.75338-0.86228 0.22044-0.32336 0.0969-0.92744-0.52808-0.92744-0.40938 0-0.61044 0.32084-0.69524 0.58654l-0.6274-0.27322c0.17199-0.5339 0.63952-0.99262 1.3202-0.99262 0.56926 0 0.95928 0.2682 1.1579 0.6041 0.16957 0.28826 0.26888 0.82718 0.0073 1.2282-0.29068 0.44366-0.56926 0.57902-0.71946 0.86478-0.06056 0.1153-0.08479 0.1905-0.08479 0.56148h-0.70008c-0.0024-0.19552-0.03149-0.51386 0.11628-0.78958zm0.70976 1.7922c0 0.27572-0.21802 0.50132-0.48448 0.50132s-0.48448-0.2256-0.48448-0.50132c0-0.27572 0.21802-0.50132 0.48448-0.50132s0.48448 0.2256 0.48448 0.50132z" fill="#aeaeae"/>
  <path d="m3.3954-13.567c0.18653-0.34842 0.54504-0.55396 0.75338-0.86228 0.22044-0.32336 0.096896-0.92744-0.52808-0.92744-0.40938 0-0.61044 0.32084-0.69524 0.58654l-0.6274-0.27322c0.17199-0.5339 0.63952-0.99262 1.3202-0.99262 0.56926 0 0.95928 0.2682 1.1579 0.6041 0.16957 0.28826 0.26888 0.82718 0.00728 1.2282-0.29068 0.44366-0.56926 0.57902-0.71946 0.86478-0.06056 0.1153-0.084786 0.1905-0.084786 0.56148h-0.70008c-0.00242-0.19552-0.03149-0.51386 0.11628-0.78958zm0.70976 1.7922c0 0.27572-0.21802 0.50132-0.48448 0.50132s-0.48448-0.2256-0.48448-0.50132 0.21802-0.50132 0.48448-0.50132 0.48448 0.2256 0.48448 0.50132z" fill="#3096fa"/>
  <path d="m3.3954-6.6877c0.18653-0.34842 0.54504-0.55396 0.75338-0.86228 0.22044-0.32336 0.096896-0.92744-0.52808-0.92744-0.40938 0-0.61044 0.32084-0.69524 0.58654l-0.6274-0.27322c0.17199-0.5339 0.63952-0.99262 1.3202-0.99262 0.56926 0 0.95928 0.2682 1.1579 0.6041 0.16957 0.28826 0.26888 0.82718 0.00728 1.2282-0.29068 0.44366-0.56926 0.57902-0.71946 0.86478-0.06056 0.1153-0.084785 0.1905-0.084785 0.56148h-0.70008c-0.00242-0.19552-0.03149-0.51386 0.11628-0.78958zm0.70976 1.7922c0 0.27572-0.21802 0.50132-0.48448 0.50132s-0.48448-0.2256-0.48448-0.50132c0-0.27572 0.21802-0.50132 0.48448-0.50132s0.48448 0.2256 0.48448 0.50132z" fill="#2979ff"/>
  <path d="m3.3954 7.0708c0.18652-0.34842 0.54504-0.55396 0.75338-0.86228 0.22044-0.32336 0.0969-0.92744-0.52808-0.92744-0.40938 0-0.61044 0.32084-0.69524 0.58654l-0.6274-0.27322c0.17199-0.5339 0.63952-0.99262 1.3202-0.99262 0.56926 0 0.95928 0.2682 1.1579 0.6041 0.16957 0.28826 0.26888 0.82718 0.0073 1.2282-0.29068 0.44366-0.56926 0.57902-0.71946 0.86478-0.06056 0.1153-0.08479 0.1905-0.08479 0.56148h-0.70009c-0.00242-0.19552-0.03149-0.51386 0.11628-0.78958zm0.70976 1.7922c0 0.27572-0.21802 0.50132-0.48448 0.50132-0.26646 0-0.48448-0.2256-0.48448-0.50132 0-0.27572 0.21802-0.50132 0.48448-0.50132 0.26646 0 0.48448 0.2256 0.48448 0.50132z" fill="#aeaeae"/>
  <path d="m3.3954 27.709c0.18652-0.34842 0.54504-0.55396 0.75338-0.86228 0.22044-0.32336 0.0969-0.92744-0.52808-0.92744-0.40938 0-0.61044 0.32084-0.69524 0.58654l-0.6274-0.27322c0.17199-0.5339 0.63952-0.99262 1.3202-0.99262 0.56926 0 0.95928 0.2682 1.1579 0.6041 0.16957 0.28826 0.26888 0.82718 0.0073 1.2282-0.29068 0.44366-0.56926 0.57902-0.71946 0.86478-0.06056 0.1153-0.08479 0.1905-0.08479 0.56148h-0.70008c-0.0024-0.19552-0.03149-0.51386 0.11628-0.78958zm0.70976 1.7922c0 0.27572-0.21802 0.50132-0.48448 0.50132-0.26646 0-0.48448-0.2256-0.48448-0.50132 0-0.27572 0.21802-0.50132 0.48448-0.50132 0.26646 0 0.48448 0.2256 0.48448 0.50132z" fill="#aeaeae"/>
  <path d="m3.3954 13.95c0.18653-0.34842 0.54504-0.55396 0.75338-0.86228 0.22044-0.32336 0.0969-0.92744-0.52808-0.92744-0.40938 0-0.61044 0.32084-0.69524 0.58654l-0.6274-0.27322c0.17199-0.5339 0.63952-0.99262 1.3202-0.99262 0.56926 0 0.95928 0.2682 1.1579 0.6041 0.16957 0.28826 0.26888 0.82718 0.0073 1.2282-0.29068 0.44366-0.56926 0.57902-0.71946 0.86478-0.06056 0.1153-0.08479 0.1905-0.08479 0.56148h-0.70009c-0.00242-0.19552-0.03149-0.51386 0.11628-0.78958zm0.70976 1.7922c0 0.27572-0.21802 0.50132-0.48448 0.50132-0.26646 0-0.48448-0.2256-0.48448-0.50132s0.21802-0.50132 0.48448-0.50132c0.26646 0 0.48448 0.2256 0.48448 0.50132z" fill="#3096fa"/>
  <path d="m3.3954 20.829c0.18653-0.34842 0.54504-0.55396 0.75338-0.86228 0.22044-0.32336 0.0969-0.92744-0.52808-0.92744-0.40938 0-0.61044 0.32084-0.69524 0.58654l-0.6274-0.27322c0.17199-0.5339 0.63952-0.99262 1.3202-0.99262 0.56926 0 0.95928 0.2682 1.1579 0.6041 0.16957 0.28826 0.26888 0.82718 0.0073 1.2282-0.29068 0.44366-0.56926 0.57902-0.71946 0.86478-0.06056 0.1153-0.08479 0.1905-0.08479 0.56148h-0.70009c-0.00242-0.19552-0.03149-0.51386 0.11628-0.78958zm0.70976 1.7922c0 0.27572-0.21802 0.50132-0.48448 0.50132-0.26646 0-0.48448-0.2256-0.48448-0.50132 0-0.27572 0.21802-0.50132 0.48448-0.50132 0.26646 0 0.48448 0.2256 0.48448 0.50132z" fill="#2979ff"/>
 </g>
</svg>
