<?xml version="1.0" encoding="UTF-8"?>
<svg id="bitmap:11-32" width="11" height="24" version="1.1" viewBox="0 0 2.9104 6.3499" xmlns="http://www.w3.org/2000/svg" xmlns:cc="http://creativecommons.org/ns#" xmlns:dc="http://purl.org/dc/elements/1.1/" xmlns:rdf="http://www.w3.org/1999/02/22-rdf-syntax-ns#">
 <metadata>
  <rdf:RDF>
   <cc:Work rdf:about="">
    <dc:format>image/svg+xml</dc:format>
    <dc:type rdf:resource="http://purl.org/dc/dcmitype/StillImage"/>
   </cc:Work>
  </rdf:RDF>
 </metadata>
 <g stroke-width=".26458">
  <path d="m0-1.8521h6.35v6.35h-6.35z" fill="none"/>
  <path d="m0 3.7042h6.35v6.35h-6.35z" fill="none"/>
  <path d="m0 0.2106 1.4478 1.3769 0.20682-0.1967-1.4478-1.3769z" stroke-width=".26458"/>
  <path d="m2.7036-3.18e-6 -1.4478 1.3769 0.20682 0.1967 1.4478-1.3769z" stroke-width=".26458"/>
 </g>
 <g transform="matrix(1.5714 0 0 1 .063486 0)">
  <g stroke-width=".18614">
   <path d="m-0.0404 1.7982 0.92136 1.3768 0.13162-0.19668-0.92136-1.3768z" fill="#3096fa"/>
   <path d="m1.68 1.5875-0.92136 1.3768 0.13162 0.19668 0.92136-1.3768z" fill="#3096fa"/>
   <path d="m-0.0404 3.3851 0.92136 1.3774 0.13162-0.19678-0.92136-1.3774z" fill="#fff"/>
   <path d="m1.68 3.175-0.92136 1.3774 0.13162 0.19678 0.92136-1.3774z" fill="#fff"/>
  </g>
  <path d="m-0.0404 4.9726 0.92136 1.3774 0.13162-0.19678-0.92136-1.3774z" fill="#aeaeae" stroke-width=".7462"/>
  <path d="m1.68 4.7624-0.92136 1.3774 0.13162 0.19678 0.92136-1.3774z" fill="#aeaeae" stroke-width=".7462"/>
 </g>
</svg>
