<?xml version="1.0" encoding="UTF-8"?>
<svg id="bitmap:13-32" width="13" height="33" version="1.1" viewBox="0 0 3.4395 8.7316" xmlns="http://www.w3.org/2000/svg" xmlns:cc="http://creativecommons.org/ns#" xmlns:dc="http://purl.org/dc/elements/1.1/" xmlns:rdf="http://www.w3.org/1999/02/22-rdf-syntax-ns#">
 <metadata>
  <rdf:RDF>
   <cc:Work rdf:about="">
    <dc:format>image/svg+xml</dc:format>
    <dc:type rdf:resource="http://purl.org/dc/dcmitype/StillImage"/>
   </cc:Work>
  </rdf:RDF>
 </metadata>
 <g stroke-width=".26458">
  <g fill="#aeaeae">
   <path d="m3.3084 1.9942-0.91792-1.0504 0.13113-0.15006 0.91792 1.0504z"/>
   <path d="m3.4303 1.8602-0.91792 1.0504-0.13113-0.15006 0.91792-1.0504z"/>
   <path d="m1.9854 1.9942-0.91792-1.0504 0.13113-0.15006 0.91792 1.0504z"/>
   <path d="m2.1073 1.8602-0.91792 1.0504-0.13113-0.15006 0.91792-1.0504z"/>
  </g>
  <g transform="translate(.66966 1.2004)" fill="#3096fa">
   <path d="m2.6387 3.7042-0.91792-1.0503 0.13113-0.15005 0.91792 1.0503z"/>
   <path d="m2.7606 3.5702-0.91792 1.0503-0.13113-0.15005 0.91792-1.0503z"/>
   <path d="m1.3158 3.7042-0.91792-1.0503 0.13113-0.15005 0.91792 1.0503z"/>
   <path d="m1.4377 3.5702-0.91792 1.0503-0.13113-0.15005 0.91792-1.0503z"/>
  </g>
  <g fill="#2979ff">
   <path d="m3.3084 7.8152-0.91792-1.0503 0.13113-0.15005 0.91792 1.0503z"/>
   <path d="m3.4303 7.6813-0.91792 1.0503-0.13113-0.15005 0.91792-1.0503z"/>
   <path d="m1.9854 7.8152-0.91792-1.0503 0.13113-0.15005 0.91792 1.0503z"/>
   <path d="m2.1073 7.6813-0.91792 1.0503-0.13113-0.15005 0.91792-1.0503z"/>
  </g>
 </g>
</svg>
