<?xml version="1.0" encoding="UTF-8"?>
<svg id="bitmap:31-32" width="31" height="372" fill="#000000" version="1.1" viewBox="0 0 31 372" xmlns="http://www.w3.org/2000/svg" xmlns:cc="http://creativecommons.org/ns#" xmlns:dc="http://purl.org/dc/elements/1.1/" xmlns:rdf="http://www.w3.org/1999/02/22-rdf-syntax-ns#">
 <metadata>
  <rdf:RDF>
   <cc:Work rdf:about="">
    <dc:format>image/svg+xml</dc:format>
    <dc:type rdf:resource="http://purl.org/dc/dcmitype/StillImage"/>
   </cc:Work>
  </rdf:RDF>
 </metadata>
 <rect width="31" height="372" fill="#fff" fill-opacity=".98444"/>
 <rect x="1" y="1" width="29" height="29" rx="2" ry="2" fill="none" stroke="#aeaeae" stroke-width="2"/>
 <path d="m11.682 144.66-5.0112-5.0148-1.6705 1.6717 6.6816 6.6864 14.318-14.328-1.6705-1.6717z"/>
 <path d="m5 262h21v3h-21z"/>
 <g transform="matrix(1.2787 0 0 1.2336 -.27878 -.23525)" fill="none" stroke-width="1.5924">
  <rect x="1.0142" y="26.116" width="22.652" height="23.537" rx="1.5641" ry="1.6213" stroke="#3096fa"/>
  <rect x="1.0142" y="51.246" width="22.652" height="23.537" rx="1.5641" ry="1.6213" stroke="#2979ff"/>
  <rect x="1.0142" y="76.375" width="22.652" height="23.537" rx="1.5641" ry="1.6213" stroke="#aeaeae"/>
  <rect x="1.0142" y="101.5" width="22.68" height="23.508" rx="1.5641" ry="1.6213" fill="none" stroke="#aeaeae"/>
  <rect x="1.0284" y="126.62" width="22.652" height="23.537" rx="1.5641" ry="1.6213" stroke="#3096fa"/>
  <rect x="1.0284" y="151.75" width="22.652" height="23.537" rx="1.5641" ry="1.6213" stroke="#2979ff"/>
  <rect x="1.0284" y="176.88" width="22.652" height="23.537" rx="1.5641" ry="1.6213" stroke="#aeaeae"/>
 </g>
 <g transform="matrix(1.2494 0 0 1.2335 .4349 -.23356)" stroke-width=".6481">
  <path d="m9.0017 142.59-4.0109-4.0654-1.337 1.3552 5.3479 5.4206 11.46-11.616-1.337-1.3552z" fill="#3096fa"/>
  <path d="m9.0017 167.72-4.0109-4.0654-1.337 1.3552 5.3479 5.4206 11.46-11.616-1.337-1.3552z" fill="#2979ff"/>
  <path d="m9.0017 192.85-4.0109-4.0654-1.337 1.3552 5.3479 5.4206 11.46-11.616-1.337-1.3552z" fill="#aeaeae"/>
 </g>
 <g transform="matrix(1.2522 0 0 1.2335 -.2522 -.23356)" fill="none" stroke-width="1.6092">
  <rect x="1.006" y="202.04" width="23.16" height="23.509" rx="1.5972" ry="1.6213" fill="none" stroke="#aeaeae"/>
  <rect x="1.0205" y="227.16" width="23.131" height="23.538" rx="1.5972" ry="1.6213" stroke="#3096fa"/>
  <rect x="1.0205" y="252.29" width="23.131" height="23.538" rx="1.5972" ry="1.6213" stroke="#2979ff"/>
  <rect x="1.0205" y="277.42" width="23.131" height="23.538" rx="1.5972" ry="1.6213" stroke="#aeaeae"/>
 </g>
 <g transform="matrix(1.3032 0 0 1.2335 -.88963 -.23356)" stroke-width=".70069">
  <path d="m4.5192 237.72h16.114v2.432h-16.114z" fill="#3096fa"/>
  <path d="m4.5192 262.85h16.114v2.432h-16.114z" fill="#2979ff"/>
  <path d="m4.5192 287.98h16.114v2.432h-16.114z" fill="#aeaeae"/>
 </g>
</svg>
