<?xml version="1.0" encoding="UTF-8"?>
<svg id="bitmap:23-32" width="23" height="184" version="1.1" viewBox="0 0 6.0854 48.684" xmlns="http://www.w3.org/2000/svg">
 <g stroke-width=".26458">
  <path d="m5.0271 1.4581-0.3997-0.39972-1.5847 1.5847-1.5847-1.5847-0.39971 0.39972 1.5847 1.5847-1.5847 1.5847 0.39971 0.39972 1.5847-1.5847 1.5847 1.5847 0.3997-0.39972-1.5847-1.5847z" fill="#aeaeae"/>
  <path d="m5.0271 19.715-0.3997-0.39972-1.5847 1.5847-1.5847-1.5847-0.39971 0.39972 1.5847 1.5847-1.5847 1.5847 0.39971 0.39972 1.5847-1.5847 1.5847 1.5847 0.3997-0.39972-1.5847-1.5847z" fill="#aeaeae"/>
  <path d="m5.0271 7.5436-0.3997-0.39972-1.5847 1.5847-1.5847-1.5847-0.39971 0.39972 1.5847 1.5847-1.5847 1.5847 0.39971 0.39972 1.5847-1.5847 1.5847 1.5847 0.3997-0.39972-1.5847-1.5847z" fill="#ff1744"/>
  <path d="m5.0271 13.629-0.3997-0.39972-1.5847 1.5847-1.5847-1.5847-0.39971 0.39972 1.5847 1.5847-1.5847 1.5847 0.39971 0.39972 1.5847-1.5847 1.5847 1.5847 0.3997-0.39972-1.5847-1.5847z" fill="#d50000"/>
  <path d="m5.0271 25.8-0.3997-0.39972-1.5847 1.5847-1.5847-1.5847-0.39971 0.39972 1.5847 1.5847-1.5847 1.5847 0.39971 0.39972 1.5847-1.5847 1.5847 1.5847 0.3997-0.39972-1.5847-1.5847z" fill="#aeaeae"/>
  <path d="m5.0271 44.057-0.3997-0.39972-1.5847 1.5847-1.5847-1.5847-0.39971 0.39972 1.5847 1.5847-1.5847 1.5847 0.39971 0.39972 1.5847-1.5847 1.5847 1.5847 0.3997-0.39972-1.5847-1.5847z" fill="#aeaeae"/>
  <path d="m5.0271 31.886-0.3997-0.39972-1.5847 1.5847-1.5847-1.5847-0.39971 0.39972 1.5847 1.5847-1.5847 1.5847 0.39971 0.39972 1.5847-1.5847 1.5847 1.5847 0.3997-0.39972-1.5847-1.5847z" fill="#ff1744"/>
  <path d="m5.0271 37.971-0.3997-0.39972-1.5847 1.5847-1.5847-1.5847-0.39971 0.39972 1.5847 1.5847-1.5847 1.5847 0.39971 0.39972 1.5847-1.5847 1.5847 1.5847 0.3997-0.39972-1.5847-1.5847z" fill="#d50000"/>
 </g>
</svg>
