<?xml version="1.0" encoding="UTF-8"?>
<svg id="bitmap:17-32" width="17" height="52" version="1.1" viewBox="0 0 4.4978 13.758" xmlns="http://www.w3.org/2000/svg" xmlns:cc="http://creativecommons.org/ns#" xmlns:dc="http://purl.org/dc/elements/1.1/" xmlns:rdf="http://www.w3.org/1999/02/22-rdf-syntax-ns#">
 <metadata>
  <rdf:RDF>
   <cc:Work rdf:about="">
    <dc:format>image/svg+xml</dc:format>
    <dc:type rdf:resource="http://purl.org/dc/dcmitype/StillImage"/>
   </cc:Work>
  </rdf:RDF>
 </metadata>
 <g stroke-width=".26458">
  <path d="m0-1.8521h6.35v6.35h-6.35z" fill="none"/>
  <path d="m0 3.7042h6.35v6.35h-6.35z" fill="none"/>
  <path d="m0 0.84504 2.2374 2.0653 0.31962-0.29504-2.2374-2.0653z" stroke-width=".26458"/>
  <path d="m4.1782 0.52915-2.2374 2.0653 0.31962 0.29504 2.2374-2.0653z" stroke-width=".26458"/>
 </g>
 <g transform="matrix(2.4286 0 0 1 .15208 1.5687)">
  <g transform="translate(.086725 .018767)" stroke-width=".12044">
   <path d="m-0.14935 2.6972 0.92136 2.0652 0.13162-0.29501-0.92136-2.0652z" fill="#3096fa"/>
   <path d="m1.5711 2.3812-0.92136 2.0652 0.13162 0.29501 0.92136-2.0652z" fill="#3096fa"/>
   <path d="m-0.14935 6.1358 0.92136 2.0661 0.13162-0.29517-0.92136-2.0661z" fill="#fff"/>
   <path d="m1.5711 5.8207-0.92136 2.0661 0.13162 0.29517 0.92136-2.0661z" fill="#fff"/>
  </g>
  <path d="m-0.062621 9.5942 0.92136 2.066 0.13162-0.29514-0.92136-2.066z" fill="#aeaeae" stroke-width=".60024"/>
  <path d="m1.6578 9.2789-0.92136 2.066 0.13162 0.29514 0.92136-2.066z" fill="#aeaeae" stroke-width=".60024"/>
 </g>
</svg>
