<?xml version="1.0" encoding="UTF-8"?>
<svg id="bitmap:32-32" width="32" height="256" version="1.1" viewBox="0 0 8.4666 67.734" xmlns="http://www.w3.org/2000/svg">
 <g fill="none">
  <g stroke-width=".52917">
   <rect x="1.852" y="3.175" width="3.4396" height="3.4396" stroke="#aeaeae"/>
   <rect x="1.852" y="11.642" width="3.4396" height="3.4396" stroke="#3096fa"/>
   <rect x="1.852" y="20.109" width="3.4396" height="3.4396" stroke="#2979ff"/>
  </g>
  <rect transform="scale(-1,1)" x="-6.8792" y="1.5875" width="3.9688" height=".52917" fill="#aeaeae" stroke-width=".23932"/>
  <rect transform="scale(-1,1)" x="-6.8792" y="2.1167" width=".52917" height="3.4396" fill="#aeaeae" stroke-width=".23932"/>
  <g stroke-width=".23932">
   <rect transform="scale(-1,1)" x="-6.8792" y="10.054" width="3.9688" height=".52917" fill="#3096fa"/>
   <rect transform="scale(-1,1)" x="-6.8792" y="10.583" width=".52917" height="3.4396" fill="#3096fa"/>
   <rect transform="scale(-1,1)" x="-6.8792" y="18.521" width="3.9688" height=".52917" fill="#2979ff"/>
   <rect transform="scale(-1,1)" x="-6.8792" y="19.05" width=".52917" height="3.4396" fill="#2979ff"/>
  </g>
  <rect x="1.852" y="28.575" width="3.4396" height="3.4396" stroke="#aeaeae" stroke-width=".52917"/>
  <rect transform="scale(-1,1)" x="-6.8792" y="26.988" width="3.9688" height=".52917" fill="#aeaeae" stroke-width=".23932"/>
  <rect transform="scale(-1,1)" x="-6.8792" y="27.517" width=".52917" height="3.4396" fill="#aeaeae" stroke-width=".23932"/>
  <g stroke-width=".52917">
   <rect x="1.852" y="37.042" width="3.4396" height="3.4396" stroke="#aeaeae"/>
   <rect x="1.852" y="45.509" width="3.4396" height="3.4396" stroke="#3096fa"/>
   <rect x="1.852" y="53.976" width="3.4396" height="3.4396" stroke="#2979ff"/>
  </g>
  <rect transform="scale(-1,1)" x="-6.8792" y="35.454" width="3.9688" height=".52917" fill="#aeaeae" stroke-width=".23932"/>
  <rect transform="scale(-1,1)" x="-6.8792" y="35.984" width=".52917" height="3.4396" fill="#aeaeae" stroke-width=".23932"/>
  <g stroke-width=".23932">
   <rect transform="scale(-1,1)" x="-6.8792" y="43.921" width="3.9688" height=".52917" fill="#3096fa"/>
   <rect transform="scale(-1,1)" x="-6.8792" y="44.45" width=".52917" height="3.4396" fill="#3096fa"/>
   <rect transform="scale(-1,1)" x="-6.8792" y="52.388" width="3.9688" height=".52917" fill="#2979ff"/>
   <rect transform="scale(-1,1)" x="-6.8792" y="52.917" width=".52917" height="3.4396" fill="#2979ff"/>
  </g>
  <rect x="1.852" y="62.442" width="3.4396" height="3.4396" stroke="#aeaeae" stroke-width=".52917"/>
  <rect transform="scale(-1,1)" x="-6.8792" y="60.855" width="3.9688" height=".52917" fill="#aeaeae" stroke-width=".23932"/>
  <rect transform="scale(-1,1)" x="-6.8792" y="61.384" width=".52917" height="3.4396" fill="#aeaeae" stroke-width=".23932"/>
 </g>
</svg>
