<?xml version="1.0" encoding="UTF-8"?>
<svg id="bitmap:23-32" width="23" height="184" version="1.1" viewBox="0 0 6.0854 48.684" xmlns="http://www.w3.org/2000/svg">
 <g stroke-width=".26458">
  <path d="m2.8397 3.253c0.16786-0.3097 0.49054-0.49241 0.67804-0.76646 0.1984-0.28742 0.08721-0.8244-0.47528-0.8244-0.36845 0-0.5494 0.28519-0.62571 0.52138l-0.56466-0.24286c0.1548-0.47459 0.57557-0.88233 1.1882-0.88233 0.51235 0 0.86336 0.2384 1.0421 0.53697 0.15263 0.25623 0.242 0.73528 0.00645 1.0918-0.26163 0.39438-0.51235 0.51469-0.64752 0.76869-0.05451 0.10249-0.076305 0.16933-0.076305 0.49909h-0.63008c-0.0021-0.1738-0.028335-0.45675 0.10466-0.70185zm0.6388 1.5931c0 0.2451-0.19621 0.44561-0.43604 0.44561s-0.43604-0.20053-0.43604-0.44561c0-0.24508 0.19621-0.44561 0.43604-0.44561s0.43604 0.20053 0.43604 0.44561z" fill="#aeaeae"/>
  <path d="m2.8397 21.51c0.16786-0.3097 0.49054-0.49241 0.67804-0.76646 0.1984-0.28742 0.08721-0.8244-0.47528-0.8244-0.36845 0-0.5494 0.28519-0.62571 0.52138l-0.56466-0.24286c0.1548-0.47459 0.57557-0.88233 1.1882-0.88233 0.51235 0 0.86336 0.2384 1.0421 0.53698 0.15263 0.25623 0.242 0.73528 0.0064 1.0918-0.26163 0.39438-0.51235 0.51468-0.64752 0.76869-0.05451 0.10249-0.0763 0.16933-0.0763 0.49909h-0.63008c-0.0021-0.1738-0.02834-0.45675 0.10466-0.70185zm0.6388 1.5931c0 0.2451-0.19622 0.44561-0.43604 0.44561-0.23983 0-0.43604-0.20053-0.43604-0.44561 0-0.24508 0.19622-0.44561 0.43604-0.44561 0.23982 0 0.43604 0.20053 0.43604 0.44561z" fill="#aeaeae"/>
  <path d="m2.8397 9.3385c0.16786-0.3097 0.49054-0.49241 0.67804-0.76646 0.1984-0.28742 0.08721-0.82439-0.47528-0.82439-0.36845 0-0.54942 0.28519-0.62571 0.52137l-0.56466-0.24286c0.1548-0.47458 0.57557-0.88233 1.1882-0.88233 0.51235 0 0.86336 0.2384 1.0421 0.53697 0.15263 0.25623 0.242 0.73527 0.00643 1.0918-0.26162 0.39437-0.51235 0.51468-0.64752 0.76869-0.054514 0.10249-0.076307 0.16933-0.076307 0.49909h-0.63008c-0.00206-0.1738-0.028337-0.45675 0.10466-0.70185zm0.6388 1.5931c0 0.2451-0.19621 0.44561-0.43604 0.44561-0.23983 0-0.43604-0.20053-0.43604-0.44561s0.19621-0.44561 0.43604-0.44561c0.23983 0 0.43604 0.20053 0.43604 0.44561z" fill="#3096fa"/>
  <path d="m2.8397 15.424c0.16786-0.3097 0.49054-0.49241 0.67804-0.76646 0.1984-0.28742 0.08721-0.8244-0.47528-0.8244-0.36845 0-0.54942 0.28519-0.62571 0.52137l-0.56466-0.24286c0.1548-0.47458 0.57557-0.88233 1.1882-0.88233 0.51235 0 0.86336 0.2384 1.0421 0.53697 0.15263 0.25623 0.242 0.73527 0.00643 1.0918-0.26162 0.39438-0.51235 0.51468-0.64752 0.76869-0.054514 0.10249-0.076307 0.16933-0.076307 0.49909h-0.63008c-0.00206-0.1738-0.028337-0.45676 0.10466-0.70185zm0.6388 1.5931c0 0.2451-0.19621 0.44561-0.43604 0.44561-0.23983 0-0.43604-0.20053-0.43604-0.44561s0.19621-0.44561 0.43604-0.44561c0.23983 0 0.43604 0.20053 0.43604 0.44561z" fill="#2979ff"/>
  <path d="m2.8397 27.595c0.16786-0.3097 0.49054-0.4924 0.67804-0.76646 0.1984-0.28742 0.08721-0.8244-0.47528-0.8244-0.36845 0-0.5494 0.2852-0.62571 0.52138l-0.56466-0.24285c0.1548-0.47459 0.57557-0.88233 1.1882-0.88233 0.51235 0 0.86336 0.2384 1.0421 0.53697 0.15263 0.25624 0.242 0.73528 0.0064 1.0918-0.26163 0.39438-0.51235 0.51469-0.64752 0.76869-0.05451 0.10249-0.0763 0.16933-0.0763 0.49909h-0.63008c-0.0021-0.17379-0.02834-0.45675 0.10466-0.70184zm0.6388 1.5931c0 0.24509-0.19622 0.44561-0.43604 0.44561-0.23983 0-0.43604-0.20053-0.43604-0.44561 0-0.24509 0.19622-0.44562 0.43604-0.44562 0.23982 0 0.43604 0.20053 0.43604 0.44562z" fill="#aeaeae"/>
  <path d="m2.8397 45.852c0.16786-0.3097 0.49054-0.4924 0.67804-0.76646 0.1984-0.28742 0.08721-0.8244-0.47528-0.8244-0.36845 0-0.5494 0.2852-0.62571 0.52138l-0.56466-0.24285c0.1548-0.47459 0.57557-0.88233 1.1882-0.88233 0.51235 0 0.86336 0.2384 1.0421 0.53697 0.15263 0.25624 0.242 0.73528 0.0064 1.0918-0.26163 0.39438-0.51235 0.51469-0.64752 0.76869-0.05451 0.10249-0.0763 0.16933-0.0763 0.49909h-0.63008c-0.0021-0.17379-0.02834-0.45675 0.10466-0.70184zm0.6388 1.5931c0 0.24509-0.19622 0.44561-0.43604 0.44561-0.23983 0-0.43604-0.20053-0.43604-0.44561 0-0.24509 0.19622-0.44562 0.43604-0.44562 0.23982 0 0.43604 0.20053 0.43604 0.44562z" fill="#aeaeae"/>
  <path d="m2.8397 33.681c0.16786-0.3097 0.49054-0.49241 0.67804-0.76646 0.1984-0.28742 0.08721-0.8244-0.47528-0.8244-0.36845 0-0.54942 0.2852-0.62571 0.52137l-0.56466-0.24286c0.1548-0.47458 0.57557-0.88232 1.1882-0.88232 0.51235 0 0.86336 0.2384 1.0421 0.53697 0.15263 0.25624 0.242 0.73528 0.0064 1.0918-0.26162 0.39437-0.51235 0.51468-0.64752 0.76869-0.05451 0.10248-0.07631 0.16933-0.07631 0.49908h-0.63008c-0.0021-0.17379-0.02834-0.45674 0.10466-0.70184zm0.6388 1.5931c0 0.24509-0.19622 0.44561-0.43604 0.44561-0.23983 0-0.43604-0.20053-0.43604-0.44561 0-0.24509 0.19621-0.44562 0.43604-0.44562 0.23983 0 0.43604 0.20053 0.43604 0.44562z" fill="#3096fa"/>
  <path d="m2.8397 39.766c0.16786-0.3097 0.49054-0.49241 0.67804-0.76646 0.1984-0.28742 0.08721-0.8244-0.47528-0.8244-0.36845 0-0.54942 0.2852-0.62571 0.52137l-0.56466-0.24286c0.1548-0.47458 0.57557-0.88232 1.1882-0.88232 0.51235 0 0.86336 0.2384 1.0421 0.53697 0.15263 0.25623 0.242 0.73527 0.0064 1.0918-0.26162 0.39437-0.51235 0.51468-0.64752 0.76869-0.05451 0.10248-0.07631 0.16933-0.07631 0.49909h-0.63008c-0.0021-0.1738-0.02834-0.45677 0.10466-0.70185zm0.6388 1.5931c0 0.24509-0.19622 0.44561-0.43604 0.44561-0.23983 0-0.43604-0.20053-0.43604-0.44561 0-0.24509 0.19621-0.44562 0.43604-0.44562 0.23983 0 0.43604 0.20053 0.43604 0.44562z" fill="#2979ff"/>
 </g>
</svg>
