<?xml version="1.0" encoding="UTF-8"?>
<svg id="bitmap:13-32" width="13" height="104" version="1.1" viewBox="0 0 13 104" xmlns="http://www.w3.org/2000/svg" xmlns:cc="http://creativecommons.org/ns#" xmlns:dc="http://purl.org/dc/elements/1.1/" xmlns:rdf="http://www.w3.org/1999/02/22-rdf-syntax-ns#">
 <metadata>
  <rdf:RDF>
   <cc:Work rdf:about="">
    <dc:format>image/svg+xml</dc:format>
    <dc:type rdf:resource="http://purl.org/dc/dcmitype/StillImage"/>
    <dc:title/>
   </cc:Work>
  </rdf:RDF>
 </metadata>
 <path d="m10 58.5a3.5 3.5 0 0 1-3.5 3.5 3.5 3.5 0 0 1-3.5-3.5 3.5 3.5 0 0 1 3.5-3.5 3.5 3.5 0 0 1 3.5 3.5z"/>
 <g fill="none">
  <ellipse cx="6.5" cy="6.5" rx="6" ry="6" stroke="#aeaeae"/>
  <ellipse cx="6.5" cy="19.5" rx="6" ry="6" stroke="#3096fa"/>
  <ellipse cx="6.5" cy="32.5" rx="6" ry="6" stroke="#2979ff"/>
  <ellipse cx="6.5" cy="45.5" rx="6" ry="6" stroke="#aeaeae"/>
  <ellipse cx="6.5" cy="58.5" rx="6" ry="6" stroke="#aeaeae"/>
  <ellipse cx="6.5" cy="71.5" rx="6" ry="6" stroke="#3096fa"/>
  <ellipse cx="6.5" cy="84.5" rx="6" ry="6" stroke="#2979ff"/>
  <ellipse cx="6.5" cy="97.5" rx="6" ry="6" stroke="#aeaeae"/>
 </g>
 <g>
  <path d="m10 71.5a3.5 3.5 0 0 1-3.5 3.5 3.5 3.5 0 0 1-3.5-3.5 3.5 3.5 0 0 1 3.5-3.5 3.5 3.5 0 0 1 3.5 3.5z" fill="#3096fa"/>
  <path d="m10 84.5a3.5 3.5 0 0 1-3.5 3.5 3.5 3.5 0 0 1-3.5-3.5 3.5 3.5 0 0 1 3.5-3.5 3.5 3.5 0 0 1 3.5 3.5z" fill="#2979ff"/>
  <path d="m10 97.5a3.5 3.5 0 0 1-3.5 3.5 3.5 3.5 0 0 1-3.5-3.5 3.5 3.5 0 0 1 3.5-3.5 3.5 3.5 0 0 1 3.5 3.5z" fill="#aeaeae"/>
 </g>
</svg>
