<?xml version="1.0" encoding="UTF-8"?>
<svg id="bitmap:6-24" width="6" height="120" version="1.1" viewBox="0 0 1.5875 31.75" xmlns="http://www.w3.org/2000/svg" xmlns:cc="http://creativecommons.org/ns#" xmlns:dc="http://purl.org/dc/elements/1.1/" xmlns:rdf="http://www.w3.org/1999/02/22-rdf-syntax-ns#">
 <metadata>
  <rdf:RDF>
   <cc:Work rdf:about="">
    <dc:format>image/svg+xml</dc:format>
    <dc:type rdf:resource="http://purl.org/dc/dcmitype/StillImage"/>
    <dc:title/>
   </cc:Work>
  </rdf:RDF>
 </metadata>
 <g transform="translate(-159.47 -110.22)" stroke-width="0">
  <rect x="159.47" y="110.22" width="1.5875" height="6.35" fill="#fff"/>
  <rect x="160.79" y="110.22" width=".26458" height="6.0854" fill="#aeaeae"/>
  <rect transform="rotate(90)" x="116.04" y="-160.79" width=".26458" height="1.3229" fill="#aeaeae"/>
  <rect x="159.47" y="116.57" width="1.5875" height="6.35" fill="#fff"/>
  <g fill="#3096fa">
   <rect x="160.79" y="116.57" width=".26458" height="6.0854"/>
   <rect transform="rotate(90)" x="122.39" y="-160.79" width=".26458" height="1.0583"/>
   <rect x="159.47" y="116.57" width=".26458" height="6.0854"/>
  </g>
  <rect x="159.47" y="122.92" width="1.5875" height="6.35" fill="#fff"/>
  <g fill="#2979ff">
   <rect x="160.79" y="122.92" width=".26458" height="6.0854"/>
   <rect transform="rotate(90)" x="122.92" y="-160.79" width=".26458" height="1.0583"/>
   <rect x="159.47" y="122.92" width=".26458" height="6.0854"/>
  </g>
  <rect x="159.47" y="129.27" width="1.5875" height="6.35" fill="#fff"/>
  <rect transform="rotate(90)" x="135.09" y="-161.06" width=".26458" height="1.5875" fill="#aeaeae"/>
  <rect x="159.47" y="135.62" width="1.5875" height="6.35" fill="#fff"/>
  <g fill="#aeaeae">
   <rect transform="rotate(90)" x="141.44" y="-161.06" width=".26458" height="1.5875"/>
   <rect x="159.47" y="110.22" width=".26458" height="6.0854"/>
   <rect transform="rotate(90)" x="110.22" y="-160.79" width=".26458" height="1.3229"/>
  </g>
  <rect transform="rotate(90)" x="116.57" y="-160.79" width=".26458" height="1.0583" fill="#3096fa"/>
  <rect transform="rotate(90)" x="128.74" y="-160.79" width=".26458" height="1.0583" fill="#2979ff"/>
 </g>
</svg>
