<?xml version="1.0" encoding="UTF-8"?>
<svg id="bitmap:45-32" width="45" height="225" version="1.1" viewBox="0 0 11.906 59.531" xmlns="http://www.w3.org/2000/svg" xmlns:cc="http://creativecommons.org/ns#" xmlns:dc="http://purl.org/dc/elements/1.1/" xmlns:rdf="http://www.w3.org/1999/02/22-rdf-syntax-ns#">
 <metadata>
  <rdf:RDF>
   <cc:Work rdf:about="">
    <dc:format>image/svg+xml</dc:format>
    <dc:type rdf:resource="http://purl.org/dc/dcmitype/StillImage"/>
    <dc:title/>
   </cc:Work>
  </rdf:RDF>
 </metadata>
 <g stroke-width=".26458">
  <path d="m7.1834 3.175-0.57825 0.55959 1.8783 1.8217h-6.6314v0.79375h6.6314l-1.8824 1.8217 0.58235 0.55959 2.8707-2.7781z" fill="#3096fa"/>
  <path d="m7.1834 15.081-0.57825 0.5596 1.8783 1.8217h-6.6314v0.79375h6.6314l-1.8824 1.8217 0.58235 0.55959 2.8707-2.7781z" fill="#3096fa"/>
  <path d="m7.1834 26.988-0.57825 0.5596 1.8783 1.8217h-6.6314v0.79375h6.6314l-1.8824 1.8217 0.58235 0.55959 2.8707-2.7781z" fill="#2979ff"/>
  <path d="m7.1834 50.8-0.57825 0.5596 1.8783 1.8217h-6.6314v0.79375h6.6314l-1.8824 1.8217 0.58235 0.55959 2.8707-2.7781z" fill="#3096fa"/>
  <path d="m7.1834 38.894-0.57825 0.5596 1.8783 1.8217h-6.6314v0.79375h6.6314l-1.8824 1.8217 0.58235 0.55959 2.8707-2.7781z" fill="#aeaeae"/>
 </g>
</svg>
