<?xml version="1.0" encoding="UTF-8"?>
<svg id="bitmap:20-32" width="20" height="40" version="1.1" viewBox="0 0 5.2919 10.583" xmlns="http://www.w3.org/2000/svg">
 <path d="m2.3837 2.9104-1.8359-1.8381 0.26227-0.26258 1.8359 1.8381z"/>
 <path d="m2.6274 2.676-1.8359 1.8381-0.26227-0.26258 1.8359-1.8381z"/>
 <path d="m4.252 2.8943-1.8359-1.8381 0.26227-0.26258 1.8359 1.8381z"/>
 <path d="m4.4958 2.6598-1.8359 1.8381-0.26227-0.26258 1.8359-1.8381z"/>
 <path d="m2.3837 8.2022-1.8359-1.8381 0.26227-0.26258 1.8359 1.8381z"/>
 <path d="m2.6274 7.9678-1.8359 1.8381-0.26227-0.26258 1.8359-1.8381z"/>
 <path d="m4.252 8.1861-1.8359-1.8381 0.26227-0.26258 1.8359 1.8381z"/>
 <path d="m4.4958 7.9516-1.8359 1.8381-0.26227-0.26258 1.8359-1.8381z"/>
</svg>
