<?xml version="1.0" encoding="UTF-8"?>
<svg id="bitmap:34-32" width="34" height="96" version="1.1" viewBox="0 0 8.9957 25.4" xmlns="http://www.w3.org/2000/svg" xmlns:cc="http://creativecommons.org/ns#" xmlns:dc="http://purl.org/dc/elements/1.1/" xmlns:rdf="http://www.w3.org/1999/02/22-rdf-syntax-ns#">
 <metadata>
  <rdf:RDF>
   <cc:Work rdf:about="">
    <dc:format>image/svg+xml</dc:format>
    <dc:type rdf:resource="http://purl.org/dc/dcmitype/StillImage"/>
   </cc:Work>
  </rdf:RDF>
 </metadata>
 <g transform="translate(-40.717,-1.1913)">
  <g transform="matrix(1.651,0,0,1.6306,-25.048,6.9981)" fill="#fff" stroke-width=".16126">
   <g transform="matrix(.95025 0 0 .86559 1.102 -4.705)" stroke="#3096fa" stroke-width=".17781">
    <rect x="40.849" y="7.409" width="5.5562" height="5.8208" rx=".33729" ry=".37492" stroke-width=".17781"/>
   </g>
  </g>
  <rect x="40.849" y="18.257" width="8.7313" height="8.2021" rx=".52917" ry=".52917" fill="#fff" stroke="#2979ff" stroke-width=".26458"/>
  <g stroke-width=".070003">
   <path d="m46.579 7.99-1.8883-1.9029q-0.16834 0.058553-0.33668 0.095148-0.16834 0.036599-0.344 0.036599-0.70994 0-1.2076-0.49406-0.49769-0.49406-0.49769-1.204 0-0.22688 0.05855-0.44281 0.05854-0.21593 0.16834-0.40621l1.0613 1.0613 0.67334-0.62946-1.0905-1.0906q0.1903-0.10979 0.40254-0.172 0.21226-0.062213 0.43182-0.062213 0.72458 0 1.2333 0.50868 0.50868 0.50868 0.50868 1.2333 0 0.17566-0.0366 0.344t-0.09513 0.33668l1.8956 1.8883q0.08049 0.080512 0.08049 0.19395 0 0.11345-0.08049 0.19395l-0.55624 0.51233q-0.08052 0.080512-0.1903 0.080512-0.10979 0-0.1903-0.080512zm0.20494-0.41719 0.29276-0.29275-1.9981-1.9982q0.11711-0.1537 0.17566-0.36232 0.05856-0.2086 0.05856-0.39888 0-0.54893-0.4062-0.92954-0.40619-0.38059-0.92586-0.38792l0.73922 0.75387q0.06588 0.065872 0.06588 0.16101 0 0.095149-0.06588 0.16101l-0.96611 0.90756q-0.06588 0.065872-0.16101 0.065872-0.09515 0-0.16102-0.065872l-0.70995-0.70262q0.02196 0.56356 0.39888 0.92954 0.37693 0.36595 0.88926 0.36595 0.18299 0 0.3879-0.058553 0.20494-0.058553 0.35865-0.17566z" fill="#aeaeae"/>
   <path d="m46.579 16.457-1.8883-1.9029q-0.16834 0.05855-0.33668 0.09514-0.16834 0.0366-0.344 0.0366-0.70993 0-1.2076-0.49406-0.49769-0.49403-0.49769-1.204 0-0.22688 0.05855-0.4428t0.16834-0.4062l1.0613 1.0613 0.67334-0.62946-1.0905-1.0905q0.1903-0.10979 0.40254-0.172 0.21226-0.06221 0.43181-0.06221 0.72458 0 1.2333 0.50868t0.50868 1.2333q0 0.17566-0.0366 0.344t-0.09514 0.33668l1.8956 1.8883q0.08051 0.08052 0.08051 0.19395 0 0.11345-0.08051 0.19395l-0.55624 0.51233q-0.08053 0.08053-0.1903 0.08053-0.10979 0-0.1903-0.08053zm0.20494-0.41719 0.29275-0.29275-1.9981-1.998q0.11709-0.15369 0.17566-0.36229 0.05855-0.2086 0.05855-0.39888 0-0.54893-0.4062-0.92953-0.4062-0.38059-0.92586-0.38789l0.73922 0.75387q0.06588 0.06588 0.06588 0.16101 0 0.09514-0.06588 0.16101l-0.9661 0.90756q-0.06587 0.06588-0.16101 0.06588t-0.16101-0.06588l-0.70993-0.70262q0.02195 0.56356 0.39888 0.92954 0.37693 0.36595 0.88925 0.36595 0.18299 0 0.3879-0.05855 0.20494-0.05855 0.35864-0.17566z" fill="#3096fa"/>
   <path d="m46.579 24.923-1.8883-1.9029q-0.16834 0.05855-0.33668 0.09514-0.16834 0.0366-0.344 0.0366-0.70993 0-1.2076-0.49403-0.49769-0.49406-0.49769-1.204 0-0.22688 0.05855-0.4428t0.16834-0.4062l1.0613 1.0613 0.67333-0.62946-1.0905-1.0905q0.1903-0.10979 0.40254-0.172 0.21226-0.06221 0.43182-0.06221 0.72458 0 1.2333 0.50868t0.50868 1.2333q0 0.17566-0.0366 0.344t-0.09514 0.33668l1.8956 1.8883q0.08051 0.08053 0.08051 0.19395 0 0.11345-0.08051 0.19395l-0.55624 0.51233q-0.08053 0.08053-0.1903 0.08053-0.10979 0-0.1903-0.08053zm0.20494-0.41719 0.29275-0.29275-1.9981-1.998q0.11709-0.15369 0.17566-0.36228 0.05855-0.2086 0.05855-0.39888 0-0.54893-0.4062-0.92954-0.4062-0.38059-0.92586-0.38789l0.73922 0.75387q0.06587 0.06588 0.06587 0.16101 0 0.09514-0.06587 0.16101l-0.96611 0.90756q-0.06588 0.06587-0.16101 0.06587-0.09514 0-0.16101-0.06587l-0.70993-0.70262q0.02195 0.56356 0.39888 0.92953 0.37693 0.36595 0.88926 0.36595 0.18299 0 0.3879-0.05855 0.20494-0.05855 0.35864-0.17566z" fill="#2979ff"/>
  </g>
 </g>
</svg>
