<?xml version="1.0" encoding="UTF-8"?>
<svg id="bitmap:15-32" width="15" height="64" version="1.1" viewBox="0 0 3.9686 16.934" xmlns="http://www.w3.org/2000/svg" xmlns:cc="http://creativecommons.org/ns#" xmlns:dc="http://purl.org/dc/elements/1.1/" xmlns:rdf="http://www.w3.org/1999/02/22-rdf-syntax-ns#">
 <metadata>
  <rdf:RDF>
   <cc:Work rdf:about="">
    <dc:format>image/svg+xml</dc:format>
    <dc:type rdf:resource="http://purl.org/dc/dcmitype/StillImage"/>
   </cc:Work>
  </rdf:RDF>
 </metadata>
 <path d="m1.5195 2.3298 1.3768-1.5756-0.19668-0.22507-1.3768 1.5756z" stroke-width=".26458"/>
 <path d="m1.3369 2.1287 1.3768 1.5756 0.19668-0.22507-1.3768-1.5756z" stroke-width=".26458"/>
 <g transform="matrix(-1.1975 0 0 1 4.0209 0)" stroke-width=".19134">
  <path d="m2.0888 6.5633-1.1498-1.5755 0.16426-0.22511 1.1498 1.5755z" fill="#3096fa"/>
  <path d="m2.2414 6.3621-1.1498 1.5755-0.16426-0.22511 1.1498-1.5755z" fill="#3096fa"/>
  <path d="m2.0888 10.797-1.1498-1.5755 0.16426-0.22511 1.1498 1.5755z" fill="#fff"/>
  <path d="m2.2414 10.596-1.1498 1.5755-0.16426-0.2251 1.1498-1.5755z" fill="#fff"/>
  <path d="m2.0888 15.03-1.1498-1.5752 0.16426-0.22504 1.1498 1.5752z" fill="#aeaeae"/>
  <path d="m2.2414 14.829-1.1498 1.5752-0.16426-0.22504 1.1498-1.5752z" fill="#aeaeae"/>
 </g>
</svg>
