<?xml version="1.0" encoding="UTF-8"?>
<svg id="bitmap:9-32" width="9" height="20" version="1.1" viewBox="0 0 2.3812 5.2916" xmlns="http://www.w3.org/2000/svg" xmlns:cc="http://creativecommons.org/ns#" xmlns:dc="http://purl.org/dc/elements/1.1/" xmlns:rdf="http://www.w3.org/1999/02/22-rdf-syntax-ns#">
 <metadata>
  <rdf:RDF>
   <cc:Work rdf:about="">
    <dc:format>image/svg+xml</dc:format>
    <dc:type rdf:resource="http://purl.org/dc/dcmitype/StillImage"/>
   </cc:Work>
  </rdf:RDF>
 </metadata>
 <g stroke-width=".26458">
  <path d="m0-1.8521h6.35v6.35h-6.35z" fill="none"/>
  <path d="m0 3.7042h6.35v6.35h-6.35z" fill="none"/>
  <path d="m0 0.1755 1.1846 1.1474 0.16922-0.16392-1.1846-1.1474z" stroke-width=".26458"/>
  <path d="m2.212-2.65e-6 -1.1846 1.1474 0.16922 0.16392 1.1846-1.1474z" stroke-width=".26458"/>
 </g>
 <g transform="matrix(1.2857 0 0 1 .051943 0)" stroke-width=".94282">
  <path d="m-0.0404 1.4985 0.92136 1.1473 0.13162-0.1639-0.92136-1.1473z" fill="#3096fa" stroke-width=".20578"/>
  <path d="m1.68 1.3229-0.92136 1.1473 0.13162 0.1639 0.92136-1.1473z" fill="#3096fa" stroke-width=".20578"/>
  <path d="m-0.0404 2.8209 0.92136 1.1478 0.13162-0.16398-0.92136-1.1478z" fill="#fff" stroke-width=".20578"/>
  <path d="m1.68 2.6458-0.92136 1.1478 0.13162 0.16398 0.92136-1.1478z" fill="#fff" stroke-width=".20578"/>
  <path d="m-0.0404 4.1438 0.92136 1.1478 0.13162-0.16398-0.92136-1.1478z" fill="#aeaeae" stroke-width=".82495"/>
  <path d="m1.68 3.9687-0.92136 1.1478 0.13162 0.16398 0.92136-1.1478z" fill="#aeaeae" stroke-width=".82495"/>
 </g>
</svg>
