<?xml version="1.0" encoding="UTF-8"?>
<svg id="bitmap:24-32" width="24" height="42" version="1.1" viewBox="0 0 6.3503 11.112" xmlns="http://www.w3.org/2000/svg">
 <g>
  <path d="m2.8801 3.1943-2.0654-2.1007 0.29506-0.30009 2.0654 2.1007z"/>
  <path d="m3.1542 2.9264-2.0654 2.1007-0.29506-0.30009 2.0654-2.1007z"/>
  <path d="m5.2614 3.1943-2.0654-2.1007 0.29506-0.30009 2.0654 2.1007z"/>
  <path d="m5.5356 2.9264-2.0654 2.1007-0.29506-0.30009 2.0654-2.1007z"/>
  <path d="m2.8801 8.7508-2.0654-2.1007 0.29506-0.30009 2.0654 2.1007z"/>
  <path d="m3.1542 8.4829-2.0654 2.1007-0.29506-0.30009 2.0654-2.1007z"/>
  <path d="m5.2614 8.7508-2.0654-2.1007 0.29506-0.30009 2.0654 2.1007z"/>
  <path d="m5.5356 8.4829-2.0654 2.1007-0.29506-0.30009 2.0654-2.1007z"/>
 </g>
</svg>
