<?xml version="1.0" encoding="UTF-8"?>
<svg id="bitmap:9-32" width="9" height="40" version="1.1" viewBox="0 0 2.3813 10.583" xmlns="http://www.w3.org/2000/svg" xmlns:cc="http://creativecommons.org/ns#" xmlns:dc="http://purl.org/dc/elements/1.1/" xmlns:rdf="http://www.w3.org/1999/02/22-rdf-syntax-ns#">
 <metadata>
  <rdf:RDF>
   <cc:Work rdf:about="">
    <dc:format>image/svg+xml</dc:format>
    <dc:type rdf:resource="http://purl.org/dc/dcmitype/StillImage"/>
   </cc:Work>
  </rdf:RDF>
 </metadata>
 <g transform="matrix(1.2857 0 0 1 1.4284e-5 0)">
  <path d="m1.8521 0.1755-0.91903 1.1474-0.13129-0.16391 0.91903-1.1474z" stroke-width=".23334"/>
  <path d="m0.13128-5.9278e-6 0.91903 1.1474-0.13129 0.16391-0.91903-1.1474z" stroke-width=".23334"/>
  <g transform="matrix(1 0 0 1.25 0 -.99221)" fill="#3096fa" stroke-width=".20871">
   <path d="m1.8521 1.9925-0.91903 0.91794-0.13129-0.13113 0.91903-0.91793z"/>
   <path d="m0.13124 1.8521 0.91903 0.91794-0.13129 0.13113-0.91903-0.91793z"/>
  </g>
  <g transform="matrix(1 0 0 1.25 3.889e-5 6.9453)" fill="#3096fa" stroke-width=".20871">
   <path d="m1.8521 1.9925-0.91903 0.91794-0.13129-0.13113 0.91903-0.91793z"/>
   <path d="m0.13124 1.8521 0.91903 0.91794-0.13129 0.13113-0.91903-0.91793z"/>
  </g>
  <g transform="matrix(1 0 0 1.25 0 -1.6538)" fill="#2979ff" stroke-width=".2087">
   <path d="m1.8521 3.5801-0.91903 0.91793-0.13129-0.13113 0.91903-0.91793z"/>
   <path d="m0.13124 3.4397 0.91903 0.91793-0.13129 0.13113-0.91903-0.91793z"/>
  </g>
  <path d="m1.852 4.1443-0.91903 1.1474-0.13129-0.16391 0.91903-1.1474z" fill="#aeaeae" stroke-width=".20579"/>
  <path d="m0.13124 3.9688 0.91903 1.1474-0.13129 0.16391-0.91903-1.1474z" fill="#aeaeae" stroke-width=".20579"/>
  <g transform="matrix(1 0 0 1.25 3.889e-5 2.3149)" fill="#2979ff" stroke-width=".2087">
   <path d="m1.8521 3.5801-0.91903 0.91793-0.13129-0.13113 0.91903-0.91793z"/>
   <path d="m0.13124 3.4397 0.91903 0.91793-0.13129 0.13113-0.91903-0.91793z"/>
  </g>
  <g transform="matrix(1 0 0 1.25 3.889e-5 .992)" fill="#2979ff" stroke-width=".2087">
   <path d="m1.8521 3.5801-0.91903 0.91793-0.13129-0.13113 0.91903-0.91793z"/>
   <path d="m0.13124 3.4397 0.91903 0.91793-0.13129 0.13113-0.91903-0.91793z"/>
  </g>
 </g>
</svg>
