<?xml version="1.0" encoding="UTF-8"?>
<svg id="bitmap:26-24" width="26" height="520" fill="#000000" version="1.1" viewBox="0 0 26 520" xmlns="http://www.w3.org/2000/svg" xmlns:cc="http://creativecommons.org/ns#" xmlns:dc="http://purl.org/dc/elements/1.1/" xmlns:rdf="http://www.w3.org/1999/02/22-rdf-syntax-ns#">
 <metadata>
  <rdf:RDF>
   <cc:Work rdf:about="">
    <dc:format>image/svg+xml</dc:format>
    <dc:type rdf:resource="http://purl.org/dc/dcmitype/StillImage"/>
   </cc:Work>
  </rdf:RDF>
 </metadata>
 <rect width="26" height="520" fill="#fff" fill-opacity=".98444"/>
 <rect x="1" y="1" width="24" height="24" rx="2" ry="2" fill="none" stroke="#aeaeae" stroke-width="2"/>
 <path d="m9.7272 121.07-4.2954-4.388-1.4318 1.4627 5.7272 5.8507 12.273-12.537-1.4318-1.4627z"/>
 <path d="m4 220h18v2h-18z"/>
 <g transform="matrix(1.0407 0 0 1.0001 -.040662 -.0030241)" fill="none" stroke-width="1.9604">
  <rect x="1.0206" y="26.979" width="22.959" height="24.042" rx="1.9167" ry="2" stroke="#3096fa"/>
  <rect x="1.0206" y="52.979" width="22.959" height="24.042" rx="1.9167" ry="2" stroke="#2979ff"/>
  <rect x="1.0206" y="78.979" width="22.959" height="24.042" rx="1.9167" ry="2" stroke="#aeaeae"/>
  <rect x="1.0193" y="312.95" width="23.061" height="23.997" rx="1.9217" ry="1.9998" fill="none" stroke="#aeaeae"/>
  <rect x="1.0399" y="338.92" width="22.959" height="24.042" rx="1.9167" ry="2" stroke="#3096fa"/>
  <rect x="1.0399" y="364.92" width="22.959" height="24.042" rx="1.9167" ry="2" stroke="#2979ff"/>
  <rect x="1.0399" y="390.92" width="22.959" height="24.042" rx="1.9167" ry="2" stroke="#aeaeae"/>
  <rect x="1.0193" y="416.94" width="23.061" height="23.997" rx="1.9217" ry="1.9998" fill="none" stroke="#aeaeae"/>
  <rect x="1.0399" y="442.91" width="22.959" height="24.042" rx="1.9167" ry="2" stroke="#3096fa"/>
  <rect x="1.0399" y="468.91" width="22.959" height="24.042" rx="1.9167" ry="2" stroke="#2979ff"/>
  <rect x="1.0399" y="494.91" width="22.959" height="24.042" rx="1.9167" ry="2" stroke="#aeaeae"/>
  <rect x="1.0206" y="104.98" width="22.959" height="24.042" rx="1.9132" ry="2.0035" fill="none" stroke="#aeaeae"/>
  <rect x="1.0206" y="130.98" width="22.959" height="24.042" rx="1.9167" ry="2" stroke="#3096fa"/>
  <rect x="1.0412" y="156.96" width="22.959" height="24.042" rx="1.9167" ry="2" stroke="#2979ff"/>
  <rect x="1.0412" y="182.96" width="22.959" height="24.042" rx="1.9167" ry="2" stroke="#aeaeae"/>
  <rect x="1.0193" y="208.96" width="23.022" height="24.037" rx="1.9185" ry="2.0031" fill="none" stroke="#aeaeae"/>
  <rect x="1.0407" y="234.94" width="22.979" height="24.039" rx="1.9184" ry="1.9998" stroke="#3096fa"/>
  <rect x="1.0407" y="260.93" width="22.979" height="24.039" rx="1.9184" ry="1.9998" stroke="#2979ff"/>
  <rect x="1.0407" y="286.93" width="22.979" height="24.039" rx="1.9184" ry="1.9998" stroke="#aeaeae"/>
 </g>
 <path d="m9.7272 147.07-4.2954-4.388-1.4318 1.4627 5.7272 5.8507 12.273-12.537-1.4318-1.4627z" fill="#3096fa"/>
 <path d="m9.7272 173.07-4.2954-4.388-1.4318 1.4627 5.7272 5.8507 12.273-12.537-1.4318-1.4627z" fill="#2979ff"/>
 <path d="m9.7272 199.07-4.2954-4.388-1.4318 1.4627 5.7272 5.8507 12.273-12.537-1.4318-1.4627z" fill="#aeaeae"/>
 <path d="m9.7272 329.07-4.2954-4.388-1.4318 1.4627 5.7272 5.8507 12.273-12.537-1.4318-1.4627z"/>
 <path d="m9.7272 355.07-4.2954-4.388-1.4318 1.4627 5.7272 5.8507 12.273-12.537-1.4318-1.4627z" fill="#3096fa"/>
 <path d="m9.7272 381.07-4.2954-4.388-1.4318 1.4627 5.7272 5.8507 12.273-12.537-1.4318-1.4627z" fill="#2979ff"/>
 <path d="m9.7272 407.07-4.2954-4.388-1.4318 1.4627 5.7272 5.8507 12.273-12.537-1.4318-1.4627z" fill="#aeaeae"/>
 <path d="m4 246h18v2h-18z" fill="#3096fa"/>
 <path d="m4 272h18v2h-18z" fill="#2979ff"/>
 <path d="m4 298h18v2h-18z" fill="#aeaeae"/>
 <g transform="matrix(.88889 0 0 1 .44444 0)" stroke-width="4.2519">
  <path d="m23.125 422.61-1.8128-1.6115-7.1872 6.3885-7.1872-6.3885-1.8128 1.6115 7.1872 6.3885-7.1872 6.3885 1.8128 1.6115 7.1872-6.3885 7.1872 6.3885 1.8128-1.6115-7.1872-6.3885z" fill="#000"/>
  <path d="m23.125 448.61-1.8128-1.6115-7.1872 6.3885-7.1872-6.3885-1.8128 1.6115 7.1872 6.3885-7.1872 6.3885 1.8128 1.6115 7.1872-6.3885 7.1872 6.3885 1.8128-1.6115-7.1872-6.3885z" fill="#3096fa"/>
  <path d="m23.125 474.61-1.8128-1.6115-7.1872 6.3885-7.1872-6.3885-1.8128 1.6115 7.1872 6.3885-7.1872 6.3885 1.8128 1.6115 7.1872-6.3885 7.1872 6.3885 1.8128-1.6115-7.1872-6.3885z" fill="#2979ff"/>
  <path d="m23.125 500.71-1.8128-1.7122-7.1872 6.7878-7.1872-6.7878-1.8128 1.7122 7.1872 6.7878-7.1872 6.7878 1.8128 1.7122 7.1872-6.7878 7.1872 6.7878 1.8128-1.7122-7.1872-6.7878z" fill="#aeaeae"/>
 </g>
</svg>
