<?xml version="1.0" encoding="UTF-8"?>
<svg id="bitmap:60-32" width="60" height="300" version="1.1" viewBox="0 0 15.875 79.376" xmlns="http://www.w3.org/2000/svg" xmlns:cc="http://creativecommons.org/ns#" xmlns:dc="http://purl.org/dc/elements/1.1/" xmlns:rdf="http://www.w3.org/1999/02/22-rdf-syntax-ns#">
 <metadata>
  <rdf:RDF>
   <cc:Work rdf:about="">
    <dc:format>image/svg+xml</dc:format>
    <dc:type rdf:resource="http://purl.org/dc/dcmitype/StillImage"/>
    <dc:title/>
   </cc:Work>
  </rdf:RDF>
 </metadata>
 <g transform="matrix(2 0 0 2 -.00011333 -1.3333e-5)" stroke-width=".066145">
  <path d="m4.7625 2.1167-0.37306 0.37306 1.2118 1.2144h-4.2783v0.52917h4.2783l-1.2144 1.2144 0.37571 0.37306 1.8521-1.8521z" fill="#3096fa"/>
  <path d="m4.7625 10.054-0.37306 0.37306 1.2118 1.2144h-4.2783v0.52917h4.2783l-1.2144 1.2144 0.37571 0.37306 1.8521-1.8521z" fill="#3096fa"/>
  <path d="m4.7625 17.992-0.37306 0.37306 1.2118 1.2144h-4.2783v0.52917h4.2783l-1.2144 1.2144 0.37571 0.37306 1.8521-1.8521z" fill="#2979ff"/>
  <path d="m4.7625 25.929-0.37306 0.37306 1.2118 1.2144h-4.2783v0.52917h4.2783l-1.2144 1.2144 0.37571 0.37306 1.8521-1.8521z" fill="#aeaeae"/>
  <path d="m4.7625 33.867-0.37306 0.37306 1.2118 1.2144h-4.2783v0.52917h4.2783l-1.2144 1.2144 0.37571 0.37306 1.8521-1.8521z" fill="#3096fa"/>
 </g>
</svg>
