<?xml version="1.0" encoding="UTF-8"?>
<svg id="bitmap:7-32" width="7" height="24" version="1.1" viewBox="0 0 1.8521 6.35" xmlns="http://www.w3.org/2000/svg" xmlns:cc="http://creativecommons.org/ns#" xmlns:dc="http://purl.org/dc/elements/1.1/" xmlns:rdf="http://www.w3.org/1999/02/22-rdf-syntax-ns#">
 <metadata>
  <rdf:RDF>
   <cc:Work rdf:about="">
    <dc:format>image/svg+xml</dc:format>
    <dc:type rdf:resource="http://purl.org/dc/dcmitype/StillImage"/>
    <dc:title/>
   </cc:Work>
  </rdf:RDF>
 </metadata>
 <g stroke-width=".26458">
  <path d="m1.8521 0.40498-0.91902 0.91793-0.13129-0.13113 0.91902-0.91794z"/>
  <path d="m0.13129 0.26458 0.91902 0.91793-0.13129 0.13113-0.91902-0.91794z"/>
  <g>
   <path d="m1.8521 1.9925-0.91902 0.91794-0.13129-0.13113 0.91902-0.91793z" fill="#3096fa"/>
   <path d="m0.13129 1.8521 0.91902 0.91794-0.13129 0.13113-0.91902-0.91793z" fill="#3096fa"/>
   <path d="m1.8521 3.58-0.91902 0.91793-0.13129-0.13113 0.91902-0.91793z" fill="#fff"/>
   <path d="m0.13129 3.4396 0.91902 0.91793-0.13129 0.13113-0.91902-0.91793z" fill="#fff"/>
   <path d="m1.8521 5.1675-0.91902 0.91794-0.13129-0.13113 0.91902-0.91794z" fill="#aeaeae"/>
   <path d="m0.13129 5.0271 0.91902 0.91794-0.13129 0.13113-0.91902-0.91793z" fill="#aeaeae"/>
  </g>
 </g>
</svg>
