<?xml version="1.0" encoding="UTF-8"?>
<svg id="bitmap:10-32" width="10" height="18" version="1.1" viewBox="0 0 2.6459 4.7625" xmlns="http://www.w3.org/2000/svg">
 <g>
  <path d="m1.159 1.3504-1.1474-1.1816 0.16391-0.1688 1.1474 1.1816z"/>
  <path d="m1.3113 1.1997-1.1474 1.1816-0.16391-0.1688 1.1474-1.1816z"/>
  <path d="m2.4819 1.3504-1.1474-1.1816 0.16391-0.1688 1.1474 1.1816z"/>
  <path d="m2.6342 1.1997-1.1474 1.1816-0.16391-0.1688 1.1474-1.1816z"/>
  <path d="m1.159 3.7317-1.1474-1.1816 0.16391-0.1688 1.1474 1.1816z"/>
  <path d="m1.3113 3.581-1.1474 1.1816-0.16391-0.1688 1.1474-1.1816z"/>
  <path d="m2.4819 3.7317-1.1474-1.1816 0.16391-0.1688 1.1474 1.1816z"/>
  <path d="m2.6342 3.581-1.1474 1.1816-0.16391-0.1688 1.1474-1.1816z"/>
 </g>
</svg>
