<?xml version="1.0" encoding="UTF-8"?>
<svg id="bitmap:10-32" width="10" height="40" version="1.1" viewBox="0 0 2.6458 10.583" xmlns="http://www.w3.org/2000/svg">
 <g stroke-width=".99998">
  <path d="m2.3812 0.98017-0.18652-0.18653-0.73951 0.7395-0.7395-0.7395-0.18653 0.18653 0.73951 0.7395-0.73951 0.7395 0.18653 0.18653 0.7395-0.7395 0.73951 0.7395 0.18652-0.18653-0.73951-0.7395z" fill="#aeaeae"/>
  <path d="m2.3812 8.9176-0.18652-0.18653-0.73951 0.7395-0.7395-0.7395-0.18653 0.18653 0.73951 0.7395-0.73951 0.7395 0.18653 0.18653 0.7395-0.7395 0.73951 0.7395 0.18652-0.18653-0.73951-0.7395z" fill="#aeaeae"/>
  <path d="m2.3812 3.626-0.18652-0.18653-0.73951 0.7395-0.7395-0.7395-0.18653 0.18653 0.7395 0.7395-0.7395 0.7395 0.18653 0.18653 0.7395-0.7395 0.73951 0.7395 0.18652-0.18653-0.73951-0.7395z" fill="#ff1744"/>
  <path d="m2.3812 6.2718-0.18652-0.18653-0.73951 0.7395-0.7395-0.7395-0.18653 0.18653 0.73951 0.7395-0.73951 0.7395 0.18653 0.18653 0.7395-0.7395 0.73951 0.7395 0.18652-0.18653-0.73951-0.7395z" fill="#d50000"/>
 </g>
</svg>
