<?xml version="1.0" encoding="UTF-8"?>
<svg id="bitmap:6-24" width="6" height="288" version="1.1" viewBox="0 0 1.5875 76.2" xmlns="http://www.w3.org/2000/svg" xmlns:cc="http://creativecommons.org/ns#" xmlns:dc="http://purl.org/dc/elements/1.1/" xmlns:rdf="http://www.w3.org/1999/02/22-rdf-syntax-ns#">
 <metadata>
  <rdf:RDF>
   <cc:Work rdf:about="">
    <dc:format>image/svg+xml</dc:format>
    <dc:type rdf:resource="http://purl.org/dc/dcmitype/StillImage"/>
   </cc:Work>
  </rdf:RDF>
 </metadata>
 <g transform="translate(-159.47,-110.22)" stroke-width="0">
  <rect x="159.47" y="110.22" width="1.5815" height="6.35" fill="#fff"/>
  <rect x="160.78" y="110.22" width=".26358" height="6.35" fill="#aeaeae"/>
  <rect x="159.47" y="116.57" width="1.5815" height="6.35" fill="#fff"/>
  <g transform="matrix(5.9773 0 0 1.0435 -801.62 -5.0686)" fill="#e3f2fd">
   <rect x="160.79" y="116.57" width=".26458" height="6.0854" fill="#e3f2fd" stroke-width="0"/>
  </g>
  <rect x="159.47" y="122.92" width="1.5815" height="6.35" fill="#fff"/>
  <g transform="matrix(5.9773 0 0 1.0435 -801.62 -5.3447)" fill="#bbdefb">
   <rect x="160.79" y="122.92" width=".26458" height="6.0854" fill="#bbdefb" stroke-width="0"/>
  </g>
  <rect x="159.47" y="129.27" width="1.5815" height="6.35" fill="#fff"/>
  <rect x="160.78" y="129.27" width=".26358" height="6.35" fill="#aeaeae"/>
  <rect x="159.47" y="135.62" width="1.5815" height="6.35" fill="#fff"/>
  <g transform="matrix(5.9773 0 0 1.0435 -801.62 13.981)" fill="#e3f2fd">
   <rect x="160.79" y="116.57" width=".26458" height="6.0854" fill="#e3f2fd" stroke-width="0"/>
  </g>
  <rect x="159.47" y="141.97" width="1.5815" height="6.35" fill="#fff"/>
  <g transform="matrix(5.9773 0 0 1.0435 -801.62 13.705)" fill="#bbdefb">
   <rect x="160.79" y="122.92" width=".26458" height="6.0854" fill="#bbdefb" stroke-width="0"/>
  </g>
  <rect x="159.47" y="148.32" width="1.5815" height="6.35" fill="#fff"/>
  <rect x="160.78" y="148.32" width=".26358" height="6.35" fill="#aeaeae"/>
  <rect x="159.47" y="154.67" width="1.5815" height="6.35" fill="#fff"/>
  <g transform="matrix(5.9773 0 0 1.0435 -801.62 33.031)" fill="#e3f2fd">
   <rect x="160.79" y="116.57" width=".26458" height="6.0854" fill="#e3f2fd" stroke-width="0"/>
  </g>
  <rect x="159.47" y="161.02" width="1.5815" height="6.35" fill="#fff"/>
  <g transform="matrix(5.9773 0 0 1.0435 -801.62 32.755)" fill="#bbdefb">
   <rect x="160.79" y="122.92" width=".26458" height="6.0854" fill="#bbdefb" stroke-width="0"/>
  </g>
  <rect x="159.47" y="167.37" width="1.5815" height="6.35" fill="#fff"/>
  <rect x="160.78" y="167.37" width=".26358" height="6.35" fill="#aeaeae"/>
  <rect x="159.47" y="173.72" width="1.5815" height="6.35" fill="#fff"/>
  <g transform="matrix(5.9773 0 0 1.0435 -801.62 52.081)" fill="#e3f2fd">
   <rect x="160.79" y="116.57" width=".26458" height="6.0854" fill="#e3f2fd" stroke-width="0"/>
  </g>
  <rect x="159.47" y="180.07" width="1.5815" height="6.35" fill="#fff"/>
  <g transform="matrix(5.9773 0 0 1.0435 -801.62 51.805)" fill="#bbdefb">
   <rect x="160.79" y="122.92" width=".26458" height="6.0854" fill="#bbdefb" stroke-width="0"/>
  </g>
 </g>
</svg>
