<?xml version="1.0" encoding="UTF-8"?>
<svg id="bitmap:20-32" width="20" height="54" version="1.1" viewBox="0 0 5.2916 14.288" xmlns="http://www.w3.org/2000/svg" xmlns:cc="http://creativecommons.org/ns#" xmlns:dc="http://purl.org/dc/elements/1.1/" xmlns:rdf="http://www.w3.org/1999/02/22-rdf-syntax-ns#">
 <metadata>
  <rdf:RDF>
   <cc:Work rdf:about="">
    <dc:format>image/svg+xml</dc:format>
    <dc:type rdf:resource="http://purl.org/dc/dcmitype/StillImage"/>
   </cc:Work>
  </rdf:RDF>
 </metadata>
 <g fill="#aeaeae" stroke-width=".26458">
  <path d="m5.095 3.3882-1.3769-1.5755 0.1967-0.22509 1.3769 1.5755z"/>
  <path d="m5.2778 3.1872-1.3769 1.5755-0.1967-0.22509 1.3769-1.5755z"/>
  <path d="m3.2429 3.3882-1.377-1.5755 0.19672-0.22509 1.377 1.5755z"/>
  <path d="m3.4257 3.1872-1.377 1.5755-0.19672-0.22509 1.377-1.5755z"/>
 </g>
 <g transform="matrix(1 0 0 1.5001 .66966 -.26328)" fill="#3096fa" stroke-width=".21602">
  <path d="m4.4254 5.6092-1.377-1.0503 0.19672-0.15005 1.377 1.0503z"/>
  <path d="m4.6083 5.4752-1.377 1.0503-0.19672-0.15005 1.377-1.0503z"/>
  <path d="m2.5732 5.6092-1.377-1.0503 0.19672-0.15005 1.377 1.0503z"/>
  <path d="m2.7561 5.4752-1.377 1.0503-0.19672-0.15005 1.377-1.0503z"/>
 </g>
 <g transform="matrix(1 0 0 1.5 .1639 -1.3508)" fill="#2979ff" stroke-width=".21603">
  <path d="m4.9311 9.5095-1.3769-1.0503 0.1967-0.15005 1.3769 1.0503z"/>
  <path d="m5.1139 9.3756-1.3769 1.0503-0.1967-0.15005 1.3769-1.0503z"/>
  <path d="m3.079 9.5095-1.377-1.0503 0.19672-0.15005 1.377 1.0503z"/>
  <path d="m3.2618 9.3756-1.377 1.0503-0.19672-0.15005 1.377-1.0503z"/>
 </g>
</svg>
