<?xml version="1.0" encoding="UTF-8"?>
<svg id="bitmap:13-32" width="13" height="104" version="1.1" viewBox="0 0 3.4396 27.517" xmlns="http://www.w3.org/2000/svg">
 <g stroke-width=".26458">
  <path d="m2.9104 0.769-0.23982-0.23983-0.95082 0.95081-0.95081-0.95081-0.23983 0.23983 0.95082 0.95081-0.95082 0.95081 0.23983 0.23983 0.95081-0.95081 0.95082 0.95081 0.23982-0.23983-0.95082-0.95081z" fill="#aeaeae"/>
  <path d="m2.9104 11.088-0.23982-0.23983-0.95082 0.95081-0.95081-0.95081-0.23983 0.23983 0.95082 0.95081-0.95082 0.95081 0.23983 0.23983 0.95081-0.95081 0.95082 0.95081 0.23982-0.23983-0.95082-0.95081z" fill="#aeaeae"/>
  <path d="m2.9104 4.2086-0.23982-0.23983-0.95082 0.95081-0.95081-0.95081-0.23983 0.23983 0.95081 0.95081-0.95081 0.95081 0.23983 0.23983 0.95081-0.95081 0.95082 0.95081 0.23982-0.23983-0.95082-0.95081z" fill="#ff1744"/>
  <path d="m2.9104 7.6483-0.23982-0.23983-0.95082 0.95081-0.95081-0.95081-0.23983 0.23983 0.95082 0.95081-0.95082 0.95081 0.23983 0.23983 0.95081-0.95081 0.95082 0.95081 0.23982-0.23983-0.95082-0.95081z" fill="#d50000"/>
  <path d="m2.9104 14.528-0.23982-0.23983-0.95082 0.95081-0.95081-0.95081-0.23983 0.23983 0.95082 0.95081-0.95082 0.95081 0.23983 0.23983 0.95081-0.95081 0.95082 0.95081 0.23982-0.23983-0.95082-0.95081z" fill="#aeaeae"/>
  <path d="m2.9104 24.846-0.23982-0.23983-0.95082 0.95081-0.95081-0.95081-0.23983 0.23983 0.95082 0.95081-0.95082 0.95081 0.23983 0.23983 0.95081-0.95081 0.95082 0.95081 0.23982-0.23983-0.95082-0.95081z" fill="#aeaeae"/>
  <path d="m2.9104 17.967-0.23982-0.23983-0.95082 0.95081-0.95081-0.95081-0.23983 0.23983 0.95081 0.95081-0.95081 0.95081 0.23983 0.23983 0.95081-0.95081 0.95082 0.95081 0.23982-0.23983-0.95082-0.95081z" fill="#ff1744"/>
  <path d="m2.9104 21.407-0.23982-0.23983-0.95082 0.95081-0.95081-0.95081-0.23983 0.23983 0.95082 0.95081-0.95082 0.95081 0.23983 0.23983 0.95081-0.95081 0.95082 0.95081 0.23982-0.23983-0.95082-0.95081z" fill="#d50000"/>
 </g>
</svg>
