<?xml version="1.0" encoding="UTF-8"?>
<svg id="bitmap:25-32" width="25" height="200" version="1.1" viewBox="0 0 25 200" xmlns="http://www.w3.org/2000/svg" xmlns:cc="http://creativecommons.org/ns#" xmlns:dc="http://purl.org/dc/elements/1.1/" xmlns:rdf="http://www.w3.org/1999/02/22-rdf-syntax-ns#">
 <metadata>
  <rdf:RDF>
   <cc:Work rdf:about="">
    <dc:format>image/svg+xml</dc:format>
    <dc:type rdf:resource="http://purl.org/dc/dcmitype/StillImage"/>
   </cc:Work>
  </rdf:RDF>
 </metadata>
 <g fill="none" stroke-width="2">
  <g>
   <ellipse cx="12.5" cy="12.5" rx="11.5" ry="11.5" fill="#fffff9" stroke="#aeaeae"/>
   <ellipse cx="12.5" cy="37.5" rx="11.5" ry="11.5" fill="#fff" stroke="#3096fa"/>
   <ellipse cx="12.5" cy="62.5" rx="11.5" ry="11.5" fill="#fff" stroke="#2979ff"/>
  </g>
  <ellipse cx="12.5" cy="87.5" rx="11.5" ry="11.5" stroke="#aeaeae"/>
  <g fill="#fff">
   <ellipse cx="12.5" cy="112.5" rx="11.5" ry="11.5" stroke="#aeaeae"/>
   <ellipse cx="12.5" cy="137.5" rx="11.5" ry="11.5" stroke="#3096fa"/>
   <ellipse cx="12.5" cy="162.5" rx="11.5" ry="11.5" stroke="#2979ff"/>
  </g>
  <ellipse cx="12.5" cy="187.5" rx="11.5" ry="11.5" stroke="#aeaeae"/>
 </g>
 <path d="m20 112.5a7.5 7.5 0 0 1-7.5 7.5 7.5 7.5 0 0 1-7.5-7.5 7.5 7.5 0 0 1 7.5-7.5 7.5 7.5 0 0 1 7.5 7.5z"/>
 <path d="m20 137.5a7.5 7.5 0 0 1-7.5 7.5 7.5 7.5 0 0 1-7.5-7.5 7.5 7.5 0 0 1 7.5-7.5 7.5 7.5 0 0 1 7.5 7.5z" fill="#3096fa"/>
 <path d="m20 162.5a7.5 7.5 0 0 1-7.5 7.5 7.5 7.5 0 0 1-7.5-7.5 7.5 7.5 0 0 1 7.5-7.5 7.5 7.5 0 0 1 7.5 7.5z" fill="#2979ff"/>
 <path d="m20 187.5a7.5 7.5 0 0 1-7.5 7.5 7.5 7.5 0 0 1-7.5-7.5 7.5 7.5 0 0 1 7.5-7.5 7.5 7.5 0 0 1 7.5 7.5z" fill="#aeaeae"/>
</svg>
