<?xml version="1.0" encoding="UTF-8"?>
<svg id="bitmap:26-32" width="26" height="208" version="1.1" viewBox="0 0 6.8791 55.034" xmlns="http://www.w3.org/2000/svg">
 <g fill="none" stroke-width=".52917">
  <g stroke-width=".52917">
   <rect x="1.3229" y="2.3813" width="3.175" height="3.175" stroke="#aeaeae"/>
   <rect x="1.3228" y="9.2605" width="3.175" height="3.175" stroke="#3096fa"/>
   <rect x="1.3229" y="16.14" width="3.175" height="3.175" stroke="#2979ff"/>
  </g>
  <rect transform="scale(-1,1)" x="-5.8208" y="1.0583" width="3.7042" height=".52917" fill="#aeaeae" stroke-width=".23932"/>
  <rect transform="scale(-1,1)" x="-5.8208" y="1.5875" width=".52917" height="3.175" fill="#aeaeae" stroke-width=".23932"/>
  <rect x="1.3229" y="23.019" width="3.175" height="3.175" stroke="#aeaeae" stroke-width=".52917"/>
  <rect transform="scale(-1,1)" x="-5.8208" y="21.696" width="3.7042" height=".52917" fill="#aeaeae" stroke-width=".23932"/>
  <rect transform="scale(-1,1)" x="-5.8208" y="22.225" width=".52917" height="3.175" fill="#aeaeae" stroke-width=".23932"/>
  <g>
   <rect transform="scale(-1,1)" x="-5.8208" y="7.9376" width="3.7042" height=".52917" fill="#3096fa" stroke-width=".23932"/>
   <rect transform="scale(-1,1)" x="-5.8208" y="8.4668" width=".52917" height="3.175" fill="#3096fa" stroke-width=".23932"/>
   <rect transform="scale(-1,1)" x="-5.8208" y="14.817" width="3.7042" height=".52917" fill="#2979ff" stroke-width=".23932"/>
   <rect transform="scale(-1,1)" x="-5.8208" y="15.346" width=".52917" height="3.175" fill="#2979ff" stroke-width=".23932"/>
  </g>
  <g stroke-width=".52917">
   <rect x="1.3229" y="29.898" width="3.175" height="3.175" stroke="#aeaeae"/>
   <rect x="1.3229" y="36.778" width="3.175" height="3.175" stroke="#3096fa"/>
   <rect x="1.3229" y="43.657" width="3.175" height="3.175" stroke="#2979ff"/>
  </g>
  <rect transform="scale(-1,1)" x="-5.8209" y="28.575" width="3.7042" height=".52917" fill="#aeaeae" stroke-width=".23932"/>
  <rect transform="scale(-1,1)" x="-5.8209" y="29.105" width=".52917" height="3.175" fill="#aeaeae" stroke-width=".23932"/>
  <rect x="1.3229" y="50.536" width="3.175" height="3.175" stroke="#aeaeae" stroke-width=".52917"/>
  <rect transform="scale(-1,1)" x="-5.8208" y="49.213" width="3.7042" height=".52917" fill="#aeaeae" stroke-width=".23932"/>
  <rect transform="scale(-1,1)" x="-5.8208" y="49.742" width=".52917" height="3.175" fill="#aeaeae" stroke-width=".23932"/>
  <g>
   <rect transform="scale(-1,1)" x="-5.8209" y="35.455" width="3.7042" height=".52917" fill="#3096fa" stroke-width=".23932"/>
   <rect transform="scale(-1,1)" x="-5.8209" y="35.984" width=".52917" height="3.175" fill="#3096fa" stroke-width=".23932"/>
   <rect transform="scale(-1,1)" x="-5.8209" y="42.334" width="3.7042" height=".52917" fill="#2979ff" stroke-width=".23932"/>
   <rect transform="scale(-1,1)" x="-5.8209" y="42.863" width=".52917" height="3.175" fill="#2979ff" stroke-width=".23932"/>
  </g>
 </g>
</svg>
