<?xml version="1.0" encoding="UTF-8"?>
<svg id="bitmap:32-32" width="32" height="640" version="1.1" viewBox="0 0 8.4668 169.33" xmlns="http://www.w3.org/2000/svg" xmlns:cc="http://creativecommons.org/ns#" xmlns:dc="http://purl.org/dc/elements/1.1/" xmlns:rdf="http://www.w3.org/1999/02/22-rdf-syntax-ns#">
 <metadata>
  <rdf:RDF>
   <cc:Work rdf:about="">
    <dc:format>image/svg+xml</dc:format>
    <dc:type rdf:resource="http://purl.org/dc/dcmitype/StillImage"/>
   </cc:Work>
  </rdf:RDF>
 </metadata>
 <g transform="translate(.92519 1.0583)">
  <path d="m3.3259 1.8753 2.6282 2.2948-0.37544 0.32783-2.6282-2.2948z" stroke-width=".26458"/>
  <path d="m0.66234 4.1469 2.6282-2.2948 0.37544 0.32783-2.6282 2.2948z" stroke-width=".26458"/>
  <g transform="matrix(1.1429 0 0 1 -.26372 0)">
   <g fill="#3096fa" stroke-width=".2315">
    <path d="m3.1408 10.342 2.2996 2.2947-0.32852 0.3278-2.2996-2.2947z"/>
    <path d="m0.81027 12.614 2.2996-2.2947 0.32852 0.3278-2.2996 2.2947z"/>
    <path d="m3.1408 137.34 2.2996 2.2935-0.32852 0.32763-2.2996-2.2935z"/>
    <path d="m0.81027 139.61 2.2996-2.2935 0.32852 0.32763-2.2996 2.2935z"/>
    <path d="m3.1408 148.41 2.2996-2.2935-0.32852-0.32763-2.2996 2.2935z"/>
    <path d="m0.81027 146.14 2.2996 2.2935 0.32852-0.32763-2.2996-2.2935z"/>
   </g>
   <g stroke-width=".2315">
    <path d="m3.1408 18.809 2.2996 2.2949-0.32852 0.32782-2.2996-2.2949z" fill="#fff"/>
    <path d="m0.81027 21.08 2.2996-2.2949 0.32852 0.32782-2.2996 2.2949z" fill="#fff"/>
    <path d="m3.1408 27.274 2.2996 2.2962-0.32852 0.32803-2.2996-2.2962z" fill="#aeaeae"/>
    <path d="m0.81027 29.548 2.2996-2.2962 0.32852 0.32803-2.2996 2.2962z" fill="#aeaeae"/>
   </g>
   <path d="m3.1408 38.342 2.2996-2.2948-0.3285-0.32783-2.2996 2.2948z" stroke-width=".24749"/>
   <path d="m0.81027 36.07 2.2996 2.2948 0.3285-0.32783-2.2996-2.2948z" stroke-width=".24749"/>
   <g stroke-width=".2315">
    <path d="m3.1408 46.808 2.2996-2.2947-0.32852-0.3278-2.2996 2.2947z" fill="#3096fa"/>
    <path d="m0.81027 44.537 2.2996 2.2947 0.32852-0.3278-2.2996-2.2947z" fill="#3096fa"/>
    <path d="m3.1408 55.275 2.2996-2.2949-0.32852-0.32782-2.2996 2.2949z" fill="#fff"/>
    <path d="m0.81027 53.003 2.2996 2.2949 0.32852-0.32782-2.2996-2.2949z" fill="#fff"/>
    <path d="m3.1408 63.743 2.2996-2.2962-0.32852-0.32803-2.2996 2.2962z" fill="#aeaeae"/>
    <path d="m0.81027 61.469 2.2996 2.2962 0.32852-0.32803-2.2996-2.2962z" fill="#aeaeae"/>
   </g>
  </g>
  <path d="m4.6311 68.638-2.2949 2.6286-0.32784-0.37552 2.2949-2.6286z" stroke-width=".26458"/>
  <path d="m2.3131 70.55 2.2949 2.6286-0.32784 0.37552-2.2949-2.6286z" stroke-width=".26458"/>
  <g transform="translate(15.865,4.7619)">
   <g transform="matrix(2 0 0 2.0002 16.791 5.8147)" fill="#3096fa" stroke-width=".13228">
    <path d="m-14.012 33.261-1.1474 1.3134-0.16391-0.18762 1.1474-1.3134z"/>
    <path d="m-15.171 34.218 1.1474 1.3134-0.16391 0.18761-1.1474-1.3134z"/>
   </g>
   <g transform="matrix(2 0 0 2.0002 16.791 82.015)" fill="#3096fa" stroke-width=".13228">
    <path d="m-14.012 33.261-1.1474 1.3134-0.16391-0.18762 1.1474-1.3134z"/>
    <path d="m-15.171 34.218 1.1474 1.3134-0.16391 0.18761-1.1474-1.3134z"/>
   </g>
   <g stroke-width=".26458">
    <path d="m-11.234 80.81-2.2948 2.6275-0.32783-0.37534 2.2948-2.6275z" fill="#fff"/>
    <path d="m-13.552 82.723 2.2948 2.6275-0.32783 0.37532-2.2948-2.6275z" fill="#fff"/>
    <path d="m-11.234 89.276-2.2948 2.6271-0.32783-0.37526 2.2948-2.6271z" fill="#aeaeae"/>
    <path d="m-13.552 91.19 2.2948 2.6271-0.32783 0.37526-2.2948-2.6271z" fill="#aeaeae"/>
   </g>
   <path d="m-13.88 97.743 2.2949 2.6286 0.32784-0.37552-2.2949-2.6286z" stroke-width=".26458"/>
   <path d="m-11.562 99.655-2.2949 2.6286 0.32784 0.37552 2.2949-2.6286z" stroke-width=".26458"/>
   <g transform="matrix(-2 0 0 2.0002 -41.904 39.682)" fill="#3096fa" stroke-width=".13228">
    <path d="m-14.012 33.261-1.1474 1.3134-0.16391-0.18762 1.1474-1.3134z"/>
    <path d="m-15.171 34.218 1.1474 1.3134-0.16391 0.18761-1.1474-1.3134z"/>
   </g>
   <g stroke-width=".26458">
    <path d="m-13.88 114.68 2.2948 2.6275 0.32783-0.37535-2.2948-2.6275z" fill="#fff"/>
    <path d="m-11.562 116.59-2.2948 2.6275 0.32783 0.37532 2.2948-2.6275z" fill="#fff"/>
    <path d="m-13.88 123.14 2.2948 2.627 0.32783-0.37525-2.2948-2.6271z" fill="#aeaeae"/>
    <path d="m-11.562 125.06-2.2948 2.627 0.32783 0.37525 2.2948-2.627z" fill="#aeaeae"/>
   </g>
   <g transform="matrix(2 0 0 1.9994 16.791 5.8649)" fill="#3096fa" stroke-width=".13231">
    <path d="m-15.335 75.594 1.1474 1.3134 0.16391-0.18762-1.1474-1.3134z"/>
    <path d="m-14.176 76.552-1.1474 1.3134 0.16391 0.18761 1.1474-1.3134z"/>
   </g>
  </g>
 </g>
</svg>
