<?xml version="1.0" encoding="UTF-8"?>
<svg id="bitmap:38-32" width="38" height="152" version="1.1" viewBox="0 0 10.054 40.217" xmlns="http://www.w3.org/2000/svg" xmlns:cc="http://creativecommons.org/ns#" xmlns:dc="http://purl.org/dc/elements/1.1/" xmlns:rdf="http://www.w3.org/1999/02/22-rdf-syntax-ns#">
 <metadata>
  <rdf:RDF>
   <cc:Work rdf:about="">
    <dc:format>image/svg+xml</dc:format>
    <dc:type rdf:resource="http://purl.org/dc/dcmitype/StillImage"/>
   </cc:Work>
  </rdf:RDF>
 </metadata>
 <g stroke-width=".26458">
  <path d="m4.1276 3.4396 0.29844 0.31977-0.96941 1.0409h3.4226v0.45358h-3.4226l0.97149 1.0409-0.30056 0.31977-1.4817-1.5875z" fill="#aeaeae"/>
  <path d="m4.1276 13.494 0.29844 0.31977-0.96941 1.0409h3.4226v0.45358h-3.4226l0.97149 1.0409-0.30056 0.31977-1.4817-1.5875z" fill="#3096fa"/>
  <path d="m4.1276 23.548 0.29844 0.31977-0.96941 1.0409h3.4226v0.45358h-3.4226l0.97149 1.0409-0.30056 0.31977-1.4817-1.5875z" fill="#2979ff"/>
  <path d="m4.1276 33.602 0.29844 0.31977-0.96941 1.0409h3.4226v0.45358h-3.4226l0.97149 1.0409-0.30056 0.31977-1.4817-1.5875z" fill="#aeaeae"/>
 </g>
</svg>
