<?xml version="1.0" encoding="UTF-8"?>
<svg id="bitmap:32-32" width="32" height="192" version="1.1" viewBox="0 0 8.467 50.799" xmlns="http://www.w3.org/2000/svg" xmlns:cc="http://creativecommons.org/ns#" xmlns:dc="http://purl.org/dc/elements/1.1/" xmlns:rdf="http://www.w3.org/1999/02/22-rdf-syntax-ns#">
 <metadata>
  <rdf:RDF>
   <cc:Work rdf:about="">
    <dc:format>image/svg+xml</dc:format>
    <dc:type rdf:resource="http://purl.org/dc/dcmitype/StillImage"/>
   </cc:Work>
  </rdf:RDF>
 </metadata>
 <path d="m0.13229 8.3331v-8.014l8.0152 8.014z" fill="#fff" stroke="#fff" stroke-width=".26459px"/>
 <g fill="#aeaeae">
  <path d="m0.26459 0.26451h0.26459v0.26459h-0.26459z"/>
  <path d="m0.52918 0.5291h0.26459v0.26459h-0.26459z"/>
  <path d="m0.79377 0.79369h0.26459v0.26459h-0.26459z"/>
  <path d="m1.0584 1.0583h0.26459v0.26459h-0.26459z"/>
  <path d="m1.3229 1.3229h0.26459v0.26459h-0.26459z"/>
  <path d="m1.5875 1.5875h0.26459v0.26459h-0.26459z"/>
  <path d="m1.8521 1.852h0.26459v0.26459h-0.26459z"/>
  <path d="m2.1167 2.1166h0.26459v0.26459h-0.26459z"/>
  <path d="m2.3813 2.3812h0.26459v0.26459h-0.26459z"/>
  <path d="m2.6459 2.6458h0.26459v0.26459h-0.26459z"/>
  <path d="m2.9105 2.9104h0.26459v0.26459h-0.26459z"/>
  <path d="m3.1751 3.175h0.26459v0.26459h-0.26459z"/>
  <path d="m3.4397 3.4396h0.26459v0.26459h-0.26459z"/>
  <path d="m3.7042 3.7042h0.26459v0.26459h-0.26459z"/>
  <path d="m3.9688 3.9688h0.26459v0.26459h-0.26459z"/>
  <path d="m4.2334 4.2333h0.26459v0.26459h-0.26459z"/>
  <path d="m4.498 4.4979h0.26459v0.26459h-0.26459z"/>
  <path d="m4.7626 4.7625h0.26459v0.26459h-0.26459z"/>
  <path d="m5.0272 5.0271h0.26459v0.26459h-0.26459z"/>
  <path d="m5.2918 5.2917h0.26459v0.26459h-0.26459z"/>
  <path d="m5.821 5.8209h0.26459v0.26459h-0.26459z"/>
  <path d="m5.5564 5.5563h0.26459v0.26459h-0.26459z"/>
  <path d="m6.0856 6.0855h0.26459v0.26459h-0.26459z"/>
  <path d="m6.3502 6.3501h0.26459v0.26459h-0.26459z"/>
  <path d="m6.6148 6.6147h0.26459v0.26459h-0.26459z"/>
  <path d="m6.8794 6.8793h0.26459v0.26459h-0.26459z"/>
  <path d="m7.144 7.1439h0.26459v0.26459h-0.26459z"/>
  <path d="m7.4086 7.4085h0.26459v0.26459h-0.26459z"/>
  <path d="m7.6732 7.6731h0.26459v0.26459h-0.26459z"/>
  <path d="m7.9378 7.9375h0.26459v0.26459h-0.26459z"/>
  <path d="m8.2024 8.2023h0.26459v0.26459h-0.26459z"/>
  <path d="m5.1178e-6 16.404h0.26459v0.26459h-0.26459z"/>
  <path d="m0.2646 16.14h0.26459v0.26459h-0.26459z"/>
  <path d="m0.52919 15.875h0.26459v0.26459h-0.26459z"/>
  <path d="m0.79378 15.61h0.26459v0.26459h-0.26459z"/>
  <path d="m1.0584 15.346h0.26459v0.26459h-0.26459z"/>
  <path d="m1.3229 15.081h0.26459v0.26459h-0.26459z"/>
  <path d="m1.5875 14.817h0.26459v0.26459h-0.26459z"/>
  <path d="m1.8521 14.552h0.26459v0.26459h-0.26459z"/>
  <path d="m2.1167 14.287h0.26459v0.26459h-0.26459z"/>
  <path d="m2.3813 14.023h0.26459v0.26459h-0.26459z"/>
  <path d="m8.2024 16.404h0.26459v0.26459h-0.26459z"/>
  <path d="m7.6732 15.875h0.26459v0.26459h-0.26459z"/>
  <path d="m7.9378 16.14h0.26459v0.26459h-0.26459z"/>
  <path d="m7.4086 15.61h0.26459v0.26459h-0.26459z"/>
  <path d="m7.144 15.346h0.26459v0.26459h-0.26459z"/>
  <path d="m6.8794 15.081h0.26459v0.26459h-0.26459z"/>
  <path d="m6.6148 14.817h0.26459v0.26459h-0.26459z"/>
  <path d="m6.3502 14.552h0.26459v0.26459h-0.26459z"/>
  <path d="m6.0856 14.288h0.26459v0.26459h-0.26459z"/>
  <path d="m5.821 14.023h0.26459v0.26459h-0.26459z"/>
  <path d="m5.5565 13.758h0.26459v0.26459h-0.26459z"/>
  <path d="m2.9105 13.494h0.26459v0.26459h-0.26459z"/>
  <path d="m5.2919 13.494h0.26459v0.26459h-0.26459z"/>
  <path d="m3.1751 13.229h0.26459v0.26459h-0.26459z"/>
  <path d="m5.0273 13.229h0.26459v0.26459h-0.26459z"/>
  <path d="m4.7626 12.965h0.26459v0.26459h-0.26459z"/>
  <path d="m4.498 12.7h0.26459v0.26459h-0.26459z"/>
  <path d="m4.2334 12.436h0.26459v0.26459h-0.26459z"/>
  <path d="m2.6459 13.758h0.26459v0.26459h-0.26459z"/>
  <path d="m3.7043 12.7h0.26459v0.26459h-0.26459z"/>
  <path d="m3.9689 12.435h0.26459v0.26459h-0.26459z"/>
  <path d="m3.4397 12.964h0.26459v0.26459h-0.26459z"/>
  <path d="m0-7.425e-5h0.26459v8.467h-0.26459z"/>
  <path d="m0.13233 42.467v8.014l8.0152-8.014z" fill="#fff" stroke="#fff" stroke-width=".26459px"/>
  <path d="m0.26463 50.536h0.26459v-0.26459h-0.26459z"/>
  <path d="m0.52922 50.271h0.26459v-0.26459h-0.26459z"/>
  <path d="m0.79381 50.006h0.26459v-0.26459h-0.26459z"/>
  <path d="m1.0584 49.742h0.26459v-0.26459h-0.26459z"/>
  <path d="m1.3229 49.477h0.26459v-0.26459h-0.26459z"/>
  <path d="m1.5875 49.213h0.26459v-0.26459h-0.26459z"/>
  <path d="m1.8521 48.948h0.26459v-0.26459h-0.26459z"/>
  <path d="m2.1167 48.684h0.26459v-0.26459h-0.26459z"/>
  <path d="m2.3813 48.419h0.26459v-0.26459h-0.26459z"/>
  <path d="m2.6459 48.154h0.26459v-0.26459h-0.26459z"/>
  <path d="m2.9105 47.89h0.26459v-0.26459h-0.26459z"/>
  <path d="m3.1751 47.625h0.26459v-0.26459h-0.26459z"/>
  <path d="m3.4397 47.361h0.26459v-0.26459h-0.26459z"/>
  <path d="m3.7042 47.096h0.26459v-0.26459h-0.26459z"/>
  <path d="m3.9688 46.831h0.26459v-0.26459h-0.26459z"/>
  <path d="m4.2334 46.567h0.26459v-0.26459h-0.26459z"/>
  <path d="m4.498 46.302h0.26459v-0.26459h-0.26459z"/>
  <path d="m4.7626 46.038h0.26459v-0.26459h-0.26459z"/>
  <path d="m5.0272 45.773h0.26459v-0.26459h-0.26459z"/>
  <path d="m5.2918 45.508h0.26459v-0.26459h-0.26459z"/>
  <path d="m5.821 44.979h0.26459v-0.26459h-0.26459z"/>
  <path d="m5.5564 45.244h0.26459v-0.26459h-0.26459z"/>
  <path d="m6.0856 44.715h0.26459v-0.26459h-0.26459z"/>
  <path d="m6.3502 44.45h0.26459v-0.26459h-0.26459z"/>
  <path d="m6.6148 44.185h0.26459v-0.26459h-0.26459z"/>
  <path d="m6.8794 43.921h0.26459v-0.26459h-0.26459z"/>
  <path d="m7.144 43.656h0.26459v-0.26459h-0.26459z"/>
  <path d="m7.4086 43.392h0.26459v-0.26459h-0.26459z"/>
  <path d="m7.6732 43.127h0.26459v-0.26459h-0.26459z"/>
  <path d="m7.9378 42.863h0.26459v-0.26459h-0.26459z"/>
  <path d="m8.2024 42.598h0.26459v-0.26459h-0.26459z"/>
  <path d="m4.498 38.1h0.26459v-0.26459h-0.26459z"/>
  <path d="m4.2334 38.364h0.26459v-0.26459h-0.26459z"/>
  <path d="m3.7043 38.1h0.26459v-0.26459h-0.26459z"/>
  <path d="m3.9689 38.365h0.26459v-0.26459h-0.26459z"/>
  <path d="m3.8238e-5 50.8h0.26459v-8.467h-0.26459z"/>
  <path d="m8.3347 25.267v-8.014l-8.0152 8.014z" fill="#fff" stroke="#fff" stroke-width=".26459px"/>
  <path d="m8.2024 17.198h-0.26459v0.26459h0.26459z"/>
  <path d="m7.9378 17.463h-0.26459v0.26459h0.26459z"/>
  <path d="m7.6732 17.727h-0.26459v0.26459h0.26459z"/>
  <path d="m7.4086 17.992h-0.26459v0.26459h0.26459z"/>
  <path d="m7.1441 18.256h-0.26459v0.26459h0.26459z"/>
  <path d="m6.8795 18.521h-0.26459v0.26459h0.26459z"/>
  <path d="m6.6149 18.786h-0.26459v0.26459h0.26459z"/>
  <path d="m6.3503 19.05h-0.26459v0.26459h0.26459z"/>
  <path d="m6.0857 19.315h-0.26459v0.26459h0.26459z"/>
  <path d="m5.8211 19.579h-0.26459v0.26459h0.26459z"/>
  <path d="m5.5565 19.844h-0.26459v0.26459h0.26459z"/>
  <path d="m5.2919 20.109h-0.26459v0.26459h0.26459z"/>
  <path d="m5.0273 20.373h-0.26459v0.26459h0.26459z"/>
  <path d="m4.7628 20.638h-0.26459v0.26459h0.26459z"/>
  <path d="m4.4982 20.902h-0.26459v0.26459h0.26459z"/>
  <path d="m4.2336 21.167h-0.26459v0.26459h0.26459z"/>
  <path d="m3.969 21.431h-0.26459v0.26459h0.26459z"/>
  <path d="m3.7044 21.696h-0.26459v0.26459h0.26459z"/>
  <path d="m3.4398 21.961h-0.26459v0.26459h0.26459z"/>
  <path d="m3.1752 22.225h-0.26459v0.26459h0.26459z"/>
  <path d="m2.646 22.754h-0.26459v0.26459h0.26459z"/>
  <path d="m2.9106 22.49h-0.26459v0.26459h0.26459z"/>
  <path d="m2.3814 23.019h-0.26459v0.26459h0.26459z"/>
  <path d="m2.1168 23.284h-0.26459v0.26459h0.26459z"/>
  <path d="m1.8522 23.548h-0.26459v0.26459h0.26459z"/>
  <path d="m1.5876 23.813h-0.26459v0.26459h0.26459z"/>
  <path d="m1.323 24.077h-0.26459v0.26459h0.26459z"/>
  <path d="m1.0584 24.342h-0.26459v0.26459h0.26459z"/>
  <path d="m0.79379 24.607h-0.26459v0.26459h0.26459z"/>
  <path d="m0.52919 24.871h-0.26459v0.26459h0.26459z"/>
  <path d="m0.2646 25.136h-0.26459v0.26459h0.26459z"/>
  <path d="m8.467 16.933h-0.26459v8.467h0.26459z"/>
  <path d="m8.3347 25.534v8.014l-8.0152-8.014z" fill="#fff" stroke="#fff" stroke-width=".26459px"/>
  <path d="m8.2024 33.603h-0.26459v-0.26459h0.26459z"/>
  <path d="m7.9378 33.338h-0.26459v-0.26459h0.26459z"/>
  <path d="m7.6732 33.074h-0.26459v-0.26459h0.26459z"/>
  <path d="m7.4086 32.809h-0.26459v-0.26459h0.26459z"/>
  <path d="m7.1441 32.544h-0.26459v-0.26459h0.26459z"/>
  <path d="m6.8795 32.28h-0.26459v-0.26459h0.26459z"/>
  <path d="m6.6149 32.015h-0.26459v-0.26459h0.26459z"/>
  <path d="m6.3503 31.751h-0.26459v-0.26459h0.26459z"/>
  <path d="m6.0857 31.486h-0.26459v-0.26459h0.26459z"/>
  <path d="m5.8211 31.221h-0.26459v-0.26459h0.26459z"/>
  <path d="m5.5565 30.957h-0.26459v-0.26459h0.26459z"/>
  <path d="m5.2919 30.692h-0.26459v-0.26459h0.26459z"/>
  <path d="m5.0273 30.428h-0.26459v-0.26459h0.26459z"/>
  <path d="m4.7628 30.163h-0.26459v-0.26459h0.26459z"/>
  <path d="m4.4982 29.898h-0.26459v-0.26459h0.26459z"/>
  <path d="m4.2336 29.634h-0.26459v-0.26459h0.26459z"/>
  <path d="m3.969 29.369h-0.26459v-0.26459h0.26459z"/>
  <path d="m3.7044 29.105h-0.26459v-0.26459h0.26459z"/>
  <path d="m3.4398 28.84h-0.26459v-0.26459h0.26459z"/>
  <path d="m3.1752 28.576h-0.26459v-0.26459h0.26459z"/>
  <path d="m2.646 28.046h-0.26459v-0.26459h0.26459z"/>
  <path d="m2.9106 28.311h-0.26459v-0.26459h0.26459z"/>
  <path d="m4.2335 38.365h-0.26459v-0.26459h0.26459z"/>
  <path d="m3.9689 38.101h-0.26459v-0.26459h0.26459z"/>
  <path d="m3.7043 37.836h-0.26459v-0.26459h0.26459z"/>
  <path d="m3.4397 37.572h-0.26459v-0.26459h0.26459z"/>
  <path d="m3.1751 37.307h-0.26459v-0.26459h0.26459z"/>
  <path d="m2.9105 37.042h-0.26459v-0.26459h0.26459z"/>
  <path d="m2.6459 36.778h-0.26459v-0.26459h0.26459z"/>
  <path d="m2.3814 36.513h-0.26459v-0.26459h0.26459z"/>
  <path d="m2.1168 36.249h-0.26459v-0.26459h0.26459z"/>
  <path d="m1.8522 35.984h-0.26459v-0.26459h0.26459z"/>
  <path d="m1.5876 35.719h-0.26459v-0.26459h0.26459z"/>
  <path d="m1.323 35.455h-0.26459v-0.26459h0.26459z"/>
  <path d="m1.0584 35.19h-0.26459v-0.26459h0.26459z"/>
  <path d="m0.79378 34.926h-0.26459v-0.26459h0.26459z"/>
  <path d="m0.26458 34.396h-0.26459v-0.26459h0.26459z"/>
  <path d="m0.52918 34.661h-0.26459v-0.26459h0.26459z"/>
  <path d="m2.3814 27.782h-0.26459v-0.26459h0.26459z"/>
  <path d="m2.1168 27.517h-0.26459v-0.26459h0.26459z"/>
  <path d="m1.8522 27.253h-0.26459v-0.26459h0.26459z"/>
  <path d="m1.5876 26.988h-0.26459v-0.26459h0.26459z"/>
  <path d="m1.323 26.723h-0.26459v-0.26459h0.26459z"/>
  <path d="m1.0584 26.459h-0.26459v-0.26459h0.26459z"/>
  <path d="m0.79378 26.194h-0.26459v-0.26459h0.26459z"/>
  <path d="m0.52918 25.93h-0.26459v-0.26459h0.26459z"/>
  <path d="m0.2646 25.665h-0.26459v-0.26459h0.26459z"/>
  <path d="m8.467 33.867h-0.26459v-8.467h0.26459z"/>
  <path d="m4.2335 38.365h0.26459v-0.26459h-0.26459z"/>
  <path d="m4.4981 38.101h0.26459v-0.26459h-0.26459z"/>
  <path d="m4.7627 37.836h0.26459v-0.26459h-0.26459z"/>
  <path d="m5.0273 37.572h0.26459v-0.26459h-0.26459z"/>
  <path d="m5.2919 37.307h0.26459v-0.26459h-0.26459z"/>
  <path d="m5.5565 37.042h0.26459v-0.26459h-0.26459z"/>
  <path d="m5.8211 36.778h0.26459v-0.26459h-0.26459z"/>
  <path d="m6.0856 36.513h0.26459v-0.26459h-0.26459z"/>
  <path d="m6.3502 36.249h0.26459v-0.26459h-0.26459z"/>
  <path d="m6.6148 35.984h0.26459v-0.26459h-0.26459z"/>
  <path d="m6.8794 35.719h0.26459v-0.26459h-0.26459z"/>
  <path d="m7.144 35.455h0.26459v-0.26459h-0.26459z"/>
  <path d="m7.4086 35.19h0.26459v-0.26459h-0.26459z"/>
  <path d="m7.6732 34.926h0.26459v-0.26459h-0.26459z"/>
  <path d="m8.2024 34.396h0.26459v-0.26459h-0.26459z"/>
  <path d="m7.9378 34.661h0.26459v-0.26459h-0.26459z"/>
 </g>
 <g transform="translate(3.0756e-5 5.8208)" fill="#fff">
  <g>
   <path d="m1.6762e-7 10.848h8.467v0.26459h-8.467z"/>
   <path d="m0.26459 10.583h7.9378v0.26459h-7.9378z"/>
   <path d="m0.52918 10.319h7.4086v0.26459h-7.4086z"/>
   <path d="m0.79377 10.054h6.8794v0.26459h-6.8794z"/>
   <path d="m1.0584 9.7896h6.3502v0.26459h-6.3502z"/>
   <path d="m1.3229 9.5251h5.821v0.26459h-5.821z"/>
   <path d="m1.5875 9.2605h5.2918v0.26459h-5.2918z"/>
   <path d="m1.8521 8.9959h4.7627v0.26459h-4.7627z"/>
   <path d="m2.1167 8.7313h4.2335v0.26459h-4.2335z"/>
   <path d="m2.3813 8.4667h3.7043v0.26459h-3.7043z"/>
   <path d="m2.6459 8.2021h3.1751v0.26459h-3.1751z"/>
   <path d="m2.9104 7.9375h2.6459v0.26459h-2.6459z"/>
   <path d="m3.175 7.673h2.1167v0.26459h-2.1167z"/>
  </g>
  <path d="m3.4397 7.4083h1.5876v0.26459h-1.5876z"/>
  <path d="m3.7043 7.1437h1.0584v0.26459h-1.0584z"/>
  <path d="m3.9689 6.8791h0.52918v0.26459h-0.52918z"/>
 </g>
 <g transform="matrix(1 0 0 -1 .00010752 44.98)" fill="#fff">
  <g>
   <path d="m1.6762e-7 10.848h8.467v0.26459h-8.467z"/>
   <path d="m0.26459 10.583h7.9378v0.26459h-7.9378z"/>
   <path d="m0.52918 10.319h7.4086v0.26459h-7.4086z"/>
   <path d="m0.79377 10.054h6.8794v0.26459h-6.8794z"/>
   <path d="m1.0584 9.7896h6.3502v0.26459h-6.3502z"/>
   <path d="m1.3229 9.5251h5.821v0.26459h-5.821z"/>
   <path d="m1.5875 9.2605h5.2918v0.26459h-5.2918z"/>
   <path d="m1.8521 8.9959h4.7627v0.26459h-4.7627z"/>
   <path d="m2.1167 8.7313h4.2335v0.26459h-4.2335z"/>
   <path d="m2.3813 8.4667h3.7043v0.26459h-3.7043z"/>
   <path d="m2.6459 8.2021h3.1751v0.26459h-3.1751z"/>
   <path d="m2.9104 7.9375h2.6459v0.26459h-2.6459z"/>
   <path d="m3.175 7.673h2.1167v0.26459h-2.1167z"/>
  </g>
  <path d="m3.4397 7.4083h1.5876v0.26459h-1.5876z"/>
  <path d="m3.7043 7.1437h1.0584v0.26459h-1.0584z"/>
  <path d="m3.9689 6.8791h0.52918v0.26459h-0.52918z"/>
 </g>
</svg>
