<?xml version="1.0" encoding="UTF-8"?>
<svg id="bitmap:24-32" width="24" height="112" version="1.1" viewBox="0 0 6.3498 29.634" xmlns="http://www.w3.org/2000/svg" xmlns:cc="http://creativecommons.org/ns#" xmlns:dc="http://purl.org/dc/elements/1.1/" xmlns:rdf="http://www.w3.org/1999/02/22-rdf-syntax-ns#">
 <metadata>
  <rdf:RDF>
   <cc:Work rdf:about="">
    <dc:format>image/svg+xml</dc:format>
    <dc:type rdf:resource="http://purl.org/dc/dcmitype/StillImage"/>
   </cc:Work>
  </rdf:RDF>
 </metadata>
 <path d="m2.2125 4.0594 2.5241-2.626-0.36058-0.37511-2.5241 2.626z" stroke-width=".26458"/>
 <path d="m1.8778 3.7243 2.5241 2.626 0.36058-0.37511-2.5241-2.626z" stroke-width=".26458"/>
 <g transform="matrix(-2.1954 0 0 1 7.3275 0)" stroke-width=".10437">
  <path d="m2.3298 11.468-1.1498-2.626 0.16426-0.37521 1.1498 2.626z" fill="#3096fa"/>
  <path d="m2.4824 11.133-1.1498 2.626-0.16426-0.37521 1.1498-2.626z" fill="#3096fa"/>
  <path d="m2.3298 18.877-1.1498-2.6258 0.16426-0.37518 1.1498 2.6258z" fill="#fff"/>
  <path d="m2.4824 18.542-1.1498 2.6258-0.16426-0.37517 1.1498-2.6258z" fill="#fff"/>
  <path d="m2.3298 26.285-1.1498-2.6259 0.16426-0.37515 1.1498 2.6259z" fill="#aeaeae"/>
  <path d="m2.4824 25.95-1.1498 2.6259-0.16426-0.37515 1.1498-2.6259z" fill="#aeaeae"/>
 </g>
</svg>
