<?xml version="1.0" encoding="UTF-8"?>
<svg id="bitmap:40-24" width="40" height="800" fill="#000000" version="1.1" viewBox="0 0 40 800" xmlns="http://www.w3.org/2000/svg" xmlns:cc="http://creativecommons.org/ns#" xmlns:dc="http://purl.org/dc/elements/1.1/" xmlns:rdf="http://www.w3.org/1999/02/22-rdf-syntax-ns#">
 <metadata>
  <rdf:RDF>
   <cc:Work rdf:about="">
    <dc:format>image/svg+xml</dc:format>
    <dc:type rdf:resource="http://purl.org/dc/dcmitype/StillImage"/>
   </cc:Work>
  </rdf:RDF>
 </metadata>
 <rect width="40" height="800" fill="#fff" fill-opacity=".98444"/>
 <g transform="matrix(.95 0 0 .9499 .051376 .05137)" fill="none" stroke-width="1.0527">
  <path d="m2.9e-6 0h36.923v36.965h-36.923z"/>
  <g stroke-width="3.1581">
   <rect x="1.525" y="1.525" width="38.947" height="38.952" rx="2.1053" ry="2.1055" stroke="#aeaeae"/>
   <rect x="1.525" y="127.85" width="38.947" height="38.952" rx="2.1053" ry="2.1055" stroke="#aeaeae"/>
   <rect x="1.525" y="43.635" width="38.947" height="38.952" rx="2.1053" ry="2.1055" stroke="#3096fa"/>
  </g>
  <path d="m0.76923 39.275h36.923v36.965h-36.923z"/>
  <g stroke-width="3.1581">
   <rect x="1.525" y="85.744" width="38.947" height="38.952" rx="2.1053" ry="2.1055" stroke="#2979ff"/>
   <rect x="1.525" y="169.96" width="38.947" height="38.952" rx="2.1053" ry="2.1055" stroke="#aeaeae"/>
   <rect x="1.525" y="296.29" width="38.947" height="38.952" rx="2.1053" ry="2.1055" stroke="#aeaeae"/>
   <rect x="1.525" y="212.07" width="38.947" height="38.952" rx="2.1053" ry="2.1055" stroke="#3096fa"/>
   <rect x="1.525" y="254.18" width="38.947" height="38.952" rx="2.1053" ry="2.1055" stroke="#2979ff"/>
   <rect x="1.525" y="338.4" width="38.947" height="38.952" rx="2.1053" ry="2.1055" stroke="#aeaeae"/>
   <rect x="1.525" y="464.73" width="38.947" height="38.952" rx="2.1053" ry="2.1055" stroke="#aeaeae"/>
   <rect x="1.525" y="380.51" width="38.947" height="38.952" rx="2.1053" ry="2.1055" stroke="#3096fa"/>
   <rect x="1.525" y="422.62" width="38.947" height="38.952" rx="2.1053" ry="2.1055" stroke="#2979ff"/>
   <rect x="1.525" y="506.84" width="38.947" height="38.952" rx="2.1053" ry="2.1055" stroke="#aeaeae"/>
   <rect x="1.525" y="633.17" width="38.947" height="38.952" rx="2.1053" ry="2.1055" stroke="#aeaeae"/>
   <rect x="1.525" y="548.95" width="38.947" height="38.952" rx="2.1053" ry="2.1055" stroke="#3096fa"/>
   <rect x="1.525" y="591.06" width="38.947" height="38.952" rx="2.1053" ry="2.1055" stroke="#2979ff"/>
   <rect x="1.525" y="675.28" width="38.947" height="38.952" rx="2.1053" ry="2.1055" stroke="#aeaeae"/>
   <rect x="1.525" y="801.61" width="38.947" height="38.952" rx="2.1053" ry="2.1055" stroke="#aeaeae"/>
   <rect x="1.525" y="717.39" width="38.947" height="38.952" rx="2.1053" ry="2.1055" stroke="#3096fa"/>
   <rect x="1.525" y="759.5" width="38.947" height="38.952" rx="2.1053" ry="2.1055" stroke="#2979ff"/>
  </g>
  <path d="m1.2564e-5 336.88h36.923v36.965h-36.923z"/>
  <path d="m0.76924 376.15h36.923v36.965h-36.923z"/>
  <path d="m3.5e-6 80.09h36.923v36.965h-36.923z"/>
  <path d="m0.76923 119.36h36.923v36.965h-36.923z"/>
  <path d="m0 160.18h36.923v36.965h-36.923z"/>
  <path d="m0.76923 199.45h36.923v36.965h-36.923z"/>
  <path d="m4.1802e-6 80.009h36.923v36.965h-36.923z"/>
  <path d="m0.76923 119.28h36.923v36.965h-36.923z"/>
  <path d="m3.8669e-6 160.02h36.923v36.965h-36.923z"/>
  <path d="m0.76923 199.29h36.923v36.965h-36.923z"/>
  <g transform="translate(119.78 21.052)" stroke-width="3.9787">
   <path d="m-86.15 663.62-2.5442-2.5446-10.087 10.088-10.087-10.088-2.5444 2.5446 10.087 10.088-10.087 10.088 2.5444 2.5446 10.087-10.088 10.087 10.088 2.5442-2.5446-10.087-10.088z" fill="#000"/>
   <path d="m-86.15 705.73-2.5442-2.5446-10.087 10.088-10.087-10.088-2.5444 2.5446 10.087 10.088-10.087 10.088 2.5444 2.5446 10.087-10.088 10.087 10.088 2.5442-2.5446-10.087-10.088z" fill="#3096fa"/>
   <path d="m-86.15 747.84-2.5442-2.5446-10.087 10.088-10.087-10.088-2.5444 2.5446 10.087 10.088-10.087 10.088 2.5444 2.5446 10.087-10.088 10.087 10.088 2.5442-2.5446-10.087-10.088z" fill="#2979ff"/>
   <path d="m-86.15 789.95-2.5442-2.5446-10.087 10.088-10.087-10.088-2.5444 2.5446 10.087 10.088-10.087 10.088 2.5444 2.5446 10.087-10.088 10.087 10.088 2.5442-2.5446-10.087-10.088z" fill="#aeaeae"/>
  </g>
 </g>
 <path d="M 14.909,185.821 8.2272,179.5524 6,181.6418 14.909,190 34,172.0894 31.7728,170 Z" stroke-width=".99999"/>
 <g transform="matrix(1.4616 0 0 1.463 88.915 17.099)" stroke-width=".46768">
  <path d="m-50.633 142.67-4.5716-4.2847-1.5239 1.4282 6.0952 5.7131 13.062-12.242-1.5239-1.4283z" fill="#3096fa"/>
  <path d="m-50.633 197.35-4.5716-4.2847-1.5239 1.4282 6.0952 5.7131 13.062-12.242-1.5239-1.4283z" fill="#aeaeae"/>
  <path d="m-50.633 170.01-4.5716-4.2847-1.5239 1.4283 6.0952 5.7131 13.062-12.242-1.5239-1.4282z" fill="#2979ff"/>
 </g>
 <path d="m14.909 505.82-6.6818-6.2686-2.2272 2.0894 8.909 8.3582 19.091-17.911-2.2272-2.0894z" stroke-width=".99999"/>
 <g transform="matrix(1.4616 0 0 1.463 88.915 337.1)" stroke-width=".46768">
  <path d="m-50.633 142.67-4.5716-4.2847-1.5239 1.4282 6.0952 5.7131 13.062-12.242-1.5239-1.4283z" fill="#3096fa"/>
  <path d="m-50.633 197.35-4.5716-4.2847-1.5239 1.4282 6.0952 5.7131 13.062-12.242-1.5239-1.4283z" fill="#aeaeae"/>
  <path d="m-50.633 170.01-4.5716-4.2847-1.5239 1.4283 6.0952 5.7131 13.062-12.242-1.5239-1.4282z" fill="#2979ff"/>
 </g>
 <path d="m6 338h28v4h-28z"/>
 <g transform="matrix(1.4616 0 0 1.463 128.05 33.624)" stroke-width=".46768">
  <path d="m-83.505 235.39h19.157v2.7341h-19.157z" fill="#3096fa"/>
  <path d="m-83.505 262.73h19.157v2.7341h-19.157z" fill="#2979ff"/>
  <path d="m-83.505 290.07h19.157v2.7341h-19.157z" fill="#aeaeae"/>
 </g>
</svg>
