<?xml version="1.0" encoding="UTF-8"?>
<svg id="bitmap:52-32" width="52" height="416" version="1.1" viewBox="0 0 13.759 110.07" xmlns="http://www.w3.org/2000/svg">
 <g>
  <path d="m6.4283 7.0549c0.37308-0.69687 1.0901-1.108 1.5068-1.7246 0.4409-0.64675 0.1938-1.855-1.0562-1.855-0.8188 0-1.2209 0.6417-1.3905 1.1731l-1.2549-0.54646c0.344-1.0678 1.2791-1.9853 2.6405-1.9853 1.1386 0 1.9186 0.53642 2.3159 1.2082 0.33916 0.57654 0.53779 1.6544 0.0146 2.4565-0.58139 0.88736-1.1386 1.1581-1.439 1.7296-0.12112 0.23061-0.16958 0.38102-0.16958 1.123h-1.4002c-0.0048-0.39106-0.06298-1.0278 0.23257-1.5792zm1.4196 3.5845c0 0.55146-0.43606 1.0027-0.96901 1.0027-0.53294 0-0.969-0.45122-0.969-1.0027s0.43606-1.0027 0.969-1.0027c0.53295 0 0.96901 0.45122 0.96901 1.0027z" fill="#aeaeae"/>
  <path d="m6.4283 48.332c0.37308-0.69687 1.0901-1.108 1.5068-1.7246 0.4409-0.64675 0.1938-1.855-1.0562-1.855-0.8188 0-1.2209 0.6417-1.3905 1.1731l-1.2549-0.54646c0.344-1.0678 1.2791-1.9853 2.6405-1.9853 1.1386 0 1.9186 0.53642 2.3159 1.2082 0.33916 0.57654 0.53779 1.6544 0.0146 2.4565-0.58139 0.88736-1.1386 1.1581-1.439 1.7296-0.12112 0.23061-0.16958 0.38102-0.16958 1.123h-1.4002c-0.0048-0.39106-0.06298-1.0278 0.23257-1.5792zm1.4196 3.5845c0 0.55146-0.43606 1.0027-0.96901 1.0027-0.53294 0-0.969-0.45122-0.969-1.0027s0.43606-1.0027 0.969-1.0027c0.53295 0 0.96901 0.45122 0.96901 1.0027z" fill="#aeaeae"/>
  <path d="m6.4283 20.814c0.37308-0.69687 1.0901-1.108 1.5068-1.7246 0.4409-0.64675 0.1938-1.855-1.0562-1.855-0.8188 0-1.2209 0.6417-1.3905 1.1731l-1.2549-0.54646c0.344-1.0678 1.2791-1.9853 2.6405-1.9853 1.1386 0 1.9186 0.53642 2.3159 1.2082 0.33916 0.57654 0.53779 1.6544 0.0146 2.4565-0.58139 0.88736-1.1386 1.1581-1.439 1.7296-0.12112 0.23061-0.16958 0.38102-0.16958 1.123h-1.4002c-0.0048-0.39106-0.06298-1.0278 0.23257-1.5792zm1.4196 3.5845c0 0.55146-0.43606 1.0027-0.96901 1.0027-0.53294 0-0.969-0.45122-0.969-1.0027s0.43606-1.0027 0.969-1.0027c0.53295 0 0.96901 0.45122 0.96901 1.0027z" fill="#3096fa"/>
  <path d="m6.4283 34.573c0.37308-0.69687 1.0901-1.108 1.5068-1.7246 0.4409-0.64675 0.1938-1.855-1.0562-1.855-0.8188 0-1.2209 0.64171-1.3905 1.1731l-1.2549-0.54646c0.344-1.0678 1.2791-1.9853 2.6405-1.9853 1.1386 0 1.9186 0.53642 2.3159 1.2082 0.33916 0.57654 0.53779 1.6544 0.0146 2.4565-0.58139 0.88736-1.1386 1.1581-1.439 1.7296-0.12112 0.23061-0.16958 0.38101-0.16958 1.123h-1.4002c-0.0048-0.39106-0.06298-1.0278 0.23257-1.5792zm1.4196 3.5845c0 0.55146-0.43606 1.0027-0.96901 1.0027-0.53294 0-0.969-0.45122-0.969-1.0027 0-0.55146 0.43606-1.0027 0.969-1.0027 0.53295 0 0.96901 0.45122 0.96901 1.0027z" fill="#2979ff"/>
  <path d="m6.4283 62.09c0.37308-0.69687 1.0901-1.108 1.5068-1.7246 0.4409-0.64675 0.1938-1.855-1.0562-1.855-0.8188 0-1.2209 0.6417-1.3905 1.1731l-1.2549-0.54646c0.344-1.0678 1.2791-1.9853 2.6405-1.9853 1.1386 0 1.9186 0.53642 2.3159 1.2082 0.33916 0.57654 0.53779 1.6544 0.0146 2.4565-0.58139 0.88736-1.1386 1.1581-1.439 1.7296-0.12112 0.23061-0.16958 0.38102-0.16958 1.123h-1.4002c-0.0048-0.39106-0.06298-1.0278 0.23257-1.5792zm1.4196 3.5845c0 0.55146-0.43606 1.0027-0.96901 1.0027-0.53294 0-0.969-0.45122-0.969-1.0027s0.43606-1.0027 0.969-1.0027c0.53295 0 0.96901 0.45122 0.96901 1.0027z" fill="#aeaeae"/>
  <path d="m6.4283 103.37c0.37308-0.69687 1.0901-1.108 1.5068-1.7246 0.4409-0.64674 0.1938-1.855-1.0562-1.855-0.8188 0-1.2209 0.64171-1.3905 1.1731l-1.2549-0.54646c0.344-1.0678 1.2791-1.9853 2.6405-1.9853 1.1386 0 1.9186 0.53642 2.3159 1.2082 0.33916 0.57655 0.53779 1.6544 0.0146 2.4565-0.58139 0.88735-1.1386 1.1581-1.439 1.7296-0.12112 0.23061-0.16958 0.38102-0.16958 1.123h-1.4002c-0.0048-0.39106-0.06298-1.0278 0.23257-1.5792zm1.4196 3.5845c0 0.55146-0.43606 1.0027-0.96901 1.0027-0.53294 0-0.969-0.45122-0.969-1.0027s0.43606-1.0027 0.969-1.0027c0.53295 0 0.96901 0.45122 0.96901 1.0027z" fill="#aeaeae"/>
  <path d="m6.4283 75.849c0.37308-0.69687 1.0901-1.108 1.5068-1.7246 0.4409-0.64675 0.1938-1.855-1.0562-1.855-0.8188 0-1.2209 0.6417-1.3905 1.1731l-1.2549-0.54646c0.344-1.0678 1.2791-1.9853 2.6405-1.9853 1.1386 0 1.9186 0.53642 2.3159 1.2082 0.33916 0.57654 0.53779 1.6544 0.0146 2.4565-0.58139 0.88736-1.1386 1.1581-1.439 1.7296-0.12112 0.23061-0.16958 0.38102-0.16958 1.123h-1.4002c-0.0048-0.39106-0.06298-1.0278 0.23257-1.5792zm1.4196 3.5845c0 0.55146-0.43606 1.0027-0.96901 1.0027-0.53294 0-0.969-0.45122-0.969-1.0027s0.43606-1.0027 0.969-1.0027c0.53295 0 0.96901 0.45122 0.96901 1.0027z" fill="#3096fa"/>
  <path d="m6.4283 89.608c0.37308-0.69687 1.0901-1.108 1.5068-1.7246 0.4409-0.64675 0.1938-1.855-1.0562-1.855-0.8188 0-1.2209 0.64171-1.3905 1.1731l-1.2549-0.54646c0.344-1.0678 1.2791-1.9853 2.6405-1.9853 1.1386 0 1.9186 0.53642 2.3159 1.2082 0.33916 0.57654 0.53779 1.6544 0.0146 2.4565-0.58139 0.88736-1.1386 1.1581-1.439 1.7296-0.12112 0.23061-0.16958 0.38101-0.16958 1.123h-1.4002c-0.0048-0.39106-0.06298-1.0278 0.23257-1.5792zm1.4196 3.5845c0 0.55146-0.43606 1.0027-0.96901 1.0027-0.53294 0-0.969-0.45122-0.969-1.0027 0-0.55146 0.43606-1.0027 0.969-1.0027 0.53295 0 0.96901 0.45122 0.96901 1.0027z" fill="#2979ff"/>
 </g>
</svg>
