<?xml version="1.0" encoding="UTF-8"?>
<svg id="bitmap:26-32" width="26" height="208" version="1.1" viewBox="0 0 6.8791 55.034" xmlns="http://www.w3.org/2000/svg">
 <g transform="matrix(1 0 0 1 10.583 37.042)" stroke-width=".26458">
  <path d="m-4.7626-35.504-0.47964-0.47966-1.9016 1.9016-1.9016-1.9016-0.47966 0.47966 1.9016 1.9016-1.9016 1.9016 0.47966 0.47966 1.9016-1.9016 1.9016 1.9016 0.47964-0.47966-1.9016-1.9016z" fill="#aeaeae"/>
  <path d="m-4.7626-14.866-0.47964-0.47966-1.9016 1.9016-1.9016-1.9016-0.47966 0.47966 1.9016 1.9016-1.9016 1.9016 0.47966 0.47966 1.9016-1.9016 1.9016 1.9016 0.47964-0.47966-1.9016-1.9016z" fill="#aeaeae"/>
  <path d="m-4.7626-28.625-0.47964-0.47966-1.9016 1.9016-1.9016-1.9016-0.47966 0.47966 1.9016 1.9016-1.9016 1.9016 0.47966 0.47966 1.9016-1.9016 1.9016 1.9016 0.47964-0.47966-1.9016-1.9016z" fill="#ff1744"/>
  <path d="m-4.7626-21.746-0.47964-0.47966-1.9016 1.9016-1.9016-1.9016-0.47966 0.47966 1.9016 1.9016-1.9016 1.9016 0.47966 0.47966 1.9016-1.9016 1.9016 1.9016 0.47964-0.47966-1.9016-1.9016z" fill="#d50000"/>
  <path d="m-4.7626-7.9871-0.47964-0.47966-1.9016 1.9016-1.9016-1.9016-0.47966 0.47966 1.9016 1.9016-1.9016 1.9016 0.47966 0.47966 1.9016-1.9016 1.9016 1.9016 0.47964-0.47966-1.9016-1.9016z" fill="#aeaeae"/>
  <path d="m-4.7626 12.651-0.47964-0.47966-1.9016 1.9016-1.9016-1.9016-0.47966 0.47966 1.9016 1.9016-1.9016 1.9016 0.47966 0.47966 1.9016-1.9016 1.9016 1.9016 0.47964-0.47966-1.9016-1.9016z" fill="#aeaeae"/>
  <path d="m-4.7626-1.1079-0.47964-0.47966-1.9016 1.9016-1.9016-1.9016-0.47966 0.47966 1.9016 1.9016-1.9016 1.9016 0.47966 0.47966 1.9016-1.9016 1.9016 1.9016 0.47964-0.47966-1.9016-1.9016z" fill="#ff1744"/>
  <path d="m-4.7626 5.7714-0.47964-0.47966-1.9016 1.9016-1.9016-1.9016-0.47966 0.47966 1.9016 1.9016-1.9016 1.9016 0.47966 0.47966 1.9016-1.9016 1.9016 1.9016 0.47964-0.47966-1.9016-1.9016z" fill="#d50000"/>
 </g>
</svg>
