<?xml version="1.0" encoding="UTF-8"?>
<svg id="bitmap:32-24" width="32" height="640" fill="#000000" version="1.1" viewBox="0 0 32 640" xmlns="http://www.w3.org/2000/svg" xmlns:cc="http://creativecommons.org/ns#" xmlns:dc="http://purl.org/dc/elements/1.1/" xmlns:rdf="http://www.w3.org/1999/02/22-rdf-syntax-ns#">
 <metadata>
  <rdf:RDF>
   <cc:Work rdf:about="">
    <dc:format>image/svg+xml</dc:format>
    <dc:type rdf:resource="http://purl.org/dc/dcmitype/StillImage"/>
   </cc:Work>
  </rdf:RDF>
 </metadata>
 <rect width="32" height="640" fill="#fff" fill-opacity=".98444"/>
 <g fill="none" stroke-width="2">
  <rect x="1" y="1" width="30" height="30" rx="2" ry="2" stroke="#aeaeae"/>
  <rect x="1" y="97" width="30" height="30" rx="2" ry="2" stroke="#aeaeae"/>
  <rect x="1" y="65" width="30" height="30" rx="2" ry="2" stroke="#2979ff"/>
  <rect x="1" y="33" width="30" height="30" rx="2" ry="2" stroke="#3096fa"/>
  <rect x="1" y="129" width="30" height="30" rx="2" ry="2" stroke="#aeaeae"/>
  <rect x="1" y="225" width="30" height="30" rx="2" ry="2" stroke="#aeaeae"/>
  <rect x="1" y="193" width="30" height="30" rx="2" ry="2" stroke="#2979ff"/>
  <rect x="1" y="161" width="30" height="30" rx="2" ry="2" stroke="#3096fa"/>
  <rect x="1" y="257" width="30" height="30" rx="2" ry="2" stroke="#aeaeae"/>
  <rect x="1" y="353" width="30" height="30" rx="2" ry="2" stroke="#aeaeae"/>
  <rect x="1" y="321" width="30" height="30" rx="2" ry="2" stroke="#2979ff"/>
  <rect x="1" y="289" width="30" height="30" rx="2" ry="2" stroke="#3096fa"/>
  <rect x="1" y="385" width="30" height="30" rx="2" ry="2" stroke="#aeaeae"/>
  <rect x="1" y="481" width="30" height="30" rx="2" ry="2" stroke="#aeaeae"/>
  <rect x="1" y="449" width="30" height="30" rx="2" ry="2" stroke="#2979ff"/>
  <rect x="1" y="417" width="30" height="30" rx="2" ry="2" stroke="#3096fa"/>
  <rect x="1" y="513" width="30" height="30" rx="2" ry="2" stroke="#aeaeae"/>
  <rect x="1" y="609" width="30" height="30" rx="2" ry="2" stroke="#aeaeae"/>
  <rect x="1" y="577" width="30" height="30" rx="2" ry="2" stroke="#2979ff"/>
  <rect x="1" y="545" width="30" height="30" rx="2" ry="2" stroke="#3096fa"/>
 </g>
 <path d="m12 148.45-5.2499-5.3284-1.75 1.7762 6.9998 7.1046 15-15.224-1.75-1.7762z"/>
 <path d="m5 271h22v2h-22z"/>
 <g transform="translate(-79.273 -1)">
  <path d="m91.273 181.45-5.2499-5.3284-1.75 1.7762 6.9998 7.1046 15-15.224-1.75-1.7762z" fill="#3096fa"/>
  <path d="m91.273 213.45-5.2499-5.3284-1.75 1.7762 6.9998 7.1046 15-15.224-1.75-1.7762z" fill="#2979ff"/>
  <path d="m91.273 245.45-5.2499-5.3284-1.75 1.7762 6.9998 7.1046 15-15.224-1.75-1.7762z" fill="#aeaeae"/>
  <path d="m91.273 405.45-5.2499-5.3284-1.75 1.7762 6.9998 7.1046 15-15.224-1.75-1.7762z"/>
  <path d="m91.273 437.45-5.2499-5.3284-1.75 1.7762 6.9998 7.1046 15-15.224-1.75-1.7762z" fill="#3096fa"/>
  <path d="m91.273 469.45-5.2499-5.3284-1.75 1.7762 6.9998 7.1046 15-15.224-1.75-1.7762z" fill="#2979ff"/>
  <path d="m91.273 501.45-5.2499-5.3284-1.75 1.7762 6.9998 7.1046 15-15.224-1.75-1.7762z" fill="#aeaeae"/>
 </g>
 <g transform="matrix(1.2222 0 0 1 77.111 30)" stroke-width=".81818">
  <path d="m-59 273h18v2h-18z" fill="#3096fa"/>
  <path d="m-59 305h18v2h-18z" fill="#2979ff"/>
  <path d="m-59 337h18v2h-18z" fill="#aeaeae"/>
 </g>
 <g transform="translate(34.187 93.003)" stroke-width="3.7795">
  <path d="m-8.1872 427.01-2.0142-2.0143-7.9858 7.9857-7.9858-7.9857-2.0142 2.0143 7.9858 7.9857-7.9858 7.9857 2.0142 2.0143 7.9858-7.9857 7.9858 7.9857 2.0142-2.0143-7.9858-7.9857z" fill="#000"/>
  <path d="m-8.1872 459.01-2.0142-2.0143-7.9858 7.9857-7.9858-7.9857-2.0142 2.0143 7.9858 7.9857-7.9858 7.9857 2.0142 2.0143 7.9858-7.9857 7.9858 7.9857 2.0142-2.0143-7.9858-7.9857z" fill="#3096fa"/>
  <path d="m-8.1872 491.01-2.0142-2.0143-7.9858 7.9857-7.9858-7.9857-2.0142 2.0143 7.9858 7.9857-7.9858 7.9857 2.0142 2.0143 7.9858-7.9857 7.9858 7.9857 2.0142-2.0143-7.9858-7.9857z" fill="#2979ff"/>
  <path d="m-8.1872 523.01-2.0142-2.0143-7.9858 7.9857-7.9858-7.9857-2.0142 2.0143 7.9858 7.9857-7.9858 7.9857 2.0142 2.0143 7.9858-7.9857 7.9858 7.9857 2.0142-2.0143-7.9858-7.9857z" fill="#aeaeae"/>
 </g>
</svg>
