<?xml version="1.0" encoding="UTF-8"?>
<svg id="bitmap:12-32" width="12" height="22" version="1.1" viewBox="0 0 3.1751 5.8208" xmlns="http://www.w3.org/2000/svg">
 <g>
  <path d="m1.3908 1.6505-1.3769-1.4442 0.1967-0.20631 1.3769 1.4442z"/>
  <path d="m1.5736 1.4663-1.3769 1.4442-0.1967-0.20631 1.3769-1.4442z"/>
  <path d="m2.9784 1.6505-1.3769-1.4442 0.1967-0.20631 1.3769 1.4442z"/>
  <path d="m3.1611 1.4663-1.3769 1.4442-0.1967-0.20631 1.3769-1.4442z"/>
  <path d="m1.3908 4.561-1.3769-1.4442 0.1967-0.20631 1.3769 1.4442z"/>
  <path d="m1.5736 4.3768-1.3769 1.4442-0.1967-0.20631 1.3769-1.4442z"/>
  <path d="m2.9784 4.5609-1.3769-1.4442 0.1967-0.20631 1.3769 1.4442z"/>
  <path d="m3.1612 4.3768-1.3769 1.4442-0.1967-0.20631 1.3769-1.4442z"/>
 </g>
</svg>
