<?xml version="1.0" encoding="UTF-8"?>
<svg id="bitmap:7-32" width="7" height="112" version="1.1" viewBox="0 0 1.8521 29.633" xmlns="http://www.w3.org/2000/svg" xmlns:cc="http://creativecommons.org/ns#" xmlns:dc="http://purl.org/dc/elements/1.1/" xmlns:rdf="http://www.w3.org/1999/02/22-rdf-syntax-ns#">
 <metadata>
  <rdf:RDF>
   <cc:Work rdf:about="">
    <dc:format>image/svg+xml</dc:format>
    <dc:type rdf:resource="http://purl.org/dc/dcmitype/StillImage"/>
    <dc:title/>
   </cc:Work>
  </rdf:RDF>
 </metadata>
 <g stroke-width=".26458">
  <path d="m0.93222 0.27387 0.91986 0.91792-0.13141 0.13113-0.91986-0.91792z"/>
  <path d="m0 1.1825 0.91986-0.91792 0.13141 0.13113-0.91986 0.91792z"/>
  <g>
   <path d="m0.93222 2.126 0.91986 0.91792-0.13141 0.13113-0.91986-0.91792z" fill="#3096fa"/>
   <path d="m0 3.0346 0.91986-0.91792 0.13141 0.13113-0.91986 0.91792z" fill="#3096fa"/>
   <path d="m0.93222 3.978 0.91986 0.91792-0.13141 0.13113-0.91986-0.91792z" fill="#fff"/>
   <path d="m0 4.8867 0.91986-0.91792 0.13141 0.13113-0.91986 0.91792z" fill="#fff"/>
   <path d="m0.93222 5.8301 0.91986 0.91792-0.13141 0.13113-0.91986-0.91792z" fill="#aeaeae"/>
   <path d="m0 6.7388 0.91986-0.91792 0.13141 0.13113-0.91986 0.91792z" fill="#aeaeae"/>
  </g>
  <path d="m1.8591 8.0782-0.91792 0.91986-0.13113-0.13141 0.91792-0.91986z"/>
  <path d="m0.14042 7.9375 0.91792 0.91986-0.13113 0.13141-0.91792-0.91986z"/>
  <g>
   <path d="m1.8591 9.9303-0.91792 0.91986-0.13113-0.13141 0.91792-0.91986z" fill="#3096fa"/>
   <path d="m0.14042 9.7896 0.91792 0.91986-0.13113 0.13141-0.91792-0.91986z" fill="#3096fa"/>
   <path d="m1.8591 11.782-0.91792 0.91986-0.13113-0.13141 0.91792-0.91986z" fill="#fff"/>
   <path d="m0.14042 11.642 0.91792 0.91986-0.13113 0.13141-0.91792-0.91986z" fill="#fff"/>
   <path d="m1.8591 13.634-0.91792 0.91986-0.13113-0.13141 0.91792-0.91986z" fill="#aeaeae"/>
   <path d="m0.14042 13.494 0.91792 0.91986-0.13113 0.13141-0.91792-0.91986z" fill="#aeaeae"/>
  </g>
  <path d="m1.3229 14.948-0.9179 0.91988-0.13113-0.13141 0.9179-0.91988z"/>
  <path d="m0.39572 15.617 0.9179 0.91988-0.13113 0.13141-0.9179-0.91988z"/>
  <g>
   <path d="m1.3229 16.8-0.9179 0.91988-0.13113-0.13141 0.9179-0.91988z" fill="#3096fa"/>
   <path d="m0.39572 17.47 0.9179 0.91988-0.13113 0.13141-0.9179-0.91988z" fill="#3096fa"/>
   <path d="m1.3229 18.652-0.9179 0.91988-0.13113-0.13141 0.9179-0.91988z" fill="#fff"/>
   <path d="m0.39572 19.322 0.9179 0.91988-0.13113 0.13141-0.9179-0.91988z" fill="#fff"/>
   <path d="m1.3229 20.504-0.9179 0.91988-0.13113-0.13141 0.9179-0.91988z" fill="#aeaeae"/>
   <path d="m0.39571 21.174 0.9179 0.91988-0.13113 0.13141-0.9179-0.91988z" fill="#aeaeae"/>
  </g>
  <path d="m1.4583 23.274-0.91988-0.9179 0.13141-0.13113 0.91988 0.9179z"/>
  <path d="m1.5805 23.157-0.91988 0.9179-0.13141-0.13113 0.91988-0.9179z"/>
  <g>
   <path d="m1.4583 25.126-0.91988-0.9179 0.13141-0.13113 0.91988 0.9179z" fill="#3096fa"/>
   <path d="m1.5805 25.009-0.91988 0.9179-0.13141-0.13113 0.91988-0.9179z" fill="#3096fa"/>
   <path d="m1.4583 26.978-0.91988-0.9179 0.13141-0.13113 0.91988 0.9179z" fill="#fff"/>
   <path d="m1.5805 26.861-0.91988 0.9179-0.13141-0.13113 0.91988-0.9179z" fill="#fff"/>
   <path d="m1.4583 28.83-0.91988-0.9179 0.13141-0.13113 0.91988 0.9179z" fill="#aeaeae"/>
   <path d="m1.5805 28.713-0.91988 0.9179-0.13141-0.13113 0.91988-0.9179z" fill="#aeaeae"/>
  </g>
 </g>
</svg>
