<?xml version="1.0" encoding="UTF-8"?>
<svg id="bitmap:39-32" width="39" height="312" version="1.1" viewBox="0 0 10.319 82.551" xmlns="http://www.w3.org/2000/svg">
 <g transform="matrix(1.5 0 0 1 31.566 136.26)" stroke-width=".21603">
  <path d="m-15.223-133.95-0.47964-0.7195-1.9016 2.8524-1.9016-2.8524-0.47966 0.7195 1.9016 2.8524-1.9016 2.8524 0.47966 0.7195 1.9016-2.8524 1.9016 2.8524 0.47964-0.7195-1.9016-2.8524z" fill="#aeaeae"/>
  <path d="m-15.223-103-0.47964-0.7195-1.9016 2.8524-1.9016-2.8524-0.47966 0.7195 1.9016 2.8524-1.9016 2.8524 0.47966 0.7195 1.9016-2.8524 1.9016 2.8524 0.47964-0.7195-1.9016-2.8524z" fill="#aeaeae"/>
  <path d="m-15.223-123.64-0.47964-0.7195-1.9016 2.8524-1.9016-2.8524-0.47966 0.7195 1.9016 2.8524-1.9016 2.8524 0.47966 0.71949 1.9016-2.8524 1.9016 2.8524 0.47964-0.71949-1.9016-2.8524z" fill="#ff1744"/>
  <path d="m-15.223-113.32-0.47964-0.71949-1.9016 2.8524-1.9016-2.8524-0.47966 0.71949 1.9016 2.8524-1.9016 2.8524 0.47966 0.7195 1.9016-2.8524 1.9016 2.8524 0.47964-0.7195-1.9016-2.8524z" fill="#d50000"/>
  <path d="m-15.223-92.68-0.47964-0.7195-1.9016 2.8524-1.9016-2.8524-0.47966 0.7195 1.9016 2.8524-1.9016 2.8524 0.47966 0.7195 1.9016-2.8524 1.9016 2.8524 0.47964-0.7195-1.9016-2.8524z" fill="#aeaeae"/>
  <path d="m-15.223-61.723-0.47964-0.7195-1.9016 2.8524-1.9016-2.8524-0.47966 0.7195 1.9016 2.8524-1.9016 2.8524 0.47966 0.7195 1.9016-2.8524 1.9016 2.8524 0.47964-0.7195-1.9016-2.8524z" fill="#aeaeae"/>
  <path d="m-15.223-82.361-0.47964-0.7195-1.9016 2.8524-1.9016-2.8524-0.47966 0.7195 1.9016 2.8524-1.9016 2.8524 0.47966 0.71949 1.9016-2.8524 1.9016 2.8524 0.47964-0.71949-1.9016-2.8524z" fill="#ff1744"/>
  <path d="m-15.223-72.042-0.47964-0.71949-1.9016 2.8524-1.9016-2.8524-0.47966 0.71949 1.9016 2.8524-1.9016 2.8524 0.47966 0.7195 1.9016-2.8524 1.9016 2.8524 0.47964-0.7195-1.9016-2.8524z" fill="#d50000"/>
 </g>
</svg>
