<?xml version="1.0" encoding="UTF-8"?>
<svg id="bitmap:21-32" width="21" height="144" version="1.1" viewBox="0 0 5.5565 38.099" xmlns="http://www.w3.org/2000/svg" xmlns:cc="http://creativecommons.org/ns#" xmlns:dc="http://purl.org/dc/elements/1.1/" xmlns:rdf="http://www.w3.org/1999/02/22-rdf-syntax-ns#">
 <metadata>
  <rdf:RDF>
   <cc:Work rdf:about="">
    <dc:format>image/svg+xml</dc:format>
    <dc:type rdf:resource="http://purl.org/dc/dcmitype/StillImage"/>
   </cc:Work>
  </rdf:RDF>
 </metadata>
 <g transform="matrix(2.4439 0 0 1 4.0533e-5 0)">
  <path d="m2.2736 0.9152-1.1282 2.5244-0.16117-0.36063 1.1282-2.5244z" stroke-width=".16924"/>
  <path d="m0.16116 0.52902 1.1282 2.5244-0.16117 0.36063-1.1282-2.5244z" stroke-width=".16924"/>
  <g transform="matrix(1.2276 0 0 2.7501 3.2581 .099084)" fill="#3096fa" stroke-width=".092108">
   <path d="m-0.80196 2.0285-0.91903 0.91794-0.13129-0.13113 0.91903-0.91793z"/>
   <path d="m-2.5228 1.8881 0.91903 0.91794-0.13129 0.13113-0.91903-0.91793z"/>
  </g>
  <g transform="matrix(1.2276 0 0 2.7501 4.4792e-5 28.773)" fill="#3096fa" stroke-width=".092109">
   <path d="m1.8521 1.9925-0.91903 0.91794-0.13129-0.13113 0.91903-0.91793z"/>
   <path d="m0.13124 1.8521 0.91903 0.91794-0.13129 0.13113-0.91903-0.91793z"/>
  </g>
  <g transform="matrix(1.2276 0 0 2.7501 4.4792e-5 .59447)" fill="#2979ff" stroke-width=".092117">
   <path d="m1.8521 3.5801-0.91903 0.91793-0.13129-0.13113 0.91903-0.91793z"/>
   <path d="m0.13124 3.4397 0.91903 0.91793-0.13129 0.13113-0.91903-0.91793z"/>
  </g>
  <path d="m2.2736 15.203-1.1282 2.5243-0.16119-0.36061 1.1282-2.5243z" fill="#aeaeae" stroke-width=".14927"/>
  <path d="m0.16117 14.817 1.1282 2.5243-0.16119 0.36062-1.1282-2.5243z" fill="#aeaeae" stroke-width=".14927"/>
  <g transform="matrix(1.2276 0 0 2.7501 4.4792e-5 14.882)" fill="#2979ff" stroke-width=".092117">
   <path d="m1.8521 3.5801-0.91903 0.91793-0.13129-0.13113 0.91903-0.91793z"/>
   <path d="m0.13124 3.4397 0.91903 0.91793-0.13129 0.13113-0.91903-0.91793z"/>
  </g>
  <g transform="matrix(1.2276 0 0 2.7501 4.4792e-5 10.12)" fill="#2979ff" stroke-width=".092117">
   <path d="m1.8521 3.5801-0.91903 0.91793-0.13129-0.13113 0.91903-0.91793z"/>
   <path d="m0.13124 3.4397 0.91903 0.91793-0.13129 0.13113-0.91903-0.91793z"/>
  </g>
 </g>
</svg>
