<?xml version="1.0" encoding="UTF-8"?>
<svg id="bitmap:16-32" width="16" height="64" version="1.1" viewBox="0 0 4.2333 16.933" xmlns="http://www.w3.org/2000/svg">
 <g stroke-width=".26458">
  <path d="m1.5394 2.8867-0.75766-0.82928-0.25256 0.27644 1.0102 1.1057 2.1648-2.3694-0.25256-0.27644z" fill="#3096fa"/>
  <path d="m1.5394 7.12-0.75766-0.82928-0.25256 0.27644 1.0102 1.1057 2.1648-2.3694-0.25256-0.27644z" fill="#aeaeae"/>
  <path d="m3.3073 10.583a1.1906 1.1906 0 0 1-1.1906 1.1906 1.1906 1.1906 0 0 1-1.1906-1.1906 1.1906 1.1906 0 0 1 1.1906-1.1906 1.1906 1.1906 0 0 1 1.1906 1.1906z" fill="#3096fa" stroke="#3096fa"/>
  <path d="m3.4396 14.817a1.3229 1.3229 0 0 1-1.3229 1.3229 1.3229 1.3229 0 0 1-1.3229-1.3229 1.3229 1.3229 0 0 1 1.3229-1.3229 1.3229 1.3229 0 0 1 1.3229 1.3229z" fill="#aeaeae"/>
 </g>
</svg>
