<?xml version="1.0" encoding="UTF-8"?>
<svg id="bitmap:7-32" width="7" height="24" version="1.1" viewBox="0 0 1.8521 6.35" xmlns="http://www.w3.org/2000/svg" xmlns:cc="http://creativecommons.org/ns#" xmlns:dc="http://purl.org/dc/elements/1.1/" xmlns:rdf="http://www.w3.org/1999/02/22-rdf-syntax-ns#">
 <metadata>
  <rdf:RDF>
   <cc:Work rdf:about="">
    <dc:format>image/svg+xml</dc:format>
    <dc:type rdf:resource="http://purl.org/dc/dcmitype/StillImage"/>
    <dc:title/>
   </cc:Work>
  </rdf:RDF>
 </metadata>
 <g stroke-width=".26458">
  <path d="m0.93222 0.27387 0.91986 0.91792-0.13141 0.13113-0.91986-0.91792z"/>
  <path d="m0 1.1825 0.91986-0.91792 0.13141 0.13113-0.91986 0.91792z"/>
  <g>
   <path d="m0.93222 1.8614 0.91986 0.91792-0.13141 0.13113-0.91986-0.91792z" fill="#3096fa"/>
   <path d="m0 2.77 0.91986-0.91792 0.13141 0.13113-0.91986 0.91792z" fill="#3096fa"/>
   <path d="m0.93222 3.4489 0.91986 0.91792-0.13141 0.13113-0.91986-0.91792z" fill="#fff"/>
   <path d="m0 4.3575 0.91986-0.91792 0.13141 0.13113-0.91986 0.91792z" fill="#fff"/>
   <path d="m0.93222 5.0364 0.91986 0.91792-0.13141 0.13113-0.91986-0.91792z" fill="#aeaeae"/>
   <path d="m0 5.945 0.91986-0.91792 0.13141 0.13113-0.91986 0.91792z" fill="#aeaeae"/>
  </g>
 </g>
</svg>
