<?xml version="1.0" encoding="UTF-8"?>
<svg id="bitmap:32-32" width="32" height="256" version="1.1" viewBox="0 0 8.4666 67.734" xmlns="http://www.w3.org/2000/svg">
 <g stroke-width=".070004">
  <path d="m4.1174 4.3309c0.20518-0.38713 0.59954-0.61551 0.82871-0.95809 0.24248-0.35929 0.10659-1.0305-0.58088-1.0305-0.45032 0-0.67148 0.35649-0.76476 0.65171l-0.69014-0.30358c0.18919-0.59322 0.70347-1.1029 1.4522-1.1029 0.62618 0 1.0552 0.298 1.2737 0.67122 0.18653 0.32029 0.29577 0.91909 0.00801 1.3647-0.31975 0.49295-0.62618 0.64335-0.7914 0.96086-0.066616 0.12812-0.093263 0.21167-0.093263 0.62387h-0.77008c-0.00266-0.21724-0.034639-0.57095 0.1279-0.87731zm0.78073 1.9914c0 0.30636-0.23982 0.55702-0.53292 0.55702-0.2931 0-0.53292-0.25066-0.53292-0.55702 0-0.30635 0.23982-0.55702 0.53292-0.55702 0.2931 0 0.53292 0.25067 0.53292 0.55702z" fill="#aeaeae"/>
  <path d="m4.1174 29.731c0.20518-0.38713 0.59954-0.61551 0.82871-0.95809 0.24248-0.35929 0.10658-1.0305-0.58088-1.0305-0.45032 0-0.67148 0.35649-0.76476 0.65171l-0.69014-0.30358c0.18919-0.59322 0.70347-1.1029 1.4522-1.1029 0.62618 0 1.0552 0.298 1.2737 0.67122 0.18653 0.32029 0.29577 0.91909 8e-3 1.3647-0.31975 0.49295-0.62618 0.64335-0.7914 0.96086-0.06662 0.12812-0.09326 0.21167-0.09326 0.62387h-0.77008c-0.0027-0.21724-0.03464-0.57095 0.1279-0.87731zm0.78073 1.9914c0 0.30636-0.23982 0.55702-0.53292 0.55702s-0.53292-0.25066-0.53292-0.55702c0-0.30635 0.23982-0.55702 0.53292-0.55702s0.53292 0.25067 0.53292 0.55702z" fill="#aeaeae"/>
  <path d="m4.1174 12.798c0.20518-0.38713 0.59954-0.61551 0.82871-0.95809 0.24248-0.35929 0.10659-1.0305-0.58088-1.0305-0.45032 0-0.67148 0.35649-0.76476 0.65171l-0.69014-0.30358c0.18919-0.59322 0.70347-1.1029 1.4522-1.1029 0.62618 0 1.0552 0.298 1.2737 0.67122 0.18653 0.32029 0.29577 0.91908 0.00801 1.3647-0.31975 0.49296-0.62618 0.64336-0.7914 0.96086-0.066616 0.12811-0.093265 0.21167-0.093265 0.62386h-0.77008c-0.00266-0.21724-0.034639-0.57095 0.1279-0.87731zm0.78073 1.9914c0 0.30636-0.23982 0.55702-0.53292 0.55702s-0.53292-0.25066-0.53292-0.55702 0.23982-0.55702 0.53292-0.55702 0.53292 0.25067 0.53292 0.55702z" fill="#3096fa"/>
  <path d="m4.1174 21.264c0.20518-0.38713 0.59954-0.61551 0.82871-0.95809 0.24248-0.35929 0.10659-1.0305-0.58088-1.0305-0.45032 0-0.67148 0.35649-0.76476 0.65171l-0.69014-0.30358c0.18919-0.59322 0.70347-1.1029 1.4522-1.1029 0.62618 0 1.0552 0.298 1.2737 0.67122 0.18653 0.32029 0.29577 0.91909 0.00801 1.3647-0.31975 0.49296-0.62618 0.64335-0.7914 0.96086-0.066616 0.12811-0.093263 0.21167-0.093263 0.62386h-0.77008c-0.00266-0.21724-0.034639-0.57095 0.1279-0.87731zm0.78073 1.9913c0 0.30636-0.23982 0.55702-0.53292 0.55702s-0.53292-0.25066-0.53292-0.55702c0-0.30635 0.23982-0.55702 0.53292-0.55702s0.53292 0.25067 0.53292 0.55702z" fill="#2979ff"/>
  <path d="m4.1174 38.198c0.20518-0.38713 0.59954-0.61551 0.82871-0.95809 0.24248-0.35929 0.10659-1.0305-0.58088-1.0305-0.45032 0-0.67148 0.35649-0.76476 0.65171l-0.69014-0.30358c0.18919-0.59322 0.70347-1.1029 1.4522-1.1029 0.62618 0 1.0552 0.298 1.2737 0.67122 0.18652 0.32029 0.29577 0.91909 8e-3 1.3647-0.31975 0.49295-0.62618 0.64335-0.7914 0.96086-0.06662 0.12812-0.09326 0.21167-0.09326 0.62387h-0.77008c-0.0027-0.21724-0.03464-0.57095 0.1279-0.87731zm0.78073 1.9914c0 0.30636-0.23982 0.55702-0.53292 0.55702s-0.53292-0.25066-0.53292-0.55702c0-0.30635 0.23982-0.55702 0.53292-0.55702s0.53292 0.25067 0.53292 0.55702z" fill="#aeaeae"/>
  <path d="m4.1174 63.598c0.20518-0.38713 0.59954-0.61551 0.82871-0.95809 0.24248-0.35929 0.10658-1.0305-0.58088-1.0305-0.45032 0-0.67148 0.35649-0.76476 0.65171l-0.69014-0.30358c0.18919-0.59322 0.70347-1.1029 1.4522-1.1029 0.62618 0 1.0552 0.298 1.2737 0.67122 0.18653 0.32029 0.29577 0.91909 8e-3 1.3647-0.31975 0.49295-0.62618 0.64335-0.7914 0.96086-0.06662 0.12812-0.09326 0.21167-0.09326 0.62387h-0.77008c-0.0027-0.21724-0.03464-0.57095 0.1279-0.87731zm0.78073 1.9914c0 0.30636-0.23982 0.55702-0.53292 0.55702s-0.53292-0.25066-0.53292-0.55702c0-0.30635 0.23982-0.55702 0.53292-0.55702s0.53292 0.25067 0.53292 0.55702z" fill="#aeaeae"/>
  <path d="m4.1174 46.665c0.20518-0.38713 0.59954-0.61551 0.82871-0.95809 0.24248-0.35929 0.10658-1.0305-0.58088-1.0305-0.45032 0-0.67148 0.35649-0.76476 0.65171l-0.69014-0.30358c0.18919-0.59322 0.70347-1.1029 1.4522-1.1029 0.62618 0 1.0552 0.298 1.2737 0.67122 0.18653 0.32029 0.29577 0.91909 8e-3 1.3647-0.31975 0.49296-0.62618 0.64336-0.7914 0.96086-0.06662 0.12811-0.09326 0.21167-0.09326 0.62386h-0.77008c-0.0027-0.21724-0.03464-0.57095 0.1279-0.87731zm0.78073 1.9913c0 0.30636-0.23982 0.55702-0.53292 0.55702-0.2931 0-0.53292-0.25066-0.53292-0.55702 0-0.30636 0.23982-0.55702 0.53292-0.55702 0.2931 0 0.53292 0.25067 0.53292 0.55702z" fill="#3096fa"/>
  <path d="m4.1174 55.131c0.20518-0.38713 0.59954-0.61551 0.82871-0.95809 0.24248-0.35929 0.10658-1.0305-0.58088-1.0305-0.45032 0-0.67148 0.35649-0.76476 0.65171l-0.69014-0.30358c0.18919-0.59322 0.70347-1.1029 1.4522-1.1029 0.62618 0 1.0552 0.298 1.2737 0.67122 0.18653 0.32029 0.29577 0.91909 8e-3 1.3647-0.31975 0.49296-0.62618 0.64335-0.7914 0.96086-0.06662 0.12811-0.09326 0.21167-0.09326 0.62386h-0.77008c-0.0027-0.21724-0.03464-0.57095 0.1279-0.87731zm0.78073 1.9913c0 0.30636-0.23982 0.55702-0.53292 0.55702-0.2931 0-0.53292-0.25066-0.53292-0.55702 0-0.30635 0.23982-0.55702 0.53292-0.55702 0.2931 0 0.53292 0.25067 0.53292 0.55702z" fill="#2979ff"/>
 </g>
</svg>
