<?xml version="1.0" encoding="UTF-8"?>
<svg id="bitmap:10-32" width="10" height="28" version="1.1" viewBox="0 0 2.6458 7.4083" xmlns="http://www.w3.org/2000/svg" xmlns:cc="http://creativecommons.org/ns#" xmlns:dc="http://purl.org/dc/elements/1.1/" xmlns:rdf="http://www.w3.org/1999/02/22-rdf-syntax-ns#">
 <metadata>
  <rdf:RDF>
   <cc:Work rdf:about="">
    <dc:format>image/svg+xml</dc:format>
    <dc:type rdf:resource="http://purl.org/dc/dcmitype/StillImage"/>
   </cc:Work>
  </rdf:RDF>
 </metadata>
 <path d="m0-1.8521h6.35v6.35h-6.35z" fill="none" stroke-width=".26458"/>
 <path d="m0 3.7042h6.35v6.35h-6.35z" fill="none" stroke-width=".26458"/>
 <path d="m0.52915 0.66961 0.92136 0.91789 0.13162-0.13113-0.92136-0.91789z" stroke-width=".26458"/>
 <path d="m2.2496 0.52917-0.92136 0.91789 0.13162 0.13113 0.92136-0.91789z" stroke-width=".26458"/>
 <g transform="translate(.13227)">
  <g stroke-width=".26458">
   <path d="m0.39688 2.5217 0.92136 0.91789 0.13162-0.13113-0.92136-0.91789z" fill="#3096fa"/>
   <path d="m2.1173 2.3812-0.92136 0.91789 0.13162 0.13113 0.92136-0.91789z" fill="#3096fa"/>
   <path d="m0.39688 4.3738 0.92136 0.91789 0.13162-0.13113-0.92136-0.91789z" fill="#fff"/>
   <path d="m2.1173 4.2333-0.92136 0.91789 0.13162 0.13113 0.92136-0.91789z" fill="#fff"/>
  </g>
  <path d="m0.39688 6.2259 0.92136 0.91789 0.13162-0.13113-0.92136-0.91789z" fill="#aeaeae"/>
  <path d="m2.1173 6.0854-0.92136 0.91789 0.13162 0.13113 0.92136-0.91789z" fill="#aeaeae"/>
 </g>
</svg>
