<?xml version="1.0" encoding="UTF-8"?>
<svg id="bitmap:84-32" width="84" height="504" version="1.1" viewBox="0 0 22.227 133.35" xmlns="http://www.w3.org/2000/svg" xmlns:cc="http://creativecommons.org/ns#" xmlns:dc="http://purl.org/dc/elements/1.1/" xmlns:rdf="http://www.w3.org/1999/02/22-rdf-syntax-ns#">
 <metadata>
  <rdf:RDF>
   <cc:Work rdf:about="">
    <dc:format>image/svg+xml</dc:format>
    <dc:type rdf:resource="http://purl.org/dc/dcmitype/StillImage"/>
   </cc:Work>
  </rdf:RDF>
 </metadata>
 <path d="m0.13229 22.093v-21.774l21.775 21.774z" fill="#fff" stroke="#fff" stroke-width=".26459px"/>
 <g fill="#aeaeae">
  <path d="m0.26459 0.26451h0.26459v0.26459h-0.26459z"/>
  <path d="m0.52918 0.5291h0.26459v0.26459h-0.26459z"/>
  <path d="m0.79377 0.79369h0.26459v0.26459h-0.26459z"/>
  <path d="m1.0584 1.0583h0.26459v0.26459h-0.26459z"/>
  <path d="m1.3229 1.3229h0.26459v0.26459h-0.26459z"/>
  <path d="m1.5875 1.5875h0.26459v0.26459h-0.26459z"/>
  <path d="m1.8521 1.852h0.26459v0.26459h-0.26459z"/>
  <path d="m2.1167 2.1166h0.26459v0.26459h-0.26459z"/>
  <path d="m2.3813 2.3812h0.26459v0.26459h-0.26459z"/>
  <path d="m2.6459 2.6458h0.26459v0.26459h-0.26459z"/>
  <path d="m2.9105 2.9104h0.26459v0.26459h-0.26459z"/>
  <path d="m3.1751 3.175h0.26459v0.26459h-0.26459z"/>
  <path d="m3.4397 3.4396h0.26459v0.26459h-0.26459z"/>
  <path d="m3.7042 3.7042h0.26459v0.26459h-0.26459z"/>
  <path d="m3.9688 3.9688h0.26459v0.26459h-0.26459z"/>
  <path d="m4.2334 4.2333h0.26459v0.26459h-0.26459z"/>
  <path d="m4.498 4.4979h0.26459v0.26459h-0.26459z"/>
  <path d="m4.7626 4.7625h0.26459v0.26459h-0.26459z"/>
  <path d="m5.0272 5.0271h0.26459v0.26459h-0.26459z"/>
  <path d="m5.2918 5.2917h0.26459v0.26459h-0.26459z"/>
  <path d="m5.821 5.8209h0.26459v0.26459h-0.26459z"/>
  <path d="m5.5564 5.5563h0.26459v0.26459h-0.26459z"/>
  <path d="m6.0856 6.0855h0.26459v0.26459h-0.26459z"/>
  <path d="m6.3502 6.3501h0.26459v0.26459h-0.26459z"/>
  <path d="m6.6148 6.6147h0.26459v0.26459h-0.26459z"/>
  <path d="m6.8794 6.8793h0.26459v0.26459h-0.26459z"/>
  <path d="m7.144 7.1439h0.26459v0.26459h-0.26459z"/>
  <path d="m7.4086 7.4085h0.26459v0.26459h-0.26459z"/>
  <path d="m7.6732 7.6731h0.26459v0.26459h-0.26459z"/>
  <path d="m7.9378 7.9375h0.26459v0.26459h-0.26459z"/>
  <path d="m8.2024 8.2023h0.26459v0.26459h-0.26459z"/>
  <path d="m8.467 8.4667h0.26459v0.26459h-0.26459z"/>
  <path d="m8.7316 8.7313h0.26459v0.26459h-0.26459z"/>
  <path d="m8.9962 8.9959h0.26459v0.26459h-0.26459z"/>
  <path d="m9.2608 9.2605h0.26459v0.26459h-0.26459z"/>
  <path d="m9.5254 9.5251h0.26459v0.26459h-0.26459z"/>
  <path d="m9.79 9.7897h0.26459v0.26459h-0.26459z"/>
  <path d="m10.055 10.054h0.26459v0.26459h-0.26459z"/>
  <path d="m10.319 10.319h0.26459v0.26459h-0.26459z"/>
  <path d="m10.584 10.583h0.26459v0.26459h-0.26459z"/>
  <path d="m10.848 10.848h0.26459v0.26459h-0.26459z"/>
  <path d="m11.113 11.113h0.26459v0.26459h-0.26459z"/>
  <path d="m11.377 11.378h0.26459v0.26459h-0.26459z"/>
  <path d="m11.642 11.642h0.26459v0.26459h-0.26459z"/>
  <path d="m11.907 11.907h0.26459v0.26459h-0.26459z"/>
  <path d="m12.171 12.171h0.26459v0.26459h-0.26459z"/>
  <path d="m12.436 12.436h0.26459v0.26459h-0.26459z"/>
  <path d="m12.7 12.701h0.26459v0.26459h-0.26459z"/>
  <path d="m12.965 12.965h0.26459v0.26459h-0.26459z"/>
  <path d="m13.23 13.23h0.26459v0.26459h-0.26459z"/>
  <path d="m13.494 13.494h0.26459v0.26459h-0.26459z"/>
  <path d="m13.759 13.759h0.26459v0.26459h-0.26459z"/>
  <path d="m14.025 14.023h0.26459v0.26459h-0.26459z"/>
  <path d="m14.289 14.288h0.26459v0.26459h-0.26459z"/>
  <path d="m14.554 14.552h0.26459v0.26459h-0.26459z"/>
  <path d="m14.819 14.817h0.26459v0.26459h-0.26459z"/>
  <path d="m15.083 15.081h0.26459v0.26459h-0.26459z"/>
  <path d="m15.348 15.346h0.26459v0.26459h-0.26459z"/>
  <path d="m15.612 15.611h0.26459v0.26459h-0.26459z"/>
  <path d="m15.877 15.875h0.26459v0.26459h-0.26459z"/>
  <path d="m16.142 16.14h0.26459v0.26459h-0.26459z"/>
  <path d="m16.406 16.404h0.26459v0.26459h-0.26459z"/>
  <path d="m16.67 16.669h0.26459v0.26459h-0.26459z"/>
  <path d="m16.935 16.934h0.26459v0.26459h-0.26459z"/>
  <path d="m17.199 17.199h0.26459v0.26459h-0.26459z"/>
  <path d="m17.464 17.463h0.26459v0.26459h-0.26459z"/>
  <path d="m17.729 17.728h0.26459v0.26459h-0.26459z"/>
  <path d="m17.993 17.992h0.26459v0.26459h-0.26459z"/>
  <path d="m18.258 18.257h0.26459v0.26459h-0.26459z"/>
  <path d="m18.522 18.522h0.26459v0.26459h-0.26459z"/>
  <path d="m18.787 18.786h0.26459v0.26459h-0.26459z"/>
  <path d="m19.052 19.051h0.26459v0.26459h-0.26459z"/>
  <path d="m19.316 19.315h0.26459v0.26459h-0.26459z"/>
  <path d="m19.581 19.58h0.26459v0.26459h-0.26459z"/>
  <path d="m19.847 19.844h0.26459v0.26459h-0.26459z"/>
  <path d="m20.111 20.109h0.26459v0.26459h-0.26459z"/>
  <path d="m20.376 20.373h0.26459v0.26459h-0.26459z"/>
  <path d="m20.641 20.638h0.26459v0.26459h-0.26459z"/>
  <path d="m20.905 20.902h0.26459v0.26459h-0.26459z"/>
  <path d="m21.17 21.167h0.26459v0.26459h-0.26459z"/>
  <path d="m21.434 21.432h0.26459v0.26459h-0.26459z"/>
  <path d="m21.699 21.696h0.26459v0.26459h-0.26459z"/>
  <path d="m21.964 21.961h0.26459v0.26459h-0.26459z"/>
  <path d="m2.1206e-4 43.922h0.26459v0.26459h-0.26459z"/>
  <path d="m0.2648 43.658h0.26459v0.26459h-0.26459z"/>
  <path d="m0.52939 43.393h0.26459v0.26459h-0.26459z"/>
  <path d="m0.79398 43.128h0.26459v0.26459h-0.26459z"/>
  <path d="m1.0586 42.864h0.26459v0.26459h-0.26459z"/>
  <path d="m1.3231 42.599h0.26459v0.26459h-0.26459z"/>
  <path d="m1.5877 42.335h0.26459v0.26459h-0.26459z"/>
  <path d="m1.8523 42.07h0.26459v0.26459h-0.26459z"/>
  <path d="m2.1169 41.805h0.26459v0.26459h-0.26459z"/>
  <path d="m2.3815 41.541h0.26459v0.26459h-0.26459z"/>
  <path d="m21.961 43.922h0.26459v0.26459h-0.26459z"/>
  <path d="m21.432 43.393h0.26459v0.26459h-0.26459z"/>
  <path d="m21.697 43.658h0.26459v0.26459h-0.26459z"/>
  <path d="m21.168 43.128h0.26459v0.26459h-0.26459z"/>
  <path d="m20.903 42.864h0.26459v0.26459h-0.26459z"/>
  <path d="m20.638 42.599h0.26459v0.26459h-0.26459z"/>
  <path d="m20.373 42.335h0.26459v0.26459h-0.26459z"/>
  <path d="m20.109 42.07h0.26459v0.26459h-0.26459z"/>
  <path d="m19.844 41.806h0.26459v0.26459h-0.26459z"/>
  <path d="m19.58 41.541h0.26459v0.26459h-0.26459z"/>
  <path d="m19.315 41.276h0.26459v0.26459h-0.26459z"/>
  <path d="m2.9107 41.012h0.26459v0.26459h-0.26459z"/>
  <path d="m19.05 41.012h0.26459v0.26459h-0.26459z"/>
  <path d="m3.1753 40.747h0.26459v0.26459h-0.26459z"/>
  <path d="m18.786 40.747h0.26459v0.26459h-0.26459z"/>
  <path d="m16.669 38.63h0.26459v0.26459h-0.26459z"/>
  <path d="m16.934 38.895h0.26459v0.26459h-0.26459z"/>
  <path d="m17.199 39.159h0.26459v0.26459h-0.26459z"/>
  <path d="m17.463 39.424h0.26459v0.26459h-0.26459z"/>
  <path d="m17.728 39.689h0.26459v0.26459h-0.26459z"/>
  <path d="m17.992 39.953h0.26459v0.26459h-0.26459z"/>
  <path d="m18.257 40.218h0.26459v0.26459h-0.26459z"/>
  <path d="m18.521 40.482h0.26459v0.26459h-0.26459z"/>
  <path d="m15.082 37.042h0.26459v0.26459h-0.26459z"/>
  <path d="m15.347 37.307h0.26459v0.26459h-0.26459z"/>
  <path d="m15.611 37.572h0.26459v0.26459h-0.26459z"/>
  <path d="m15.876 37.836h0.26459v0.26459h-0.26459z"/>
  <path d="m16.14 38.101h0.26459v0.26459h-0.26459z"/>
  <path d="m15.347 37.042h-0.26459v0.26459h0.26459z"/>
  <path d="m6.8797 37.307h-0.26459v0.26459h0.26459z"/>
  <path d="m6.6151 37.572h-0.26459v0.26459h0.26459z"/>
  <path d="m6.3505 37.836h-0.26459v0.26459h0.26459z"/>
  <path d="m6.0859 38.101h-0.26459v0.26459h0.26459z"/>
  <path d="m5.8213 38.365h-0.26459v0.26459h0.26459z"/>
  <path d="m16.405 38.365h0.26459v0.26459h-0.26459z"/>
  <path d="m13.759 35.72h0.26459v0.26459h-0.26459z"/>
  <path d="m14.024 35.984h0.26459v0.26459h-0.26459z"/>
  <path d="m14.288 36.249h0.26459v0.26459h-0.26459z"/>
  <path d="m14.553 36.514h0.26459v0.26459h-0.26459z"/>
  <path d="m14.817 36.778h0.26459v0.26459h-0.26459z"/>
  <path d="m13.494 35.454h0.26459v0.26459h-0.26459z"/>
  <path d="m13.23 35.189h0.26459v0.26459h-0.26459z"/>
  <path d="m11.378 33.337h0.26459v0.26459h-0.26459z"/>
  <path d="m10.849 33.073h0.26459v0.26459h-0.26459z"/>
  <path d="m11.113 33.073h0.26459v0.26459h-0.26459z"/>
  <path d="m11.643 33.601h0.26459v0.26459h-0.26459z"/>
  <path d="m11.907 33.866h0.26459v0.26459h-0.26459z"/>
  <path d="m12.172 34.131h0.26459v0.26459h-0.26459z"/>
  <path d="m12.436 34.395h0.26459v0.26459h-0.26459z"/>
  <path d="m12.701 34.66h0.26459v0.26459h-0.26459z"/>
  <path d="m12.965 34.924h0.26459v0.26459h-0.26459z"/>
  <path d="m5.5567 38.63h-0.26459v0.26459h0.26459z"/>
  <path d="m5.2921 38.895h-0.26459v0.26459h0.26459z"/>
  <path d="m5.0275 39.159h-0.26459v0.26459h0.26459z"/>
  <path d="m4.7629 39.424h-0.26459v0.26459h0.26459z"/>
  <path d="m4.4983 39.689h-0.26459v0.26459h0.26459z"/>
  <path d="m3.9691 39.953h0.26459v0.26459h-0.26459z"/>
  <path d="m2.6461 41.276h0.26459v0.26459h-0.26459z"/>
  <path d="m3.7045 40.218h0.26459v0.26459h-0.26459z"/>
  <path d="m3.4399 40.482h0.26459v0.26459h-0.26459z"/>
  <path d="m0-7.425e-5h0.2646v22.227h-0.2646z"/>
  <path d="m0.13229 111.26v21.774l21.775-21.774z" fill="#fff" stroke="#fff" stroke-width=".26459px"/>
  <path d="m0.26459 133.09h0.26459v-0.26459h-0.26459z"/>
  <path d="m0.52918 132.82h0.26459v-0.26459h-0.26459z"/>
  <path d="m0.79377 132.56h0.26459v-0.26459h-0.26459z"/>
  <path d="m1.0584 132.29h0.26459v-0.26459h-0.26459z"/>
  <path d="m1.3229 132.03h0.26459v-0.26459h-0.26459z"/>
  <path d="m1.5875 131.77h0.26459v-0.26459h-0.26459z"/>
  <path d="m1.8521 131.5h0.26459v-0.26459h-0.26459z"/>
  <path d="m2.1167 131.24h0.26459v-0.26459h-0.26459z"/>
  <path d="m2.3813 130.97h0.26459v-0.26459h-0.26459z"/>
  <path d="m2.6459 130.71h0.26459v-0.26459h-0.26459z"/>
  <path d="m2.9105 130.44h0.26459v-0.26459h-0.26459z"/>
  <path d="m3.1751 130.18h0.26459v-0.26459h-0.26459z"/>
  <path d="m3.4397 129.91h0.26459v-0.26459h-0.26459z"/>
  <path d="m3.7042 129.65h0.26459v-0.26459h-0.26459z"/>
  <path d="m3.9688 129.38h0.26459v-0.26459h-0.26459z"/>
  <path d="m4.2334 129.12h0.26459v-0.26459h-0.26459z"/>
  <path d="m4.498 128.86h0.26459v-0.26459h-0.26459z"/>
  <path d="m4.7626 128.59h0.26459v-0.26459h-0.26459z"/>
  <path d="m5.0272 128.33h0.26459v-0.26459h-0.26459z"/>
  <path d="m5.2918 128.06h0.26459v-0.26459h-0.26459z"/>
  <path d="m5.821 127.53h0.26459v-0.26459h-0.26459z"/>
  <path d="m5.5564 127.8h0.26459v-0.26459h-0.26459z"/>
  <path d="m6.0856 127.27h0.26459v-0.26459h-0.26459z"/>
  <path d="m6.3502 127h0.26459v-0.26459h-0.26459z"/>
  <path d="m6.6148 126.74h0.26459v-0.26459h-0.26459z"/>
  <path d="m6.8794 126.47h0.26459v-0.26459h-0.26459z"/>
  <path d="m7.144 126.21h0.26459v-0.26459h-0.26459z"/>
  <path d="m7.4086 125.94h0.26459v-0.26459h-0.26459z"/>
  <path d="m7.6732 125.68h0.26459v-0.26459h-0.26459z"/>
  <path d="m7.9378 125.42h0.26459v-0.26459h-0.26459z"/>
  <path d="m8.2024 125.15h0.26459v-0.26459h-0.26459z"/>
  <path d="m8.467 124.89h0.26459v-0.26459h-0.26459z"/>
  <path d="m8.7316 124.62h0.26459v-0.26459h-0.26459z"/>
  <path d="m8.9962 124.36h0.26459v-0.26459h-0.26459z"/>
  <path d="m9.2608 124.09h0.26459v-0.26459h-0.26459z"/>
  <path d="m9.5254 123.83h0.26459v-0.26459h-0.26459z"/>
  <path d="m9.79 123.56h0.26459v-0.26459h-0.26459z"/>
  <path d="m10.055 123.3h0.26459v-0.26459h-0.26459z"/>
  <path d="m10.319 123.03h0.26459v-0.26459h-0.26459z"/>
  <path d="m10.584 122.77h0.26459v-0.26459h-0.26459z"/>
  <path d="m10.848 122.51h0.26459v-0.26459h-0.26459z"/>
  <path d="m11.113 122.24h0.26459v-0.26459h-0.26459z"/>
  <path d="m11.377 121.98h0.26459v-0.26459h-0.26459z"/>
  <path d="m11.642 121.71h0.26459v-0.26459h-0.26459z"/>
  <path d="m11.907 121.45h0.26459v-0.26459h-0.26459z"/>
  <path d="m12.171 121.18h0.26459v-0.26459h-0.26459z"/>
  <path d="m12.436 120.92h0.26459v-0.26459h-0.26459z"/>
  <path d="m12.7 120.65h0.26459v-0.26459h-0.26459z"/>
  <path d="m12.965 120.39h0.26459v-0.26459h-0.26459z"/>
  <path d="m13.23 120.12h0.26459v-0.26459h-0.26459z"/>
  <path d="m13.494 119.86h0.26459v-0.26459h-0.26459z"/>
  <path d="m13.759 119.59h0.26459v-0.26459h-0.26459z"/>
  <path d="m14.025 119.33h0.26459v-0.26459h-0.26459z"/>
  <path d="m14.289 119.07h0.26459v-0.26459h-0.26459z"/>
  <path d="m14.554 118.8h0.26459v-0.26459h-0.26459z"/>
  <path d="m14.819 118.54h0.26459v-0.26459h-0.26459z"/>
  <path d="m15.083 118.27h0.26459v-0.26459h-0.26459z"/>
  <path d="m15.348 118.01h0.26459v-0.26459h-0.26459z"/>
  <path d="m15.612 117.74h0.26459v-0.26459h-0.26459z"/>
  <path d="m15.877 117.48h0.26459v-0.26459h-0.26459z"/>
  <path d="m16.142 117.21h0.26459v-0.26459h-0.26459z"/>
  <path d="m16.406 116.95h0.26459v-0.26459h-0.26459z"/>
  <path d="m16.67 116.68h0.26459v-0.26459h-0.26459z"/>
  <path d="m16.935 116.42h0.26459v-0.26459h-0.26459z"/>
  <path d="m17.199 116.15h0.26459v-0.26459h-0.26459z"/>
  <path d="m17.464 115.89h0.26459v-0.26459h-0.26459z"/>
  <path d="m17.729 115.63h0.26459v-0.26459h-0.26459z"/>
  <path d="m17.993 115.36h0.26459v-0.26459h-0.26459z"/>
  <path d="m18.258 115.1h0.26459v-0.26459h-0.26459z"/>
  <path d="m18.522 114.83h0.26459v-0.26459h-0.26459z"/>
  <path d="m18.787 114.57h0.26459v-0.26459h-0.26459z"/>
  <path d="m19.052 114.3h0.26459v-0.26459h-0.26459z"/>
  <path d="m19.316 114.04h0.26459v-0.26459h-0.26459z"/>
  <path d="m19.581 113.77h0.26459v-0.26459h-0.26459z"/>
  <path d="m19.847 113.51h0.26459v-0.26459h-0.26459z"/>
  <path d="m20.111 113.24h0.26459v-0.26459h-0.26459z"/>
  <path d="m20.376 112.98h0.26459v-0.26459h-0.26459z"/>
  <path d="m20.641 112.72h0.26459v-0.26459h-0.26459z"/>
  <path d="m20.905 112.45h0.26459v-0.26459h-0.26459z"/>
  <path d="m21.17 112.19h0.26459v-0.26459h-0.26459z"/>
  <path d="m21.434 111.92h0.26459v-0.26459h-0.26459z"/>
  <path d="m21.699 111.66h0.26459v-0.26459h-0.26459z"/>
  <path d="m21.964 111.39h0.26459v-0.26459h-0.26459z"/>
  <path d="m3.1786e-6 133.35h0.2646v-22.227h-0.2646z"/>
  <path d="m22.094 66.545v-21.774l-21.775 21.774z" fill="#fff" stroke="#fff" stroke-width=".26459px"/>
  <path d="m21.962 44.716h-0.26459v0.26459h0.26459z"/>
  <path d="m21.697 44.981h-0.26459v0.26459h0.26459z"/>
  <path d="m21.433 45.245h-0.26459v0.26459h0.26459z"/>
  <path d="m21.168 45.51h-0.26459v0.26459h0.26459z"/>
  <path d="m20.903 45.775h-0.26459v0.26459h0.26459z"/>
  <path d="m20.639 46.039h-0.26459v0.26459h0.26459z"/>
  <path d="m20.374 46.304h-0.26459v0.26459h0.26459z"/>
  <path d="m20.11 46.568h-0.26459v0.26459h0.26459z"/>
  <path d="m19.845 46.833h-0.26459v0.26459h0.26459z"/>
  <path d="m19.58 47.098h-0.26459v0.26459h0.26459z"/>
  <path d="m19.316 47.362h-0.26459v0.26459h0.26459z"/>
  <path d="m19.051 47.627h-0.26459v0.26459h0.26459z"/>
  <path d="m18.787 47.891h-0.26459v0.26459h0.26459z"/>
  <path d="m18.522 48.156h-0.26459v0.26459h0.26459z"/>
  <path d="m18.258 48.421h-0.26459v0.26459h0.26459z"/>
  <path d="m17.993 48.685h-0.26459v0.26459h0.26459z"/>
  <path d="m17.728 48.95h-0.26459v0.26459h0.26459z"/>
  <path d="m17.464 49.214h-0.26459v0.26459h0.26459z"/>
  <path d="m17.199 49.479h-0.26459v0.26459h0.26459z"/>
  <path d="m16.935 49.743h-0.26459v0.26459h0.26459z"/>
  <path d="m16.405 50.273h-0.26459v0.26459h0.26459z"/>
  <path d="m16.67 50.008h-0.26459v0.26459h0.26459z"/>
  <path d="m16.141 50.537h-0.26459v0.26459h0.26459z"/>
  <path d="m15.876 50.802h-0.26459v0.26459h0.26459z"/>
  <path d="m15.612 51.066h-0.26459v0.26459h0.26459z"/>
  <path d="m15.347 51.331h-0.26459v0.26459h0.26459z"/>
  <path d="m15.082 51.596h-0.26459v0.26459h0.26459z"/>
  <path d="m14.818 51.86h-0.26459v0.26459h0.26459z"/>
  <path d="m14.553 52.125h-0.26459v0.26459h0.26459z"/>
  <path d="m14.289 52.389h-0.26459v0.26459h0.26459z"/>
  <path d="m14.024 52.654h-0.26459v0.26459h0.26459z"/>
  <path d="m13.759 52.918h-0.26459v0.26459h0.26459z"/>
  <path d="m13.495 53.183h-0.26459v0.26459h0.26459z"/>
  <path d="m13.23 53.448h-0.26459v0.26459h0.26459z"/>
  <path d="m12.966 53.712h-0.26459v0.26459h0.26459z"/>
  <path d="m12.701 53.977h-0.26459v0.26459h0.26459z"/>
  <path d="m12.436 54.241h-0.26459v0.26459h0.26459z"/>
  <path d="m12.171 54.506h-0.26459v0.26459h0.26459z"/>
  <path d="m11.907 54.771h-0.26459v0.26459h0.26459z"/>
  <path d="m11.642 55.035h-0.26459v0.26459h0.26459z"/>
  <path d="m11.378 55.3h-0.26459v0.26459h0.26459z"/>
  <path d="m11.113 55.565h-0.26459v0.26459h0.26459z"/>
  <path d="m10.849 55.83h-0.26459v0.26459h0.26459z"/>
  <path d="m10.584 56.094h-0.26459v0.26459h0.26459z"/>
  <path d="m10.319 56.359h-0.26459v0.26459h0.26459z"/>
  <path d="m10.055 56.623h-0.26459v0.26459h0.26459z"/>
  <path d="m9.7904 56.888h-0.26459v0.26459h0.26459z"/>
  <path d="m9.5264 57.153h-0.26459v0.26459h0.26459z"/>
  <path d="m9.2614 57.417h-0.26459v0.26459h0.26459z"/>
  <path d="m8.9964 57.682h-0.26459v0.26459h0.26459z"/>
  <path d="m8.7324 57.946h-0.26459v0.26459h0.26459z"/>
  <path d="m8.4674 58.211h-0.26459v0.26459h0.26459z"/>
  <path d="m8.2014 58.475h-0.26459v0.26459h0.26459z"/>
  <path d="m7.9374 58.74h-0.26459v0.26459h0.26459z"/>
  <path d="m7.6724 59.004h-0.26459v0.26459h0.26459z"/>
  <path d="m7.4074 59.269h-0.26459v0.26459h0.26459z"/>
  <path d="m7.1434 59.533h-0.26459v0.26459h0.26459z"/>
  <path d="m6.8784 59.798h-0.26459v0.26459h0.26459z"/>
  <path d="m6.6144 60.063h-0.26459v0.26459h0.26459z"/>
  <path d="m6.3494 60.327h-0.26459v0.26459h0.26459z"/>
  <path d="m6.0844 60.592h-0.26459v0.26459h0.26459z"/>
  <path d="m5.8204 60.856h-0.26459v0.26459h0.26459z"/>
  <path d="m5.5567 61.12h-0.26459v0.26459h0.26459z"/>
  <path d="m5.2917 61.385h-0.26459v0.26459h0.26459z"/>
  <path d="m5.0277 61.65h-0.26459v0.26459h0.26459z"/>
  <path d="m4.7627 61.914h-0.26459v0.26459h0.26459z"/>
  <path d="m4.4977 62.179h-0.26459v0.26459h0.26459z"/>
  <path d="m4.2337 62.443h-0.26459v0.26459h0.26459z"/>
  <path d="m3.9687 62.708h-0.26459v0.26459h0.26459z"/>
  <path d="m3.7047 62.973h-0.26459v0.26459h0.26459z"/>
  <path d="m3.4397 63.237h-0.26459v0.26459h0.26459z"/>
  <path d="m3.1747 63.502h-0.26459v0.26459h0.26459z"/>
  <path d="m2.9107 63.766h-0.26459v0.26459h0.26459z"/>
  <path d="m2.6457 64.031h-0.26459v0.26459h0.26459z"/>
  <path d="m2.3797 64.295h-0.26459v0.26459h0.26459z"/>
  <path d="m2.1157 64.56h-0.26459v0.26459h0.26459z"/>
  <path d="m1.8507 64.824h-0.26459v0.26459h0.26459z"/>
  <path d="m1.5857 65.089h-0.26459v0.26459h0.26459z"/>
  <path d="m1.3217 65.353h-0.26459v0.26459h0.26459z"/>
  <path d="m1.0567 65.618h-0.26459v0.26459h0.26459z"/>
  <path d="m0.7927 65.883h-0.26459v0.26459h0.26459z"/>
  <path d="m0.5277 66.147h-0.26459v0.26459h0.26459z"/>
  <path d="m0.2627 66.412h-0.26459v0.26459h0.26459z"/>
  <path d="m22.226 44.452h-0.2646v22.227h0.2646z"/>
  <path d="m22.094 66.811v21.774l-21.775-21.774z" fill="#fff" stroke="#fff" stroke-width=".26459px"/>
  <path d="m21.962 88.64h-0.26459v-0.26459h0.26459z"/>
  <path d="m21.697 88.375h-0.26459v-0.26459h0.26459z"/>
  <path d="m21.433 88.111h-0.26459v-0.26459h0.26459z"/>
  <path d="m21.168 87.846h-0.26459v-0.26459h0.26459z"/>
  <path d="m20.904 87.581h-0.26459v-0.26459h0.26459z"/>
  <path d="m20.639 87.317h-0.26459v-0.26459h0.26459z"/>
  <path d="m20.375 87.052h-0.26459v-0.26459h0.26459z"/>
  <path d="m20.11 86.788h-0.26459v-0.26459h0.26459z"/>
  <path d="m19.845 86.523h-0.26459v-0.26459h0.26459z"/>
  <path d="m19.581 86.259h-0.26459v-0.26459h0.26459z"/>
  <path d="m19.316 85.994h-0.26459v-0.26459h0.26459z"/>
  <path d="m19.052 85.729h-0.26459v-0.26459h0.26459z"/>
  <path d="m18.787 85.465h-0.26459v-0.26459h0.26459z"/>
  <path d="m18.522 85.2h-0.26459v-0.26459h0.26459z"/>
  <path d="m18.258 84.936h-0.26459v-0.26459h0.26459z"/>
  <path d="m17.993 84.671h-0.26459v-0.26459h0.26459z"/>
  <path d="m17.729 84.406h-0.26459v-0.26459h0.26459z"/>
  <path d="m17.464 84.142h-0.26459v-0.26459h0.26459z"/>
  <path d="m17.199 83.877h-0.26459v-0.26459h0.26459z"/>
  <path d="m16.935 83.613h-0.26459v-0.26459h0.26459z"/>
  <path d="m16.406 83.083h-0.26459v-0.26459h0.26459z"/>
  <path d="m16.67 83.348h-0.26459v-0.26459h0.26459z"/>
  <path d="m16.141 82.819h-0.26459v-0.26459h0.26459z"/>
  <path d="m15.876 82.554h-0.26459v-0.26459h0.26459z"/>
  <path d="m15.612 82.29h-0.26459v-0.26459h0.26459z"/>
  <path d="m15.347 82.025h-0.26459v-0.26459h0.26459z"/>
  <path d="m15.083 81.76h-0.26459v-0.26459h0.26459z"/>
  <path d="m14.818 81.496h-0.26459v-0.26459h0.26459z"/>
  <path d="m14.553 81.231h-0.26459v-0.26459h0.26459z"/>
  <path d="m14.289 80.967h-0.26459v-0.26459h0.26459z"/>
  <path d="m14.024 80.702h-0.26459v-0.26459h0.26459z"/>
  <path d="m13.76 80.438h-0.26459v-0.26459h0.26459z"/>
  <path d="m13.495 80.173h-0.26459v-0.26459h0.26459z"/>
  <path d="m13.23 79.908h-0.26459v-0.26459h0.26459z"/>
  <path d="m12.966 79.644h-0.26459v-0.26459h0.26459z"/>
  <path d="m12.701 79.379h-0.26459v-0.26459h0.26459z"/>
  <path d="m12.437 79.115h-0.26459v-0.26459h0.26459z"/>
  <path d="m12.172 78.85h-0.26459v-0.26459h0.26459z"/>
  <path d="m11.908 78.585h-0.26459v-0.26459h0.26459z"/>
  <path d="m11.643 78.321h-0.26459v-0.26459h0.26459z"/>
  <path d="m11.379 78.056h-0.26459v-0.26459h0.26459z"/>
  <path d="m11.114 77.791h-0.26459v-0.26459h0.26459z"/>
  <path d="m10.85 77.526h-0.26459v-0.26459h0.26459z"/>
  <path d="m10.585 77.262h-0.26459v-0.26459h0.26459z"/>
  <path d="m10.32 76.997h-0.26459v-0.26459h0.26459z"/>
  <path d="m10.056 76.733h-0.26459v-0.26459h0.26459z"/>
  <path d="m9.7907 76.468h-0.26459v-0.26459h0.26459z"/>
  <path d="m9.5267 76.203h-0.26459v-0.26459h0.26459z"/>
  <path d="m9.2617 75.939h-0.26459v-0.26459h0.26459z"/>
  <path d="m8.9967 75.674h-0.26459v-0.26459h0.26459z"/>
  <path d="m8.7327 75.41h-0.26459v-0.26459h0.26459z"/>
  <path d="m8.4677 75.145h-0.26459v-0.26459h0.26459z"/>
  <path d="m8.2017 74.881h-0.26459v-0.26459h0.26459z"/>
  <path d="m7.9377 74.616h-0.26459v-0.26459h0.26459z"/>
  <path d="m7.6727 74.352h-0.26459v-0.26459h0.26459z"/>
  <path d="m7.4077 74.087h-0.26459v-0.26459h0.26459z"/>
  <path d="m7.1437 73.823h-0.26459v-0.26459h0.26459z"/>
  <path d="m6.8787 73.558h-0.26459v-0.26459h0.26459z"/>
  <path d="m6.6147 73.293h-0.26459v-0.26459h0.26459z"/>
  <path d="m6.3497 73.029h-0.26459v-0.26459h0.26459z"/>
  <path d="m6.0847 72.764h-0.26459v-0.26459h0.26459z"/>
  <path d="m5.8207 72.5h-0.26459v-0.26459h0.26459z"/>
  <path d="m5.557 72.236h-0.26459v-0.26459h0.26459z"/>
  <path d="m5.292 71.971h-0.26459v-0.26459h0.26459z"/>
  <path d="m5.028 71.706h-0.26459v-0.26459h0.26459z"/>
  <path d="m4.763 71.442h-0.26459v-0.26459h0.26459z"/>
  <path d="m4.498 71.177h-0.26459v-0.26459h0.26459z"/>
  <path d="m4.234 70.913h-0.26459v-0.26459h0.26459z"/>
  <path d="m10.054 99.224h-0.26459v-0.26459h0.26459z"/>
  <path d="m9.7899 98.959h-0.26459v-0.26459h0.26459z"/>
  <path d="m9.5253 98.695h-0.26459v-0.26459h0.26459z"/>
  <path d="m9.2607 98.43h-0.26459v-0.26459h0.26459z"/>
  <path d="m8.9961 98.165h-0.26459v-0.26459h0.26459z"/>
  <path d="m8.7315 97.901h-0.26459v-0.26459h0.26459z"/>
  <path d="m8.4669 97.636h-0.26459v-0.26459h0.26459z"/>
  <path d="m8.2019 97.372h-0.26459v-0.26459h0.26459z"/>
  <path d="m7.9379 97.107h-0.26459v-0.26459h0.26459z"/>
  <path d="m7.6729 96.843h-0.26459v-0.26459h0.26459z"/>
  <path d="m7.4089 96.578h-0.26459v-0.26459h0.26459z"/>
  <path d="m7.1439 96.313h-0.26459v-0.26459h0.26459z"/>
  <path d="m6.8799 96.048h-0.26459v-0.26459h0.26459z"/>
  <path d="m6.6149 95.784h-0.26459v-0.26459h0.26459z"/>
  <path d="m6.3499 95.519h-0.26459v-0.26459h0.26459z"/>
  <path d="m6.0859 95.255h-0.26459v-0.26459h0.26459z"/>
  <path d="m5.8209 94.99h-0.26459v-0.26459h0.26459z"/>
  <path d="m5.5569 94.725h-0.26459v-0.26459h0.26459z"/>
  <path d="m5.2919 94.461h-0.26459v-0.26459h0.26459z"/>
  <path d="m5.0269 94.196h-0.26459v-0.26459h0.26459z"/>
  <path d="m4.7629 93.932h-0.26459v-0.26459h0.26459z"/>
  <path d="m4.4979 93.667h-0.26459v-0.26459h0.26459z"/>
  <path d="m4.2319 93.403h-0.26459v-0.26459h0.26459z"/>
  <path d="m3.9679 93.138h-0.26459v-0.26459h0.26459z"/>
  <path d="m3.7029 92.874h-0.26459v-0.26459h0.26459z"/>
  <path d="m3.4379 92.609h-0.26459v-0.26459h0.26459z"/>
  <path d="m3.1739 92.345h-0.26459v-0.26459h0.26459z"/>
  <path d="m2.9089 92.08h-0.26459v-0.26459h0.26459z"/>
  <path d="m2.6449 91.815h-0.26459v-0.26459h0.26459z"/>
  <path d="m2.3799 91.551h-0.26459v-0.26459h0.26459z"/>
  <path d="m2.1149 91.286h-0.26459v-0.26459h0.26459z"/>
  <path d="m1.8509 91.022h-0.26459v-0.26459h0.26459z"/>
  <path d="m1.5872 90.757h-0.26459v-0.26459h0.26459z"/>
  <path d="m1.3222 90.492h-0.26459v-0.26459h0.26459z"/>
  <path d="m1.0582 90.227h-0.26459v-0.26459h0.26459z"/>
  <path d="m0.79321 89.963h-0.26459v-0.26459h0.26459z"/>
  <path d="m0.52821 89.698h-0.26459v-0.26459h0.26459z"/>
  <path d="m0.26421 89.434h-0.26459v-0.26459h0.26459z"/>
  <path d="m3.969 70.648h-0.26459v-0.26459h0.26459z"/>
  <path d="m3.705 70.383h-0.26459v-0.26459h0.26459z"/>
  <path d="m3.44 70.119h-0.26459v-0.26459h0.26459z"/>
  <path d="m3.175 69.854h-0.26459v-0.26459h0.26459z"/>
  <path d="m2.911 69.59h-0.26459v-0.26459h0.26459z"/>
  <path d="m2.646 69.325h-0.26459v-0.26459h0.26459z"/>
  <path d="m2.38 69.061h-0.26459v-0.26459h0.26459z"/>
  <path d="m2.116 68.796h-0.26459v-0.26459h0.26459z"/>
  <path d="m1.851 68.532h-0.26459v-0.26459h0.26459z"/>
  <path d="m1.586 68.267h-0.26459v-0.26459h0.26459z"/>
  <path d="m1.322 68.003h-0.26459v-0.26459h0.26459z"/>
  <path d="m1.057 67.738h-0.26459v-0.26459h0.26459z"/>
  <path d="m0.79302 67.473h-0.26459v-0.26459h0.26459z"/>
  <path d="m0.52802 67.209h-0.26459v-0.26459h0.26459z"/>
  <path d="m0.26302 66.944h-0.26459v-0.26459h0.26459z"/>
  <path d="m22.227 88.904h-0.2646v-22.227h0.2646z"/>
  <path d="m7.1443 37.043h-0.26459v0.26459h0.26459z"/>
  <path d="m7.6735 36.514h-0.26459v0.26459h0.26459z"/>
  <path d="m7.4089 36.778h-0.26459v0.26459h0.26459z"/>
  <path d="m7.9384 36.248h-0.26459v0.26459h0.26459z"/>
  <path d="m9.5257 34.66h-0.26459v0.26459h0.26459z"/>
  <path d="m9.2611 34.925h-0.26459v0.26459h0.26459z"/>
  <path d="m8.9964 35.19h-0.26459v0.26459h0.26459z"/>
  <path d="m8.7314 35.454h-0.26459v0.26459h0.26459z"/>
  <path d="m8.4674 35.719h-0.26459v0.26459h0.26459z"/>
  <path d="m9.2611 34.66h0.26459v0.26459h-0.26459z"/>
  <path d="m8.2024 35.983h-0.26459v0.26459h0.26459z"/>
  <path d="m10.849 33.338h-0.26459v0.26459h0.26459z"/>
  <path d="m10.584 33.602h-0.26459v0.26459h0.26459z"/>
  <path d="m10.319 33.867h-0.26459v0.26459h0.26459z"/>
  <path d="m10.055 34.132h-0.26459v0.26459h0.26459z"/>
  <path d="m9.7903 34.396h-0.26459v0.26459h0.26459z"/>
  <path d="m12.17 99.223h0.26459v-0.26459h-0.26459z"/>
  <path d="m12.435 98.959h0.26459v-0.26458h-0.26459z"/>
  <path d="m12.7 98.694h0.26459v-0.2646h-0.26459z"/>
  <path d="m12.964 98.43h0.26459v-0.26459h-0.26459z"/>
  <path d="m13.229 98.165h0.26459v-0.26459h-0.26459z"/>
  <path d="m11.113 100.28h0.26459v-0.26458h-0.26459z"/>
  <path d="m11.378 100.02h0.26459v-0.2646h-0.26459z"/>
  <path d="m11.643 99.753h0.26459v-0.26459h-0.26459z"/>
  <path d="m11.907 99.489h0.26459v-0.26459h-0.26459z"/>
  <path d="m11.113 100.28h-0.26459v-0.26458h0.26459z"/>
  <path d="m10.849 100.02h-0.26459v-0.2646h0.26459z"/>
  <path d="m10.584 99.753h-0.26459v-0.26459h0.26459z"/>
  <path d="m10.32 99.489h-0.26459v-0.2646h0.26459z"/>
  <path d="m13.493 97.901h0.26459v-0.26459h-0.26459z"/>
  <path d="m13.758 97.636h0.26459v-0.26459h-0.26459z"/>
  <path d="m14.023 97.372h0.26459v-0.2646h-0.26459z"/>
  <path d="m14.287 97.107h0.26459v-0.26459h-0.26459z"/>
  <path d="m14.552 96.843h0.26459v-0.26459h-0.26459z"/>
  <path d="m14.816 96.578h0.26459v-0.26459h-0.26459z"/>
  <path d="m15.081 96.313h0.26459v-0.26458h-0.26459z"/>
  <path d="m15.345 96.048h0.26459v-0.26459h-0.26459z"/>
  <path d="m15.61 95.784h0.26459v-0.26459h-0.26459z"/>
  <path d="m15.875 95.519h0.26459v-0.26459h-0.26459z"/>
  <path d="m16.139 95.255h0.26459v-0.26459h-0.26459z"/>
  <path d="m16.404 94.99h0.26459v-0.26459h-0.26459z"/>
  <path d="m16.668 94.725h0.26459v-0.26459h-0.26459z"/>
  <path d="m16.933 94.461h0.26459v-0.26459h-0.26459z"/>
  <path d="m17.198 94.196h0.26459v-0.26459h-0.26459z"/>
  <path d="m17.462 93.932h0.26459v-0.26459h-0.26459z"/>
  <path d="m17.727 93.667h0.26459v-0.26459h-0.26459z"/>
  <path d="m17.993 93.403h0.26459v-0.26459h-0.26459z"/>
  <path d="m18.257 93.138h0.26459v-0.26459h-0.26459z"/>
  <path d="m18.522 92.874h0.26459v-0.26459h-0.26459z"/>
  <path d="m18.787 92.609h0.26459v-0.26459h-0.26459z"/>
  <path d="m19.051 92.345h0.26459v-0.26459h-0.26459z"/>
  <path d="m19.316 92.08h0.26459v-0.26459h-0.26459z"/>
  <path d="m19.58 91.815h0.26459v-0.26459h-0.26459z"/>
  <path d="m19.845 91.551h0.26459v-0.26459h-0.26459z"/>
  <path d="m20.11 91.286h0.26459v-0.26459h-0.26459z"/>
  <path d="m20.374 91.022h0.26459v-0.26459h-0.26459z"/>
  <path d="m20.638 90.757h0.26459v-0.26459h-0.26459z"/>
  <path d="m20.903 90.492h0.26459v-0.26459h-0.26459z"/>
  <path d="m21.167 90.227h0.26459v-0.26459h-0.26459z"/>
  <path d="m21.432 89.963h0.26459v-0.26459h-0.26459z"/>
  <path d="m21.697 89.698h0.26459v-0.26459h-0.26459z"/>
  <path d="m21.961 89.434h0.26459v-0.26459h-0.26459z"/>
 </g>
 <g transform="translate(5.5571 28.046)" fill="#fff">
  <g transform="translate(-.52921 .26457)">
   <path d="m2.4095e-7 10.848h12.172v0.26459h-12.172z"/>
   <path d="m-1.0584 11.906h14.289v0.26459h-14.289z"/>
   <path d="m-1.3232 12.171h14.818v0.26459h-14.818z"/>
   <path d="m-1.5878 12.436h15.347v0.26459h-15.347z"/>
   <path d="m-1.8524 12.7h15.876v0.26459h-15.876z"/>
   <path d="m-2.117 12.965h16.405v0.26459h-16.405z"/>
   <path d="m-2.3816 13.23h16.935v0.26459h-16.935z"/>
   <path d="m-2.6464 13.494h17.464v0.26459h-17.464z"/>
   <path d="m-2.911 13.759h17.993v0.26459h-17.993z"/>
   <path d="m-3.1756 14.023h18.522v0.26459h-18.522z"/>
   <path d="m-3.4402 14.288h19.051v0.26459h-19.051z"/>
   <path d="m-3.7048 14.553h19.581v0.26459h-19.581z"/>
   <path d="m-3.9695 14.817h20.11v0.26459h-20.11z"/>
   <path d="m-4.2341 15.082h20.639v0.26459h-20.639z"/>
   <path d="m-4.4987 15.346h21.168v0.26459h-21.168z"/>
   <path d="m-4.7633 15.611h21.697v0.26459h-21.697z"/>
   <path d="m-5.0279 15.876h22.227v0.26459h-22.227z"/>
   <path d="m0.26459 10.583h11.643v0.26459h-11.643z"/>
   <path d="m0.52918 10.319h11.113v0.26459h-11.113z"/>
   <path d="m0.79377 10.054h10.584v0.26459h-10.584z"/>
   <path d="m1.0584 9.7896h10.055v0.26459h-10.055z"/>
   <path d="m1.3229 9.5251h9.5257v0.26459h-9.5257z"/>
   <path d="m1.5875 9.2605h8.9965v0.26459h-8.9965z"/>
   <path d="m1.8521 8.9959h8.4673v0.26459h-8.4673z"/>
   <path d="m2.1167 8.7313h7.9381v0.26459h-7.9381z"/>
   <path d="m2.3813 8.4667h7.4089v0.26459h-7.4089z"/>
   <path d="m2.6459 8.2021h6.8797v0.26459h-6.8797z"/>
   <path d="m2.9104 7.9375h6.3505v0.26459h-6.3505z"/>
   <path d="m3.175 7.673h5.8213v0.26459h-5.8213z"/>
   <path d="m-0.79383 11.642h13.759v0.26459h-13.759z"/>
   <path d="m-0.52906 11.377h13.23v0.26459h-13.23z"/>
   <path d="m-0.26437 11.113h12.701v0.26459h-12.701z"/>
  </g>
  <g>
   <path d="m3.1751 7.4083h4.7629v0.26459h-4.7629z"/>
   <path d="m2.9105 7.6729h5.2921v0.26459h-5.2921z"/>
   <path d="m3.4397 7.1437h4.2337v0.26459h-4.2337z"/>
   <path d="m3.7043 6.8791h3.7044v0.26459h-3.7044z"/>
   <path d="m4.2335 6.3499h2.646v0.26459h-2.646z"/>
   <path d="m3.9689 6.6145h3.1752v0.26459h-3.1752z"/>
   <path d="m4.4981 6.0853h2.1168v0.26459h-2.1168z"/>
  </g>
  <path d="m4.7626 5.8207h1.5876v0.26459h-1.5876z"/>
  <path d="m5.0272 5.5561h1.0584v0.26459h-1.0584z"/>
  <path d="m5.2918 5.2915h0.52921v0.26459h-0.52921z"/>
 </g>
 <g transform="matrix(1 0 0 -1 5.557 105.31)" fill="#fff">
  <g transform="translate(-.52921 .26457)">
   <path d="m2.4095e-7 10.848h12.172v0.26459h-12.172z"/>
   <path d="m-1.0584 11.906h14.289v0.26459h-14.289z"/>
   <path d="m-1.3232 12.171h14.818v0.26459h-14.818z"/>
   <path d="m-1.5878 12.436h15.347v0.26459h-15.347z"/>
   <path d="m-1.8524 12.7h15.876v0.26459h-15.876z"/>
   <path d="m-2.117 12.965h16.405v0.26459h-16.405z"/>
   <path d="m-2.3816 13.23h16.935v0.26459h-16.935z"/>
   <path d="m-2.6464 13.494h17.464v0.26459h-17.464z"/>
   <path d="m-2.911 13.759h17.993v0.26459h-17.993z"/>
   <path d="m-3.1756 14.023h18.522v0.26459h-18.522z"/>
   <path d="m-3.4402 14.288h19.051v0.26459h-19.051z"/>
   <path d="m-3.7048 14.553h19.581v0.26459h-19.581z"/>
   <path d="m-3.9695 14.817h20.11v0.26459h-20.11z"/>
   <path d="m-4.2341 15.082h20.639v0.26459h-20.639z"/>
   <path d="m-4.4987 15.346h21.168v0.26459h-21.168z"/>
   <path d="m-4.7633 15.611h21.697v0.26459h-21.697z"/>
   <path d="m-5.0279 15.876h22.227v0.26459h-22.227z"/>
   <path d="m0.26459 10.583h11.643v0.26459h-11.643z"/>
   <path d="m0.52918 10.319h11.113v0.26459h-11.113z"/>
   <path d="m0.79377 10.054h10.584v0.26459h-10.584z"/>
   <path d="m1.0584 9.7896h10.055v0.26459h-10.055z"/>
   <path d="m1.3229 9.5251h9.5257v0.26459h-9.5257z"/>
   <path d="m1.5875 9.2605h8.9965v0.26459h-8.9965z"/>
   <path d="m1.8521 8.9959h8.4673v0.26459h-8.4673z"/>
   <path d="m2.1167 8.7313h7.9381v0.26459h-7.9381z"/>
   <path d="m2.3813 8.4667h7.4089v0.26459h-7.4089z"/>
   <path d="m2.6459 8.2021h6.8797v0.26459h-6.8797z"/>
   <path d="m2.9104 7.9375h6.3505v0.26459h-6.3505z"/>
   <path d="m3.175 7.673h5.8213v0.26459h-5.8213z"/>
   <path d="m-0.79383 11.642h13.759v0.26459h-13.759z"/>
   <path d="m-0.52906 11.377h13.23v0.26459h-13.23z"/>
   <path d="m-0.26437 11.113h12.701v0.26459h-12.701z"/>
  </g>
  <g>
   <path d="m3.1751 7.4083h4.7629v0.26459h-4.7629z"/>
   <path d="m2.9105 7.6729h5.2921v0.26459h-5.2921z"/>
   <path d="m3.4397 7.1437h4.2337v0.26459h-4.2337z"/>
   <path d="m3.7043 6.8791h3.7044v0.26459h-3.7044z"/>
   <path d="m4.2335 6.3499h2.646v0.26459h-2.646z"/>
   <path d="m3.9689 6.6145h3.1752v0.26459h-3.1752z"/>
   <path d="m4.4981 6.0853h2.1168v0.26459h-2.1168z"/>
  </g>
  <path d="m4.7626 5.8207h1.5876v0.26459h-1.5876z"/>
  <path d="m5.0272 5.5561h1.0584v0.26459h-1.0584z"/>
  <path d="m5.2918 5.2915h0.52921v0.26459h-0.52921z"/>
 </g>
</svg>
