<?xml version="1.0" encoding="UTF-8"?>
<svg id="bitmap:16-32" width="16" height="64" version="1.1" viewBox="0 0 4.2333 16.933" xmlns="http://www.w3.org/2000/svg">
 <g stroke-width=".26458">
  <path d="m1.6356 2.7327-0.63138-0.66342-0.21047 0.22115 0.84183 0.88455 1.804-1.8955-0.21047-0.22115z" stroke-width=".26458"/>
  <path d="m1.6356 6.9659-0.63138-0.66342-0.21047 0.22115 0.84183 0.88455 1.804-1.8955-0.21047-0.22115z" fill="#aeaeae" stroke-width=".26458"/>
  <path d="m2.9104 14.816a0.79374 0.79374 0 0 1-0.79374 0.79374 0.79374 0.79374 0 0 1-0.79374-0.79374 0.79374 0.79374 0 0 1 0.79374-0.79374 0.79374 0.79374 0 0 1 0.79374 0.79374z" fill="#aeaeae"/>
  <path d="m2.9104 10.583a0.79374 0.79374 0 0 1-0.79374 0.79374 0.79374 0.79374 0 0 1-0.79374-0.79374 0.79374 0.79374 0 0 1 0.79374-0.79374 0.79374 0.79374 0 0 1 0.79374 0.79374z"/>
 </g>
</svg>
