<?xml version="1.0" encoding="UTF-8"?>
<svg id="bitmap:28-32" width="28" height="336" fill="#000000" version="1.1" viewBox="0 0 28 336" xmlns="http://www.w3.org/2000/svg" xmlns:cc="http://creativecommons.org/ns#" xmlns:dc="http://purl.org/dc/elements/1.1/" xmlns:rdf="http://www.w3.org/1999/02/22-rdf-syntax-ns#">
 <metadata>
  <rdf:RDF>
   <cc:Work rdf:about="">
    <dc:format>image/svg+xml</dc:format>
    <dc:type rdf:resource="http://purl.org/dc/dcmitype/StillImage"/>
   </cc:Work>
  </rdf:RDF>
 </metadata>
 <rect width="28" height="336" fill="#fff" fill-opacity=".98444"/>
 <rect x=".99999" y="1" width="26" height="26" rx="2" ry="2" fill="none" stroke="#aeaeae" stroke-width="2"/>
 <path d="m10.045 130.87-4.534-4.7014-1.5114 1.5672 6.0454 6.2686 12.955-13.433-1.5114-1.5672z"/>
 <path d="m4 237h20v2h-20z"/>
 <g transform="matrix(1.1398 0 0 1.1208 -.13981 -.12081)" fill="none" stroke-width="1.7695">
  <rect x="1.0074" y="25.975" width="22.796" height="23.213" rx="1.7547" ry="1.7844" stroke="#3096fa"/>
  <rect x="1.0074" y="50.957" width="22.796" height="23.213" rx="1.7547" ry="1.7844" stroke="#2979ff"/>
  <rect x="1.0074" y="75.939" width="22.796" height="23.213" rx="1.7547" ry="1.7844" stroke="#aeaeae"/>
  <rect x="1.0074" y="100.92" width="22.811" height="23.198" rx="1.7547" ry="1.7844" fill="none" stroke="#aeaeae"/>
  <rect x="1.0148" y="125.9" width="22.796" height="23.213" rx="1.7547" ry="1.7844" stroke="#3096fa"/>
  <rect x="1.0148" y="150.88" width="22.796" height="23.213" rx="1.7547" ry="1.7844" stroke="#2979ff"/>
  <rect x="1.0148" y="175.86" width="22.796" height="23.213" rx="1.7547" ry="1.7844" stroke="#aeaeae"/>
 </g>
 <g transform="matrix(1.1304 0 0 1.1208 -.13044 -.12081)" stroke-width=".78927">
  <path d="m9.0017 141.85-4.0109-4.1947-1.337 1.3983 5.3479 5.593 11.46-11.985-1.337-1.3983z" fill="#3096fa"/>
  <path d="m9.0017 166.83-4.0109-4.1947-1.337 1.3983 5.3479 5.593 11.46-11.985-1.337-1.3983z" fill="#2979ff"/>
  <path d="m9.0017 191.81-4.0109-4.1947-1.337 1.3983 5.3479 5.593 11.46-11.985-1.337-1.3983z" fill="#aeaeae"/>
 </g>
 <g transform="matrix(1.1304 0 0 1.1208 -.13044 -.12081)" fill="none" stroke-width="1.7768">
  <rect x="1.0038" y="200.85" width="23" height="23.198" rx="1.7692" ry="1.7844" fill="none" stroke="#aeaeae"/>
  <rect x="1.0113" y="225.83" width="22.985" height="23.213" rx="1.7692" ry="1.7844" stroke="#3096fa"/>
  <rect x="1.0113" y="250.81" width="22.985" height="23.213" rx="1.7692" ry="1.7844" stroke="#2979ff"/>
  <rect x="1.0113" y="275.79" width="22.985" height="23.213" rx="1.7692" ry="1.7844" stroke="#aeaeae"/>
 </g>
 <g transform="matrix(1.1765 0 0 1.1208 -.70588 -.12081)" stroke-width=".77367">
  <path d="m4 236.54h17v1.7844h-17z" fill="#3096fa"/>
  <path d="m4 261.53h17v1.7844h-17z" fill="#2979ff"/>
  <path d="m4 286.51h17v1.7844h-17z" fill="#aeaeae"/>
 </g>
</svg>
