<?xml version="1.0" encoding="UTF-8"?>
<svg id="bitmap:9-32" width="9" height="44" version="1.1" viewBox="0 0 2.3812 11.642" xmlns="http://www.w3.org/2000/svg" xmlns:cc="http://creativecommons.org/ns#" xmlns:dc="http://purl.org/dc/elements/1.1/" xmlns:rdf="http://www.w3.org/1999/02/22-rdf-syntax-ns#">
 <metadata>
  <rdf:RDF>
   <cc:Work rdf:about="">
    <dc:format>image/svg+xml</dc:format>
    <dc:type rdf:resource="http://purl.org/dc/dcmitype/StillImage"/>
   </cc:Work>
  </rdf:RDF>
 </metadata>
 <path d="m0.95762 1.615 1.1474-1.1816-0.16391-0.1688-1.1474 1.1816z" stroke-width=".26458"/>
 <path d="m0.80542 1.4642 1.1474 1.1816 0.16391-0.1688-1.1474-1.1816z" stroke-width=".26458"/>
 <g transform="matrix(-.99786 0 0 1 2.3807 0)" stroke-width=".22962">
  <path d="m1.426 4.5254-1.1498-1.1816 0.16426-0.16881 1.1498 1.1816z" fill="#3096fa"/>
  <path d="m1.5786 4.3746-1.1498 1.1816-0.16426-0.16881 1.1498-1.1816z" fill="#3096fa"/>
  <path d="m1.426 7.4358-1.1498-1.1816 0.16426-0.16881 1.1498 1.1816z" fill="#fff"/>
  <path d="m1.5786 7.285-1.1498 1.1816-0.16426-0.16881 1.1498-1.1816z" fill="#fff"/>
  <path d="m1.426 10.346-1.1498-1.1815 0.16426-0.16879 1.1498 1.1815z" fill="#aeaeae"/>
  <path d="m1.5786 10.196-1.1498 1.1815-0.16426-0.16879 1.1498-1.1815z" fill="#aeaeae"/>
 </g>
</svg>
