<?xml version="1.0" encoding="UTF-8"?>
<svg id="bitmap:10-32" width="10" height="27" version="1.1" viewBox="0 0 2.6458 7.144" xmlns="http://www.w3.org/2000/svg" xmlns:cc="http://creativecommons.org/ns#" xmlns:dc="http://purl.org/dc/elements/1.1/" xmlns:rdf="http://www.w3.org/1999/02/22-rdf-syntax-ns#">
 <metadata>
  <rdf:RDF>
   <cc:Work rdf:about="">
    <dc:format>image/svg+xml</dc:format>
    <dc:type rdf:resource="http://purl.org/dc/dcmitype/StillImage"/>
   </cc:Work>
  </rdf:RDF>
 </metadata>
 <g fill="#aeaeae" stroke-width=".26458">
  <path d="m2.5475 1.6941-0.6885-0.78776 0.098356-0.11254 0.6885 0.78776z"/>
  <path d="m2.6389 1.5936-0.6885 0.78776-0.098356-0.11254 0.6885-0.78776z"/>
  <path d="m1.4891 1.6941-0.6885-0.78776 0.098356-0.11254 0.6885 0.78776z"/>
  <path d="m1.5806 1.5936-0.6885 0.78776-0.098356-0.11254 0.6885-0.78776z"/>
 </g>
 <g transform="matrix(1 0 0 .75003 0 .6614)" fill="#3096fa" stroke-width=".3055">
  <path d="m2.5475 4.5518-0.6885-1.0503 0.098356-0.15005 0.6885 1.0503z"/>
  <path d="m2.6389 4.4178-0.6885 1.0503-0.098356-0.15005 0.6885-1.0503z"/>
  <path d="m1.4891 4.5518-0.6885-1.0503 0.098356-0.15005 0.6885 1.0503z"/>
  <path d="m1.5806 4.4178-0.6885 1.0503-0.098356-0.15005 0.6885-1.0503z"/>
 </g>
 <g transform="matrix(1 0 0 .75 0 1.2568)" fill="#2979ff" stroke-width=".30551">
  <path d="m2.5475 6.9332-0.6885-1.0503 0.098356-0.15005 0.6885 1.0503z"/>
  <path d="m2.6389 6.7993-0.6885 1.0503-0.098356-0.15005 0.6885-1.0503z"/>
  <path d="m1.4891 6.9332-0.6885-1.0503 0.098356-0.15005 0.6885 1.0503z"/>
  <path d="m1.5806 6.7993-0.6885 1.0503-0.098356-0.15005 0.6885-1.0503z"/>
 </g>
</svg>
