<?xml version="1.0" encoding="UTF-8"?>
<svg id="bitmap:37-32" width="37" height="185" version="1.1" viewBox="0 0 9.7896 48.949" xmlns="http://www.w3.org/2000/svg" xmlns:cc="http://creativecommons.org/ns#" xmlns:dc="http://purl.org/dc/elements/1.1/" xmlns:rdf="http://www.w3.org/1999/02/22-rdf-syntax-ns#">
 <metadata>
  <rdf:RDF>
   <cc:Work rdf:about="">
    <dc:format>image/svg+xml</dc:format>
    <dc:type rdf:resource="http://purl.org/dc/dcmitype/StillImage"/>
    <dc:title/>
   </cc:Work>
  </rdf:RDF>
 </metadata>
 <g transform="matrix(1.25 0 0 1.25 -.066217 -1.3229)" stroke-width=".16933">
  <path d="m4.7625 2.9633-0.37306 0.40505 1.2118 1.3185h-4.2783v0.57455h4.2783l-1.2144 1.3185 0.37571 0.40505 1.8521-2.0109z" fill="#3096fa"/>
  <path d="m4.7625 10.795-0.37306 0.40505 1.2118 1.3185h-4.2783v0.57455h4.2783l-1.2144 1.3185 0.37571 0.40505 1.8521-2.0109z" fill="#3096fa"/>
  <path d="m4.7625 18.627-0.37306 0.40505 1.2118 1.3185h-4.2783v0.57455h4.2783l-1.2144 1.3185 0.37571 0.40505 1.8521-2.0109z" fill="#2979ff"/>
  <path d="m4.7625 26.459-0.37306 0.40505 1.2118 1.3185h-4.2783v0.57455h4.2783l-1.2144 1.3185 0.37571 0.40505 1.8521-2.0109z" fill="#aeaeae"/>
  <path d="m4.7625 34.29-0.37306 0.40505 1.2118 1.3185h-4.2783v0.57455h4.2783l-1.2144 1.3185 0.37571 0.40505 1.8521-2.0109z" fill="#3096fa"/>
 </g>
</svg>
