<?xml version="1.0" encoding="UTF-8"?>
<svg id="bitmap:19-32" width="19" height="152" version="1.1" viewBox="0 0 5.0271 40.217" xmlns="http://www.w3.org/2000/svg">
 <g fill="none">
  <g stroke-width=".26458">
   <rect x=".92603" y="1.7198" width="2.3813" height="2.3813" stroke="#aeaeae"/>
   <rect x=".92603" y="6.7469" width="2.3813" height="2.3813" stroke="#3096fa"/>
   <rect x=".92603" y="11.774" width="2.3813" height="2.3813" stroke="#2979ff"/>
  </g>
  <rect transform="scale(-1,1)" x="-4.2334" y=".79375" width="2.6459" height=".26459" fill="#aeaeae" stroke-width=".23932"/>
  <rect transform="scale(-1,1)" x="-4.2334" y="1.0583" width=".26459" height="2.3813" fill="#aeaeae" stroke-width=".23932"/>
  <rect x=".92603" y="16.801" width="2.3813" height="2.3813" stroke="#aeaeae" stroke-width=".26458"/>
  <g stroke-width=".23932">
   <rect transform="scale(-1,1)" x="-4.2334" y="15.875" width="2.6459" height=".26459" fill="#aeaeae"/>
   <rect transform="scale(-1,1)" x="-4.2334" y="16.14" width=".26459" height="2.3813" fill="#aeaeae"/>
   <rect transform="scale(-1,1)" x="-4.2334" y="5.8209" width="2.6459" height=".26459" fill="#3096fa"/>
   <rect transform="scale(-1,1)" x="-4.2334" y="6.0855" width=".26459" height="2.3813" fill="#3096fa"/>
   <rect transform="scale(-1,1)" x="-4.2334" y="10.848" width="2.6459" height=".26459" fill="#2979ff"/>
   <rect transform="scale(-1,1)" x="-4.2334" y="11.113" width=".26459" height="2.3813" fill="#2979ff"/>
  </g>
  <g transform="translate(4.1044e-6 20.109)" stroke-width=".26458">
   <rect x=".92603" y="1.7198" width="2.3813" height="2.3813" stroke="#aeaeae"/>
   <rect x=".92603" y="6.7469" width="2.3813" height="2.3813" stroke="#3096fa"/>
   <rect x=".92603" y="11.774" width="2.3813" height="2.3813" stroke="#2979ff"/>
  </g>
  <rect transform="scale(-1,1)" x="-4.2334" y="20.902" width="2.6459" height=".26459" fill="#aeaeae" stroke-width=".23932"/>
  <rect transform="scale(-1,1)" x="-4.2334" y="21.167" width=".26459" height="2.3813" fill="#aeaeae" stroke-width=".23932"/>
  <rect x=".92604" y="36.91" width="2.3813" height="2.3813" stroke="#aeaeae" stroke-width=".26458"/>
  <g stroke-width=".23932">
   <rect transform="scale(-1,1)" x="-4.2334" y="35.984" width="2.6459" height=".26459" fill="#aeaeae"/>
   <rect transform="scale(-1,1)" x="-4.2334" y="36.248" width=".26459" height="2.3813" fill="#aeaeae"/>
   <g transform="translate(4.1044e-6 20.109)">
    <rect transform="scale(-1,1)" x="-4.2334" y="5.8209" width="2.6459" height=".26459" fill="#3096fa"/>
    <rect transform="scale(-1,1)" x="-4.2334" y="6.0855" width=".26459" height="2.3813" fill="#3096fa"/>
    <rect transform="scale(-1,1)" x="-4.2334" y="10.848" width="2.6459" height=".26459" fill="#2979ff"/>
    <rect transform="scale(-1,1)" x="-4.2334" y="11.113" width=".26459" height="2.3813" fill="#2979ff"/>
   </g>
  </g>
 </g>
</svg>
