<?xml version="1.0" encoding="UTF-8"?>
<svg id="bitmap:18-32" width="18" height="72" version="1.1" viewBox="0 0 4.7625 19.05" xmlns="http://www.w3.org/2000/svg">
 <path d="m1.6236 3.1513-0.82079-0.82928-0.27361 0.27644 1.0944 1.1057 2.3452-2.3694-0.27361-0.27644z" stroke-width=".26458"/>
 <path d="m1.6236 7.9374-0.82079-0.82928-0.27361 0.27644 1.0944 1.1057 2.3452-2.3694-0.27361-0.27644z" fill="#aeaeae" stroke-width=".26458"/>
 <path d="m3.4396 16.669a1.0583 1.0583 0 0 1-1.0583 1.0583 1.0583 1.0583 0 0 1-1.0583-1.0583 1.0583 1.0583 0 0 1 1.0583-1.0583 1.0583 1.0583 0 0 1 1.0583 1.0583z" fill="#aeaeae" stroke-width=".26458"/>
 <path d="m3.4396 11.906a1.0583 1.0583 0 0 1-1.0583 1.0583 1.0583 1.0583 0 0 1-1.0583-1.0583 1.0583 1.0583 0 0 1 1.0583-1.0583 1.0583 1.0583 0 0 1 1.0583 1.0583z" stroke-width=".26458"/>
</svg>
