<?xml version="1.0" encoding="UTF-8"?>
<svg id="bitmap:18-32" width="18" height="60" version="1.1" viewBox="0 0 4.7624 15.875" xmlns="http://www.w3.org/2000/svg" xmlns:cc="http://creativecommons.org/ns#" xmlns:dc="http://purl.org/dc/elements/1.1/" xmlns:rdf="http://www.w3.org/1999/02/22-rdf-syntax-ns#">
 <metadata>
  <rdf:RDF>
   <cc:Work rdf:about="">
    <dc:format>image/svg+xml</dc:format>
    <dc:type rdf:resource="http://purl.org/dc/dcmitype/StillImage"/>
   </cc:Work>
  </rdf:RDF>
 </metadata>
 <g stroke-width=".26458">
  <path d="m2.3918 1.0746 1.5769 1.6063-0.22528 0.22946-1.5769-1.6063z"/>
  <path d="m0.79371 2.6647 1.5769-1.6063 0.22528 0.22946-1.5769 1.6063z"/>
  <path d="m2.3918 5.0434 1.5769 1.6063-0.22528 0.22946-1.5769-1.6063z" fill="#3096fa"/>
  <path d="m0.79371 6.6334 1.5769-1.6063 0.22528 0.22946-1.5769 1.6063z" fill="#3096fa"/>
  <path d="m2.3918 9.0119 1.5769 1.6065-0.22528 0.22948-1.5769-1.6065z" fill="#fff"/>
  <path d="m0.79371 10.602 1.5769-1.6065 0.22528 0.22948-1.5769 1.6065z" fill="#fff"/>
  <path d="m2.3918 12.981 1.5769 1.6064-0.22528 0.22947-1.5769-1.6064z" fill="#aeaeae"/>
  <path d="m0.79371 14.571 1.5769-1.6064 0.22528 0.22947-1.5769 1.6064z" fill="#aeaeae"/>
 </g>
</svg>
