<?xml version="1.0" encoding="UTF-8"?>
<svg id="bitmap:67-32" width="67" height="335" version="1.1" viewBox="0 0 17.727 88.637" xmlns="http://www.w3.org/2000/svg" xmlns:cc="http://creativecommons.org/ns#" xmlns:dc="http://purl.org/dc/elements/1.1/" xmlns:rdf="http://www.w3.org/1999/02/22-rdf-syntax-ns#">
 <metadata>
  <rdf:RDF>
   <cc:Work rdf:about="">
    <dc:format>image/svg+xml</dc:format>
    <dc:type rdf:resource="http://purl.org/dc/dcmitype/StillImage"/>
    <dc:title/>
   </cc:Work>
  </rdf:RDF>
 </metadata>
 <g transform="matrix(2.3333 0 0 2.3333 -.17651 -.1764)" stroke-width=".048596">
  <path d="m4.6737 2.0033-0.37573 0.37688 1.2205 1.2268h-4.3089v0.53459h4.3089l-1.2231 1.2268 0.3784 0.37688 1.8653-1.8711z" fill="#3096fa"/>
  <path d="m4.6737 9.6007-0.37573 0.37688 1.2205 1.2268h-4.3089v0.53459h4.3089l-1.2231 1.2268 0.3784 0.37688 1.8653-1.8711z" fill="#3096fa"/>
  <path d="m4.6737 17.198-0.37573 0.37688 1.2205 1.2268h-4.3089v0.53459h4.3089l-1.2231 1.2268 0.3784 0.37688 1.8653-1.8711z" fill="#2979ff"/>
  <path d="m4.6737 24.796-0.37573 0.37688 1.2205 1.2268h-4.3089v0.53459h4.3089l-1.2231 1.2268 0.3784 0.37688 1.8653-1.8711z" fill="#aeaeae"/>
  <path d="m4.6738 32.393-0.37573 0.37688 1.2205 1.2268h-4.3089v0.53459h4.3089l-1.2231 1.2268 0.3784 0.37688 1.8653-1.8711z" fill="#3096fa"/>
 </g>
</svg>
