<?xml version="1.0" encoding="UTF-8"?>
<svg id="bitmap:8-32" width="8" height="14" version="1.1" viewBox="0 0 2.1167 3.7042" xmlns="http://www.w3.org/2000/svg">
 <g>
  <path d="m1.1918 1.0503-0.91792-0.91901 0.13113-0.13129 0.91792 0.91901z"/>
  <path d="m1.3136 0.93309-0.91792 0.91901-0.13113-0.13129 0.91792-0.91901z"/>
  <path d="m1.9856 1.0503-0.91792-0.91901 0.13113-0.13129 0.91792 0.91901z"/>
  <path d="m2.1074 0.93309-0.91792 0.91901-0.13113-0.13129 0.91792-0.91901z"/>
  <path d="m1.1918 2.9024-0.91792-0.91901 0.13113-0.13129 0.91792 0.91901z"/>
  <path d="m1.3136 2.7852-0.91792 0.91901-0.13113-0.13129 0.91792-0.91901z"/>
  <path d="m1.9856 2.9024-0.91792-0.91901 0.13113-0.13129 0.91792 0.91901z"/>
  <path d="m2.1074 2.7852-0.91792 0.91901-0.13113-0.13129 0.91792-0.91901z"/>
 </g>
</svg>
