<?xml version="1.0" encoding="UTF-8"?>
<svg id="bitmap:20-24" width="20" height="400" fill="#000000" version="1.1" viewBox="0 0 20 400" xmlns="http://www.w3.org/2000/svg" xmlns:cc="http://creativecommons.org/ns#" xmlns:dc="http://purl.org/dc/elements/1.1/" xmlns:rdf="http://www.w3.org/1999/02/22-rdf-syntax-ns#">
 <metadata>
  <rdf:RDF>
   <cc:Work rdf:about="">
    <dc:format>image/svg+xml</dc:format>
    <dc:type rdf:resource="http://purl.org/dc/dcmitype/StillImage"/>
   </cc:Work>
  </rdf:RDF>
 </metadata>
 <rect width="20" height="400" fill="#fff" fill-opacity=".98444"/>
 <g transform="matrix(.95 0 0 .9499 .051376 .05137)" fill="none" stroke-width="1.0527">
  <path d="m2.9e-6 0h36.923v36.965h-36.923z"/>
  <rect x=".47226" y=".47227" width="20" height="20.002" rx="2.1053" ry="2.1055" stroke="#aeaeae" stroke-width="1.0527"/>
  <rect x=".47226" y="21.527" width="20" height="20.002" rx="2.1053" ry="2.1055" stroke="#3096fa" stroke-width="1.0527"/>
  <path d="m0.76923 39.275h36.923v36.965h-36.923z"/>
  <rect x=".47227" y="42.582" width="20" height="20.002" rx="2.1053" ry="2.1055" stroke="#2979ff" stroke-width="1.0527"/>
  <rect x=".47227" y="63.637" width="20" height="20.002" rx="2.1053" ry="2.1055" stroke="#aeaeae" stroke-width="1.0527"/>
  <path d="m1.2564e-5 336.88h36.923v36.965h-36.923z"/>
  <rect x=".47227" y="337.35" width="20" height="20.002" rx="2.1053" ry="2.1055" stroke="#aeaeae" stroke-width="1.0527"/>
  <rect x=".47227" y="358.4" width="20" height="20.002" rx="2.1053" ry="2.1055" stroke="#3096fa" stroke-width="1.0527"/>
  <path d="m0.76924 376.15h36.923v36.965h-36.923z"/>
  <g stroke-width="1.0527">
   <rect x=".47228" y="379.46" width="20" height="20.002" rx="2.1053" ry="2.1055" stroke="#2979ff"/>
   <rect x=".47228" y="400.51" width="20" height="20.002" rx="2.1053" ry="2.1055" stroke="#aeaeae"/>
   <rect x=".47227" y="253.13" width="20" height="20.002" rx="2.1053" ry="2.1055" stroke="#aeaeae"/>
   <rect x=".47227" y="274.19" width="20" height="20.002" rx="2.1053" ry="2.1055" stroke="#3096fa"/>
   <rect x=".47228" y="295.24" width="20" height="20.002" rx="2.1053" ry="2.1055" stroke="#2979ff"/>
   <rect x=".47228" y="316.29" width="20" height="20.002" rx="2.1053" ry="2.1055" stroke="#aeaeae"/>
  </g>
  <path d="m3.5e-6 80.09h36.923v36.965h-36.923z"/>
  <path d="m0.76923 119.36h36.923v36.965h-36.923z"/>
  <path d="m0 160.18h36.923v36.965h-36.923z"/>
  <path d="m0.76923 199.45h36.923v36.965h-36.923z"/>
  <path d="m4.1802e-6 80.009h36.923v36.965h-36.923z"/>
  <rect x=".47227" y="84.692" width="20" height="20.002" rx="2.1053" ry="2.1055" stroke="#aeaeae" stroke-width="1.0527"/>
  <rect x=".47227" y="105.75" width="20" height="20.002" rx="2.1053" ry="2.1055" stroke="#3096fa" stroke-width="1.0527"/>
  <path d="m0.76923 119.28h36.923v36.965h-36.923z"/>
  <rect x=".47227" y="126.8" width="20" height="20.002" rx="2.1053" ry="2.1055" stroke="#2979ff" stroke-width="1.0527"/>
  <rect x=".47227" y="147.86" width="20" height="20.002" rx="2.1053" ry="2.1055" stroke="#aeaeae" stroke-width="1.0527"/>
  <path d="m3.8669e-6 160.02h36.923v36.965h-36.923z"/>
  <rect x=".47227" y="168.91" width="20" height="20.002" rx="2.1053" ry="2.1055" stroke="#aeaeae" stroke-width="1.0527"/>
  <rect x=".47227" y="189.97" width="20" height="20.002" rx="2.1053" ry="2.1055" stroke="#3096fa" stroke-width="1.0527"/>
  <path d="m0.76923 199.29h36.923v36.965h-36.923z"/>
  <rect x=".47227" y="211.02" width="20" height="20.002" rx="2.1053" ry="2.1055" stroke="#2979ff" stroke-width="1.0527"/>
  <rect x=".47227" y="232.08" width="20" height="20.002" rx="2.1053" ry="2.1055" stroke="#aeaeae" stroke-width="1.0527"/>
  <g stroke-width="3.9787">
   <path d="m16.788 342.31-1.2721-1.2723-5.0436 5.0441-5.0436-5.0441-1.2722 1.2723 5.0436 5.0441-5.0436 5.0441 1.2722 1.2723 5.0436-5.0441 5.0436 5.0441 1.2721-1.2723-5.0436-5.0441z" fill="#000"/>
   <path d="m16.788 363.36-1.2721-1.2723-5.0436 5.0441-5.0436-5.0441-1.2722 1.2723 5.0436 5.0441-5.0436 5.0441 1.2722 1.2723 5.0436-5.0441 5.0436 5.0441 1.2721-1.2723-5.0436-5.0441z" fill="#3096fa"/>
   <path d="m16.788 384.42-1.2721-1.2723-5.0436 5.0441-5.0436-5.0441-1.2722 1.2723 5.0436 5.0441-5.0436 5.0441 1.2722 1.2723 5.0436-5.0441 5.0436 5.0441 1.2721-1.2723-5.0436-5.0441z" fill="#2979ff"/>
   <path d="m16.788 405.47-1.2721-1.2723-5.0436 5.0441-5.0436-5.0441-1.2722 1.2723 5.0436 5.0441-5.0436 5.0441 1.2722 1.2723 5.0436-5.0441 5.0436 5.0441 1.2721-1.2723-5.0436-5.0441z" fill="#aeaeae"/>
  </g>
 </g>
 <path d="m7.4546 92.91-3.3409-3.1343-1.1136 1.0447 4.4545 4.1791 9.5455-8.9553-1.1136-1.0447z" stroke-width=".99999"/>
 <g transform="matrix(1.4616 0 0 1.463 .91489 3.1433)" stroke-width=".46768">
  <path d="m4.4744 75.029-2.2858-2.1423-0.76193 0.71411 3.0476 2.8565 6.5309-6.121-0.76193-0.71411z" fill="#3096fa"/>
  <path d="m4.4744 102.37-2.2858-2.1423-0.76193 0.71411 3.0476 2.8565 6.5309-6.121-0.76193-0.71411z" fill="#aeaeae"/>
  <path d="m4.4744 88.699-2.2858-2.1423-0.76193 0.71412 3.0476 2.8565 6.5309-6.121-0.76193-0.71411z" fill="#2979ff"/>
 </g>
 <path d="m7.4546 252.91-3.3409-3.1343-1.1136 1.0447 4.4545 4.1791 9.5455-8.9553-1.1136-1.0447z" stroke-width=".99999"/>
 <g transform="matrix(1.4616 0 0 1.463 .91489 163.14)" stroke-width=".46768">
  <path d="m4.4744 75.029-2.2858-2.1423-0.76193 0.71411 3.0476 2.8565 6.5309-6.121-0.76193-0.71411z" fill="#3096fa"/>
  <path d="m4.4744 102.37-2.2858-2.1423-0.76193 0.71411 3.0476 2.8565 6.5309-6.121-0.76193-0.71411z" fill="#aeaeae"/>
  <path d="m4.4744 88.699-2.2858-2.1423-0.76193 0.71412 3.0476 2.8565 6.5309-6.121-0.76193-0.71411z" fill="#2979ff"/>
 </g>
 <path d="m3 169h14v2h-14z"/>
 <g transform="matrix(1.4616 0 0 1.463 .051167 .62675)" stroke-width=".46768">
  <path d="m2.0175 128.76h9.5785v1.367h-9.5785z" fill="#3096fa"/>
  <path d="m2.0175 142.43h9.5785v1.3671h-9.5785z" fill="#2979ff"/>
  <path d="m2.0175 156.1h9.5785v1.3671h-9.5785z" fill="#aeaeae"/>
 </g>
</svg>
