<?xml version="1.0" encoding="UTF-8"?>
<svg id="bitmap:7-32" width="7" height="24" version="1.1" viewBox="0 0 1.8521 6.35" xmlns="http://www.w3.org/2000/svg" xmlns:cc="http://creativecommons.org/ns#" xmlns:dc="http://purl.org/dc/elements/1.1/" xmlns:rdf="http://www.w3.org/1999/02/22-rdf-syntax-ns#">
 <metadata>
  <rdf:RDF>
   <cc:Work rdf:about="">
    <dc:format>image/svg+xml</dc:format>
    <dc:type rdf:resource="http://purl.org/dc/dcmitype/StillImage"/>
   </cc:Work>
  </rdf:RDF>
 </metadata>
 <g stroke-width=".26458">
  <path d="m0.93047 1.0513 0.65705-0.68844-0.093866-0.098348-0.65705 0.68844z"/>
  <path d="m0.26459 0.36988 0.65705 0.68844 0.093866-0.098348-0.65705-0.68844z"/>
  <path d="m0.93047 2.6388 0.65705-0.68842-0.093866-0.098345-0.65705 0.68842z" fill="#3096fa"/>
  <path d="m0.26459 1.9573 0.65705 0.68842 0.093866-0.098345-0.65705-0.68842z" fill="#3096fa"/>
  <path d="m0.93047 4.2263 0.65705-0.68842-0.093866-0.098345-0.65705 0.68842z" fill="#fff"/>
  <path d="m0.26459 3.5448 0.65705 0.68842 0.093866-0.098345-0.65705-0.68842z" fill="#fff"/>
  <path d="m0.93047 5.8138 0.65705-0.68842-0.093866-0.098345-0.65705 0.68842z" fill="#aeaeae"/>
  <path d="m0.26459 5.1323 0.65705 0.68842 0.093866-0.098345-0.65705-0.68842z" fill="#aeaeae"/>
 </g>
</svg>
