<?xml version="1.0" encoding="UTF-8"?>
<svg id="bitmap:10-32" width="10" height="40" version="1.1" viewBox="0 0 2.6458 10.583" xmlns="http://www.w3.org/2000/svg">
 <g transform="matrix(.99998 0 0 .99998 1.3229 -.52926)" fill="none" stroke-width=".26458">
  <rect x="-.92607" y="1.7199" width="1.3229" height="1.3229" stroke="#aeaeae"/>
  <rect x="-.92607" y="4.3657" width="1.3229" height="1.3229" stroke="#3096fa"/>
  <rect x="-.92607" y="7.0116" width="1.3229" height="1.3229" stroke="#2979ff"/>
 </g>
 <rect transform="scale(-1,1)" x="-2.3812" y=".52913" width="1.5875" height=".26458" fill="#aeaeae" stroke-width=".23931"/>
 <rect transform="scale(-1,1)" x="-2.3812" y=".79371" width=".26459" height="1.3229" fill="#aeaeae" stroke-width=".23931"/>
 <rect x=".39687" y="9.1279" width="1.3229" height="1.3229" fill="none" stroke="#aeaeae" stroke-width=".26458"/>
 <g stroke-width=".23932">
  <rect transform="scale(-1,1)" x="-2.3813" y="8.4665" width="1.5875" height=".26459" fill="#aeaeae"/>
  <rect transform="scale(-1,1)" x="-2.3813" y="8.731" width=".2646" height="1.3229" fill="#aeaeae"/>
  <g transform="matrix(.99998 0 0 .99998 1.3229 -.52926)">
   <rect transform="scale(-1,1)" x="-1.0583" y="3.7043" width="1.5875" height=".26459" fill="#3096fa"/>
   <rect transform="scale(-1,1)" x="-1.0583" y="3.9688" width=".26459" height="1.3229" fill="#3096fa"/>
   <rect transform="scale(-1,1)" x="-1.0583" y="6.3501" width="1.5875" height=".26459" fill="#2979ff"/>
   <rect transform="scale(-1,1)" x="-1.0583" y="6.6147" width=".26459" height="1.3229" fill="#2979ff"/>
  </g>
 </g>
</svg>
