<?xml version="1.0" encoding="UTF-8"?>
<svg id="bitmap:19-32" width="19" height="152" version="1.1" viewBox="0 0 5.0271 40.217" xmlns="http://www.w3.org/2000/svg">
 <g stroke-width=".070004">
  <path d="m2.3556 2.5769c0.13056-0.25163 0.38153-0.40008 0.52736-0.62275 0.15431-0.23353 0.06783-0.66982-0.36966-0.66982-0.28657 0-0.42731 0.23172-0.48666 0.42362l-0.43918-0.19732c0.1204-0.3856 0.44766-0.71689 0.92415-0.71689 0.39849 0 0.6715 0.1937 0.81054 0.43629 0.11871 0.20819 0.18822 0.59741 0.00502 0.88706-0.20349 0.32043-0.39849 0.41818-0.50362 0.62456-0.042397 0.083271-0.059348 0.13758-0.059348 0.40551h-0.49006c-0.00163-0.14121-0.022038-0.37111 0.081399-0.57025zm0.49684 1.2944c0 0.19914-0.15261 0.36206-0.33914 0.36206-0.18653 0-0.33914-0.16293-0.33914-0.36206s0.15261-0.36206 0.33914-0.36206c0.18653 0 0.33914 0.16293 0.33914 0.36206z" fill="#aeaeae"/>
  <path d="m2.3557 7.604c0.13056-0.25163 0.38153-0.40008 0.52736-0.62275 0.15431-0.23353 0.06783-0.66982-0.36966-0.66982-0.28657 0-0.42732 0.23172-0.48666 0.42361l-0.43918-0.19732c0.1204-0.3856 0.44766-0.71689 0.92415-0.71689 0.39849 0 0.6715 0.1937 0.81054 0.43629 0.11871 0.20819 0.18822 0.59741 5e-3 0.88706-0.20348 0.32043-0.39849 0.41818-0.50362 0.62456-0.0424 0.08327-0.05935 0.13758-0.05935 0.40551h-0.49006c-0.0016-0.14121-0.02204-0.37111 0.0814-0.57025zm0.49684 1.2944c0 0.19914-0.15261 0.36206-0.33914 0.36206-0.18653 0-0.33914-0.16293-0.33914-0.36206s0.15261-0.36206 0.33914-0.36206c0.18653 0 0.33914 0.16293 0.33914 0.36206z" fill="#3096fa"/>
  <path d="m2.3557 12.631c0.13056-0.25163 0.38153-0.40008 0.52736-0.62275 0.15431-0.23353 0.06783-0.66982-0.36966-0.66982-0.28657 0-0.42732 0.23172-0.48666 0.42361l-0.43918-0.19732c0.1204-0.3856 0.44766-0.71689 0.92415-0.71689 0.39849 0 0.6715 0.1937 0.81054 0.43629 0.11871 0.20819 0.18822 0.59741 5e-3 0.88706-0.20348 0.32043-0.39849 0.41818-0.50362 0.62456-0.0424 0.08327-0.05935 0.13758-0.05935 0.40551h-0.49006c-0.0016-0.14121-0.02204-0.37112 0.0814-0.57025zm0.49684 1.2944c0 0.19914-0.15261 0.36206-0.33914 0.36206-0.18653 0-0.33914-0.16293-0.33914-0.36206s0.15261-0.36206 0.33914-0.36206c0.18653 0 0.33914 0.16293 0.33914 0.36206z" fill="#2979ff"/>
  <path d="m2.3556 17.658c0.13056-0.25163 0.38153-0.40008 0.52736-0.62275 0.15431-0.23353 0.06783-0.66982-0.36966-0.66982-0.28657 0-0.42731 0.23172-0.48666 0.42362l-0.43918-0.19732c0.1204-0.3856 0.44766-0.71689 0.92415-0.71689 0.39849 0 0.6715 0.1937 0.81054 0.43629 0.11871 0.20819 0.18822 0.59741 0.00502 0.88706-0.20349 0.32043-0.39849 0.41818-0.50362 0.62456-0.042397 0.08327-0.059349 0.13758-0.059349 0.40551h-0.49006c-0.00163-0.14121-0.022038-0.37112 0.081399-0.57025zm0.49684 1.2944c0 0.19914-0.15261 0.36206-0.33914 0.36206-0.18653 0-0.33914-0.16293-0.33914-0.36206s0.15261-0.36206 0.33914-0.36206c0.18653 0 0.33914 0.16293 0.33914 0.36206z" fill="#aeaeae"/>
  <path d="m2.3556 22.685c0.13056-0.25163 0.38153-0.40008 0.52736-0.62275 0.15431-0.23353 0.06783-0.66982-0.36966-0.66982-0.28657 0-0.42731 0.23172-0.48666 0.42362l-0.43918-0.19732c0.1204-0.3856 0.44766-0.71689 0.92415-0.71689 0.39849 0 0.6715 0.1937 0.81054 0.43629 0.11871 0.20819 0.18822 0.59741 0.00502 0.88706-0.20349 0.32043-0.39849 0.41818-0.50362 0.62456-0.042397 0.08327-0.059349 0.13758-0.059349 0.40551h-0.49006c-0.00163-0.14121-0.022038-0.37112 0.081399-0.57025zm0.49684 1.2944c0 0.19914-0.15261 0.36206-0.33914 0.36206-0.18653 0-0.33914-0.16293-0.33914-0.36206 0-0.19914 0.15261-0.36206 0.33914-0.36206 0.18653 0 0.33914 0.16293 0.33914 0.36206z" fill="#aeaeae"/>
  <path d="m2.3557 27.713c0.13056-0.25163 0.38153-0.40008 0.52736-0.62275 0.15431-0.23353 0.06783-0.66982-0.36966-0.66982-0.28657 0-0.42732 0.23172-0.48666 0.42361l-0.43918-0.19732c0.1204-0.3856 0.44766-0.71689 0.92415-0.71689 0.39849 0 0.6715 0.1937 0.81054 0.43629 0.11871 0.20819 0.18822 0.59741 5e-3 0.88706-0.20348 0.32043-0.39849 0.41818-0.50362 0.62456-0.0424 0.08327-0.05935 0.13758-0.05935 0.40551h-0.49006c-0.0016-0.14121-0.02204-0.37111 0.0814-0.57025zm0.49684 1.2944c0 0.19914-0.15261 0.36206-0.33914 0.36206-0.18653 0-0.33914-0.16293-0.33914-0.36206s0.15261-0.36206 0.33914-0.36206c0.18653 0 0.33914 0.16293 0.33914 0.36206z" fill="#3096fa"/>
  <path d="m2.3557 32.74c0.13056-0.25163 0.38153-0.40008 0.52736-0.62275 0.15431-0.23353 0.06783-0.66982-0.36966-0.66982-0.28657 0-0.42732 0.23172-0.48666 0.42361l-0.43918-0.19732c0.1204-0.3856 0.44766-0.71689 0.92415-0.71689 0.39849 0 0.6715 0.1937 0.81054 0.43629 0.11871 0.20819 0.18822 0.59741 5e-3 0.88706-0.20348 0.32043-0.39849 0.41818-0.50362 0.62456-0.0424 0.08327-0.05935 0.13758-0.05935 0.40551h-0.49006c-0.0016-0.14121-0.02204-0.37112 0.0814-0.57025zm0.49684 1.2944c0 0.19914-0.15261 0.36206-0.33914 0.36206-0.18653 0-0.33914-0.16293-0.33914-0.36206s0.15261-0.36206 0.33914-0.36206c0.18653 0 0.33914 0.16293 0.33914 0.36206z" fill="#2979ff"/>
  <path d="m2.3556 37.767c0.13056-0.25163 0.38153-0.40008 0.52736-0.62275 0.15431-0.23353 0.06783-0.66982-0.36966-0.66982-0.28657 0-0.42731 0.23172-0.48666 0.42362l-0.43918-0.19732c0.1204-0.3856 0.44766-0.71689 0.92415-0.71689 0.39849 0 0.6715 0.1937 0.81054 0.43629 0.11871 0.20819 0.18822 0.59741 0.00502 0.88706-0.20349 0.32043-0.39849 0.41818-0.50362 0.62456-0.042397 0.08327-0.059349 0.13758-0.059349 0.40551h-0.49006c-0.00163-0.14121-0.022038-0.37112 0.081399-0.57025zm0.49684 1.2944c0 0.19914-0.15261 0.36206-0.33914 0.36206-0.18653 0-0.33914-0.16293-0.33914-0.36206s0.15261-0.36206 0.33914-0.36206c0.18653 0 0.33914 0.16293 0.33914 0.36206z" fill="#aeaeae"/>
 </g>
</svg>
