<?xml version="1.0" encoding="UTF-8"?>
<svg id="bitmap:60-32" width="60" height="240" version="1.1" viewBox="0 0 15.875 63.5" xmlns="http://www.w3.org/2000/svg" xmlns:cc="http://creativecommons.org/ns#" xmlns:dc="http://purl.org/dc/elements/1.1/" xmlns:rdf="http://www.w3.org/1999/02/22-rdf-syntax-ns#">
 <metadata>
  <rdf:RDF>
   <cc:Work rdf:about="">
    <dc:format>image/svg+xml</dc:format>
    <dc:type rdf:resource="http://purl.org/dc/dcmitype/StillImage"/>
   </cc:Work>
  </rdf:RDF>
 </metadata>
 <g transform="matrix(-1 0 0 1 16.139 0)" stroke-width=".26458">
  <path d="m7.1569 5.2917 0.42901 0.53295-1.3936 1.7349h4.92v0.75597h-4.92l1.3966 1.7349-0.43206 0.53295-2.1299-2.6458z" fill="#aeaeae"/>
  <path d="m7.1569 21.167 0.42901 0.53295-1.3936 1.7349h4.92v0.75597h-4.92l1.3966 1.7349-0.43206 0.53295-2.1299-2.6458z" fill="#3096fa"/>
  <path d="m7.1569 37.042 0.42901 0.53295-1.3936 1.7349h4.92v0.75597h-4.92l1.3966 1.7349-0.43206 0.53295-2.1299-2.6458z" fill="#2979ff"/>
  <path d="m7.1569 52.917 0.42901 0.53295-1.3936 1.7349h4.92v0.75597h-4.92l1.3966 1.7349-0.43206 0.53295-2.1299-2.6458z" fill="#aeaeae"/>
 </g>
</svg>
