<?xml version="1.0" encoding="UTF-8"?>
<svg id="bitmap:7-32" width="7" height="56" version="1.1" viewBox="0 0 1.8521 14.817" xmlns="http://www.w3.org/2000/svg">
 <g stroke-width=".26458">
  <path d="m1.5875 0.39783-0.13323-0.13324-0.52823 0.52823-0.52823-0.52823-0.13324 0.13324 0.52823 0.52823-0.52823 0.52823 0.13324 0.13324 0.52823-0.52823 0.52823 0.52823 0.13323-0.13324-0.52823-0.52823z" fill="#aeaeae"/>
  <path d="m1.5875 5.9541-0.13323-0.13324-0.52823 0.52823-0.52823-0.52823-0.13324 0.13324 0.52823 0.52823-0.52823 0.52823 0.13324 0.13324 0.52823-0.52823 0.52823 0.52823 0.13323-0.13324-0.52823-0.52823z" fill="#aeaeae"/>
  <path d="m1.5875 2.2499-0.13323-0.13324-0.52823 0.52823-0.52823-0.52823-0.13324 0.13324 0.52823 0.52823-0.52823 0.52823 0.13324 0.13324 0.52823-0.52823 0.52823 0.52823 0.13323-0.13324-0.52823-0.52823z" fill="#ff1744"/>
  <path d="m1.5875 4.102-0.13323-0.13324-0.52823 0.52823-0.52823-0.52823-0.13324 0.13324 0.52823 0.52823-0.52823 0.52823 0.13324 0.13324 0.52823-0.52823 0.52823 0.52823 0.13323-0.13324-0.52823-0.52823z" fill="#d50000"/>
  <path d="m1.5875 7.8062-0.13323-0.13324-0.52823 0.52823-0.52823-0.52823-0.13324 0.13324 0.52823 0.52823-0.52823 0.52823 0.13324 0.13324 0.52823-0.52823 0.52823 0.52823 0.13323-0.13324-0.52823-0.52823z" fill="#aeaeae"/>
  <path d="m1.5875 13.363-0.13323-0.13324-0.52823 0.52823-0.52823-0.52823-0.13324 0.13324 0.52823 0.52823-0.52823 0.52823 0.13324 0.13324 0.52823-0.52823 0.52823 0.52823 0.13323-0.13324-0.52823-0.52823z" fill="#aeaeae"/>
  <path d="m1.5875 9.6584-0.13323-0.13324-0.52823 0.52823-0.52823-0.52823-0.13324 0.13324 0.52823 0.52823-0.52823 0.52823 0.13324 0.13324 0.52823-0.52823 0.52823 0.52823 0.13323-0.13324-0.52823-0.52823z" fill="#ff1744"/>
  <path d="m1.5875 11.51-0.13323-0.13324-0.52823 0.52823-0.52823-0.52823-0.13324 0.13324 0.52823 0.52823-0.52823 0.52823 0.13324 0.13324 0.52823-0.52823 0.52823 0.52823 0.13323-0.13324-0.52823-0.52823z" fill="#d50000"/>
 </g>
</svg>
