<?xml version="1.0" encoding="UTF-8"?>
<svg id="bitmap:18-32" width="18" height="72" version="1.1" viewBox="0 0 4.7625 19.05" xmlns="http://www.w3.org/2000/svg">
 <g stroke-width=".26458">
  <path d="m1.804 3.1513-0.75766-0.82928-0.25256 0.27644 1.0102 1.1057 2.1648-2.3694-0.25256-0.27644z" fill="#3096fa"/>
  <path d="m1.804 7.9137-0.75766-0.82928-0.25256 0.27644 1.0102 1.1057 2.1648-2.3694-0.25256-0.27644z" fill="#aeaeae"/>
  <path d="m3.5718 11.906a1.1906 1.1906 0 0 1-1.1906 1.1906 1.1906 1.1906 0 0 1-1.1906-1.1906 1.1906 1.1906 0 0 1 1.1906-1.1906 1.1906 1.1906 0 0 1 1.1906 1.1906z" fill="#3096fa" stroke="#3096fa"/>
  <path d="m3.7041 16.668a1.3229 1.3229 0 0 1-1.3229 1.3229 1.3229 1.3229 0 0 1-1.3229-1.3229 1.3229 1.3229 0 0 1 1.3229-1.3229 1.3229 1.3229 0 0 1 1.3229 1.3229z" fill="#aeaeae"/>
 </g>
</svg>
