<?xml version="1.0" encoding="UTF-8"?>
<svg id="bitmap:28-32" width="28" height="84" version="1.1" viewBox="0 0 7.4083 22.225" xmlns="http://www.w3.org/2000/svg" xmlns:cc="http://creativecommons.org/ns#" xmlns:dc="http://purl.org/dc/elements/1.1/" xmlns:rdf="http://www.w3.org/1999/02/22-rdf-syntax-ns#">
 <metadata>
  <rdf:RDF>
   <cc:Work rdf:about="">
    <dc:format>image/svg+xml</dc:format>
    <dc:type rdf:resource="http://purl.org/dc/dcmitype/StillImage"/>
    <dc:title/>
   </cc:Work>
  </rdf:RDF>
 </metadata>
 <g transform="matrix(1.75 0 0 1.75 .0001325 0)" stroke-width=".093313">
  <path d="M 4.2332,0.42636 3.80686,0 2.11656,1.6903 0.42626,0 -9e-5,0.42636 1.69021,2.11666 -9e-5,3.80696 0.42626,4.23332 2.11656,2.54302 3.80686,4.23332 4.2332,3.80696 2.5429,2.11666 Z" fill="#aeaeae"/>
  <path d="m4.2332 4.6597-0.42634-0.42636-1.6903 1.6903-1.6903-1.6903-0.42635 0.42636 1.6903 1.6903-1.6903 1.6903 0.42635 0.42636 1.6903-1.6903 1.6903 1.6903 0.42634-0.42636-1.6903-1.6903z" fill="#ff1744"/>
  <path d="m4.2332 8.893-0.42634-0.42636-1.6903 1.6903-1.6903-1.6903-0.42635 0.42636 1.6903 1.6903-1.6903 1.6903 0.42635 0.42636 1.6903-1.6903 1.6903 1.6903 0.42634-0.42636-1.6903-1.6903z" fill="#d50000"/>
 </g>
</svg>
