<?xml version="1.0" encoding="UTF-8"?>
<svg id="bitmap:39-32" width="39" height="312" version="1.1" viewBox="0 0 10.319 82.551" xmlns="http://www.w3.org/2000/svg">
 <g>
  <path d="m4.8211 5.2493c0.27979-0.52264 0.81757-0.83095 1.1301-1.2934 0.33066-0.48505 0.14535-1.3912-0.79213-1.3912-0.61408 0-0.91567 0.48126-1.0429 0.87982l-0.94111-0.40984c0.25799-0.80086 0.95929-1.4889 1.9803-1.4889 0.8539 0 1.4389 0.4023 1.7369 0.90616 0.25436 0.4324 0.40332 1.2408 0.01092 1.8424-0.43602 0.6655-0.8539 0.86854-1.0792 1.2972-0.09084 0.17295-0.12718 0.28575-0.12718 0.84223h-1.0501c-0.00363-0.29328-0.047235-0.7708 0.17442-1.1844zm1.0646 2.6884c0 0.41359-0.32703 0.75199-0.72673 0.75199-0.39969 0-0.72673-0.3384-0.72673-0.75199 0-0.41358 0.32703-0.75199 0.72673-0.75199 0.39969 0 0.72673 0.3384 0.72673 0.75199z" fill="#aeaeae"/>
  <path d="m4.8211 36.248c0.27979-0.52264 0.81757-0.83095 1.1301-1.2934 0.33066-0.48505 0.14535-1.3912-0.79213-1.3912-0.61408 0-0.91567 0.48126-1.0429 0.87982l-0.94111-0.40984c0.25799-0.80086 0.95929-1.4889 1.9803-1.4889 0.8539 0 1.4389 0.4023 1.7369 0.90616 0.25436 0.4324 0.40332 1.2408 0.01092 1.8424-0.43602 0.6655-0.8539 0.86854-1.0792 1.2972-0.09084 0.17295-0.12718 0.28575-0.12718 0.84223h-1.0501c-0.00363-0.29328-0.047235-0.7708 0.17442-1.1844zm1.0646 2.6884c0 0.41359-0.32703 0.75199-0.72673 0.75199-0.39969 0-0.72673-0.3384-0.72673-0.75199 0-0.41358 0.32703-0.75199 0.72673-0.75199 0.39969 0 0.72673 0.3384 0.72673 0.75199z" fill="#aeaeae"/>
  <path d="m4.8211 15.61c0.27979-0.52264 0.81757-0.83095 1.1301-1.2934 0.33066-0.48505 0.14535-1.3912-0.79213-1.3912-0.61408 0-0.91567 0.48127-1.0429 0.87982l-0.94111-0.40984c0.25799-0.80086 0.95929-1.4889 1.9803-1.4889 0.8539 0 1.4389 0.40231 1.7369 0.90616 0.25436 0.43239 0.40332 1.2408 0.01092 1.8424-0.43602 0.6655-0.8539 0.86854-1.0792 1.2972-0.09084 0.17295-0.12718 0.28575-0.12718 0.84223h-1.0501c-0.00363-0.29328-0.047235-0.7708 0.17442-1.1844zm1.0646 2.6884c0 0.41358-0.32703 0.75199-0.72673 0.75199-0.39969 0-0.72673-0.33841-0.72673-0.75199 0-0.41359 0.32703-0.75199 0.72673-0.75199 0.39969 0 0.72673 0.3384 0.72673 0.75199z" fill="#3096fa"/>
  <path d="m4.8211 25.929c0.27979-0.52264 0.81757-0.83095 1.1301-1.2934 0.33066-0.48505 0.14535-1.3912-0.79213-1.3912-0.61408 0-0.91567 0.48127-1.0429 0.87982l-0.94111-0.40983c0.25799-0.80086 0.95929-1.4889 1.9803-1.4889 0.8539 0 1.4389 0.4023 1.7369 0.90616 0.25436 0.4324 0.40332 1.2408 0.01092 1.8424-0.43602 0.6655-0.8539 0.86854-1.0792 1.2972-0.09084 0.17295-0.12718 0.28575-0.12718 0.84223h-1.0501c-0.00363-0.29328-0.047235-0.7708 0.17442-1.1844zm1.0646 2.6884c0 0.41359-0.32703 0.75199-0.72673 0.75199-0.39969 0-0.72673-0.3384-0.72673-0.75199 0-0.41358 0.32703-0.75199 0.72673-0.75199 0.39969 0 0.72673 0.33841 0.72673 0.75199z" fill="#2979ff"/>
  <path d="m4.8211 46.567c0.27979-0.52264 0.81757-0.83095 1.1301-1.2934 0.33066-0.48505 0.14535-1.3912-0.79213-1.3912-0.61408 0-0.91567 0.48126-1.0429 0.87982l-0.94111-0.40984c0.25799-0.80086 0.95929-1.4889 1.9803-1.4889 0.8539 0 1.4389 0.4023 1.7369 0.90616 0.25436 0.4324 0.40332 1.2408 0.01092 1.8424-0.43602 0.6655-0.8539 0.86854-1.0792 1.2972-0.09084 0.17295-0.12718 0.28575-0.12718 0.84223h-1.0501c-0.0036-0.29328-0.04724-0.7708 0.17442-1.1844zm1.0646 2.6884c0 0.41359-0.32703 0.75199-0.72673 0.75199-0.39969 0-0.72673-0.3384-0.72673-0.75199 0-0.41358 0.32703-0.75199 0.72673-0.75199 0.39969 0 0.72673 0.3384 0.72673 0.75199z" fill="#aeaeae"/>
  <path d="m4.8211 77.565c0.27979-0.52264 0.81757-0.83095 1.1301-1.2934 0.33066-0.48505 0.14535-1.3912-0.79213-1.3912-0.61408 0-0.91567 0.48126-1.0429 0.87982l-0.94111-0.40984c0.25799-0.80086 0.95929-1.4889 1.9803-1.4889 0.8539 0 1.4389 0.4023 1.7369 0.90616 0.25436 0.4324 0.40332 1.2408 0.01092 1.8424-0.43602 0.6655-0.8539 0.86854-1.0792 1.2972-0.09084 0.17295-0.12718 0.28575-0.12718 0.84223h-1.0501c-0.0036-0.29328-0.04724-0.7708 0.17442-1.1844zm1.0646 2.6884c0 0.41359-0.32703 0.75199-0.72673 0.75199-0.39969 0-0.72673-0.3384-0.72673-0.75199 0-0.41358 0.32703-0.75199 0.72673-0.75199 0.39969 0 0.72673 0.3384 0.72673 0.75199z" fill="#aeaeae"/>
  <path d="m4.8211 56.927c0.27979-0.52264 0.81757-0.83095 1.1301-1.2934 0.33066-0.48505 0.14535-1.3912-0.79213-1.3912-0.61408 0-0.91567 0.48127-1.0429 0.87982l-0.94111-0.40984c0.25799-0.80086 0.95929-1.4889 1.9803-1.4889 0.8539 0 1.4389 0.40231 1.7369 0.90616 0.25436 0.43239 0.40332 1.2408 0.01092 1.8424-0.43602 0.6655-0.8539 0.86854-1.0792 1.2972-0.09084 0.17295-0.12718 0.28575-0.12718 0.84223h-1.0501c-0.0036-0.29328-0.04724-0.7708 0.17442-1.1844zm1.0646 2.6884c0 0.41358-0.32703 0.75199-0.72673 0.75199-0.39969 0-0.72673-0.33841-0.72673-0.75199 0-0.41359 0.32703-0.75199 0.72673-0.75199 0.39969 0 0.72673 0.3384 0.72673 0.75199z" fill="#3096fa"/>
  <path d="m4.8211 67.246c0.27979-0.52264 0.81757-0.83095 1.1301-1.2934 0.33066-0.48505 0.14535-1.3912-0.79213-1.3912-0.61408 0-0.91567 0.48127-1.0429 0.87982l-0.94111-0.40983c0.25799-0.80086 0.95929-1.4889 1.9803-1.4889 0.8539 0 1.4389 0.4023 1.7369 0.90616 0.25436 0.4324 0.40332 1.2408 0.01092 1.8424-0.43602 0.6655-0.8539 0.86854-1.0792 1.2972-0.09084 0.17295-0.12718 0.28575-0.12718 0.84223h-1.0501c-0.0036-0.29328-0.04724-0.7708 0.17442-1.1844zm1.0646 2.6884c0 0.41359-0.32703 0.75199-0.72673 0.75199-0.39969 0-0.72673-0.3384-0.72673-0.75199 0-0.41358 0.32703-0.75199 0.72673-0.75199 0.39969 0 0.72673 0.33841 0.72673 0.75199z" fill="#2979ff"/>
 </g>
</svg>
