<?xml version="1.0" encoding="UTF-8"?>
<svg id="bitmap:10-32" width="10" height="54" version="1.1" viewBox="0 0 2.6458 14.288" xmlns="http://www.w3.org/2000/svg" xmlns:cc="http://creativecommons.org/ns#" xmlns:dc="http://purl.org/dc/elements/1.1/" xmlns:rdf="http://www.w3.org/1999/02/22-rdf-syntax-ns#">
 <metadata>
  <rdf:RDF>
   <cc:Work rdf:about="">
    <dc:format>image/svg+xml</dc:format>
    <dc:type rdf:resource="http://purl.org/dc/dcmitype/StillImage"/>
    <dc:title/>
   </cc:Work>
  </rdf:RDF>
 </metadata>
 <g stroke-width=".26458">
  <path d="m2.3813 1.1987-1.0503 0.91793-0.15004-0.13113 1.0503-0.91794z"/>
  <path d="m0.41463 1.0583 1.0503 0.91794-0.15004 0.13113-1.0503-0.91794z"/>
  <g>
   <path d="m2.3813 3.58-1.0503 0.91794-0.15004-0.13113 1.0503-0.91793z" fill="#3096fa"/>
   <path d="m0.41463 3.4396 1.0503 0.91794-0.15004 0.13113-1.0503-0.91793z" fill="#3096fa"/>
   <path d="m2.3813 5.9612-1.0503 0.91793-0.15004-0.13113 1.0503-0.91793z" fill="#2979ff"/>
   <path d="m0.41463 5.8208 1.0503 0.91793-0.15004 0.13113-1.0503-0.91793z" fill="#2979ff"/>
   <path d="m2.3812 8.3425-1.0503 0.91794-0.15004-0.13113 1.0503-0.91794z" fill="#aeaeae"/>
   <path d="m0.41463 8.2021 1.0503 0.91794-0.15004 0.13113-1.0503-0.91793z" fill="#aeaeae"/>
   <path d="m2.3813 10.724-1.0503 0.91794-0.15004-0.13113 1.0503-0.91794z" fill="#3096fa"/>
   <path d="m0.41463 10.583 1.0503 0.91794-0.15004 0.13113-1.0503-0.91793z" fill="#3096fa"/>
   <path d="m2.3813 13.105-1.0503 0.91794-0.15004-0.13113 1.0503-0.91794z" fill="#2979ff"/>
   <path d="m0.41463 12.965 1.0503 0.91794-0.15004 0.13113-1.0503-0.91794z" fill="#2979ff"/>
  </g>
 </g>
</svg>
