<?xml version="1.0" encoding="UTF-8"?>
<svg id="bitmap:53-32" width="53" height="315" version="1.1" viewBox="0 0 14.024 83.342" xmlns="http://www.w3.org/2000/svg" xmlns:cc="http://creativecommons.org/ns#" xmlns:dc="http://purl.org/dc/elements/1.1/" xmlns:rdf="http://www.w3.org/1999/02/22-rdf-syntax-ns#">
 <metadata>
  <rdf:RDF>
   <cc:Work rdf:about="">
    <dc:format>image/svg+xml</dc:format>
    <dc:type rdf:resource="http://purl.org/dc/dcmitype/StillImage"/>
   </cc:Work>
  </rdf:RDF>
 </metadata>
 <path d="m0.13229 13.892v-13.573l13.571 13.573z" fill="#fff" stroke="#fff" stroke-width=".26459px"/>
 <g fill="#aeaeae">
  <path d="m0.26459 0.26451h0.26459v0.26459h-0.26459z"/>
  <path d="m0.52918 0.5291h0.26459v0.26459h-0.26459z"/>
  <path d="m0.79377 0.79369h0.26459v0.26459h-0.26459z"/>
  <path d="m1.0584 1.0583h0.26459v0.26459h-0.26459z"/>
  <path d="m1.3229 1.3229h0.26459v0.26459h-0.26459z"/>
  <path d="m1.5875 1.5875h0.26459v0.26459h-0.26459z"/>
  <path d="m1.8521 1.852h0.26459v0.26459h-0.26459z"/>
  <path d="m2.1167 2.1166h0.26459v0.26459h-0.26459z"/>
  <path d="m2.3813 2.3812h0.26459v0.26459h-0.26459z"/>
  <path d="m2.6459 2.6458h0.26459v0.26459h-0.26459z"/>
  <path d="m2.9105 2.9104h0.26459v0.26459h-0.26459z"/>
  <path d="m3.1751 3.175h0.26459v0.26459h-0.26459z"/>
  <path d="m3.4397 3.4396h0.26459v0.26459h-0.26459z"/>
  <path d="m3.7042 3.7042h0.26459v0.26459h-0.26459z"/>
  <path d="m3.9688 3.9688h0.26459v0.26459h-0.26459z"/>
  <path d="m4.2334 4.2333h0.26459v0.26459h-0.26459z"/>
  <path d="m4.498 4.4979h0.26459v0.26459h-0.26459z"/>
  <path d="m4.7626 4.7625h0.26459v0.26459h-0.26459z"/>
  <path d="m5.0272 5.0271h0.26459v0.26459h-0.26459z"/>
  <path d="m5.2918 5.2917h0.26459v0.26459h-0.26459z"/>
  <path d="m5.821 5.8209h0.26459v0.26459h-0.26459z"/>
  <path d="m5.5564 5.5563h0.26459v0.26459h-0.26459z"/>
  <path d="m6.0856 6.0855h0.26459v0.26459h-0.26459z"/>
  <path d="m6.3502 6.3501h0.26459v0.26459h-0.26459z"/>
  <path d="m6.6148 6.6147h0.26459v0.26459h-0.26459z"/>
  <path d="m6.8794 6.8793h0.26459v0.26459h-0.26459z"/>
  <path d="m7.144 7.1439h0.26459v0.26459h-0.26459z"/>
  <path d="m7.4086 7.4085h0.26459v0.26459h-0.26459z"/>
  <path d="m7.6732 7.6731h0.26459v0.26459h-0.26459z"/>
  <path d="m7.9378 7.9375h0.26459v0.26459h-0.26459z"/>
  <path d="m8.2024 8.2023h0.26459v0.26459h-0.26459z"/>
  <path d="m8.467 8.4667h0.26459v0.26459h-0.26459z"/>
  <path d="m8.7316 8.7313h0.26459v0.26459h-0.26459z"/>
  <path d="m8.9962 8.9959h0.26459v0.26459h-0.26459z"/>
  <path d="m9.2608 9.2605h0.26459v0.26459h-0.26459z"/>
  <path d="m9.5254 9.5251h0.26459v0.26459h-0.26459z"/>
  <path d="m9.79 9.7897h0.26459v0.26459h-0.26459z"/>
  <path d="m10.055 10.054h0.26459v0.26459h-0.26459z"/>
  <path d="m10.319 10.319h0.26459v0.26459h-0.26459z"/>
  <path d="m10.584 10.583h0.26459v0.26459h-0.26459z"/>
  <path d="m10.848 10.848h0.26459v0.26459h-0.26459z"/>
  <path d="m11.113 11.113h0.26459v0.26459h-0.26459z"/>
  <path d="m11.377 11.378h0.26459v0.26459h-0.26459z"/>
  <path d="m11.642 11.642h0.26459v0.26459h-0.26459z"/>
  <path d="m11.907 11.907h0.26459v0.26459h-0.26459z"/>
  <path d="m12.171 12.171h0.26459v0.26459h-0.26459z"/>
  <path d="m12.436 12.436h0.26459v0.26459h-0.26459z"/>
  <path d="m12.7 12.701h0.26459v0.26459h-0.26459z"/>
  <path d="m12.965 12.965h0.26459v0.26459h-0.26459z"/>
  <path d="m13.23 13.23h0.26459v0.26459h-0.26459z"/>
  <path d="m13.494 13.494h0.26459v0.26459h-0.26459z"/>
  <path d="m13.759 13.759h0.26459v0.26459h-0.26459z"/>
  <path d="m7.0954e-5 27.517h0.26459v0.26459h-0.26459z"/>
  <path d="m0.26466 27.253h0.26459v0.26459h-0.26459z"/>
  <path d="m0.52925 26.988h0.26459v0.26459h-0.26459z"/>
  <path d="m0.79384 26.723h0.26459v0.26459h-0.26459z"/>
  <path d="m1.0584 26.459h0.26459v0.26459h-0.26459z"/>
  <path d="m1.3229 26.194h0.26459v0.26459h-0.26459z"/>
  <path d="m1.5875 25.93h0.26459v0.26459h-0.26459z"/>
  <path d="m1.8521 25.665h0.26459v0.26459h-0.26459z"/>
  <path d="m2.1167 25.4h0.26459v0.26459h-0.26459z"/>
  <path d="m2.3813 25.136h0.26459v0.26459h-0.26459z"/>
  <path d="m13.759 27.517h0.26459v0.26459h-0.26459z"/>
  <path d="m13.23 26.988h0.26459v0.26459h-0.26459z"/>
  <path d="m13.495 27.253h0.26459v0.26459h-0.26459z"/>
  <path d="m12.966 26.723h0.26459v0.26459h-0.26459z"/>
  <path d="m12.701 26.459h0.26459v0.26459h-0.26459z"/>
  <path d="m12.436 26.194h0.26459v0.26459h-0.26459z"/>
  <path d="m12.171 25.93h0.26459v0.26459h-0.26459z"/>
  <path d="m11.907 25.665h0.26459v0.26459h-0.26459z"/>
  <path d="m11.642 25.401h0.26459v0.26459h-0.26459z"/>
  <path d="m11.378 25.136h0.26459v0.26459h-0.26459z"/>
  <path d="m11.113 24.871h0.26459v0.26459h-0.26459z"/>
  <path d="m2.9105 24.607h0.26459v0.26459h-0.26459z"/>
  <path d="m10.848 24.607h0.26459v0.26459h-0.26459z"/>
  <path d="m3.1751 24.342h0.26459v0.26459h-0.26459z"/>
  <path d="m10.584 24.342h0.26459v0.26459h-0.26459z"/>
  <path d="m8.4671 22.225h0.26459v0.26459h-0.26459z"/>
  <path d="m8.7317 22.49h0.26459v0.26459h-0.26459z"/>
  <path d="m8.9963 22.754h0.26459v0.26459h-0.26459z"/>
  <path d="m9.2609 23.019h0.26459v0.26459h-0.26459z"/>
  <path d="m9.5255 23.284h0.26459v0.26459h-0.26459z"/>
  <path d="m9.7901 23.548h0.26459v0.26459h-0.26459z"/>
  <path d="m10.055 23.813h0.26459v0.26459h-0.26459z"/>
  <path d="m10.319 24.077h0.26459v0.26459h-0.26459z"/>
  <path d="m6.8795 20.637h0.26459v0.26459h-0.26459z"/>
  <path d="m7.1441 20.902h0.26459v0.26459h-0.26459z"/>
  <path d="m7.4087 21.167h0.26459v0.26459h-0.26459z"/>
  <path d="m7.6733 21.431h0.26459v0.26459h-0.26459z"/>
  <path d="m7.9379 21.696h0.26459v0.26459h-0.26459z"/>
  <path d="m7.1441 20.637h-0.26459v0.26459h0.26459z"/>
  <path d="m6.8795 20.902h-0.26459v0.26459h0.26459z"/>
  <path d="m6.6149 21.167h-0.26459v0.26459h0.26459z"/>
  <path d="m6.3503 21.431h-0.26459v0.26459h0.26459z"/>
  <path d="m6.0857 21.696h-0.26459v0.26459h0.26459z"/>
  <path d="m5.8211 21.96h-0.26459v0.26459h0.26459z"/>
  <path d="m8.2025 21.96h0.26459v0.26459h-0.26459z"/>
  <path d="m5.5565 22.225h-0.26459v0.26459h0.26459z"/>
  <path d="m5.2919 22.49h-0.26459v0.26459h0.26459z"/>
  <path d="m5.0273 22.754h-0.26459v0.26459h0.26459z"/>
  <path d="m4.7627 23.019h-0.26459v0.26459h0.26459z"/>
  <path d="m4.4981 23.284h-0.26459v0.26459h0.26459z"/>
  <path d="m3.9689 23.548h0.26459v0.26459h-0.26459z"/>
  <path d="m2.6459 24.871h0.26459v0.26459h-0.26459z"/>
  <path d="m3.7043 23.813h0.26459v0.26459h-0.26459z"/>
  <path d="m3.4397 24.077h0.26459v0.26459h-0.26459z"/>
  <path d="m0-7.425e-5h0.26459v14.024h-0.26459z"/>
  <path d="m0.13239 69.453v13.573l13.571-13.573z" fill="#fff" stroke="#fff" stroke-width=".26459px"/>
  <path d="m0.26469 83.08h0.26459v-0.26459h-0.26459z"/>
  <path d="m0.52928 82.816h0.26459v-0.26459h-0.26459z"/>
  <path d="m0.79387 82.551h0.26459v-0.26459h-0.26459z"/>
  <path d="m1.0585 82.286h0.26459v-0.26459h-0.26459z"/>
  <path d="m1.323 82.022h0.26459v-0.26459h-0.26459z"/>
  <path d="m1.5876 81.757h0.26459v-0.26459h-0.26459z"/>
  <path d="m1.8522 81.493h0.26459v-0.26459h-0.26459z"/>
  <path d="m2.1168 81.228h0.26459v-0.26459h-0.26459z"/>
  <path d="m2.3814 80.964h0.26459v-0.26459h-0.26459z"/>
  <path d="m2.646 80.699h0.26459v-0.26459h-0.26459z"/>
  <path d="m2.9106 80.434h0.26459v-0.26459h-0.26459z"/>
  <path d="m3.1752 80.17h0.26459v-0.26459h-0.26459z"/>
  <path d="m3.4398 79.905h0.26459v-0.26459h-0.26459z"/>
  <path d="m3.7043 79.641h0.26459v-0.26459h-0.26459z"/>
  <path d="m3.9689 79.376h0.26459v-0.26459h-0.26459z"/>
  <path d="m4.2335 79.111h0.26459v-0.26459h-0.26459z"/>
  <path d="m4.4981 78.847h0.26459v-0.26459h-0.26459z"/>
  <path d="m4.7627 78.582h0.26459v-0.26459h-0.26459z"/>
  <path d="m5.0273 78.318h0.26459v-0.26459h-0.26459z"/>
  <path d="m5.2919 78.053h0.26459v-0.26459h-0.26459z"/>
  <path d="m5.8211 77.524h0.26459v-0.26459h-0.26459z"/>
  <path d="m5.5565 77.788h0.26459v-0.26459h-0.26459z"/>
  <path d="m6.0857 77.259h0.26459v-0.26459h-0.26459z"/>
  <path d="m6.3503 76.995h0.26459v-0.26459h-0.26459z"/>
  <path d="m6.6149 76.73h0.26459v-0.26459h-0.26459z"/>
  <path d="m6.8795 76.465h0.26459v-0.26459h-0.26459z"/>
  <path d="m7.1441 76.201h0.26459v-0.26459h-0.26459z"/>
  <path d="m7.4087 75.936h0.26459v-0.26459h-0.26459z"/>
  <path d="m7.6733 75.672h0.26459v-0.26459h-0.26459z"/>
  <path d="m7.9379 75.407h0.26459v-0.26459h-0.26459z"/>
  <path d="m8.2025 75.142h0.26459v-0.26459h-0.26459z"/>
  <path d="m8.4671 74.878h0.26459v-0.26459h-0.26459z"/>
  <path d="m8.7317 74.613h0.26459v-0.26459h-0.26459z"/>
  <path d="m8.9963 74.349h0.26459v-0.26459h-0.26459z"/>
  <path d="m9.2609 74.084h0.26459v-0.26459h-0.26459z"/>
  <path d="m9.5255 73.82h0.26459v-0.26459h-0.26459z"/>
  <path d="m9.7901 73.555h0.26459v-0.26459h-0.26459z"/>
  <path d="m10.055 73.291h0.26459v-0.26459h-0.26459z"/>
  <path d="m10.319 73.026h0.26459v-0.26459h-0.26459z"/>
  <path d="m10.584 72.762h0.26459v-0.26459h-0.26459z"/>
  <path d="m10.848 72.497h0.26459v-0.26459h-0.26459z"/>
  <path d="m11.113 72.232h0.26459v-0.26459h-0.26459z"/>
  <path d="m11.377 71.967h0.26459v-0.26459h-0.26459z"/>
  <path d="m11.642 71.702h0.26459v-0.26459h-0.26459z"/>
  <path d="m11.907 71.438h0.26459v-0.26459h-0.26459z"/>
  <path d="m12.171 71.173h0.26459v-0.26459h-0.26459z"/>
  <path d="m12.436 70.909h0.26459v-0.26459h-0.26459z"/>
  <path d="m12.7 70.644h0.26459v-0.26459h-0.26459z"/>
  <path d="m12.965 70.38h0.26459v-0.26459h-0.26459z"/>
  <path d="m13.23 70.115h0.26459v-0.26459h-0.26459z"/>
  <path d="m13.494 69.85h0.26459v-0.26459h-0.26459z"/>
  <path d="m13.759 69.586h0.26459v-0.26459h-0.26459z"/>
  <path d="m1.0453e-4 83.345h0.26459v-14.024h-0.26459z"/>
  <path d="m13.891 41.938v-13.573l-13.571 13.573z" fill="#fff" stroke="#fff" stroke-width=".26459px"/>
  <path d="m13.759 28.311h-0.26459v0.26459h0.26459z"/>
  <path d="m13.494 28.575h-0.26459v0.26459h0.26459z"/>
  <path d="m13.23 28.84h-0.26459v0.26459h0.26459z"/>
  <path d="m12.965 29.105h-0.26459v0.26459h0.26459z"/>
  <path d="m12.701 29.369h-0.26459v0.26459h0.26459z"/>
  <path d="m12.436 29.634h-0.26459v0.26459h0.26459z"/>
  <path d="m12.171 29.898h-0.26459v0.26459h0.26459z"/>
  <path d="m11.907 30.163h-0.26459v0.26459h0.26459z"/>
  <path d="m11.642 30.428h-0.26459v0.26459h0.26459z"/>
  <path d="m11.378 30.692h-0.26459v0.26459h0.26459z"/>
  <path d="m11.113 30.957h-0.26459v0.26459h0.26459z"/>
  <path d="m10.848 31.221h-0.26459v0.26459h0.26459z"/>
  <path d="m10.584 31.486h-0.26459v0.26459h0.26459z"/>
  <path d="m10.319 31.751h-0.26459v0.26459h0.26459z"/>
  <path d="m10.055 32.015h-0.26459v0.26459h0.26459z"/>
  <path d="m9.7901 32.28h-0.26459v0.26459h0.26459z"/>
  <path d="m9.5255 32.544h-0.26459v0.26459h0.26459z"/>
  <path d="m9.2609 32.809h-0.26459v0.26459h0.26459z"/>
  <path d="m8.9963 33.073h-0.26459v0.26459h0.26459z"/>
  <path d="m8.7317 33.338h-0.26459v0.26459h0.26459z"/>
  <path d="m8.2025 33.867h-0.26459v0.26459h0.26459z"/>
  <path d="m8.4671 33.603h-0.26459v0.26459h0.26459z"/>
  <path d="m7.9379 34.132h-0.26459v0.26459h0.26459z"/>
  <path d="m7.6733 34.396h-0.26459v0.26459h0.26459z"/>
  <path d="m7.4087 34.661h-0.26459v0.26459h0.26459z"/>
  <path d="m7.1441 34.926h-0.26459v0.26459h0.26459z"/>
  <path d="m6.8795 35.19h-0.26459v0.26459h0.26459z"/>
  <path d="m6.6149 35.455h-0.26459v0.26459h0.26459z"/>
  <path d="m6.3503 35.719h-0.26459v0.26459h0.26459z"/>
  <path d="m6.0857 35.984h-0.26459v0.26459h0.26459z"/>
  <path d="m5.8211 36.249h-0.26459v0.26459h0.26459z"/>
  <path d="m5.5565 36.513h-0.26459v0.26459h0.26459z"/>
  <path d="m5.2919 36.778h-0.26459v0.26459h0.26459z"/>
  <path d="m5.0273 37.042h-0.26459v0.26459h0.26459z"/>
  <path d="m4.7627 37.307h-0.26459v0.26459h0.26459z"/>
  <path d="m4.4981 37.571h-0.26459v0.26459h0.26459z"/>
  <path d="m4.2335 37.836h-0.26459v0.26459h0.26459z"/>
  <path d="m3.9685 38.1h-0.26459v0.26459h0.26459z"/>
  <path d="m3.7045 38.365h-0.26459v0.26459h0.26459z"/>
  <path d="m3.4395 38.629h-0.26459v0.26459h0.26459z"/>
  <path d="m3.1755 38.894h-0.26459v0.26459h0.26459z"/>
  <path d="m2.9108 39.16h-0.26459v0.26459h0.26459z"/>
  <path d="m2.6462 39.424h-0.26459v0.26459h0.26459z"/>
  <path d="m2.3816 39.689h-0.26459v0.26459h0.26459z"/>
  <path d="m2.117 39.953h-0.26459v0.26459h0.26459z"/>
  <path d="m1.8524 40.218h-0.26459v0.26459h0.26459z"/>
  <path d="m1.5878 40.483h-0.26459v0.26459h0.26459z"/>
  <path d="m1.3232 40.747h-0.26459v0.26459h0.26459z"/>
  <path d="m1.0586 41.012h-0.26459v0.26459h0.26459z"/>
  <path d="m0.79397 41.276h-0.26459v0.26459h0.26459z"/>
  <path d="m0.52937 41.541h-0.26459v0.26459h0.26459z"/>
  <path d="m0.26477 41.805h-0.26459v0.26459h0.26459z"/>
  <path d="m14.024 28.046h-0.26459v14.024h0.26459z"/>
  <path d="m13.891 42.202v13.573l-13.571-13.573z" fill="#fff" stroke="#fff" stroke-width=".26459px"/>
  <path d="m13.759 55.829h-0.26459v-0.26459h0.26459z"/>
  <path d="m13.494 55.564h-0.26459v-0.26459h0.26459z"/>
  <path d="m13.23 55.299h-0.26459v-0.26459h0.26459z"/>
  <path d="m12.965 55.035h-0.26459v-0.26459h0.26459z"/>
  <path d="m12.701 54.77h-0.26459v-0.26459h0.26459z"/>
  <path d="m12.436 54.506h-0.26459v-0.26459h0.26459z"/>
  <path d="m12.171 54.241h-0.26459v-0.26459h0.26459z"/>
  <path d="m11.907 53.977h-0.26459v-0.26459h0.26459z"/>
  <path d="m11.642 53.712h-0.26459v-0.26459h0.26459z"/>
  <path d="m11.378 53.447h-0.26459v-0.26459h0.26459z"/>
  <path d="m11.113 53.183h-0.26459v-0.26459h0.26459z"/>
  <path d="m10.848 52.918h-0.26459v-0.26459h0.26459z"/>
  <path d="m10.584 52.654h-0.26459v-0.26459h0.26459z"/>
  <path d="m10.319 52.389h-0.26459v-0.26459h0.26459z"/>
  <path d="m10.055 52.124h-0.26459v-0.26459h0.26459z"/>
  <path d="m9.7901 51.86h-0.26459v-0.26459h0.26459z"/>
  <path d="m9.5255 51.595h-0.26459v-0.26459h0.26459z"/>
  <path d="m9.2609 51.331h-0.26459v-0.26459h0.26459z"/>
  <path d="m8.9963 51.066h-0.26459v-0.26459h0.26459z"/>
  <path d="m8.7317 50.801h-0.26459v-0.26459h0.26459z"/>
  <path d="m8.2025 50.272h-0.26459v-0.26459h0.26459z"/>
  <path d="m8.4671 50.537h-0.26459v-0.26459h0.26459z"/>
  <path d="m7.9379 50.008h-0.26459v-0.26459h0.26459z"/>
  <path d="m7.6733 49.743h-0.26459v-0.26459h0.26459z"/>
  <path d="m7.4087 49.478h-0.26459v-0.26459h0.26459z"/>
  <path d="m7.1441 49.214h-0.26459v-0.26459h0.26459z"/>
  <path d="m6.8795 48.949h-0.26459v-0.26459h0.26459z"/>
  <path d="m6.6149 48.685h-0.26459v-0.26459h0.26459z"/>
  <path d="m6.3503 48.42h-0.26459v-0.26459h0.26459z"/>
  <path d="m6.0857 48.156h-0.26459v-0.26459h0.26459z"/>
  <path d="m5.8211 47.891h-0.26459v-0.26459h0.26459z"/>
  <path d="m5.5565 47.626h-0.26459v-0.26459h0.26459z"/>
  <path d="m5.2919 47.362h-0.26459v-0.26459h0.26459z"/>
  <path d="m5.0273 47.097h-0.26459v-0.26459h0.26459z"/>
  <path d="m4.7627 46.833h-0.26459v-0.26459h0.26459z"/>
  <path d="m4.4981 46.568h-0.26459v-0.26459h0.26459z"/>
  <path d="m4.2335 46.303h-0.26459v-0.26459h0.26459z"/>
  <path d="m3.9685 46.039h-0.26459v-0.26459h0.26459z"/>
  <path d="m7.144 63.502h-0.26459v-0.26459h0.26459z"/>
  <path d="m6.8794 63.237h-0.26459v-0.26459h0.26459z"/>
  <path d="m6.6149 62.973h-0.26459v-0.26459h0.26459z"/>
  <path d="m6.3503 62.708h-0.26459v-0.26459h0.26459z"/>
  <path d="m6.0857 62.444h-0.26459v-0.26459h0.26459z"/>
  <path d="m5.8211 62.179h-0.26459v-0.26459h0.26459z"/>
  <path d="m5.5565 61.914h-0.26459v-0.26459h0.26459z"/>
  <path d="m5.2919 61.65h-0.26459v-0.26459h0.26459z"/>
  <path d="m5.0273 61.385h-0.26459v-0.26459h0.26459z"/>
  <path d="m4.4981 60.856h-0.26459v-0.26459h0.26459z"/>
  <path d="m4.7627 61.121h-0.26459v-0.26459h0.26459z"/>
  <path d="m4.2335 60.591h-0.26459v-0.26459h0.26459z"/>
  <path d="m3.9689 60.327h-0.26459v-0.26459h0.26459z"/>
  <path d="m3.7043 60.062h-0.26459v-0.26459h0.26459z"/>
  <path d="m3.4397 59.798h-0.26459v-0.26459h0.26459z"/>
  <path d="m3.1751 59.533h-0.26459v-0.26459h0.26459z"/>
  <path d="m2.9105 59.268h-0.26459v-0.26459h0.26459z"/>
  <path d="m2.6459 59.004h-0.26459v-0.26459h0.26459z"/>
  <path d="m2.3813 58.739h-0.26459v-0.26459h0.26459z"/>
  <path d="m2.1167 58.475h-0.26459v-0.26459h0.26459z"/>
  <path d="m1.8521 58.21h-0.26459v-0.26459h0.26459z"/>
  <path d="m1.5875 57.946h-0.26459v-0.26459h0.26459z"/>
  <path d="m1.3229 57.681h-0.26459v-0.26459h0.26459z"/>
  <path d="m1.0583 57.416h-0.26459v-0.26459h0.26459z"/>
  <path d="m0.79369 57.152h-0.26459v-0.26459h0.26459z"/>
  <path d="m0.52909 56.887h-0.26459v-0.26459h0.26459z"/>
  <path d="m0.26409 56.623h-0.26459v-0.26459h0.26459z"/>
  <path d="m3.7045 45.774h-0.26459v-0.26459h0.26459z"/>
  <path d="m3.4395 45.51h-0.26459v-0.26459h0.26459z"/>
  <path d="m3.1755 45.245h-0.26459v-0.26459h0.26459z"/>
  <path d="m2.9107 44.98h-0.26459v-0.26459h0.26459z"/>
  <path d="m2.6461 44.715h-0.26459v-0.26459h0.26459z"/>
  <path d="m2.3815 44.451h-0.26459v-0.26459h0.26459z"/>
  <path d="m2.1169 44.186h-0.26459v-0.26459h0.26459z"/>
  <path d="m1.8523 43.922h-0.26459v-0.26459h0.26459z"/>
  <path d="m1.5877 43.657h-0.26459v-0.26459h0.26459z"/>
  <path d="m1.3231 43.393h-0.26459v-0.26459h0.26459z"/>
  <path d="m1.0585 43.128h-0.26459v-0.26459h0.26459z"/>
  <path d="m0.79391 42.863h-0.26459v-0.26459h0.26459z"/>
  <path d="m0.52931 42.599h-0.26459v-0.26459h0.26459z"/>
  <path d="m0.26471 42.334h-0.26459v-0.26459h0.26459z"/>
  <path d="m14.023 56.093h-0.26459v-14.024h0.26459z"/>
  <path d="m7.1441 63.237h0.26459v-0.26459h-0.26459z"/>
  <path d="m7.4086 62.973h0.26459v-0.26459h-0.26459z"/>
  <path d="m7.6732 62.708h0.26459v-0.26459h-0.26459z"/>
  <path d="m7.9378 62.443h0.26459v-0.26459h-0.26459z"/>
  <path d="m8.2024 62.179h0.26459v-0.26459h-0.26459z"/>
  <path d="m8.467 61.914h0.26459v-0.26459h-0.26459z"/>
  <path d="m8.7316 61.65h0.26459v-0.26459h-0.26459z"/>
  <path d="m8.9962 61.385h0.26459v-0.26459h-0.26459z"/>
  <path d="m9.5254 60.856h0.26459v-0.26459h-0.26459z"/>
  <path d="m9.2608 61.12h0.26459v-0.26459h-0.26459z"/>
  <path d="m9.79 60.591h0.26459v-0.26459h-0.26459z"/>
  <path d="m10.055 60.327h0.26459v-0.26459h-0.26459z"/>
  <path d="m10.319 60.062h0.26459v-0.26459h-0.26459z"/>
  <path d="m10.584 59.797h0.26459v-0.26459h-0.26459z"/>
  <path d="m10.848 59.533h0.26459v-0.26459h-0.26459z"/>
  <path d="m11.113 59.268h0.26459v-0.26459h-0.26459z"/>
  <path d="m11.378 59.004h0.26459v-0.26459h-0.26459z"/>
  <path d="m11.642 58.739h0.26459v-0.26459h-0.26459z"/>
  <path d="m11.907 58.474h0.26459v-0.26459h-0.26459z"/>
  <path d="m12.171 58.21h0.26459v-0.26459h-0.26459z"/>
  <path d="m12.436 57.945h0.26459v-0.26459h-0.26459z"/>
  <path d="m12.701 57.681h0.26459v-0.26459h-0.26459z"/>
  <path d="m12.965 57.416h0.26459v-0.26459h-0.26459z"/>
  <path d="m13.23 57.152h0.26459v-0.26459h-0.26459z"/>
  <path d="m13.494 56.887h0.26459v-0.26459h-0.26459z"/>
  <path d="m13.759 56.623h0.26459v-0.26459h-0.26459z"/>
 </g>
 <g transform="translate(1.5876 15.611)" fill="#fff">
  <g transform="translate(-.52921 .26457)">
   <path d="m2.3571e-7 10.848h11.907v0.26459h-11.907z"/>
   <path d="m-1.0584 11.906h14.024v0.26459h-14.024z"/>
   <path d="m0.26459 10.583h11.378v0.26459h-11.378z"/>
   <path d="m0.52918 10.319h10.848v0.26459h-10.848z"/>
   <path d="m0.79377 10.054h10.319v0.26459h-10.319z"/>
   <path d="m1.0584 9.7896h9.79v0.26459h-9.79z"/>
   <path d="m1.3229 9.5251h9.2608v0.26459h-9.2608z"/>
   <path d="m1.5875 9.2605h8.7316v0.26459h-8.7316z"/>
   <path d="m1.8521 8.9959h8.2025v0.26459h-8.2025z"/>
   <path d="m2.1167 8.7313h7.6733v0.26459h-7.6733z"/>
   <path d="m2.3813 8.4667h7.1441v0.26459h-7.1441z"/>
   <path d="m2.6459 8.2021h6.6149v0.26459h-6.6149z"/>
   <path d="m2.9104 7.9375h6.0857v0.26459h-6.0857z"/>
   <path d="m3.175 7.673h5.5565v0.26459h-5.5565z"/>
   <path d="m-0.79383 11.642h13.494v0.26459h-13.494z"/>
   <path d="m-0.52923 11.377h12.965v0.26459h-12.965z"/>
   <path d="m-0.26464 11.113h12.436v0.26459h-12.436z"/>
  </g>
  <g>
   <path d="m3.1751 7.4083h4.4981v0.26459h-4.4981z"/>
   <path d="m2.9105 7.6729h5.0273v0.26459h-5.0273z"/>
   <path d="m3.4397 7.1437h3.9689v0.26459h-3.9689z"/>
   <path d="m3.7043 6.8791h3.4397v0.26459h-3.4397z"/>
   <path d="m4.2335 6.3499h2.3814v0.26459h-2.3814z"/>
   <path d="m3.9689 6.6145h2.9105v0.26459h-2.9105z"/>
  </g>
  <path d="m4.4981 6.0853h1.8522v0.26459h-1.8522z"/>
  <g>
   <path d="m4.7626 5.8207h1.323v0.26459h-1.323z"/>
   <path d="m5.0272 5.5561h0.79379v0.26459h-0.79379z"/>
   <path d="m5.2918 5.2915h0.2646v0.26459h-0.2646z"/>
  </g>
 </g>
 <g transform="matrix(1 0 0 -1 1.5876 68.529)" fill="#fff">
  <g transform="translate(-.52921 .26457)">
   <path d="m2.3571e-7 10.848h11.907v0.26459h-11.907z"/>
   <path d="m-1.0584 11.906h14.024v0.26459h-14.024z"/>
   <path d="m0.26459 10.583h11.378v0.26459h-11.378z"/>
   <path d="m0.52918 10.319h10.848v0.26459h-10.848z"/>
   <path d="m0.79377 10.054h10.319v0.26459h-10.319z"/>
   <path d="m1.0584 9.7896h9.79v0.26459h-9.79z"/>
   <path d="m1.3229 9.5251h9.2608v0.26459h-9.2608z"/>
   <path d="m1.5875 9.2605h8.7316v0.26459h-8.7316z"/>
   <path d="m1.8521 8.9959h8.2025v0.26459h-8.2025z"/>
   <path d="m2.1167 8.7313h7.6733v0.26459h-7.6733z"/>
   <path d="m2.3813 8.4667h7.1441v0.26459h-7.1441z"/>
   <path d="m2.6459 8.2021h6.6149v0.26459h-6.6149z"/>
   <path d="m2.9104 7.9375h6.0857v0.26459h-6.0857z"/>
   <path d="m3.175 7.673h5.5565v0.26459h-5.5565z"/>
   <path d="m-0.79383 11.642h13.494v0.26459h-13.494z"/>
   <path d="m-0.52923 11.377h12.965v0.26459h-12.965z"/>
   <path d="m-0.26464 11.113h12.436v0.26459h-12.436z"/>
  </g>
  <g>
   <path d="m3.1751 7.4083h4.4981v0.26459h-4.4981z"/>
   <path d="m2.9105 7.6729h5.0273v0.26459h-5.0273z"/>
   <path d="m3.4397 7.1437h3.9689v0.26459h-3.9689z"/>
   <path d="m3.7043 6.8791h3.4397v0.26459h-3.4397z"/>
   <path d="m4.2335 6.3499h2.3814v0.26459h-2.3814z"/>
   <path d="m3.9689 6.6145h2.9105v0.26459h-2.9105z"/>
  </g>
  <path d="m4.4981 6.0853h1.8522v0.26459h-1.8522z"/>
  <g>
   <path d="m4.7626 5.8207h1.323v0.26459h-1.323z"/>
   <path d="m5.0272 5.5561h0.79379v0.26459h-0.79379z"/>
   <path d="m5.2918 5.2915h0.2646v0.26459h-0.2646z"/>
  </g>
 </g>
</svg>
