<?xml version="1.0" encoding="UTF-8"?>
<svg id="bitmap:20-32" width="20" height="400" version="1.1" viewBox="0 0 5.2918 105.83" xmlns="http://www.w3.org/2000/svg" xmlns:cc="http://creativecommons.org/ns#" xmlns:dc="http://purl.org/dc/elements/1.1/" xmlns:rdf="http://www.w3.org/1999/02/22-rdf-syntax-ns#">
 <metadata>
  <rdf:RDF>
   <cc:Work rdf:about="">
    <dc:format>image/svg+xml</dc:format>
    <dc:type rdf:resource="http://purl.org/dc/dcmitype/StillImage"/>
   </cc:Work>
  </rdf:RDF>
 </metadata>
 <g transform="translate(.92519 1.0583)">
  <path d="m1.7313 0.80767 1.5769 1.3769-0.22527 0.1967-1.5769-1.3769z" stroke-width=".26458"/>
  <path d="m0.13316 2.1707 1.5769-1.3769 0.22527 0.1967-1.5769 1.3769z" stroke-width=".26458"/>
  <g transform="matrix(1.1429 0 0 1 -.26372 0)">
   <g fill="#3096fa" stroke-width=".2315">
    <path d="m1.7456 6.0995 1.3798 1.3768-0.19711 0.19668-1.3798-1.3768z"/>
    <path d="m0.34726 7.4622 1.3798-1.3768 0.19711 0.19668-1.3798 1.3768z"/>
    <g transform="translate(0 79.375)">
     <path d="m1.7456 6.0995 1.3798 1.3768-0.19711 0.19668-1.3798-1.3768z"/>
     <path d="m0.34726 7.4622 1.3798-1.3768 0.19711 0.19668-1.3798 1.3768z"/>
    </g>
    <g transform="matrix(1 0 0 -1 0 98.425)">
     <path d="m1.7456 6.0995 1.3798 1.3768-0.19711 0.19668-1.3798-1.3768z"/>
     <path d="m0.34726 7.4622 1.3798-1.3768 0.19711 0.19668-1.3798 1.3768z"/>
    </g>
   </g>
   <g stroke-width=".2315">
    <path d="m1.7456 11.391 1.3798 1.3769-0.19711 0.19669-1.3798-1.3769z" fill="#fff"/>
    <path d="m0.34726 12.754 1.3798-1.3769 0.19711 0.19669-1.3798 1.3769z" fill="#fff"/>
    <path d="m1.7456 16.682 1.3798 1.3777-0.19711 0.19682-1.3798-1.3777z" fill="#aeaeae"/>
    <path d="m0.34726 18.047 1.3798-1.3777 0.19711 0.19682-1.3798 1.3777z" fill="#aeaeae"/>
   </g>
   <path d="m1.7456 23.534 1.3798-1.3769-0.1971-0.1967-1.3798 1.3769z" stroke-width=".24749"/>
   <path d="m0.34726 22.171 1.3798 1.3769 0.1971-0.1967-1.3798-1.3769z" stroke-width=".24749"/>
   <g stroke-width=".2315">
    <path d="m1.7456 28.825 1.3798-1.3768-0.19711-0.19668-1.3798 1.3768z" fill="#3096fa"/>
    <path d="m0.34726 27.463 1.3798 1.3768 0.19711-0.19668-1.3798-1.3768z" fill="#3096fa"/>
    <path d="m1.7456 34.117 1.3798-1.3769-0.19711-0.19669-1.3798 1.3769z" fill="#fff"/>
    <path d="m0.34726 32.754 1.3798 1.3769 0.19711-0.19669-1.3798-1.3769z" fill="#fff"/>
    <path d="m1.7456 39.41 1.3798-1.3777-0.19711-0.19682-1.3798 1.3777z" fill="#aeaeae"/>
    <path d="m0.34726 38.045 1.3798 1.3777 0.19711-0.19682-1.3798-1.3777z" fill="#aeaeae"/>
   </g>
  </g>
  <g stroke-width=".26458">
   <path d="m2.5144 42.559-1.377 1.5771-0.1967-0.22532 1.377-1.5771z"/>
   <path d="m1.1236 43.706 1.377 1.5771-0.1967 0.22532-1.377-1.5771z"/>
   <g transform="translate(25.358 6.2634)">
    <g fill="#3096fa" stroke-width=".22047">
     <g transform="matrix(1.2 0 0 1.2001 -6.0293 1.67)">
      <path d="m-14.012 33.261-1.1474 1.3134-0.16391-0.18762 1.1474-1.3134z"/>
      <path d="m-15.171 34.218 1.1474 1.3134-0.16391 0.18761-1.1474-1.3134z"/>
     </g>
     <g transform="matrix(1.2 0 0 1.2001 -6.0293 49.295)">
      <path d="m-14.012 33.261-1.1474 1.3134-0.16391-0.18762 1.1474-1.3134z"/>
      <path d="m-15.171 34.218 1.1474 1.3134-0.16391 0.18761-1.1474-1.3134z"/>
     </g>
     <g transform="matrix(-1.2 0 0 1.2001 -41.246 54.587)">
      <path d="m-14.012 33.261-1.1474 1.3134-0.16391-0.18762 1.1474-1.3134z"/>
      <path d="m-15.171 34.218 1.1474 1.3134-0.16391 0.18761-1.1474-1.3134z"/>
     </g>
    </g>
    <g stroke-width=".26458">
     <path d="m-22.844 46.879-1.3769 1.5765-0.1967-0.22521 1.3769-1.5765z" fill="#fff"/>
     <path d="m-24.235 48.027 1.3769 1.5765-0.1967 0.22519-1.3769-1.5765z" fill="#fff"/>
     <path d="m-22.844 52.17-1.3769 1.5762-0.1967-0.22515 1.3769-1.5762z" fill="#aeaeae"/>
     <path d="m-24.235 53.319 1.3769 1.5762-0.1967 0.22515-1.3769-1.5762z" fill="#aeaeae"/>
    </g>
   </g>
   <path d="m0.92692 63.725 1.377 1.5771 0.1967-0.22531-1.377-1.5771z"/>
   <path d="m2.3177 64.873-1.3769 1.5771 0.1967 0.22531 1.377-1.5771z"/>
   <g transform="matrix(-1 0 0 1 -21.917 27.43)">
    <g transform="matrix(1.2 0 0 1.2001 -6.0293 1.67)" fill="#3096fa" stroke-width=".22047">
     <path d="m-14.012 33.261-1.1474 1.3134-0.16391-0.18762 1.1474-1.3134z"/>
     <path d="m-15.171 34.218 1.1474 1.3134-0.16391 0.18761-1.1474-1.3134z"/>
    </g>
    <g stroke-width=".26458">
     <path d="m-22.844 46.879-1.3769 1.5765-0.1967-0.22521 1.3769-1.5765z" fill="#fff"/>
     <path d="m-24.235 48.027 1.3769 1.5765-0.1967 0.22519-1.3769-1.5765z" fill="#fff"/>
     <path d="m-22.844 52.17-1.3769 1.5762-0.1967-0.22515 1.3769-1.5762z" fill="#aeaeae"/>
     <path d="m-24.235 53.319 1.3769 1.5762-0.1967 0.22515-1.3769-1.5762z" fill="#aeaeae"/>
    </g>
   </g>
  </g>
 </g>
</svg>
