<?xml version="1.0" encoding="UTF-8"?>
<svg id="bitmap:7-32" width="7" height="16" version="1.1" viewBox="0 0 1.8521 4.2333" xmlns="http://www.w3.org/2000/svg" xmlns:cc="http://creativecommons.org/ns#" xmlns:dc="http://purl.org/dc/elements/1.1/" xmlns:rdf="http://www.w3.org/1999/02/22-rdf-syntax-ns#">
 <metadata>
  <rdf:RDF>
   <cc:Work rdf:about="">
    <dc:format>image/svg+xml</dc:format>
    <dc:type rdf:resource="http://purl.org/dc/dcmitype/StillImage"/>
   </cc:Work>
  </rdf:RDF>
 </metadata>
 <g stroke-width=".26458">
  <path d="m0.93223 1.049 0.91987-0.91787-0.13141-0.13112-0.91987 0.91787z"/>
  <path d="m0 0.1405 0.91987 0.91787 0.13141-0.13112-0.91987-0.91787z"/>
  <path d="m0.93223 2.1074 0.91987-0.91792-0.13141-0.13113-0.91987 0.91792z" fill="#3096fa"/>
  <path d="m0 1.1988 0.91987 0.91792 0.13141-0.13113-0.91987-0.91792z" fill="#3096fa"/>
  <path d="m0.93223 3.1657 0.91987-0.91792-0.13141-0.13113-0.91987 0.91792z" fill="#fff"/>
  <path d="m0 2.2571 0.91987 0.91792 0.13141-0.13113-0.91987-0.91792z" fill="#fff"/>
  <path d="m0.93223 4.2242 0.91987-0.91802-0.13141-0.13115-0.91987 0.91802z" fill="#aeaeae"/>
  <path d="m0 3.3154 0.91987 0.91802 0.13141-0.13115-0.91987-0.91802z" fill="#aeaeae"/>
 </g>
</svg>
