<?xml version="1.0" encoding="UTF-8"?>
<svg id="bitmap:21-32" width="21" height="126" version="1.1" viewBox="0 0 5.5564 33.337" xmlns="http://www.w3.org/2000/svg" xmlns:cc="http://creativecommons.org/ns#" xmlns:dc="http://purl.org/dc/elements/1.1/" xmlns:rdf="http://www.w3.org/1999/02/22-rdf-syntax-ns#">
 <metadata>
  <rdf:RDF>
   <cc:Work rdf:about="">
    <dc:format>image/svg+xml</dc:format>
    <dc:type rdf:resource="http://purl.org/dc/dcmitype/StillImage"/>
   </cc:Work>
  </rdf:RDF>
 </metadata>
 <path d="m0.13229 5.4249v-5.1055l5.1038 5.1055z" fill="#fff" stroke="#fff" stroke-width=".26459px"/>
 <g fill="#aeaeae">
  <path d="m0.26459 0.26451h0.26459v0.26459h-0.26459z"/>
  <path d="m0.52918 0.5291h0.26459v0.26459h-0.26459z"/>
  <path d="m0.79377 0.79369h0.26459v0.26459h-0.26459z"/>
  <path d="m1.0584 1.0583h0.26459v0.26459h-0.26459z"/>
  <path d="m1.3229 1.3229h0.26459v0.26459h-0.26459z"/>
  <path d="m1.5875 1.5875h0.26459v0.26459h-0.26459z"/>
  <path d="m1.8521 1.852h0.26459v0.26459h-0.26459z"/>
  <path d="m2.1167 2.1166h0.26459v0.26459h-0.26459z"/>
  <path d="m2.3813 2.3812h0.26459v0.26459h-0.26459z"/>
  <path d="m2.6459 2.6458h0.26459v0.26459h-0.26459z"/>
  <path d="m2.9105 2.9104h0.26459v0.26459h-0.26459z"/>
  <path d="m3.1751 3.175h0.26459v0.26459h-0.26459z"/>
  <path d="m3.4397 3.4396h0.26459v0.26459h-0.26459z"/>
  <path d="m3.7042 3.7042h0.26459v0.26459h-0.26459z"/>
  <path d="m3.9688 3.9688h0.26459v0.26459h-0.26459z"/>
  <path d="m4.2334 4.2333h0.26459v0.26459h-0.26459z"/>
  <path d="m4.498 4.4979h0.26459v0.26459h-0.26459z"/>
  <path d="m4.7626 4.7625h0.26459v0.26459h-0.26459z"/>
  <path d="m5.0272 5.0271h0.26459v0.26459h-0.26459z"/>
  <path d="m5.2918 5.2917h0.26459v0.26459h-0.26459z"/>
  <path d="m-1.0952e-7 10.583h0.26459v0.26459h-0.26459z"/>
  <path d="m0.26459 10.319h0.26459v0.26459h-0.26459z"/>
  <path d="m0.52918 10.054h0.26459v0.26459h-0.26459z"/>
  <path d="m0.79377 9.7896h0.26459v0.26459h-0.26459z"/>
  <path d="m1.0584 9.5251h0.26459v0.26459h-0.26459z"/>
  <path d="m1.3229 9.2605h0.26459v0.26459h-0.26459z"/>
  <path d="m1.5875 8.9959h0.26459v0.26459h-0.26459z"/>
  <path d="m1.8521 8.7313h0.26459v0.26459h-0.26459z"/>
  <path d="m2.1167 8.4667h0.26459v0.26459h-0.26459z"/>
  <path d="m2.3813 8.2021h0.26459v0.26459h-0.26459z"/>
  <path d="m5.2918 10.583h0.26459v0.26459h-0.26459z"/>
  <path d="m5.0272 10.319h0.26459v0.26459h-0.26459z"/>
  <path d="m4.7626 10.054h0.26459v0.26459h-0.26459z"/>
  <path d="m4.498 9.7897h0.26459v0.26459h-0.26459z"/>
  <path d="m4.2334 9.5251h0.26459v0.26459h-0.26459z"/>
  <path d="m3.9688 9.2605h0.26459v0.26459h-0.26459z"/>
  <path d="m3.7042 8.9959h0.26459v0.26459h-0.26459z"/>
  <path d="m3.4397 8.7314h0.26459v0.26459h-0.26459z"/>
  <path d="m3.1751 8.4668h0.26459v0.26459h-0.26459z"/>
  <path d="m2.9105 8.2022h0.26459v0.26459h-0.26459z"/>
  <path d="m2.6459 7.9376h0.26459v0.26459h-0.26459z"/>
  <path d="m0-7.425e-5h0.26459v5.5564h-0.26459z"/>
 </g>
 <path d="m0.13229 27.913v5.1055l5.1038-5.1055z" fill="#fff" stroke="#fff" stroke-width=".26459px"/>
 <g fill="#aeaeae">
  <path d="m0.26459 33.073h0.26459v-0.26459h-0.26459z"/>
  <path d="m0.52918 32.809h0.26459v-0.26459h-0.26459z"/>
  <path d="m0.79377 32.544h0.26459v-0.26459h-0.26459z"/>
  <path d="m1.0584 32.279h0.26459v-0.26459h-0.26459z"/>
  <path d="m1.3229 32.015h0.26459v-0.26459h-0.26459z"/>
  <path d="m1.5875 31.75h0.26459v-0.26459h-0.26459z"/>
  <path d="m1.8521 31.486h0.26459v-0.26459h-0.26459z"/>
  <path d="m2.1167 31.221h0.26459v-0.26459h-0.26459z"/>
  <path d="m2.3813 30.956h0.26459v-0.26459h-0.26459z"/>
  <path d="m2.6459 30.692h0.26459v-0.26459h-0.26459z"/>
  <path d="m2.9105 30.427h0.26459v-0.26459h-0.26459z"/>
  <path d="m3.1751 30.163h0.26459v-0.26459h-0.26459z"/>
  <path d="m3.4397 29.898h0.26459v-0.26459h-0.26459z"/>
  <path d="m3.7042 29.634h0.26459v-0.26459h-0.26459z"/>
  <path d="m3.9688 29.369h0.26459v-0.26459h-0.26459z"/>
  <path d="m4.2334 29.104h0.26459v-0.26459h-0.26459z"/>
  <path d="m4.498 28.84h0.26459v-0.26459h-0.26459z"/>
  <path d="m4.7626 28.575h0.26459v-0.26459h-0.26459z"/>
  <path d="m5.0272 28.311h0.26459v-0.26459h-0.26459z"/>
  <path d="m5.2918 28.046h0.26459v-0.26459h-0.26459z"/>
  <path d="m0 33.338h0.26459v-5.5564h-0.26459z"/>
 </g>
 <path d="m5.4241 16.538v-5.1055l-5.1038 5.1055z" fill="#fff" stroke="#fff" stroke-width=".26459px"/>
 <g fill="#aeaeae">
  <path d="m5.2918 11.377h-0.26459v0.26459h0.26459z"/>
  <path d="m5.0272 11.642h-0.26459v0.26459h0.26459z"/>
  <path d="m4.7626 11.906h-0.26459v0.26459h0.26459z"/>
  <path d="m4.498 12.171h-0.26459v0.26459h0.26459z"/>
  <path d="m4.2334 12.435h-0.26459v0.26459h0.26459z"/>
  <path d="m3.9688 12.7h-0.26459v0.26459h0.26459z"/>
  <path d="m3.7042 12.965h-0.26459v0.26459h0.26459z"/>
  <path d="m3.4397 13.229h-0.26459v0.26459h0.26459z"/>
  <path d="m3.1751 13.494h-0.26459v0.26459h0.26459z"/>
  <path d="m2.9105 13.758h-0.26459v0.26459h0.26459z"/>
  <path d="m2.6459 14.023h-0.26459v0.26459h0.26459z"/>
  <path d="m2.3813 14.288h-0.26459v0.26459h0.26459z"/>
  <path d="m2.1167 14.552h-0.26459v0.26459h0.26459z"/>
  <path d="m1.8521 14.817h-0.26459v0.26459h0.26459z"/>
  <path d="m1.5875 15.081h-0.26459v0.26459h0.26459z"/>
  <path d="m1.3229 15.346h-0.26459v0.26459h0.26459z"/>
  <path d="m1.0584 15.611h-0.26459v0.26459h0.26459z"/>
  <path d="m0.79377 15.875h-0.26459v0.26459h0.26459z"/>
  <path d="m0.52918 16.14h-0.26459v0.26459h0.26459z"/>
  <path d="m0.26459 16.404h-0.26459v0.26459h0.26459z"/>
  <path d="m5.5564 11.113h-0.26459v5.5564h0.26459z"/>
 </g>
 <path d="m5.4241 16.8v5.1055l-5.1038-5.1055z" fill="#fff" stroke="#fff" stroke-width=".26459px"/>
 <g fill="#aeaeae">
  <path d="m5.2918 21.961h-0.26459v-0.26459h0.26459z"/>
  <path d="m5.0272 21.696h-0.26459v-0.26459h0.26459z"/>
  <path d="m4.7626 21.431h-0.26459v-0.26459h0.26459z"/>
  <path d="m4.498 21.167h-0.26459v-0.26459h0.26459z"/>
  <path d="m4.2334 20.902h-0.26459v-0.26459h0.26459z"/>
  <path d="m3.9688 20.638h-0.26459v-0.26459h0.26459z"/>
  <path d="m3.7042 20.373h-0.26459v-0.26459h0.26459z"/>
  <path d="m3.4397 20.109h-0.26459v-0.26459h0.26459z"/>
  <path d="m3.1751 19.844h-0.26459v-0.26459h0.26459z"/>
  <path d="m2.9105 19.579h-0.26459v-0.26459h0.26459z"/>
  <path d="m2.6459 19.315h-0.26459v-0.26459h0.26459z"/>
  <path d="m2.3813 19.05h-0.26459v-0.26459h0.26459z"/>
  <path d="m2.1167 18.786h-0.26459v-0.26459h0.26459z"/>
  <path d="m1.8521 18.521h-0.26459v-0.26459h0.26459z"/>
  <path d="m1.5875 18.256h-0.26459v-0.26459h0.26459z"/>
  <path d="m1.3229 17.992h-0.26459v-0.26459h0.26459z"/>
  <path d="m1.0584 17.727h-0.26459v-0.26459h0.26459z"/>
  <path d="m0.79377 17.463h-0.26459v-0.26459h0.26459z"/>
  <path d="m0.52918 17.198h-0.26459v-0.26459h0.26459z"/>
  <path d="m0.26459 16.933h-0.26459v-0.26459h0.26459z"/>
  <path d="m5.5564 22.225h-0.26459v-5.5564h0.26459z"/>
 </g>
 <g fill="#fff">
  <path d="m1.1e-7 10.848h5.5564v0.26459h-5.5564z"/>
  <path d="m0.26459 10.583h5.0272v0.26459h-5.0272z"/>
  <path d="m0.52918 10.319h4.498v0.26459h-4.498z"/>
  <path d="m0.79377 10.054h3.9688v0.26459h-3.9688z"/>
  <path d="m1.0584 9.7896h3.4397v0.26459h-3.4397z"/>
  <path d="m1.3229 9.5251h2.9105v0.26459h-2.9105z"/>
  <path d="m1.5875 9.2605h2.3813v0.26459h-2.3813z"/>
  <path d="m1.8521 8.9959h1.8521v0.26459h-1.8521z"/>
  <path d="m2.1167 8.7313h1.3229v0.26459h-1.3229z"/>
  <path d="m2.3813 8.4667h0.79377v0.26459h-0.79377z"/>
  <path d="m2.6459 8.2021h0.26459v0.26459h-0.26459z"/>
 </g>
 <g fill="#aeaeae">
  <path d="m-1.2667e-7 22.754h0.26459v-0.26459h-0.26459z"/>
  <path d="m0.26459 23.019h0.26459v-0.26459h-0.26459z"/>
  <path d="m0.52918 23.284h0.26459v-0.26459h-0.26459z"/>
  <path d="m0.79377 23.548h0.26459v-0.26459h-0.26459z"/>
  <path d="m1.0584 23.813h0.26459v-0.26459h-0.26459z"/>
  <path d="m1.3229 24.077h0.26459v-0.26459h-0.26459z"/>
  <path d="m1.5875 24.342h0.26459v-0.26459h-0.26459z"/>
  <path d="m1.8521 24.607h0.26459v-0.26459h-0.26459z"/>
  <path d="m2.1167 24.871h0.26459v-0.26459h-0.26459z"/>
  <path d="m2.3813 25.136h0.26459v-0.26459h-0.26459z"/>
  <path d="m5.2918 22.754h0.26459v-0.26459h-0.26459z"/>
  <path d="m5.0272 23.019h0.26459v-0.26459h-0.26459z"/>
  <path d="m4.7626 23.284h0.26459v-0.26459h-0.26459z"/>
  <path d="m4.498 23.548h0.26459v-0.26459h-0.26459z"/>
  <path d="m4.2334 23.813h0.26459v-0.26459h-0.26459z"/>
  <path d="m3.9688 24.077h0.26459v-0.26459h-0.26459z"/>
  <path d="m3.7042 24.342h0.26459v-0.26459h-0.26459z"/>
  <path d="m3.4397 24.606h0.26459v-0.26459h-0.26459z"/>
  <path d="m3.1751 24.871h0.26459v-0.26459h-0.26459z"/>
  <path d="m2.9105 25.136h0.26459v-0.26459h-0.26459z"/>
  <path d="m2.6459 25.4h0.26459v-0.26459h-0.26459z"/>
 </g>
 <g fill="#fff">
  <path d="m7.3333e-8 22.49h5.5564v-0.26459h-5.5564z"/>
  <path d="m0.26459 22.754h5.0272v-0.26459h-5.0272z"/>
  <path d="m0.52918 23.019h4.498v-0.26459h-4.498z"/>
  <path d="m0.79377 23.284h3.9688v-0.26459h-3.9688z"/>
  <path d="m1.0584 23.548h3.4397v-0.26459h-3.4397z"/>
  <path d="m1.3229 23.813h2.9105v-0.26459h-2.9105z"/>
  <path d="m1.5875 24.077h2.3813v-0.26459h-2.3813z"/>
  <path d="m1.8521 24.342h1.8521v-0.26459h-1.8521z"/>
  <path d="m2.1167 24.607h1.3229v-0.26459h-1.3229z"/>
  <path d="m2.3813 24.871h0.79377v-0.26459h-0.79377z"/>
  <path d="m2.6459 25.136h0.26459v-0.26459h-0.26459z"/>
 </g>
</svg>
