<?xml version="1.0" encoding="UTF-8"?>
<svg id="bitmap:28-32" width="28" height="224" version="1.1" viewBox="0 0 28 224" xmlns="http://www.w3.org/2000/svg" xmlns:cc="http://creativecommons.org/ns#" xmlns:dc="http://purl.org/dc/elements/1.1/" xmlns:rdf="http://www.w3.org/1999/02/22-rdf-syntax-ns#">
 <metadata>
  <rdf:RDF>
   <cc:Work rdf:about="">
    <dc:format>image/svg+xml</dc:format>
    <dc:type rdf:resource="http://purl.org/dc/dcmitype/StillImage"/>
   </cc:Work>
  </rdf:RDF>
 </metadata>
 <g fill="none" stroke-width="2">
  <g fill="#fff">
   <circle cx="14" cy="14" r="13" stroke="#aeaeae"/>
   <circle cx="14" cy="42" r="13" stroke="#3096fa"/>
   <circle cx="14" cy="70" r="13" stroke="#2979ff"/>
  </g>
  <circle cx="14" cy="98" r="13" stroke="#aeaeae"/>
  <g fill="#fff">
   <circle cx="14" cy="126" r="13" stroke="#aeaeae"/>
   <circle cx="14" cy="154" r="13" stroke="#3096fa"/>
   <circle cx="14" cy="182" r="13" stroke="#2979ff"/>
  </g>
  <circle cx="14" cy="210" r="13" stroke="#aeaeae"/>
 </g>
 <path d="m22 126a8 8 0 0 1-8 8 8 8 0 0 1-8-8 8 8 0 0 1 8-8 8 8 0 0 1 8 8z"/>
 <g transform="matrix(1.0667 0 0 1 1.6667 20.5)" stroke-width=".9375">
  <path d="m19.062 133.5a7.5 8 0 0 1-7.5 8 7.5 8 0 0 1-7.5-8 7.5 8 0 0 1 7.5-8 7.5 8 0 0 1 7.5 8z" fill="#3096fa"/>
  <path d="m19.062 161.5a7.5 8 0 0 1-7.5 8 7.5 8 0 0 1-7.5-8 7.5 8 0 0 1 7.5-8 7.5 8 0 0 1 7.5 8z" fill="#2979ff"/>
  <path d="m19.062 189.5a7.5 8 0 0 1-7.5 8 7.5 8 0 0 1-7.5-8 7.5 8 0 0 1 7.5-8 7.5 8 0 0 1 7.5 8z" fill="#aeaeae"/>
 </g>
</svg>
