<?xml version="1.0" encoding="UTF-8"?>
<svg id="bitmap:20-32" width="20" height="160" version="1.1" viewBox="0 0 5.2915 42.333" xmlns="http://www.w3.org/2000/svg" xmlns:cc="http://creativecommons.org/ns#" xmlns:dc="http://purl.org/dc/elements/1.1/" xmlns:rdf="http://www.w3.org/1999/02/22-rdf-syntax-ns#">
 <metadata>
  <rdf:RDF>
   <cc:Work rdf:about="">
    <dc:format>image/svg+xml</dc:format>
    <dc:type rdf:resource="http://purl.org/dc/dcmitype/StillImage"/>
   </cc:Work>
  </rdf:RDF>
 </metadata>
 <g transform="translate(0 -.26463)" fill="#bdbdbd" stroke-width="0">
  <rect x="3.9687" y="4.2333" width=".79374" height=".79374"/>
  <rect x="2.9103" y="4.2333" width=".79374" height=".79374"/>
  <rect x="1.852" y="4.2333" width=".79374" height=".79374"/>
  <rect x="2.9103" y="3.175" width=".79374" height=".79374"/>
  <rect x="3.9687" y="3.175" width=".79374" height=".79374"/>
  <rect x="3.9687" y="2.1167" width=".79374" height=".79374"/>
  <rect transform="scale(-1,1)" x="-1.3228" y="9.5249" width=".79374" height=".79374"/>
  <rect transform="scale(-1,1)" x="-2.3812" y="9.5249" width=".79374" height=".79374"/>
  <rect transform="scale(-1,1)" x="-3.4394" y="9.5249" width=".79374" height=".79374"/>
  <rect transform="scale(-1,1)" x="-2.3812" y="8.4666" width=".79374" height=".79374"/>
  <rect transform="scale(-1,1)" x="-1.3228" y="8.4666" width=".79374" height=".79374"/>
  <rect transform="scale(-1,1)" x="-1.3228" y="7.4083" width=".79374" height=".79374"/>
  <rect transform="scale(1,-1)" x="3.9686" y="-12.171" width=".79374" height=".79374"/>
  <rect transform="scale(1,-1)" x="2.9103" y="-12.171" width=".79374" height=".79374"/>
  <rect transform="scale(1,-1)" x="1.852" y="-12.171" width=".79374" height=".79374"/>
  <rect transform="scale(1,-1)" x="2.9103" y="-13.229" width=".79374" height=".79374"/>
  <rect transform="scale(1,-1)" x="3.9686" y="-13.229" width=".79374" height=".79374"/>
  <rect transform="scale(1,-1)" x="3.9686" y="-14.287" width=".79374" height=".79374"/>
  <rect transform="scale(-1)" x="-1.3228" y="-17.462" width=".79374" height=".79374"/>
  <rect transform="scale(-1)" x="-2.3812" y="-17.462" width=".79374" height=".79374"/>
  <rect transform="scale(-1)" x="-3.4394" y="-17.462" width=".79374" height=".79374"/>
  <rect transform="scale(-1)" x="-2.3812" y="-18.521" width=".79374" height=".79374"/>
  <rect transform="scale(-1)" x="-1.3228" y="-18.521" width=".79374" height=".79374"/>
  <rect transform="scale(-1)" x="-1.3228" y="-19.579" width=".79374" height=".79374"/>
  <rect x="3.9687" y="25.4" width=".79374" height=".79374"/>
  <rect x="2.9104" y="25.4" width=".79374" height=".79374"/>
  <rect x="1.8521" y="25.4" width=".79374" height=".79374"/>
  <rect x="2.9104" y="24.341" width=".79374" height=".79374"/>
  <rect x="3.9687" y="24.341" width=".79374" height=".79374"/>
  <rect x="3.9687" y="23.283" width=".79374" height=".79374"/>
  <rect transform="scale(-1,1)" x="-1.3229" y="30.691" width=".79374" height=".79374"/>
  <rect transform="scale(-1,1)" x="-2.3812" y="30.691" width=".79374" height=".79374"/>
  <rect transform="scale(-1,1)" x="-3.4395" y="30.691" width=".79374" height=".79374"/>
  <rect transform="scale(-1,1)" x="-2.3812" y="29.633" width=".79374" height=".79374"/>
  <rect transform="scale(-1,1)" x="-1.3229" y="29.633" width=".79374" height=".79374"/>
  <rect transform="scale(-1,1)" x="-1.3229" y="28.575" width=".79374" height=".79374"/>
  <rect transform="scale(1,-1)" x="3.9686" y="-33.337" width=".79374" height=".79374"/>
  <rect transform="scale(1,-1)" x="2.9103" y="-33.337" width=".79374" height=".79374"/>
  <rect transform="scale(1,-1)" x="1.852" y="-33.337" width=".79374" height=".79374"/>
  <rect transform="scale(1,-1)" x="2.9103" y="-34.395" width=".79374" height=".79374"/>
  <rect transform="scale(1,-1)" x="3.9686" y="-34.395" width=".79374" height=".79374"/>
  <rect transform="scale(1,-1)" x="3.9686" y="-35.454" width=".79374" height=".79374"/>
  <rect transform="scale(-1)" x="-1.3229" y="-38.629" width=".79374" height=".79374"/>
  <rect transform="scale(-1)" x="-2.3812" y="-38.629" width=".79374" height=".79374"/>
  <rect transform="scale(-1)" x="-3.4395" y="-38.629" width=".79374" height=".79374"/>
  <rect transform="scale(-1)" x="-2.3812" y="-39.687" width=".79374" height=".79374"/>
  <rect transform="scale(-1)" x="-1.3229" y="-39.687" width=".79374" height=".79374"/>
  <rect transform="scale(-1)" x="-1.3229" y="-40.745" width=".79374" height=".79374"/>
 </g>
</svg>
