<?xml version="1.0" encoding="UTF-8"?>
<svg id="bitmap:21-32" width="21" height="72" version="1.1" viewBox="0 0 5.5561 19.05" xmlns="http://www.w3.org/2000/svg" xmlns:cc="http://creativecommons.org/ns#" xmlns:dc="http://purl.org/dc/elements/1.1/" xmlns:rdf="http://www.w3.org/1999/02/22-rdf-syntax-ns#">
 <metadata>
  <rdf:RDF>
   <cc:Work rdf:about="">
    <dc:format>image/svg+xml</dc:format>
    <dc:type rdf:resource="http://purl.org/dc/dcmitype/StillImage"/>
   </cc:Work>
  </rdf:RDF>
 </metadata>
 <g stroke-width=".26458">
  <path d="m2.7913 1.3437 1.9711 2.0654-0.2816 0.29504-1.9711-2.0654z"/>
  <path d="m0.79369 3.3883 1.9711-2.0654 0.2816 0.29504-1.9711 2.0654z"/>
  <path d="m2.7913 6.1064 1.9711 2.0653-0.2816 0.29502-1.9711-2.0653z" fill="#3096fa"/>
  <path d="m0.79369 8.1507 1.9711-2.0653 0.2816 0.29502-1.9711 2.0653z" fill="#3096fa"/>
  <path d="m2.7913 10.869 1.9711 2.0652-0.2816 0.295-1.9711-2.0652z" fill="#fff"/>
  <path d="m0.79369 12.913 1.9711-2.0652 0.2816 0.295-1.9711 2.0652z" fill="#fff"/>
  <path d="m2.7913 15.632 1.9711 2.0652-0.2816 0.295-1.9711-2.0652z" fill="#aeaeae"/>
  <path d="m0.79369 17.676 1.9711-2.0652 0.2816 0.295-1.9711 2.0652z" fill="#aeaeae"/>
 </g>
</svg>
