<?xml version="1.0" encoding="UTF-8"?>
<svg id="bitmap:31-32" width="31" height="248" version="1.1" viewBox="0 0 31 248" xmlns="http://www.w3.org/2000/svg" xmlns:cc="http://creativecommons.org/ns#" xmlns:dc="http://purl.org/dc/elements/1.1/" xmlns:rdf="http://www.w3.org/1999/02/22-rdf-syntax-ns#">
 <metadata>
  <rdf:RDF>
   <cc:Work rdf:about="">
    <dc:format>image/svg+xml</dc:format>
    <dc:type rdf:resource="http://purl.org/dc/dcmitype/StillImage"/>
   </cc:Work>
  </rdf:RDF>
 </metadata>
 <g fill="none" stroke-width="2">
  <g fill="#fff">
   <circle cx="15.5" cy="15.5" r="14.5" stroke="#aeaeae"/>
   <circle cx="15.5" cy="46.5" r="14.5" stroke="#3096fa"/>
   <circle cx="15.5" cy="77.5" r="14.5" stroke="#2979ff"/>
  </g>
  <circle cx="15.5" cy="108.5" r="14.5" stroke="#aeaeae"/>
  <g fill="#fff">
   <circle cx="15.5" cy="139.5" r="14.5" stroke="#aeaeae"/>
   <circle cx="15.5" cy="170.5" r="14.5" stroke="#3096fa"/>
   <circle cx="15.5" cy="201.5" r="14.5" stroke="#2979ff"/>
  </g>
  <circle cx="15.5" cy="232.5" r="14.5" stroke="#aeaeae"/>
 </g>
 <path d="m25 139.5a9.5 9.5 0 0 1-9.5 9.5 9.5 9.5 0 0 1-9.5-9.5 9.5 9.5 0 0 1 9.5-9.5 9.5 9.5 0 0 1 9.5 9.5z"/>
 <g transform="matrix(1.0667 0 0 1 3.6666 40.5)" stroke-width=".9375">
  <path d="m19.999 130a8.906 9.5 0 0 1-8.906 9.5 8.906 9.5 0 0 1-8.906-9.5 8.906 9.5 0 0 1 8.906-9.5 8.906 9.5 0 0 1 8.906 9.5z" fill="#3096fa"/>
  <path d="m19.999 161a8.906 9.5 0 0 1-8.906 9.5 8.906 9.5 0 0 1-8.906-9.5 8.906 9.5 0 0 1 8.906-9.5 8.906 9.5 0 0 1 8.906 9.5z" fill="#2979ff"/>
  <path d="m19.999 192a8.906 9.5 0 0 1-8.906 9.5 8.906 9.5 0 0 1-8.906-9.5 8.906 9.5 0 0 1 8.906-9.5 8.906 9.5 0 0 1 8.906 9.5z" fill="#aeaeae"/>
 </g>
</svg>
