<?xml version="1.0" encoding="UTF-8"?>
<svg id="bitmap:11-32" width="11" height="36" version="1.1" viewBox="0 0 2.9104 9.525" xmlns="http://www.w3.org/2000/svg" xmlns:cc="http://creativecommons.org/ns#" xmlns:dc="http://purl.org/dc/elements/1.1/" xmlns:rdf="http://www.w3.org/1999/02/22-rdf-syntax-ns#">
 <metadata>
  <rdf:RDF>
   <cc:Work rdf:about="">
    <dc:format>image/svg+xml</dc:format>
    <dc:type rdf:resource="http://purl.org/dc/dcmitype/StillImage"/>
   </cc:Work>
  </rdf:RDF>
 </metadata>
 <g stroke-width=".26458">
  <path d="m1.4632 0.27619 1.1827 1.1474-0.16896 0.16391-1.1827-1.1474z"/>
  <path d="m0.26459 1.412 1.1827-1.1474 0.16896 0.16391-1.1827 1.1474z"/>
  <path d="m1.4632 2.6574 1.1827 1.1475-0.16896 0.16392-1.1827-1.1475z" fill="#3096fa"/>
  <path d="m0.26459 3.7933 1.1827-1.1475 0.16896 0.16392-1.1827 1.1475z" fill="#3096fa"/>
  <path d="m1.4632 5.0386 1.1827 1.1475-0.16896 0.16392-1.1827-1.1475z" fill="#fff"/>
  <path d="m0.26459 6.1746 1.1827-1.1475 0.16896 0.16392-1.1827 1.1475z" fill="#fff"/>
  <path d="m1.4632 7.4199 1.1827 1.1475-0.16896 0.16392-1.1827-1.1475z" fill="#aeaeae"/>
  <path d="m0.26459 8.5558 1.1827-1.1475 0.16896 0.16392-1.1827 1.1475z" fill="#aeaeae"/>
 </g>
</svg>
