<?xml version="1.0" encoding="UTF-8"?>
<svg id="bitmap:18-32" width="18" height="60" version="1.1" viewBox="0 0 4.7624 15.875" xmlns="http://www.w3.org/2000/svg" xmlns:cc="http://creativecommons.org/ns#" xmlns:dc="http://purl.org/dc/elements/1.1/" xmlns:rdf="http://www.w3.org/1999/02/22-rdf-syntax-ns#">
 <metadata>
  <rdf:RDF>
   <cc:Work rdf:about="">
    <dc:format>image/svg+xml</dc:format>
    <dc:type rdf:resource="http://purl.org/dc/dcmitype/StillImage"/>
   </cc:Work>
  </rdf:RDF>
 </metadata>
 <g stroke-width=".26458">
  <path d="m2.3918 2.8942 1.5769-1.6063-0.22528-0.22946-1.5769 1.6063z"/>
  <path d="m0.79371 1.3041 1.5769 1.6063 0.22528-0.22946-1.5769-1.6063z"/>
  <path d="m2.3918 6.8629 1.5769-1.6063-0.22528-0.22946-1.5769 1.6063z" fill="#3096fa"/>
  <path d="m0.79371 5.2729 1.5769 1.6063 0.22528-0.22946-1.5769-1.6063z" fill="#3096fa"/>
  <path d="m2.3918 10.831 1.5769-1.6065-0.22528-0.22948-1.5769 1.6065z" fill="#fff"/>
  <path d="m0.79371 9.2414 1.5769 1.6065 0.22528-0.22948-1.5769-1.6065z" fill="#fff"/>
  <path d="m2.3918 14.8 1.5769-1.6064-0.22528-0.22947-1.5769 1.6064z" fill="#aeaeae"/>
  <path d="m0.79371 13.21 1.5769 1.6064 0.22528-0.22947-1.5769-1.6064z" fill="#aeaeae"/>
 </g>
</svg>
