<?xml version="1.0" encoding="UTF-8"?>
<svg id="bitmap:64-32" width="64" height="256" version="1.1" viewBox="0 0 16.933 67.732" xmlns="http://www.w3.org/2000/svg">
 <path d="m6.5423 11.195-2.5254-2.6536-0.84186 0.88461 3.3674 3.5382 7.216-7.5821-0.84186-0.88461z" stroke-width=".26458"/>
 <path d="m6.5423 27.864-2.5254-2.6536-0.84186 0.88461 3.3674 3.5382 7.216-7.5821-0.84186-0.88461z" fill="#aeaeae" stroke-width=".26458"/>
 <path d="m11.642 59.266a3.175 3.175 0 0 1-3.175 3.175 3.175 3.175 0 0 1-3.175-3.175 3.175 3.175 0 0 1 3.175-3.175 3.175 3.175 0 0 1 3.175 3.175z" fill="#aeaeae" stroke-width=".26458"/>
 <path d="m11.642 42.333a3.175 3.175 0 0 1-3.175 3.175 3.175 3.175 0 0 1-3.175-3.175 3.175 3.175 0 0 1 3.175-3.175 3.175 3.175 0 0 1 3.175 3.175z" stroke-width=".26458"/>
</svg>
